<svg width="375" height="162" viewBox="0 0 375 162" fill="none" xmlns="http://www.w3.org/2000/svg">
<g opacity="0.28">
<path d="M7.30005 55.4395C8.60005 55.5395 10 55.6395 11.3 55.7395C11.7 55.6395 12.2 55.5395 12.6 55.4395C11.1 55.3395 9.50005 55.3395 8.00005 55.2395C7.80005 55.3395 7.50005 55.4395 7.30005 55.4395Z" fill="white"/>
<path d="M1.5 56.3394C2.9 56.5394 4.3 56.6394 5.7 56.8394C6.4 56.7394 7.1 56.5394 7.8 56.4394C6.3 56.3394 4.7 56.2394 3.2 56.0394C2.6 56.1394 2 56.2394 1.5 56.3394Z" fill="white"/>
<path d="M0.0999756 57.8395C1.09998 57.6395 1.99998 57.5395 2.89998 57.3395C1.89998 57.2395 0.999976 57.0395 0.0999756 56.9395V57.8395Z" fill="white"/>
<path d="M98 36.5394C76.7999 41.0394 55.6 45.5394 34.2 49.7394C49.4 47.2394 64.5999 44.6394 79.6999 41.9394C85.8999 40.6394 92.1999 39.3394 98.3999 38.0394C190.9 18.4394 281.6 -0.760558 374.6 1.83944V0.239442C281.8 -2.36056 191.9 16.6394 98 36.5394Z" fill="white"/>
<path d="M0.0999756 56.1395C0.199976 56.1395 0.299976 56.1395 0.399976 56.1395C0.799976 56.0395 1.29998 55.9395 1.69998 55.9395C1.19998 55.9395 0.599976 55.8395 0.0999756 55.8395V56.1395Z" fill="white"/>
<path d="M34.2 49.7395C30.9 50.2395 27.7 50.8395 24.4 51.3395C26 51.1395 27.7 50.9395 29.3 50.7395C30.9 50.3395 32.5 50.0395 34.2 49.7395Z" fill="white"/>
<path d="M102.8 37.8394C95.1 39.2394 87.3999 40.5394 79.6999 41.9394C70.3999 43.9394 61 45.8394 51.7 47.7394C56.6 47.0394 61.5 46.4394 66.3 45.7394C78.6 43.6394 90.8999 41.4394 103.1 39.2394C194.3 23.0394 283.5 7.13941 374.7 12.0394V10.6394C283.7 5.73941 195.2 21.4394 102.8 37.8394Z" fill="white"/>
<path d="M5.30005 55.2394C5.40005 55.2394 5.50005 55.2394 5.60005 55.1394C5.00005 55.1394 4.40005 55.1394 3.80005 55.0394C4.30005 55.2394 4.80005 55.2394 5.30005 55.2394Z" fill="white"/>
<path d="M51.5999 47.8394C60.9999 45.9394 70.2999 43.9394 79.5999 42.0394C64.4999 44.7394 49.3999 47.3394 34.0999 49.8394C32.4999 50.1394 30.8 50.4394 29.2 50.8394C36.7 49.7394 44.1999 48.8394 51.5999 47.8394Z" fill="white"/>
<path d="M0.400024 56.1395C0.700024 56.1395 1.10002 56.2395 1.40002 56.2395C2.00002 56.2395 2.60002 56.1395 3.20002 56.0395C2.70002 56.0395 2.20002 55.9395 1.80002 55.9395C1.30002 56.0395 0.900024 56.1395 0.400024 56.1395Z" fill="white"/>
<path d="M5.30005 55.2395C6.00005 55.3395 6.60005 55.3395 7.30005 55.4395C7.50005 55.4395 7.80005 55.3395 8.00005 55.3395C7.20005 55.3395 6.40005 55.2395 5.50005 55.2395C5.50005 55.2395 5.40005 55.2395 5.30005 55.2395Z" fill="white"/>
<path d="M108 39.8394C94.1 41.8394 80.2 43.8394 66.2 45.7394C57.6 47.2394 49 48.7394 40.3 50.1394C44.7 49.7394 49.1 49.3394 53.5 48.8394C71.8 46.3394 90.0001 43.7394 108.1 41.1394C197.7 28.2394 285.3 15.6394 374.5 22.7394V21.3394C285.3 14.3394 197.6 26.9394 108 39.8394Z" fill="white"/>
<path d="M24.4 51.3395C21.4 51.7395 18.4 52.0395 15.3 52.4395C16.8 52.3395 18.3 52.2395 19.8 52.0395C21.3 51.7395 22.9 51.5395 24.4 51.3395Z" fill="white"/>
<path d="M40.3 50.2395C48.9 48.8395 57.6 47.3395 66.2 45.8395C61.3 46.5395 56.4 47.1395 51.6 47.8395C47.5 48.6395 43.4 49.5395 39.3 50.3395C39.6 50.2395 40 50.2395 40.3 50.2395Z" fill="white"/>
<path d="M24.6 51.6395C26.2 51.3395 27.7 51.0395 29.3 50.7395C27.7 50.9395 26 51.1395 24.4 51.3395C22.9 51.5395 21.4 51.8395 19.9 52.0395C21.4 51.9395 23 51.7395 24.6 51.6395Z" fill="white"/>
<path d="M24.6 51.6395C29.5 51.2395 34.4 50.7395 39.3 50.3395C43.4 49.5395 47.5 48.6395 51.6 47.8395C44.2 48.8395 36.7 49.8395 29.3 50.7395C27.7 51.0395 26.1 51.3395 24.6 51.6395Z" fill="white"/>
<path d="M113.7 42.5394C93.7 44.7394 73.7 46.9394 53.5 48.9394C46.4 49.9394 39.2 50.8394 32.1 51.7394C31.6 51.8394 31.1 51.9394 30.6 52.0394C33.9 51.8394 37.2 51.6394 40.5 51.5394C65.1 49.2394 89.5 46.5394 113.8 43.8394C201.6 34.1394 287.5 24.7394 374.5 33.8394V32.5394C287.5 23.3394 201.6 32.8394 113.7 42.5394Z" fill="white"/>
<path d="M15.3 52.4395C12.1 52.7395 8.79998 52.9395 5.59998 53.2395C7.19998 53.1395 8.79998 53.1395 10.3 53.0395C12 52.7395 13.6 52.6395 15.3 52.4395Z" fill="white"/>
<path d="M30.6 52.0395C31.1 51.9395 31.6 51.8395 32.1 51.7395C31.1 51.8395 30.1 52.0395 29.1 52.1395C29.6 52.0395 30.1 52.0395 30.6 52.0395Z" fill="white"/>
<path d="M32.1 51.7395C39.3 50.8395 46.4 49.9395 53.5 48.9395C49.1 49.3395 44.7 49.8395 40.3 50.2395C39.1 50.4395 38 50.6395 36.8 50.8395C35.3 51.0395 33.7 51.4395 32.1 51.7395Z" fill="white"/>
<path d="M15 52.7395C16.6 52.5395 18.2 52.2395 19.9 51.9395C18.4 52.0395 16.9 52.2395 15.4 52.3395C13.7 52.5395 12.1 52.7395 10.4 52.9395C11.9 52.9395 13.4 52.8395 15 52.7395Z" fill="white"/>
<path d="M28.5 52.1395C28.7 52.1395 28.9 52.1395 29.1 52.1395C30.1 52.0395 31.1 51.8395 32.1 51.7395C33.7 51.4395 35.3 51.1395 36.8 50.8395C34.1 51.2395 31.3 51.6395 28.5 52.1395Z" fill="white"/>
<path d="M24.6 51.6394C23 51.7394 21.5 51.9394 19.9 52.0394C18.3 52.3394 16.7 52.5394 15 52.8394C16.6 52.7394 18.1 52.7394 19.7 52.6394C21.3 52.2394 22.9 51.9394 24.6 51.6394Z" fill="white"/>
<path d="M36.9 50.7394C38.1 50.5394 39.2 50.3394 40.4 50.1394C40 50.1394 39.7 50.2394 39.3 50.2394C38.5 50.4394 37.7 50.6394 36.9 50.7394Z" fill="white"/>
<path d="M28.5 52.1395C31.3 51.7395 34.1 51.2395 36.8 50.7395C37.6 50.5395 38.4 50.4395 39.2 50.2395C34.3 50.7395 29.4 51.1395 24.5 51.5395C22.9 51.8395 21.2 52.1395 19.6 52.4395C22.6 52.4395 25.6 52.2395 28.5 52.1395Z" fill="white"/>
<path d="M0.799976 53.5394C2.39998 53.4394 3.99998 53.3394 5.59998 53.1394C3.79998 53.2394 1.89998 53.2394 0.0999756 53.3394V53.5394C0.299976 53.5394 0.599976 53.5394 0.799976 53.5394Z" fill="white"/>
<path d="M120 45.9394C93.7 47.9394 67.2 49.9394 40.5 51.5394C36.1 51.9394 31.6 52.3394 27.2 52.7394C25.9 52.9394 24.7 53.2394 23.4 53.4394C24.9 53.4394 26.5 53.4394 28 53.3394C58.9 51.7394 89.6 49.4394 120 47.0394C205.9 40.4394 289.8 34.0394 374.5 45.0394V43.8394C289.9 32.9394 205.9 39.3394 120 45.9394Z" fill="white"/>
<path d="M20.2 53.4395C21.3 53.4395 22.3 53.4395 23.4 53.4395C24.7 53.2395 25.9 52.9395 27.2 52.7395C25.6 52.8395 23.9999 53.0395 22.4 53.1395C21.6999 53.2395 21 53.3395 20.2 53.4395Z" fill="white"/>
<path d="M20.2 53.4394C20.9 53.3394 21.7 53.2394 22.4 53.1394C20.9 53.2394 19.5 53.3394 18 53.5394C18.8 53.4394 19.5 53.4394 20.2 53.4394Z" fill="white"/>
<path d="M40.6 51.4395C37.3 51.6395 34.0001 51.8395 30.7001 51.9395C29.6001 52.1395 28.4 52.3395 27.3 52.6395C31.7 52.3395 36.1 51.8395 40.6 51.4395Z" fill="white"/>
<path d="M5.50005 53.5394C7.10005 53.3394 8.70005 53.1394 10.3 53.0394C8.70005 53.1394 7.10005 53.1394 5.60005 53.2394C4.00005 53.3394 2.40005 53.4394 0.800049 53.6394C2.40005 53.5394 3.90005 53.5394 5.50005 53.5394Z" fill="white"/>
<path d="M27.3 52.3394C25.7 52.6394 24.1 52.8394 22.4 53.1394C24 53.0394 25.6 52.8394 27.2 52.7394C28.3 52.5394 29.5 52.3394 30.6 52.0394C30.1 52.0394 29.6 52.1394 29.1 52.1394C28.5 52.1394 27.9 52.2394 27.3 52.3394Z" fill="white"/>
<path d="M18 53.4395C19.5 53.3395 20.9 53.2395 22.4 53.0395C24 52.7395 25.6 52.5395 27.3 52.2395C24.2 52.6395 21 53.0395 17.9 53.3395C17.9 53.4395 18 53.4395 18 53.4395Z" fill="white"/>
<path d="M15 52.7395C13.4 52.8395 11.9 52.8395 10.3 52.9395C8.7 53.1395 7.1 53.3395 5.5 53.4395C7.1 53.4395 8.6 53.4395 10.2 53.4395C11.8 53.2395 13.4 53.0395 15 52.7395Z" fill="white"/>
<path d="M29.1 52.1394C28.9 52.1394 28.7 52.1394 28.5 52.1394C28.1 52.2394 27.7 52.2394 27.2 52.3394C27.9 52.2394 28.5 52.1394 29.1 52.1394Z" fill="white"/>
<path d="M14.8 53.5394C16.4 53.2394 18 52.9394 19.7 52.6394C18.1 52.7394 16.6 52.7394 15 52.8394C13.4 53.0394 11.8 53.3394 10.2 53.5394C11.7 53.5394 13.3 53.5394 14.8 53.5394Z" fill="white"/>
<path d="M14.8 53.5395C15.8 53.5395 16.8 53.5395 17.9 53.5395C21 53.1395 24.2 52.7395 27.3 52.4395C27.7 52.3395 28.1 52.3395 28.6 52.2395C25.6 52.4395 22.7 52.5395 19.7 52.6395C18 52.8395 16.4 53.1395 14.8 53.5395Z" fill="white"/>
<path d="M126.9 50.0395C94.2 51.4395 61.3 52.8395 28.1 53.3395C26.2 53.4395 24.3 53.5395 22.4 53.6395C20.8 53.9395 19.1 54.2395 17.5 54.5395C54.4 54.2395 90.8 52.6395 127 51.1395C210.7 47.5395 292.6 44.0395 374.6 56.7395V55.6395C292.5 42.9395 210.6 46.4395 126.9 50.0395Z" fill="white"/>
<path d="M13.4 54.5395C14.4 54.5395 15.4 54.6395 16.4 54.6395C16.7 54.6395 17 54.6395 17.3 54.6395C18.9 54.3395 20.6 54.0395 22.2 53.7395C20.6 53.8395 19 53.9395 17.4 53.9395C16.2 54.0395 14.8 54.3395 13.4 54.5395Z" fill="white"/>
<path d="M10.2 54.3395C11.3 54.3395 12.4 54.4395 13.5 54.4395C14.9 54.2395 16.2 54.0395 17.6 53.8395C16 53.9395 14.4 54.0395 12.8 54.0395C11.9 54.1395 11.1 54.2395 10.2 54.3395Z" fill="white"/>
<path d="M10.1 54.3394C10.5 54.2394 11 54.1394 11.4 54.0394C10.2 54.0394 8.99995 54.1394 7.89995 54.1394C7.79995 54.1394 7.79995 54.1394 7.69995 54.1394C8.49995 54.3394 9.29995 54.3394 10.1 54.3394Z" fill="white"/>
<path d="M10.1 54.3394C10.1 54.3394 10.2 54.3394 10.1 54.3394C11 54.2394 11.9 54.1394 12.8 54.0394C12.3 54.0394 11.9 54.0394 11.4 54.1394C11 54.2394 10.6 54.3394 10.1 54.3394Z" fill="white"/>
<path d="M28.1 53.3395C26.6 53.3395 25 53.3395 23.5 53.4395C23.1 53.5395 22.8 53.5395 22.4 53.6395C24.2 53.5395 26.2 53.4395 28.1 53.3395Z" fill="white"/>
<path d="M0.799976 53.5394C0.599976 53.5394 0.299976 53.5394 0.0999756 53.5394V53.6394C0.299976 53.5394 0.599976 53.5394 0.799976 53.5394Z" fill="white"/>
<path d="M17.5 53.8395C19.1 53.7395 20.7 53.6395 22.3 53.6395C22.7 53.5395 23 53.5395 23.4 53.4395C22.3 53.4395 21.3 53.4395 20.2 53.4395C19.3 53.5395 18.4 53.7395 17.5 53.8395Z" fill="white"/>
<path d="M17.6 53.5394C16 53.7394 14.4 53.9394 12.9 54.1394C14.5 54.0394 16 54.0394 17.6 53.9394C18.5 53.8394 19.4 53.6394 20.3 53.5394C19.6 53.5394 18.8 53.5394 18.1 53.5394C17.9 53.4394 17.7 53.5394 17.6 53.5394Z" fill="white"/>
<path d="M12.6 53.9395C11 54.0395 9.50002 54.1395 7.90002 54.2395C9.10002 54.2395 10.3 54.1395 11.4 54.1395C11.8 54.0395 12.2 53.9395 12.6 53.9395Z" fill="white"/>
<path d="M11.5 54.1395C12 54.1395 12.4 54.1395 12.9 54.0395C14.5 53.8395 16.1 53.6395 17.6 53.4395C15.9 53.5395 14.3 53.7395 12.6 53.8395C12.2 53.9395 11.8 54.0395 11.5 54.1395Z" fill="white"/>
<path d="M0.0999756 53.9395C0.399976 53.9395 0.699976 53.9395 0.999976 53.9395C2.49998 53.7395 3.99998 53.6395 5.49998 53.4395C3.89998 53.4395 2.39998 53.4395 0.799976 53.4395C0.599976 53.4395 0.299976 53.4395 0.0999756 53.5395V53.9395Z" fill="white"/>
<path d="M18 53.4395H17.9C17.8 53.4395 17.7 53.4395 17.6 53.4395C17.7 53.5395 17.9 53.4395 18 53.4395Z" fill="white"/>
<path d="M5.5 54.2394C7.1 54.0394 8.6 53.7394 10.2 53.5394C8.6 53.5394 7.1 53.5394 5.5 53.5394C4 53.7394 2.5 53.8394 1 54.0394C2.5 54.1394 4 54.1394 5.5 54.2394Z" fill="white"/>
<path d="M7.9 54.2395C9.5 54.1395 11 54.0395 12.6 53.8395C13.3 53.7395 14.1 53.5395 14.8 53.4395C13.3 53.4395 11.7 53.4395 10.2 53.4395C8.6 53.6395 7.1 53.9395 5.5 54.1395C6.2 54.1395 6.9 54.1395 7.5 54.2395C7.7 54.2395 7.8 54.2395 7.9 54.2395Z" fill="white"/>
<path d="M17.6 53.5394C17.7 53.5394 17.8 53.5394 17.9 53.5394C16.9 53.5394 15.9 53.5394 14.8 53.5394C14.1 53.6394 13.3 53.8394 12.6 53.9394C14.3 53.7394 15.9 53.6394 17.6 53.5394Z" fill="white"/>
<path d="M134.3 55.1394C95.9 55.5394 56.9 55.8394 17.2 54.6394C15.7 54.9394 14.1 55.2394 12.6 55.5394C53.8 56.9394 94.4 56.5394 134.3 56.1394C215.7 55.3394 295.2 54.6394 374.5 68.8394V67.8394C295.2 53.5394 215.7 54.3394 134.3 55.1394Z" fill="white"/>
<path d="M12.7 54.6394C11.1 54.8394 9.6 55.0394 8 55.3394C9.5 55.4394 11.1 55.4394 12.6 55.5394C14.1 55.2394 15.7 54.9394 17.2 54.6394C16.9 54.6394 16.7 54.6394 16.4 54.6394C15.2 54.6394 14 54.6394 12.7 54.6394Z" fill="white"/>
<path d="M3.40002 55.1394C3.50002 55.1394 3.60002 55.1394 3.80002 55.1394C4.40002 55.1394 5.00002 55.1394 5.60002 55.2394C6.70002 55.0394 7.80002 54.8394 8.90002 54.6394C8.60002 54.6394 8.30002 54.6394 8.00002 54.6394C6.40002 54.8394 4.90002 54.9394 3.40002 55.1394Z" fill="white"/>
<path d="M5.59998 55.2394C6.39998 55.2394 7.19998 55.3394 8.09998 55.3394C9.69998 55.1394 11.2 54.8394 12.8 54.6394C11.5 54.6394 10.2 54.6394 8.89998 54.6394C7.69998 54.8394 6.59998 55.0394 5.59998 55.2394Z" fill="white"/>
<path d="M0.0999756 54.8395C0.299976 54.8395 0.499976 54.8395 0.699976 54.9395C1.19998 54.8395 1.69998 54.8395 2.19998 54.7395C1.49998 54.7395 0.799976 54.8395 0.0999756 54.8395Z" fill="white"/>
<path d="M0.699951 54.9394C1.59995 55.0394 2.49995 55.0394 3.39995 55.1394C4.89995 54.9394 6.39995 54.8394 7.99995 54.6394C6.39995 54.6394 4.89995 54.6394 3.29995 54.6394C2.99995 54.6394 2.59995 54.6394 2.29995 54.7394C1.69995 54.7394 1.19995 54.8394 0.699951 54.9394Z" fill="white"/>
<path d="M2.19998 54.7394C2.39998 54.7394 2.49998 54.6394 2.69998 54.6394C1.79998 54.6394 0.899976 54.6394 0.0999756 54.6394V54.8394C0.799976 54.8394 1.49998 54.7394 2.19998 54.7394Z" fill="white"/>
<path d="M2.19995 54.7394C2.49995 54.7394 2.89995 54.7394 3.19995 54.6394C2.99995 54.6394 2.89995 54.6394 2.69995 54.6394C2.59995 54.6394 2.39995 54.6394 2.19995 54.7394Z" fill="white"/>
<path d="M16.5 54.6394C15.5 54.6394 14.5 54.5394 13.5 54.5394C13.3 54.5394 13 54.6394 12.8 54.6394C14 54.6394 15.2 54.6394 16.5 54.6394Z" fill="white"/>
<path d="M8.8 54.6395C9.2 54.5395 9.6 54.5395 10 54.4395C9.3 54.5395 8.6 54.5395 8 54.6395C8.2 54.6395 8.5 54.6395 8.8 54.6395Z" fill="white"/>
<path d="M10 54.4395C9.60005 54.5395 9.20005 54.6395 8.80005 54.6395C10.1 54.6395 11.4 54.6395 12.7 54.6395C12.9 54.6395 13.2 54.5395 13.4 54.5395C12.3 54.5395 11.2 54.4395 10.1 54.4395C10.1 54.4395 10.1 54.4395 10 54.4395Z" fill="white"/>
<path d="M7.70005 54.3395C6.20005 54.4395 4.70005 54.5395 3.30005 54.6395C4.90005 54.6395 6.40005 54.6395 8.00005 54.6395C8.70005 54.5395 9.40005 54.5395 10 54.4395H10.1C9.30005 54.3395 8.50005 54.3395 7.70005 54.3395Z" fill="white"/>
<path d="M10 54.4395C10.1 54.4395 10.1 54.4395 10.2 54.4395C10.2 54.4395 10.2 54.4395 10.1 54.4395C10.1 54.3395 10 54.4395 10 54.4395Z" fill="white"/>
<path d="M2.7 54.6395C3.2 54.5395 3.7 54.5395 4.1 54.4395C2.7 54.5395 1.4 54.5395 0 54.5395V54.6395C1 54.6395 1.8 54.6395 2.7 54.6395Z" fill="white"/>
<path d="M3.19995 54.6395C4.69995 54.5395 6.19995 54.4395 7.59995 54.3395H7.49995C6.39995 54.3395 5.19995 54.4395 4.09995 54.4395C3.59995 54.5395 3.09995 54.5395 2.69995 54.6395C2.89995 54.6395 3.09995 54.6395 3.19995 54.6395Z" fill="white"/>
<path d="M0.999976 54.0394C0.699976 54.0394 0.399976 54.0394 0.0999756 54.0394V54.1394C0.399976 54.1394 0.699976 54.0394 0.999976 54.0394Z" fill="white"/>
<path d="M0.0999756 54.5394C1.49998 54.5394 2.79998 54.4394 4.19998 54.4394C4.69998 54.3394 5.09998 54.3394 5.59998 54.2394C3.99998 54.1394 2.49998 54.1394 0.999976 54.0394C0.699976 54.0394 0.399976 54.1394 0.0999756 54.1394V54.5394Z" fill="white"/>
<path d="M7.59995 54.2394C6.89995 54.2394 6.19995 54.2394 5.59995 54.1394C5.09995 54.2394 4.69995 54.2394 4.19995 54.3394C5.29995 54.3394 6.39995 54.3394 7.59995 54.2394Z" fill="white"/>
<path d="M11.3 55.7395C10.1 55.9395 8.90005 56.1395 7.80005 56.4395C53.5 59.9395 98.3 60.9395 142.4 62.0395C221.2 63.8395 298.2 65.7395 374.6 81.2395V80.2395C298.2 64.7395 221.2 62.8395 142.4 61.0395C99.4 60.0395 55.8 59.0395 11.3 55.7395Z" fill="white"/>
<path d="M3.19995 56.0395C4.69995 56.1395 6.29995 56.2395 7.79995 56.4395C8.99995 56.2395 10.2 56.0395 11.3 55.7395C9.99995 55.6395 8.59995 55.5395 7.29995 55.4395C5.89995 55.6395 4.49995 55.8395 3.19995 56.0395Z" fill="white"/>
<path d="M3.29998 55.1394C2.19998 55.2394 1.19998 55.3394 0.0999756 55.5394V55.8394C0.599976 55.8394 1.19998 55.9394 1.69998 55.9394C2.89998 55.7394 4.09998 55.5394 5.29998 55.2394C4.79998 55.2394 4.29998 55.1394 3.79998 55.1394C3.59998 55.1394 3.49998 55.1394 3.29998 55.1394Z" fill="white"/>
<path d="M1.69995 55.9395C2.19995 55.9395 2.69995 56.0395 3.09995 56.0395C4.49995 55.8395 5.79995 55.6395 7.19995 55.4395C6.49995 55.3395 5.89995 55.3395 5.19995 55.2395C4.09995 55.5395 2.89995 55.7395 1.69995 55.9395Z" fill="white"/>
<path d="M0.0999756 55.0394V55.5394C1.19998 55.4394 2.19998 55.3394 3.29998 55.1394C2.19998 55.1394 1.19998 55.0394 0.0999756 55.0394Z" fill="white"/>
<path d="M0.0999756 55.0395C0.299976 55.0395 0.499976 54.9395 0.699976 54.9395C0.499976 54.9395 0.299976 54.9395 0.0999756 54.8395V55.0395Z" fill="white"/>
<path d="M0.0999756 55.0395C1.19998 55.0395 2.19998 55.1395 3.29998 55.1395H3.39998C2.49998 55.0395 1.59998 55.0395 0.699976 54.9395C0.499976 54.9395 0.299976 54.9395 0.0999756 55.0395Z" fill="white"/>
<path d="M5.70002 56.8395C4.80002 57.0395 3.80002 57.1395 2.90002 57.3395C53.3 63.3395 102.6 66.1395 151.1 68.8395C228.3 73.1395 301.9 77.3395 374.6 93.8395V92.9395C301.9 76.4395 228.2 72.3395 151.1 67.9395C103.5 65.3395 55.1 62.5395 5.70002 56.8395Z" fill="white"/>
<path d="M0.0999756 56.5395V57.0395C0.999976 57.0395 1.89998 57.2395 2.89998 57.3395C3.79998 57.1395 4.79998 57.0395 5.69998 56.8395C4.29998 56.6395 2.89998 56.5395 1.49998 56.3395C0.999976 56.3395 0.499976 56.4395 0.0999756 56.5395Z" fill="white"/>
<path d="M0.0999756 56.2394C0.199976 56.2394 0.299976 56.2394 0.399976 56.1394C0.299976 56.1394 0.199976 56.1394 0.0999756 56.1394V56.2394Z" fill="white"/>
<path d="M0.0999756 56.2395V56.5395C0.599976 56.4395 0.999976 56.4395 1.49998 56.3395C1.19998 56.3395 0.799976 56.2395 0.499976 56.2395C0.299976 56.2395 0.199976 56.2395 0.0999756 56.2395Z" fill="white"/>
<path d="M0.199976 57.8395C0.0999756 57.8395 0.0999756 57.8395 0.199976 57.8395L0.0999756 58.5395C54.7 67.3395 108 72.0395 160.4 76.6395C234.6 83.1395 305.3 89.4395 374.6 106.739V105.939C305.3 88.6395 234.6 82.4395 160.5 75.9395C108.1 71.3395 54.8 66.6395 0.199976 57.8395Z" fill="white"/>
<path d="M0.0999756 59.8395V60.5395C58.3 72.2395 114.9 79.0395 170.4 85.6395C241.3 94.1395 308.9 102.139 374.6 119.939V119.239C308.9 101.439 241.4 93.4395 170.5 84.9395C115 78.3395 58.3 71.5395 0.0999756 59.8395Z" fill="white"/>
<path d="M0.0999756 62.3395V62.9395C62.1 78.0395 122.3 87.0395 181.2 95.8395C248.6 105.939 312.8 115.539 374.6 133.639V133.039C312.8 115.039 248.6 105.339 181.3 95.3395C122.3 86.4395 62.2 77.3395 0.0999756 62.3395Z" fill="white"/>
<path d="M0.0999756 65.1394V65.6394C66.8 84.6394 131 96.1394 192.6 107.139C256.2 118.539 316.8 129.339 374.5 147.339V146.839C316.8 128.939 256.2 118.039 192.6 106.639C131.1 95.6394 66.8 84.1394 0.0999756 65.1394Z" fill="white"/>
<path d="M53.9 84.6394C35.3 79.5394 17.5 74.1394 0.0999756 68.5394V68.9394C17.4 74.6394 35.3 79.9394 53.8 85.0394C105.9 99.3394 156.2 109.739 204.9 119.739C264.5 132.039 321.2 143.739 374.6 161.339V160.939C321.1 143.339 264.5 131.639 204.9 119.339C156.3 109.239 106 98.9394 53.9 84.6394Z" fill="white"/>
</g>
</svg>
