<svg width="375" height="205" viewBox="0 0 375 205" fill="none" xmlns="http://www.w3.org/2000/svg">
<g opacity="0.28">
<path d="M63.2 92.7999C77.2 103 93.7 111.4 115.2 119.5C134.3 126.7 157.2 133.5 189.5 141.5C264.5 160.3 331.9 183.4 374.5 205L374.6 204.8C332.1 183.2 264.6 160.1 189.6 141.3C157.3 133.2 134.4 126.4 115.3 119.3C93.9 111.3 77.4 102.8 63.4 92.7C35.9 72.7 17.6 45.7999 0.3 0.199951H0C17.3 46 35.7 72.8999 63.2 92.7999Z" fill="white"/>
<path d="M36.5 50.7C46.9 64.8999 58.9 76.5 73.1 86.2C102.7 106.3 141.8 118.3 195.3 131.2C267.9 148.4 333.2 169.2 374.5 188.2L374.6 187.9C333.3 168.8 268 148 195.3 130.9C164.4 123.5 142.5 117.2 124 110.7C103.2 103.3 87 95.3999 73.2 85.9999C59 76.3999 47.1001 64.7999 36.7001 50.5999C26.8001 36.9999 18 20.9 9.20005 0.199951H8.80005C17.7 21 26.5 37.1 36.5 50.7Z" fill="white"/>
<path d="M201 120.8C271.9 136.8 335.1 155.3 374.5 171.5L374.6 171.2C335.2 155 272 136.5 201.1 120.5C96.1 96.7 54.3999 75.7999 18.1 0.199951H17.7C54 76.1 95.8 97 201 120.8Z" fill="white"/>
<path d="M92.7 72.9999C121.8 90.0999 159.3 100.4 206.7 110.4C276.8 125.3 336.2 141 374.1 154.6L374.2 154.2C336.3 140.6 276.8 124.9 206.7 110C159.5 99.9999 122 89.7999 92.9 72.7C65.7 56.6 45.9 34.7999 27.1 0.199951H26.6C45.5 35 65.4 56.8999 92.7 72.9999Z" fill="white"/>
<path d="M102.6 66.3999C131.4 81.9999 167.4 91.2 212.5 100.1C281.8 113.8 339.3 127.2 374.3 138L374.4 137.5C339.3 126.7 281.8 113.2 212.5 99.6C167.4 90.7 131.5 81.5999 102.7 65.9999C75.8 51.3999 55.2 31 36.1 0.199951H35.5C54.8 31.2 75.5 51.6999 102.6 66.3999Z" fill="white"/>
<path d="M112.4 59.7999C141 73.9999 175.4 82 218.2 89.7C291.7 103 342.9 113.3 374.5 121.3L374.6 120.8C343 112.8 291.8 102.5 218.3 89.2C175.5 81.5 141.2 73.3999 112.7 59.2999C85.7999 46 64.9 27.7 45.4 0.199951H44.7C64.3 27.9 85.3999 46.3999 112.4 59.7999Z" fill="white"/>
<path d="M122.3 53.0999C140.1 61 164.7 69.7 224 79.2999C234.5 80.9999 244.7 82.6 254.5 84.2C303.8 92.2 346.3 98.9999 374.5 104.5L374.6 103.9C346.4 98.3999 303.8 91.5 254.6 83.6C244.7 82 234.5 80.3999 224.1 78.7C189.1 73 152.6 65.8999 122.6 52.5C95.8 40.6 74.7 24.3 54.7 0.199951H53.9C74 24.6 95.3 41.0999 122.3 53.0999Z" fill="white"/>
<path d="M229.7 68.9999C268.4 74.4999 303.7 78.8999 332.1 82.4999C348.5 84.5999 362.6 86.2999 374.5 87.9999L374.6 87.2999C362.7 85.7 348.5 83.8999 332.2 81.7999C303.8 78.2 268.5 73.7999 229.8 68.2999C153.8 57.5999 106.6 43.7999 64.3 0.199951H63.4C105.9 44.2999 153.3 58.1999 229.7 68.9999Z" fill="white"/>
<path d="M235.4 58.5999C290.7 65.2 338.7 68.5999 370.4 70.9999L374.5 71.2999L374.6 70.6L370.5 70.2999C338.8 67.9999 290.8 64.5 235.5 58C165 49.5 117.6 37.6 74.2 0.199951H73C116.8 38.2 164.4 50.2 235.4 58.5999Z" fill="white"/>
<path d="M241.2 48.2999C283.6 52.2 327.2 54.2999 374.6 54.5999V53.7999C327.2 53.5 283.6 51.4 241.3 47.5C178 41.7 129.1 31.5 84.6 0.199951H83.2C128.1 32.1 177.3 42.3999 241.2 48.2999Z" fill="white"/>
<path d="M161.8 26.4C185.8 32.2 212 35.7 246.9 37.9C269.6 39.3 291.2 39.8 310.6 39.8C335.9 39.8 357.7 38.9 374.2 37.9L374.1 37C344.9 38.8 299.1 40.2 246.9 36.9C197.1 33.8 144.5 27.1 95.6 0H93.8C114.5 11.8 136.8 20.4 161.8 26.4Z" fill="white"/>
<path d="M252.7 27.6C259.7 27.8 266.6 27.9 273.4 27.9C315.3 27.9 350.8 24.5 374.5 21.4L374.4 20.5C347 24.1 303.6 28.1 252.8 26.7C193.5 25 148.2 16.8 108.2 0.199951H105.8C146.4 17.4 192.3 25.9 252.7 27.6Z" fill="white"/>
<path d="M250 17.3C303.9 17.3 349.7 9.69995 374.5 4.69995L374.3 3.69995C331.5 12.5 225.3 28.7 123.9 0.199951H120.3C164.3 13 209.4 17.3 250 17.3Z" fill="white"/>
</g>
</svg>
