<svg width="304" height="294" viewBox="0 0 304 294" fill="none" xmlns="http://www.w3.org/2000/svg">
<mask id="mask0_6641_175544" style="mask-type:alpha" maskUnits="userSpaceOnUse" x="6" y="0" width="298" height="294">
<path d="M13.1173 151.985C-1.05985 179.034 9.35021 204.65 15.1567 218.98C27.1359 248.526 67.3108 286.39 163.637 292.998C287.683 301.508 306.507 193.714 303.003 147.285C299.498 100.857 294.112 39.9339 192.33 6.05935C90.5421 -27.8152 130.438 89.8329 52.1167 124.341C38.2075 130.468 20.225 138.431 13.1173 151.985Z" fill="#EEF6F9"/>
</mask>
<g mask="url(#mask0_6641_175544)">
<path d="M12.6114 151.162C-1.56571 178.21 8.84435 203.827 14.6508 218.157C26.63 247.703 66.805 285.567 163.131 292.175C287.177 300.684 306.001 192.89 302.497 146.462C298.992 100.033 293.607 39.1106 191.824 5.23611C90.0363 -28.6384 129.932 89.0097 51.6109 123.518C37.7016 129.645 19.7191 137.608 12.6114 151.162Z" fill="#FFF3F0"/>
<path d="M19.9724 102.132C21.1589 104.93 23.7395 106.805 26.6974 107.094C38.3322 108.237 55.1228 103.307 72.4765 81.4946C91.8806 57.1134 113.149 31.9617 92.3125 33.9074C71.4815 35.8531 37.0583 55.6214 24.5815 76.3079C16.9271 89.0204 18.0041 97.4863 19.9724 102.132Z" fill="#FFF3F0"/>
<path d="M18.4634 81.0962V70.3677H36.26V19.0968H41.1698V70.3677H60.3442V81.0962H70.6121V296.067H-3.4502V81.0962H18.4634Z" fill="#FFF3F0"/>
<path d="M6.81771 81.0962H-3.4502V274.473H6.81771V81.0962Z" fill="#F2C9BF"/>
<path d="M107.642 132.302H33.5801V296.067H107.642V132.302Z" fill="#FFF3F0"/>
<path d="M43.848 132.302H33.5801V296.067H43.848V132.302Z" fill="#F2C9BF"/>
<path d="M97.3084 139.281H86.6797V143.691H97.3084V139.281Z" fill="#F2C9BF"/>
<path d="M79.4139 139.281H68.7852V143.691H79.4139V139.281Z" fill="#F2C9BF"/>
<path d="M97.3084 155.333H86.6797V159.743H97.3084V155.333Z" fill="#F2C9BF"/>
<path d="M79.4139 155.333H68.7852V159.743H79.4139V155.333Z" fill="#F2C9BF"/>
<path d="M61.5233 155.333H50.8945V159.743H61.5233V155.333Z" fill="#F2C9BF"/>
<path d="M97.3084 171.39H86.6797V175.8H97.3084V171.39Z" fill="#F2C9BF"/>
<path d="M61.5233 171.39H50.8945V175.8H61.5233V171.39Z" fill="#F2C9BF"/>
<path d="M79.4139 179.413H68.7852V183.823H79.4139V179.413Z" fill="#F2C9BF"/>
<path d="M97.3084 187.442H86.6797V191.852H97.3084V187.442Z" fill="#F2C9BF"/>
<path d="M79.4139 195.471H68.7852V199.881H79.4139V195.471Z" fill="#F2C9BF"/>
<path d="M97.3084 203.494H86.6797V207.904H97.3084V203.494Z" fill="#F2C9BF"/>
<path d="M61.5233 203.494H50.8945V207.904H61.5233V203.494Z" fill="#F2C9BF"/>
<path d="M97.3084 218.332H86.6797V222.742H97.3084V218.332Z" fill="#F2C9BF"/>
<path d="M79.4139 218.332H68.7852V222.742H79.4139V218.332Z" fill="#F2C9BF"/>
<path d="M97.3084 234.384H86.6797V238.794H97.3084V234.384Z" fill="#F2C9BF"/>
<path d="M79.4139 234.384H68.7852V238.794H79.4139V234.384Z" fill="#F2C9BF"/>
<path d="M61.5233 234.384H50.8945V238.794H61.5233V234.384Z" fill="#F2C9BF"/>
<path d="M97.3084 250.441H86.6797V254.852H97.3084V250.441Z" fill="#F2C9BF"/>
<path d="M61.5233 250.441H50.8945V254.852H61.5233V250.441Z" fill="#F2C9BF"/>
<path d="M79.4139 258.465H68.7852V262.875H79.4139V258.465Z" fill="#F2C9BF"/>
<path d="M61.5233 258.465H50.8945V262.875H61.5233V258.465Z" fill="#F2C9BF"/>
<path d="M97.3084 266.493H86.6797V270.903H97.3084V266.493Z" fill="#F2C9BF"/>
<path d="M79.4139 274.522H68.7852V278.932H79.4139V274.522Z" fill="#F2C9BF"/>
<path d="M97.3084 282.545H86.6797V286.955H97.3084V282.545Z" fill="#F2C9BF"/>
<path d="M61.5233 282.545H50.8945V286.955H61.5233V282.545Z" fill="#F2C9BF"/>
<path d="M284.849 132.301H210.787V296.066H284.849V132.301Z" fill="#FFDCD2"/>
<path d="M221.055 132.301H210.787V296.066H221.055V132.301Z" fill="#F2C9BF"/>
<path d="M204.952 54.4087H105.581V296.067H204.952V54.4087Z" fill="#FFDCD2"/>
<path d="M115.849 54.4087H105.581V296.067H115.849V54.4087Z" fill="#F2C9BF"/>
<path d="M194.483 65.9844H178.966V72.4219H194.483V65.9844Z" fill="#FFF3F0"/>
<path d="M168.357 65.9844H152.835V72.4219H168.357V65.9844Z" fill="#FFF3F0"/>
<path d="M194.483 89.4255H178.966V95.8631H194.483V89.4255Z" fill="#FFF3F0"/>
<path d="M168.357 89.4255H152.835V95.8631H168.357V89.4255Z" fill="#FFF3F0"/>
<path d="M142.223 89.4255H126.706V95.8631H142.223V89.4255Z" fill="#FFF3F0"/>
<path d="M194.483 112.872H178.966V119.31H194.483V112.872Z" fill="#FFF3F0"/>
<path d="M142.223 112.872H126.706V119.31H142.223V112.872Z" fill="#FFF3F0"/>
<path d="M168.357 124.59H152.835V131.027H168.357V124.59Z" fill="#FFF3F0"/>
<path d="M194.483 136.313H178.966V142.751H194.483V136.313Z" fill="#FFF3F0"/>
<path d="M168.357 148.036H152.835V154.474H168.357V148.036Z" fill="#FFF3F0"/>
<path d="M194.483 159.76H178.966V166.197H194.483V159.76Z" fill="#FFF3F0"/>
<path d="M142.223 159.76H126.706V166.197H142.223V159.76Z" fill="#FFF3F0"/>
<path d="M194.483 181.425H178.966V187.862H194.483V181.425Z" fill="#FFF3F0"/>
<path d="M168.357 181.425H152.835V187.862H168.357V181.425Z" fill="#FFF3F0"/>
<path d="M194.483 204.865H178.966V211.303H194.483V204.865Z" fill="#FFF3F0"/>
<path d="M168.357 204.865H152.835V211.303H168.357V204.865Z" fill="#FFF3F0"/>
<path d="M142.223 204.865H126.706V211.303H142.223V204.865Z" fill="#FFF3F0"/>
<path d="M194.483 228.307H178.966V234.744H194.483V228.307Z" fill="#FFF3F0"/>
<path d="M142.223 228.307H126.706V234.744H142.223V228.307Z" fill="#FFF3F0"/>
<path d="M168.357 240.03H152.835V246.468H168.357V240.03Z" fill="#FFF3F0"/>
<path d="M142.223 240.03H126.706V246.468H142.223V240.03Z" fill="#FFF3F0"/>
<path d="M194.483 251.753H178.966V258.191H194.483V251.753Z" fill="#FFF3F0"/>
<path d="M168.357 263.476H152.835V269.914H168.357V263.476Z" fill="#FFF3F0"/>
<path d="M194.483 275.194H178.966V281.632H194.483V275.194Z" fill="#FFF3F0"/>
<path d="M142.223 275.194H126.706V281.632H142.223V275.194Z" fill="#FFF3F0"/>
<path d="M359.208 72.4225H261.811V296.066H359.208V72.4225Z" fill="#FFF3F0"/>
<path d="M271.876 72.4225H261.811V296.066H271.876V72.4225Z" fill="#F2C9BF"/>
<path d="M297.727 104.827H282.517V110.784H297.727V104.827Z" fill="#F2C9BF"/>
<path d="M297.727 126.524H282.517V132.481H297.727V126.524Z" fill="#F2C9BF"/>
<path d="M297.727 169.92H282.517V175.876H297.727V169.92Z" fill="#F2C9BF"/>
<path d="M297.727 211.664H282.517V217.621H297.727V211.664Z" fill="#F2C9BF"/>
<path d="M297.727 233.362H282.517V239.319H297.727V233.362Z" fill="#F2C9BF"/>
<path d="M297.727 244.205H282.517V250.162H297.727V244.205Z" fill="#F2C9BF"/>
<path d="M297.727 276.752H282.517V282.709H297.727V276.752Z" fill="#F2C9BF"/>
<path d="M9.79274 143.527H-52.9355V296.072H9.79274V143.527Z" fill="#FFF3F0"/>
<path opacity="0.14" d="M173.576 -4.38806H-92.252V298.592H173.576V-4.38806Z" fill="white"/>
<path d="M176.49 -7.85339H170.673V302.499H176.49V-7.85339Z" fill="white"/>
<path opacity="0.5" d="M-0.731976 293.121H-21.3662L89.2353 -0.923218H109.864L-0.731976 293.121Z" fill="white"/>
<path opacity="0.5" d="M-37.1624 293.121H-47.4795L63.1165 -0.923218H73.4336L-37.1624 293.121Z" fill="white"/>
<path opacity="0.5" d="M86.0105 293.121H75.6934L170.516 30.6504V51.796L86.0105 293.121Z" fill="white"/>
<path d="M87.8799 -6.29016H82.0625V300.936H87.8799V-6.29016Z" fill="white"/>
<path d="M170.64 295.567V293.118L-89.3167 293.118V295.567L170.64 295.567Z" fill="white"/>
<path d="M170.698 1.52686V-0.922119L-89.3675 -0.922119V1.52686L170.698 1.52686Z" fill="white"/>
<path opacity="0.14" d="M440.813 -10.3835H174.979V292.596H440.813V-10.3835Z" fill="white"/>
<path d="M176.517 -7.85303H170.699V302.499H176.517V-7.85303Z" fill="white"/>
<path opacity="0.5" d="M218.943 293.121H198.314L308.91 -0.922852H329.545L218.943 293.121Z" fill="white"/>
<path opacity="0.5" d="M182.515 293.121H172.198L282.8 -0.922852H293.117L182.515 293.121Z" fill="white"/>
<path d="M265.128 -6.29004H259.311V300.936H265.128V-6.29004Z" fill="white"/>
<path d="M436.499 295.567V293.118L176.543 293.118V295.567L436.499 295.567Z" fill="white"/>
<path d="M436.558 1.52659V-0.922363L176.492 -0.922363V1.52659L436.558 1.52659Z" fill="white"/>
<path d="M-95.1572 46.7976V50.2623L451.896 50.2623V46.7976L-95.1572 46.7976Z" fill="white"/>
<path d="M-95.1562 139.238V142.703L451.897 142.703V139.238L-95.1562 139.238Z" fill="white"/>
<path d="M-95.1553 231.679V235.144L451.898 235.144V231.679L-95.1553 231.679Z" fill="white"/>
<path d="M302.17 293.027H6.19909C5.89838 293.027 5.65234 292.781 5.65234 292.481C5.65234 292.18 5.89838 291.934 6.19909 291.934H302.17C302.47 291.934 302.716 292.18 302.716 292.481C302.716 292.787 302.476 293.027 302.17 293.027Z" fill="#8699C4"/>
</g>
<path d="M165.394 61.9597L43.2676 62.2041L43.7034 279.803L165.83 279.559L165.394 61.9597Z" fill="#FFF3F0"/>
<path d="M43.4218 280.08L43.0117 61.9342L165.685 61.6882L166.095 279.834L43.4218 280.08ZM43.5585 62.4807L43.9685 279.533L165.549 279.287L165.139 62.2348L43.5585 62.4807Z" fill="#6179C4"/>
<path d="M51.3455 53.8835L121.958 54.288L121.974 63.4535L86.217 63.5245L60.7277 63.6666C52.1383 63.683 45.1946 70.6568 45.211 79.243L45.539 256.502C45.5554 265.088 52.5319 272.029 61.1213 272.013L122.373 272.139L122.412 291.382L51.8048 292.044C43.2154 292.06 36.2389 285.113 36.2225 276.533L35.8343 69.4599C35.8124 60.8738 42.7561 53.8999 51.3455 53.8835Z" fill="#344D99"/>
<path d="M38.3135 69.3397L38.3517 276.407C38.3517 284.643 44.7487 291.377 52.8515 291.918C53.2014 291.945 53.5622 291.951 53.9122 291.951L162.496 291.929C168.057 291.929 172.562 287.42 172.562 281.862L172.523 63.836C172.523 58.2723 168.013 53.7578 162.441 53.7633L53.8684 53.7797C53.5076 53.7797 53.1412 53.7906 52.7913 53.8125C44.7049 54.3754 38.3135 61.1143 38.3135 69.3397ZM47.6738 73.6628C47.6738 68.099 52.1845 63.5901 57.7449 63.5901L153.092 63.5737C158.652 63.5737 163.163 68.0826 163.163 73.641L163.196 261.842C163.196 267.406 158.685 271.915 153.13 271.915L57.7886 271.931C52.2227 271.931 47.7066 267.417 47.7066 261.858L47.6738 73.6628Z" fill="#273972"/>
<path d="M92.7143 286.616L118.597 286.562C121.194 286.556 123.294 284.452 123.288 281.856C123.283 279.26 121.178 277.161 118.581 277.167L92.6979 277.216C90.1009 277.221 88.0014 279.331 88.0068 281.922C88.0123 284.523 90.1173 286.616 92.7143 286.616Z" fill="#344D99"/>
<path d="M163.223 77.0132H47.6592V67.4483C47.6592 65.2866 49.4531 63.5359 51.6683 63.5359H159.214C161.429 63.5359 163.223 65.2866 163.223 67.4483V77.0132Z" fill="#F2C9BF"/>
<path d="M69.5481 70.2629C69.5481 69.0935 70.4992 68.1426 71.6691 68.1426C72.8389 68.1426 73.79 69.0935 73.79 70.2629C73.79 71.4324 72.8389 72.3833 71.6691 72.3833C70.4992 72.3833 69.5481 71.4324 69.5481 70.2629Z" fill="white"/>
<path d="M61.3977 70.2629C61.3977 69.0935 62.3434 68.1426 63.5187 68.1426C64.694 68.1426 65.6397 69.0935 65.6397 70.2629C65.6397 71.4324 64.6885 72.3833 63.5187 72.3833C62.3434 72.3833 61.3923 71.4324 61.3977 70.2629Z" fill="white"/>
<path d="M53.2344 70.2629C53.2344 69.0935 54.1855 68.1426 55.3553 68.1426C56.5252 68.1426 57.4763 69.0935 57.4763 70.2629C57.4763 71.4324 56.5306 72.3833 55.3553 72.3833C54.1801 72.3833 53.2398 71.4324 53.2344 70.2629Z" fill="white"/>
<path d="M152.893 68.7162L153.937 67.667L155.44 69.1644L156.938 67.667L157.987 68.7162L156.489 70.2136L157.987 71.711L156.938 72.7602L155.44 71.2628L153.937 72.7602L152.893 71.711L154.39 70.2136L152.893 68.7162Z" fill="white"/>
<path d="M53.7041 169.22C53.7041 169.22 52.2607 161.491 77.2962 161.524L139.724 161.595C143.157 161.601 145.94 164.388 145.935 167.82L145.902 195.366L53.6768 195.262L53.7041 169.22Z" fill="#344D99"/>
<path d="M158.676 103.148C162.963 139.04 153.389 175.264 131.869 204.45C117.195 201.001 102.525 197.552 87.8506 194.104C102.088 174.477 111.06 151.747 114.204 128.049C114.794 127.016 132.121 94.0158 158.676 103.148Z" fill="#F1F4FE"/>
<path d="M131.935 204.635L131.831 204.614C119.573 201.733 107.321 198.853 95.0572 195.967L87.5723 194.207L87.7144 194.011C101.777 174.625 110.88 151.807 114.04 128.032L114.062 127.972L114.139 127.83C117.244 122.19 133.98 94.4858 158.726 102.995L158.824 103.028L158.835 103.127C163.144 139.209 153.614 175.226 131.995 204.542L131.935 204.635ZM88.119 194.005L95.1283 195.65C107.354 198.525 119.573 201.394 131.799 204.269C153.302 175.057 162.794 139.198 158.524 103.269C134.073 94.9449 117.496 122.392 114.418 127.989L114.352 128.103C111.203 151.845 102.127 174.625 88.119 194.005Z" fill="#273972"/>
<path d="M118.771 126.147C115.682 148.686 105.868 173.28 93.1396 192.081C105.605 195.011 118.405 198.749 130.871 201.684C150.712 173.925 159.903 140.985 156.365 107.127C147.918 104.886 140.209 109.363 132.166 115.374C132.166 115.374 132.166 115.374 132.161 115.374C125.338 123.753 120.357 123.327 118.771 126.147ZM120.078 125.955C121.647 123.403 126.387 123.338 132.735 115.15C140.455 112.106 147.202 106.072 154.671 107.685C157.809 140.286 148.749 172.116 129.815 199.039C124.457 197.776 119.132 196.563 113.768 195.295C107.743 193.874 101.663 192.387 95.6437 190.972C107.355 172.903 116.896 148.784 120.078 125.955Z" fill="white"/>
<path d="M126.048 162.126C118.847 159.027 114.779 152.304 116.381 146.145C117.272 142.729 119.755 139.941 123.38 138.296C127.032 136.64 131.4 136.334 135.676 137.449C136.687 137.712 137.677 138.05 138.623 138.455C145.823 141.554 149.891 148.276 148.289 154.436C147.404 157.852 144.916 160.639 141.291 162.289C137.639 163.951 133.27 164.252 128.995 163.137C127.983 162.869 126.994 162.53 126.048 162.126Z" fill="white"/>
<path d="M138.774 138.094L138.467 138.805C145.493 141.833 149.462 148.358 147.91 154.332C147.051 157.633 144.64 160.333 141.125 161.929C137.554 163.552 133.279 163.847 129.085 162.754C128.096 162.497 127.122 162.164 126.193 161.765C119.167 158.737 115.192 152.206 116.745 146.232C117.604 142.931 120.015 140.237 123.53 138.641C127.101 137.018 131.376 136.728 135.57 137.816C136.559 138.072 137.532 138.406 138.462 138.805L138.774 138.094ZM138.774 138.094C137.822 137.684 136.816 137.34 135.772 137.067C126.756 134.722 117.904 138.745 116.007 146.041C114.328 152.496 118.642 159.355 125.898 162.475C126.849 162.885 127.855 163.23 128.899 163.503C137.915 165.848 146.767 161.825 148.664 154.523C150.337 148.074 146.023 141.221 138.774 138.094Z" fill="#A0AFDE"/>
<path d="M126.903 144.057L128.407 145.079C127.581 145.817 126.777 146.981 126.417 148.363C125.963 150.112 126.668 151.566 128.073 151.932C129.435 152.288 130.523 151.539 131.736 149.905C133.382 147.642 134.924 146.38 137.073 146.937C139.123 147.473 140.304 149.331 140.08 151.703L142.578 152.353L142.179 153.889L139.779 153.266C139.342 154.736 138.686 155.643 138.079 156.25L136.608 155.206C137.04 154.763 137.849 153.894 138.259 152.315C138.757 150.408 137.805 149.402 136.816 149.14C135.531 148.806 134.651 149.549 133.202 151.468C131.501 153.747 129.883 154.692 127.685 154.119C125.733 153.616 124.257 151.779 124.497 149.123L121.928 148.456L122.332 146.899L124.831 147.549C125.225 146.128 126.056 144.756 126.903 144.057Z" fill="#F1F4FE"/>
<path d="M138.106 156.458L136.373 155.228L136.504 155.091C136.859 154.725 137.696 153.867 138.111 152.271C138.582 150.451 137.69 149.533 136.783 149.293C135.673 149.003 134.869 149.533 133.338 151.566C131.501 154.026 129.801 154.835 127.652 154.277C125.842 153.807 124.137 152.075 124.333 149.249L121.736 148.577L122.223 146.708L124.722 147.358C125.137 145.981 125.941 144.647 126.799 143.937L126.892 143.86L128.669 145.063L128.516 145.199C127.597 146.019 126.892 147.189 126.575 148.407C126.362 149.227 126.406 149.981 126.695 150.599C126.98 151.2 127.472 151.61 128.117 151.774C129.331 152.091 130.342 151.517 131.611 149.806C133.027 147.861 134.672 146.145 137.122 146.779C139.21 147.325 140.435 149.2 140.26 151.577L142.781 152.233L142.299 154.08L139.894 153.457C139.522 154.643 138.964 155.594 138.199 156.365L138.106 156.458ZM136.865 155.179L138.068 156.032C138.778 155.288 139.292 154.359 139.631 153.211L139.675 153.064L142.07 153.687L142.387 152.468L139.916 151.823L139.927 151.687C140.14 149.407 139.003 147.609 137.04 147.096C134.907 146.538 133.431 147.855 131.873 149.998C130.528 151.812 129.38 152.435 128.035 152.086C127.302 151.894 126.723 151.413 126.4 150.736C126.077 150.047 126.028 149.216 126.258 148.32C126.57 147.107 127.253 145.942 128.144 145.095L126.914 144.259C126.116 144.97 125.35 146.292 124.989 147.593L124.946 147.746L122.453 147.101L122.13 148.347L124.678 149.009L124.667 149.145C124.421 151.867 126.028 153.528 127.734 153.971C129.763 154.496 131.315 153.747 133.081 151.38C134.525 149.468 135.46 148.626 136.865 148.992C138.002 149.287 138.926 150.446 138.423 152.364C138.029 153.856 137.28 154.736 136.865 155.179Z" fill="#273972"/>
<path d="M138.048 118.468C140.639 119.14 142.198 121.791 141.52 124.381C140.847 126.972 138.195 128.53 135.604 127.857C133.012 127.185 131.454 124.534 132.132 121.944C132.805 119.348 135.456 117.79 138.048 118.468Z" fill="white"/>
<path d="M136.83 128.169C136.414 128.169 135.993 128.114 135.572 128.005C134.276 127.666 133.188 126.846 132.51 125.693C131.832 124.54 131.646 123.19 131.98 121.895C132.674 119.222 135.419 117.61 138.093 118.304C139.388 118.643 140.476 119.463 141.154 120.616C141.832 121.769 142.018 123.119 141.685 124.414C141.094 126.671 139.055 128.169 136.83 128.169ZM136.83 118.468C134.746 118.468 132.838 119.867 132.292 121.977C131.974 123.19 132.149 124.452 132.784 125.529C133.418 126.611 134.435 127.376 135.649 127.693C138.153 128.344 140.717 126.835 141.368 124.332C141.685 123.119 141.51 121.862 140.875 120.78C140.241 119.698 139.224 118.932 138.011 118.615C137.617 118.517 137.218 118.468 136.83 118.468Z" fill="#273972"/>
<path d="M124.412 170.908C127.004 171.581 128.562 174.226 127.89 176.822C127.217 179.412 124.565 180.965 121.974 180.292C119.377 179.62 117.824 176.969 118.497 174.379C119.169 171.788 121.815 170.236 124.412 170.908Z" fill="white"/>
<path d="M129.372 190.573C131.969 191.245 133.522 193.896 132.849 196.486C132.171 199.077 129.525 200.635 126.934 199.962C124.342 199.285 122.784 196.639 123.456 194.049C124.134 191.447 126.78 189.895 129.372 190.573Z" fill="white"/>
<path d="M151.651 105.127C154.242 105.799 155.801 108.45 155.128 111.04C154.456 113.631 151.804 115.183 149.212 114.511C146.615 113.839 145.062 111.188 145.735 108.597C146.413 106.012 149.059 104.455 151.651 105.127Z" fill="white"/>
<path d="M102.38 183.211C105.448 184.003 107.285 187.135 106.492 190.207C105.694 193.273 102.441 194.169 99.3733 193.371C96.306 192.573 94.4307 191.322 96.3607 188.726C98.247 186.179 99.3132 182.408 102.38 183.211Z" fill="white"/>
<path d="M155.812 102.34C155.812 102.34 135.106 113.888 135.505 124.261C135.505 124.261 121.82 116.304 114.204 128.054C116.386 123.119 133.718 95.792 155.812 102.34Z" fill="#F1F4FE"/>
<path d="M114.339 128.142L114.055 127.989C115.247 125.294 120.266 117.216 127.434 110.773C133.923 104.936 144.12 98.7051 155.859 102.187L156.225 102.296L155.892 102.482C155.684 102.596 135.274 114.101 135.668 124.256L135.679 124.551L135.427 124.403C135.29 124.321 121.78 116.653 114.339 128.142ZM149.03 101.503C132.338 101.503 119.194 119.408 115.285 126.311C122.447 117.73 133.546 123.042 135.34 123.988C135.307 114.32 152.66 103.963 155.4 102.389C153.229 101.782 151.102 101.503 149.03 101.503Z" fill="#273972"/>
<path d="M150.733 101.399C150.362 101.602 136.627 109.789 133.024 119.32C128.464 117.227 123.041 117.484 118.76 120.709C124.943 112.243 136.611 100.334 150.733 101.399Z" fill="#A0AFDE"/>
<path d="M117.982 121.49L118.622 120.61C123.16 114.402 135.369 100.077 150.743 101.235L151.285 101.274L150.809 101.536C150.672 101.613 136.763 109.876 133.171 119.37L133.111 119.534L132.952 119.462C128.179 117.271 122.903 117.779 118.852 120.829L117.982 121.49ZM148.983 101.492C135.21 101.492 124.199 113.751 119.481 120.004C123.461 117.429 128.409 117.08 132.936 119.102C136.331 110.406 147.791 103.012 150.208 101.525C149.798 101.503 149.388 101.492 148.983 101.492Z" fill="#273972"/>
<path d="M101.491 170.46C107.27 171.909 114.17 168.684 118.106 162.229C122.016 155.819 121.748 148.271 117.888 143.789L118.166 143.336L115.312 141.598C109.123 137.826 100.337 140.953 95.6897 148.577C91.0423 156.201 92.2944 165.438 98.4836 169.209L101.19 170.952L101.491 170.46Z" fill="#FFB923"/>
<path d="M101.24 171.182L98.3913 169.345C95.3568 167.498 93.3885 164.306 92.8582 160.355C92.3278 156.42 93.2792 152.206 95.5482 148.484C97.8172 144.762 101.125 141.98 104.87 140.652C108.626 139.318 112.366 139.603 115.401 141.45L118.397 143.275L118.096 143.767C122.016 148.418 122.087 156.021 118.249 162.311C114.378 168.662 107.533 172.078 101.568 170.646L101.24 171.182ZM109.485 140.16C108.019 140.16 106.5 140.428 104.98 140.969C101.311 142.275 98.0632 145.008 95.8325 148.659C93.6072 152.315 92.6668 156.452 93.1862 160.311C93.7056 164.159 95.6192 167.263 98.5662 169.061L101.136 170.717L101.415 170.269L101.535 170.296C107.385 171.766 114.143 168.411 117.965 162.142C121.748 155.933 121.666 148.429 117.763 143.893L117.686 143.8L117.937 143.39L115.226 141.74C113.503 140.69 111.546 140.16 109.485 140.16Z" fill="#D64E2D"/>
<path d="M120.959 163.967C116.312 171.591 107.378 174.723 101.189 170.952C94.9996 167.181 93.8952 157.939 98.5425 150.314C103.19 142.69 111.976 139.569 118.165 143.335C124.354 147.106 125.606 156.343 120.959 163.967Z" fill="white"/>
<path d="M107.033 172.701C104.901 172.701 102.883 172.154 101.106 171.078C94.9118 167.306 93.7035 157.955 98.411 150.238C103.091 142.559 111.987 139.406 118.236 143.21C121.27 145.057 123.233 148.243 123.764 152.184C124.294 156.113 123.343 160.327 121.074 164.038C118.81 167.749 115.48 170.531 111.691 171.865C110.122 172.428 108.553 172.701 107.033 172.701ZM112.342 141.887C107.312 141.887 101.943 145.008 98.668 150.386C94.048 157.966 95.2125 167.132 101.265 170.821C104.223 172.624 107.897 172.892 111.604 171.586C115.327 170.274 118.608 167.536 120.833 163.885C123.064 160.229 124.004 156.086 123.479 152.222C122.96 148.369 121.041 145.259 118.088 143.455C116.333 142.395 114.365 141.887 112.342 141.887Z" fill="#273972"/>
<path d="M118.953 162.754C115.136 169.017 107.799 171.586 102.714 168.492C97.6295 165.394 96.7218 157.802 100.538 151.539C104.354 145.275 111.571 142.712 116.656 145.811C121.741 148.905 122.769 156.49 118.953 162.754Z" fill="#FFB923"/>
<path d="M107.514 169.974C105.753 169.974 104.086 169.525 102.626 168.629C100.133 167.11 98.5309 164.475 98.1208 161.218C97.7162 157.988 98.5199 154.517 100.395 151.446C104.255 145.117 111.587 142.521 116.743 145.658C119.247 147.183 120.865 149.812 121.308 153.064C121.746 156.299 120.958 159.77 119.094 162.83C117.23 165.891 114.485 168.181 111.363 169.28C110.062 169.744 108.766 169.974 107.514 169.974ZM111.877 144.663C107.765 144.663 103.37 147.221 100.685 151.626C98.8535 154.632 98.0607 158.026 98.4598 161.18C98.8589 164.333 100.401 166.88 102.806 168.35C105.223 169.826 108.225 170.045 111.259 168.979C114.31 167.902 116.989 165.667 118.815 162.672C120.641 159.677 121.412 156.283 120.98 153.118C120.554 149.97 118.99 147.423 116.574 145.953C115.136 145.079 113.528 144.663 111.877 144.663Z" fill="#D64E2D"/>
<path d="M113.928 151.987C114.251 152.239 114.53 152.517 114.776 152.829C115.016 153.14 115.202 153.485 115.333 153.856C115.465 154.228 115.525 154.622 115.519 155.048C115.514 155.474 115.421 155.922 115.251 156.392L113.988 155.665C114.087 155.146 114.076 154.687 113.956 154.288C113.835 153.889 113.589 153.534 113.223 153.222L111.184 156.748C111.375 157.004 111.566 157.261 111.747 157.518C111.933 157.775 112.102 158.032 112.255 158.294C112.408 158.557 112.539 158.819 112.643 159.087C112.747 159.355 112.818 159.622 112.857 159.901C112.889 160.18 112.878 160.459 112.824 160.737C112.769 161.016 112.66 161.3 112.496 161.59C112.217 162.071 111.889 162.432 111.506 162.678C111.123 162.923 110.719 163.087 110.287 163.159C109.855 163.23 109.418 163.23 108.969 163.153C108.521 163.077 108.1 162.945 107.701 162.776L106.678 164.541L105.399 163.803L106.438 162.011C106.104 161.71 105.836 161.36 105.623 160.961C105.41 160.568 105.262 160.142 105.175 159.688C105.087 159.234 105.065 158.764 105.115 158.278C105.158 157.791 105.273 157.305 105.465 156.824L106.804 157.6C106.7 157.89 106.624 158.185 106.585 158.475C106.547 158.764 106.542 159.049 106.569 159.316C106.596 159.584 106.662 159.841 106.766 160.081C106.87 160.322 107.006 160.535 107.181 160.726L109.396 156.895C109.133 156.534 108.887 156.174 108.658 155.808C108.428 155.441 108.253 155.075 108.127 154.698C108.001 154.321 107.947 153.938 107.963 153.556C107.98 153.173 108.105 152.774 108.34 152.37C108.548 152.009 108.811 151.719 109.133 151.501C109.456 151.282 109.806 151.129 110.194 151.036C110.582 150.949 110.981 150.921 111.402 150.96C111.823 150.998 112.239 151.096 112.649 151.255L113.305 150.124L114.584 150.861L113.928 151.987ZM109.691 153.086C109.582 153.272 109.521 153.463 109.5 153.654C109.483 153.851 109.494 154.048 109.543 154.25C109.593 154.452 109.675 154.66 109.784 154.873C109.893 155.086 110.024 155.299 110.172 155.523L111.916 152.501C111.413 152.315 110.965 152.282 110.571 152.397C110.188 152.512 109.893 152.741 109.691 153.086ZM111.151 160.852C111.26 160.666 111.309 160.464 111.304 160.251C111.298 160.038 111.255 159.814 111.173 159.579C111.091 159.344 110.981 159.103 110.839 158.863C110.697 158.622 110.544 158.382 110.374 158.147L108.412 161.546C108.701 161.666 108.986 161.738 109.264 161.759C109.538 161.781 109.8 161.759 110.041 161.699C110.281 161.634 110.5 161.535 110.686 161.388C110.866 161.246 111.025 161.065 111.151 160.852Z" fill="white"/>
<path d="M106.745 164.782L105.159 163.863L106.214 162.038C105.914 161.743 105.662 161.409 105.465 161.038C105.247 160.628 105.088 160.18 105.001 159.715C104.913 159.245 104.891 158.759 104.935 158.256C104.979 157.753 105.104 157.25 105.296 156.753L105.372 156.562L107.024 157.518L106.974 157.66C106.87 157.939 106.799 158.223 106.761 158.502C106.723 158.775 106.717 159.043 106.745 159.3C106.772 159.551 106.832 159.786 106.925 160.01C106.985 160.158 107.062 160.289 107.149 160.415L109.178 156.906C108.932 156.567 108.708 156.228 108.5 155.906C108.265 155.534 108.084 155.146 107.953 154.758C107.822 154.359 107.762 153.955 107.784 153.55C107.805 153.14 107.937 152.714 108.188 152.282C108.407 151.9 108.691 151.588 109.036 151.353C109.375 151.124 109.752 150.96 110.156 150.861C110.561 150.768 110.987 150.741 111.425 150.779C111.813 150.818 112.196 150.9 112.573 151.036L113.24 149.883L114.831 150.801L114.164 151.954C114.443 152.184 114.7 152.446 114.919 152.73C115.17 153.058 115.367 153.419 115.504 153.807C115.64 154.195 115.706 154.616 115.7 155.059C115.695 155.507 115.597 155.977 115.422 156.463L115.35 156.66L113.792 155.764L113.814 155.638C113.907 155.146 113.896 154.714 113.787 154.348C113.694 154.048 113.519 153.763 113.267 153.512L111.397 156.747C111.567 156.972 111.731 157.201 111.895 157.425C112.081 157.682 112.256 157.95 112.414 158.218C112.573 158.491 112.71 158.764 112.819 159.032C112.928 159.316 113.005 159.6 113.043 159.89C113.081 160.18 113.071 160.48 113.01 160.781C112.95 161.082 112.835 161.388 112.66 161.688C112.371 162.191 112.021 162.574 111.616 162.836C111.217 163.093 110.785 163.268 110.331 163.344C109.878 163.421 109.418 163.421 108.954 163.339C108.549 163.268 108.161 163.158 107.789 163.011L106.745 164.782ZM105.64 163.732L106.613 164.295L107.625 162.546L107.773 162.612C108.161 162.781 108.571 162.902 109.003 162.978C109.429 163.055 109.85 163.055 110.26 162.983C110.665 162.912 111.053 162.759 111.414 162.53C111.769 162.3 112.086 161.956 112.343 161.502C112.496 161.235 112.6 160.967 112.65 160.704C112.699 160.442 112.71 160.18 112.677 159.923C112.644 159.666 112.578 159.404 112.475 159.152C112.371 158.901 112.245 158.639 112.097 158.382C111.95 158.125 111.78 157.868 111.6 157.622C111.414 157.365 111.228 157.108 111.037 156.857L110.966 156.764L113.169 152.949L113.333 153.086C113.727 153.419 113.995 153.807 114.12 154.233C114.241 154.621 114.257 155.075 114.18 155.567L115.148 156.124C115.268 155.747 115.334 155.387 115.34 155.042C115.345 154.643 115.285 154.261 115.165 153.911C115.044 153.561 114.864 153.233 114.634 152.938C114.399 152.637 114.126 152.364 113.82 152.129L113.699 152.036L114.339 150.921L113.366 150.364L112.726 151.473L112.584 151.419C112.196 151.266 111.791 151.167 111.387 151.135C110.987 151.102 110.599 151.124 110.233 151.206C109.872 151.293 109.533 151.441 109.232 151.643C108.937 151.845 108.686 152.118 108.494 152.457C108.276 152.834 108.155 153.206 108.139 153.561C108.122 153.922 108.172 154.283 108.292 154.643C108.412 155.004 108.582 155.37 108.8 155.715C109.019 156.064 109.265 156.425 109.528 156.791L109.593 156.884L107.198 161.027L107.034 160.847C106.849 160.644 106.701 160.409 106.586 160.152C106.477 159.896 106.406 159.622 106.378 159.338C106.351 159.054 106.356 158.753 106.4 158.453C106.433 158.196 106.493 157.939 106.581 157.682L105.547 157.086C105.411 157.485 105.318 157.895 105.279 158.294C105.236 158.759 105.252 159.218 105.34 159.655C105.422 160.087 105.564 160.497 105.766 160.874C105.968 161.251 106.231 161.59 106.542 161.874L106.646 161.972L105.64 163.732ZM109.462 161.945C109.391 161.945 109.32 161.945 109.243 161.94C108.948 161.918 108.647 161.841 108.336 161.716L108.15 161.639L110.353 157.824L110.512 158.048C110.681 158.283 110.84 158.529 110.987 158.781C111.135 159.032 111.25 159.278 111.337 159.524C111.425 159.77 111.474 160.016 111.48 160.251C111.485 160.497 111.425 160.732 111.299 160.945C111.162 161.18 110.987 161.377 110.78 161.535C110.572 161.694 110.331 161.808 110.069 161.874C109.883 161.918 109.675 161.945 109.462 161.945ZM108.664 161.453C108.872 161.524 109.074 161.562 109.271 161.579C109.528 161.601 109.768 161.579 109.987 161.524C110.2 161.47 110.397 161.371 110.572 161.245C110.741 161.12 110.884 160.956 110.993 160.765C111.086 160.601 111.13 160.437 111.124 160.256C111.119 160.06 111.08 159.852 111.004 159.639C110.927 159.415 110.818 159.185 110.681 158.955C110.588 158.797 110.49 158.639 110.381 158.48L108.664 161.453ZM110.195 155.851L110.036 155.616C109.878 155.387 109.746 155.168 109.637 154.949C109.517 154.72 109.435 154.507 109.385 154.288C109.331 154.064 109.314 153.845 109.336 153.632C109.358 153.414 109.429 153.2 109.55 152.987C109.768 152.605 110.102 152.342 110.539 152.217C110.966 152.091 111.458 152.124 111.993 152.326L112.19 152.397L110.195 155.851ZM111.059 152.506C110.911 152.506 110.769 152.528 110.632 152.566C110.282 152.67 110.025 152.867 109.85 153.173C109.757 153.337 109.697 153.507 109.686 153.67C109.67 153.845 109.686 154.02 109.73 154.206C109.774 154.397 109.85 154.583 109.954 154.785C110.02 154.911 110.096 155.042 110.178 155.173L111.671 152.594C111.447 152.539 111.244 152.506 111.059 152.506Z" fill="#273972"/>
<path d="M133.312 185.293C133.924 186.326 154.149 217.632 133.132 236.247C99.7637 222.332 72.9184 196.186 58.0742 163.104C68.2984 152.031 78.5116 140.958 88.7358 129.874C98.8287 151.916 114.214 170.903 133.312 185.293Z" fill="#F1F4FE"/>
<path d="M133.164 236.438L133.071 236.4C99.5231 222.409 72.8364 196.399 57.9266 163.169L57.8828 163.071L57.9539 162.994C68.1781 151.922 78.3913 140.849 88.6155 129.765L88.7795 129.584L88.8779 129.803C98.8506 151.577 114.247 170.722 133.405 185.162L133.449 185.206L133.536 185.342C136.921 190.819 152.82 219.015 133.241 236.362L133.164 236.438ZM58.2655 163.131C73.1371 196.213 99.7035 222.108 133.099 236.061C152.372 218.878 136.614 190.95 133.257 185.517L133.186 185.403C114.061 170.979 98.6756 151.883 88.6865 130.158C78.5444 141.155 68.4077 152.146 58.2655 163.131Z" fill="#273972"/>
<path d="M87.9007 135.476C79.2184 144.882 69.6667 154.19 60.9844 163.596C75.4076 194.519 99.5792 218.719 130.809 232.285C136.911 226.038 136.807 217.118 135.522 207.166V207.16C131.58 197.098 134.402 192.972 132.723 190.207C114.615 176.434 98.0155 155.802 87.9007 135.476ZM87.6328 138.209C97.611 157.278 113.931 177.445 132.247 191.442C133.702 194.065 131.422 198.219 135.44 207.772V207.778C134.292 215.992 136.233 224.83 131.159 230.541C101.214 217.244 77.9445 193.704 63.8056 163.984C67.5399 159.939 71.2195 155.9 74.9538 151.856C79.1528 147.314 83.4393 142.756 87.6328 138.209Z" fill="white"/>
<path d="M101.826 205.16C98.5676 205.155 95.7135 204.062 93.5758 201.996C91.0334 199.542 89.8305 196.006 90.175 192.043C90.5249 188.048 92.4112 184.096 95.4784 180.921C99.0432 177.237 103.691 175.128 108.229 175.133C111.487 175.139 114.347 176.232 116.484 178.298C119.021 180.752 120.23 184.282 119.88 188.25C119.53 192.245 117.644 196.197 114.571 199.372C111.012 203.05 106.364 205.16 101.826 205.16Z" fill="white"/>
<path d="M108.234 174.745V175.521C111.395 175.527 114.156 176.581 116.222 178.582C118.677 180.954 119.842 184.375 119.503 188.223C119.158 192.131 117.31 195.995 114.303 199.11C110.815 202.717 106.266 204.783 101.832 204.783C98.6772 204.777 95.9161 203.723 93.8494 201.728C91.3945 199.356 90.23 195.934 90.569 192.087C90.9134 188.179 92.756 184.315 95.7685 181.2C99.2568 177.593 103.806 175.527 108.24 175.532L108.234 174.745ZM108.229 174.745C103.784 174.74 98.9561 176.767 95.1999 180.648C88.721 187.348 87.8735 197.028 93.3027 202.269C95.5772 204.471 98.6007 205.537 101.821 205.543C106.266 205.548 111.094 203.52 114.85 199.635C121.329 192.939 122.176 183.255 116.753 178.013C114.478 175.816 111.455 174.745 108.229 174.745Z" fill="#A0AFDE"/>
<path d="M98.6433 191.464C98.8128 192.054 99.1791 193.185 100.349 194.322C101.765 195.689 103.11 195.361 103.821 194.623C104.745 193.666 104.526 192.535 103.57 190.327C102.421 187.731 102.394 185.851 103.974 184.222C105.374 182.774 107.697 182.386 109.89 183.9L111.738 181.992L112.897 183.107L111.104 184.96C112.148 186.004 112.935 187.403 113.132 188.48L111.503 189.283C111.268 188.206 110.65 186.933 109.622 185.938C108.321 184.676 106.708 184.577 105.696 185.627C104.723 186.638 104.832 187.955 105.658 189.819C106.817 192.366 107.162 194.322 105.614 195.918C104.144 197.443 101.94 197.552 99.9829 196.197L98.1895 198.055L97.0523 196.951L98.7745 195.169C97.7084 194.065 97.2382 193.049 97.0085 192.224L98.6433 191.464Z" fill="#F1F4FE"/>
<path d="M98.1962 198.29L96.8238 196.962L98.5516 195.175C97.6986 194.268 97.1464 193.317 96.8566 192.273L96.8184 192.142L98.7429 191.234L98.7976 191.415C98.9398 191.907 99.2733 193.054 100.46 194.202C101.81 195.503 103.051 195.18 103.707 194.508C104.506 193.683 104.44 192.721 103.423 190.387C102.182 187.578 102.313 185.698 103.86 184.102C105.156 182.758 107.507 182.124 109.869 183.687L111.734 181.763L113.122 183.107L111.324 184.966C112.319 185.998 113.084 187.354 113.286 188.458L113.308 188.578L111.384 189.529L111.34 189.327C111.078 188.125 110.41 186.939 109.503 186.064C108.284 184.884 106.764 184.758 105.807 185.747C104.938 186.649 104.938 187.808 105.801 189.759C106.802 191.95 107.48 194.224 105.725 196.038C104.227 197.591 101.991 197.733 100 196.416L98.1962 198.29ZM97.2831 196.957L98.1907 197.831L99.9676 195.989L100.082 196.066C101.963 197.372 104.09 197.274 105.506 195.809C107.037 194.229 106.616 192.3 105.517 189.884C104.599 187.818 104.62 186.512 105.583 185.518C106.676 184.392 108.382 184.517 109.738 185.829C110.635 186.698 111.313 187.862 111.619 189.054L112.958 188.392C112.723 187.332 111.963 186.042 110.996 185.075L110.886 184.96L112.679 183.107L111.755 182.216L109.924 184.107L109.809 184.031C107.567 182.479 105.326 183.064 104.101 184.332C102.641 185.84 102.532 187.556 103.729 190.261C104.686 192.459 104.959 193.688 103.948 194.732C103.133 195.574 101.673 195.809 100.246 194.432C99.1256 193.349 98.7265 192.267 98.5516 191.683L97.2175 192.311C97.5127 193.295 98.065 194.191 98.9015 195.06L99.0108 195.175L97.2831 196.957Z" fill="#273972"/>
<path d="M129.821 203.908C131.746 205.772 131.801 208.838 129.936 210.767C128.072 212.691 125.004 212.746 123.074 210.882C121.15 209.018 121.095 205.952 122.954 204.023C124.824 202.099 127.897 202.05 129.821 203.908Z" fill="white"/>
<path d="M90.8479 166.252C92.7725 168.116 92.8271 171.182 90.9627 173.105C89.1038 175.035 86.0311 175.084 84.101 173.226C82.1765 171.362 82.1218 168.296 83.9862 166.367C85.8506 164.443 88.9179 164.388 90.8479 166.252Z" fill="white"/>
<path d="M87.4675 174.751C86.1608 174.751 84.9306 174.253 83.9848 173.34C82.0001 171.422 81.9454 168.241 83.8645 166.257C84.7939 165.295 86.046 164.749 87.3855 164.727C88.7196 164.7 89.9935 165.203 90.9558 166.137C91.9181 167.066 92.4593 168.318 92.4812 169.657C92.5031 170.996 92.0055 172.264 91.0706 173.226C90.1411 174.188 88.8891 174.734 87.555 174.756C87.5277 174.751 87.5003 174.751 87.4675 174.751ZM87.4785 165.049C87.4511 165.049 87.4238 165.049 87.3964 165.049C86.1444 165.071 84.9743 165.58 84.105 166.481C82.3062 168.34 82.3554 171.313 84.2144 173.111C85.0946 173.964 86.2483 174.428 87.473 174.428C87.5003 174.428 87.5277 174.428 87.555 174.428C88.8071 174.406 89.9771 173.898 90.8464 172.996C91.7157 172.094 92.186 170.908 92.1641 169.657C92.1422 168.405 91.6337 167.236 90.7371 166.367C89.8513 165.514 88.6977 165.049 87.4785 165.049Z" fill="#273972"/>
<path d="M71.2805 160.901C73.2105 162.759 73.2597 165.831 71.3953 167.76C69.5364 169.684 66.4637 169.739 64.5337 167.875C62.6091 166.011 62.5544 162.945 64.4189 161.016C66.2833 159.092 69.356 159.043 71.2805 160.901Z" fill="white"/>
<path d="M134.751 222.31C136.676 224.174 136.73 227.24 134.866 229.169C133.007 231.099 129.934 231.148 128.004 229.29C126.08 227.426 126.025 224.36 127.89 222.431C129.754 220.501 132.821 220.447 134.751 222.31Z" fill="white"/>
<path d="M89.2397 139.93C90.53 142.822 93.2856 145.603 91.0822 147.883C88.8788 150.156 85.2484 150.216 82.9685 148.019C80.694 145.817 81.5087 142.543 83.7121 140.264C85.9155 137.99 87.922 136.974 89.2397 139.93Z" fill="white"/>
<path d="M133.308 185.293C136.533 189.622 151.815 218.146 135.248 234.159C135.248 234.159 135.369 210.456 126.14 205.706C126.14 205.706 139.803 197.705 133.308 185.293Z" fill="white"/>
<path d="M137.474 192.874C141.805 202.416 146.441 218.435 138.568 230.202C138.573 229.776 138.196 213.795 131.668 205.969C135.736 203.034 138.174 198.186 137.474 192.874Z" fill="#D5DFE8"/>
<path d="M137.172 182.025C132.136 180.047 128.736 174.018 129.239 167.17C129.736 160.371 133.919 154.928 139.14 153.654L139.173 153.173L142.202 153.397C148.768 153.878 153.613 160.825 153.022 168.914C152.432 177.002 146.625 183.167 140.059 182.692L137.134 182.555L137.172 182.025Z" fill="#FFB923"/>
<path d="M140.768 182.861C140.528 182.861 140.287 182.85 140.046 182.834L136.974 182.686L137.012 182.123C131.851 180.03 128.592 173.898 129.084 167.159C129.571 160.486 133.639 154.9 138.991 153.534L139.029 153.015L142.206 153.244C145.426 153.479 148.341 155.245 150.413 158.212C152.474 161.169 153.453 164.973 153.163 168.919C152.594 176.778 147.105 182.861 140.768 182.861ZM137.296 182.402L140.063 182.533C146.542 183.003 152.283 176.888 152.868 168.897C153.152 165.022 152.195 161.284 150.167 158.382C148.149 155.491 145.317 153.769 142.184 153.545L139.308 153.332L139.275 153.769L139.166 153.796C133.885 155.086 129.86 160.59 129.379 167.176C128.893 173.827 132.119 179.872 137.22 181.878L137.324 181.916L137.296 182.402Z" fill="#D64E2D"/>
<path d="M126.208 166.946C125.617 175.035 130.565 182.063 137.132 182.544C143.698 183.025 149.401 176.773 149.991 168.684C150.582 160.595 145.738 153.649 139.171 153.168C132.605 152.692 126.798 158.857 126.208 166.946Z" fill="white"/>
<path d="M137.826 182.703C137.591 182.703 137.356 182.692 137.121 182.675C133.901 182.44 130.97 180.664 128.876 177.675C126.782 174.691 125.787 170.876 126.077 166.935C126.366 162.995 127.881 159.377 130.352 156.753C132.829 154.119 135.962 152.796 139.182 153.037C145.814 153.523 150.724 160.546 150.128 168.695C149.548 176.592 144.103 182.703 137.826 182.703ZM138.45 153.277C135.568 153.277 132.785 154.561 130.549 156.933C128.121 159.513 126.629 163.071 126.345 166.952C126.06 170.827 127.039 174.581 129.1 177.516C131.15 180.44 134.01 182.173 137.148 182.408C143.573 182.872 149.275 176.713 149.866 168.673C150.451 160.672 145.65 153.774 139.171 153.304C138.925 153.288 138.685 153.277 138.45 153.277Z" fill="#273972"/>
<path d="M128.331 167.11C127.844 173.751 131.912 179.527 137.303 179.921C142.699 180.314 147.379 175.182 147.866 168.537C148.353 161.891 144.372 156.19 138.981 155.797C133.585 155.398 128.817 160.464 128.331 167.11Z" fill="#FFB923"/>
<path d="M137.888 180.09C137.692 180.09 137.489 180.085 137.293 180.068C134.635 179.877 132.219 178.407 130.491 175.942C128.763 173.483 127.943 170.34 128.184 167.094L128.337 167.104L128.184 167.094C128.419 163.847 129.671 160.868 131.705 158.704C133.75 156.534 136.336 155.452 138.987 155.638C144.455 156.037 148.506 161.825 148.014 168.542C147.774 171.799 146.538 174.789 144.537 176.964C142.667 178.997 140.327 180.09 137.888 180.09ZM138.386 155.922C136.03 155.922 133.755 156.972 131.923 158.912C129.933 161.027 128.714 163.94 128.479 167.115C128.249 170.291 129.048 173.362 130.732 175.767C132.41 178.155 134.745 179.576 137.309 179.762C139.868 179.954 142.35 178.882 144.307 176.756C146.265 174.636 147.473 171.706 147.708 168.515C148.189 161.967 144.264 156.321 138.96 155.933C138.774 155.933 138.583 155.922 138.386 155.922Z" fill="#D64E2D"/>
<path d="M139.393 163.629C138.556 163.596 137.845 163.771 137.266 164.153C136.916 164.377 136.599 164.705 136.309 165.132C136.014 165.574 135.833 166.001 135.768 166.405L140.863 166.596L140.623 167.591L135.615 167.405C135.604 167.509 135.598 167.607 135.598 167.7C135.582 168.083 135.576 168.312 135.582 168.389L140.388 168.569L140.142 169.564L135.697 169.4C135.866 170.548 136.336 171.373 137.113 171.881C137.67 172.248 138.288 172.439 138.955 172.466C139.885 172.499 140.623 172.286 141.164 171.816L141.109 173.352C140.475 173.619 139.786 173.734 139.032 173.707C136.779 173.625 135.298 172.63 134.576 170.728C134.428 170.346 134.313 169.881 134.215 169.34L133.072 169.296L133.318 168.301L134.1 168.329C134.095 168.121 134.095 167.892 134.106 167.651C134.111 167.553 134.117 167.449 134.122 167.345L133.143 167.307L133.389 166.312L134.253 166.345C134.625 164.733 135.472 163.601 136.796 162.94C137.616 162.53 138.507 162.344 139.469 162.382C140.393 162.415 141.17 162.645 141.782 163.077L141.432 164.454C140.847 163.935 140.169 163.656 139.393 163.629Z" fill="white"/>
<path d="M139.234 173.843C139.163 173.843 139.092 173.843 139.021 173.838C136.725 173.751 135.183 172.723 134.445 170.777C134.308 170.417 134.193 169.974 134.095 169.471L132.897 169.427L133.209 168.17L133.958 168.198C133.958 168.023 133.958 167.842 133.964 167.651C133.964 167.596 133.969 167.536 133.975 167.482L132.969 167.443L133.28 166.186L134.144 166.219C134.532 164.629 135.407 163.492 136.73 162.836C137.567 162.421 138.485 162.224 139.469 162.262C140.415 162.295 141.219 162.536 141.853 162.978L141.93 163.033L141.503 164.716L141.339 164.569C140.776 164.066 140.12 163.798 139.382 163.771C138.578 163.743 137.889 163.907 137.332 164.274C136.998 164.492 136.692 164.809 136.413 165.219C136.167 165.591 136.003 165.946 135.921 166.29L141.022 166.482L140.721 167.739L135.73 167.553C135.724 167.607 135.724 167.662 135.719 167.717C135.708 167.974 135.702 168.154 135.702 168.269L140.546 168.449L140.235 169.706L135.844 169.542C136.025 170.564 136.473 171.313 137.178 171.772C137.714 172.122 138.31 172.313 138.95 172.335C139.841 172.362 140.552 172.16 141.066 171.717L141.301 171.515L141.23 173.444L141.153 173.477C140.568 173.718 139.923 173.843 139.234 173.843ZM133.236 169.17L134.324 169.209L134.341 169.318C134.434 169.854 134.554 170.313 134.696 170.684C135.402 172.548 136.823 173.494 139.032 173.576C139.732 173.603 140.382 173.494 140.973 173.264L141.017 172.1C140.481 172.466 139.786 172.63 138.95 172.603C138.261 172.575 137.621 172.373 137.042 171.996C136.233 171.471 135.735 170.602 135.566 169.422L135.544 169.263L140.038 169.433L140.218 168.706L135.451 168.526L135.445 168.4C135.445 168.323 135.451 168.11 135.462 167.706C135.467 167.607 135.473 167.509 135.478 167.4L135.489 167.274L140.519 167.46L140.694 166.733L135.615 166.542L135.637 166.394C135.702 165.968 135.894 165.525 136.2 165.066C136.501 164.623 136.834 164.284 137.195 164.049C137.796 163.656 138.54 163.465 139.398 163.503C140.125 163.53 140.782 163.771 141.356 164.23L141.629 163.153C141.049 162.776 140.322 162.568 139.464 162.536C138.523 162.503 137.649 162.683 136.856 163.082C135.577 163.716 134.745 164.831 134.385 166.394L134.357 166.503L133.488 166.471L133.308 167.197L134.264 167.236L134.253 167.378C134.242 167.482 134.237 167.58 134.237 167.678C134.226 167.913 134.226 168.138 134.232 168.351L134.237 168.493L133.417 168.46L133.236 169.17Z" fill="#273972"/>
<path d="M66.4525 180.833C61.7778 176.281 60.821 168.001 64.5772 160.622C68.306 153.299 75.4957 149.205 81.8926 150.222L82.1551 149.702L85.4137 151.364C92.4886 154.96 94.6264 164.94 90.1868 173.652C85.7527 182.364 76.4197 186.506 69.3502 182.91L66.1682 181.391L66.4525 180.833Z" fill="#FFB923"/>
<path d="M74.8306 184.386C72.9115 184.386 71.0197 183.965 69.2701 183.074L65.9241 181.478L66.2302 180.866C61.4681 176.127 60.719 167.793 64.415 160.535C68.0728 153.348 75.2078 149.041 81.7907 150.019L82.075 149.456L85.4976 151.2C88.9694 152.965 91.3806 156.288 92.2937 160.551C93.2067 164.803 92.5124 169.482 90.3472 173.734C86.9738 180.374 80.7518 184.386 74.8306 184.386ZM66.4161 181.309L69.4287 182.746C76.4052 186.299 85.6452 182.178 90.0247 173.57C92.1515 169.394 92.8295 164.798 91.9383 160.628C91.0471 156.474 88.7015 153.238 85.3281 151.522L82.2335 149.948L81.9929 150.424L81.8617 150.402C75.3937 149.374 68.3516 153.605 64.7376 160.704C61.0908 167.869 61.8453 176.095 66.5801 180.702L66.6731 180.795L66.4161 181.309Z" fill="#D64E2D"/>
<path d="M61.3141 158.961C56.88 167.673 59.0943 177.795 66.1637 181.391C73.2386 184.987 82.4896 180.702 86.9292 171.996C91.3633 163.284 89.2255 153.304 82.1506 149.702C75.0812 146.106 65.7537 150.254 61.3141 158.961Z" fill="white"/>
<path d="M71.5268 182.817C69.646 182.817 67.8034 182.407 66.0921 181.538C62.6257 179.773 60.1982 176.434 59.2632 172.132C58.3283 167.837 59.0062 163.136 61.1659 158.89C63.3255 154.643 66.7045 151.337 70.6738 149.571C74.6542 147.8 78.7548 147.8 82.2211 149.56C89.3616 153.195 91.5377 163.289 87.0653 172.067C83.67 178.762 77.4316 182.817 71.5268 182.817ZM76.6552 148.566C74.7416 148.566 72.7624 148.997 70.8105 149.866C66.9068 151.599 63.588 154.856 61.4611 159.037C59.3343 163.213 58.6673 167.842 59.5858 172.061C60.4989 176.27 62.8608 179.533 66.2452 181.249C73.1615 184.768 82.3797 180.582 86.7919 171.919C91.1823 163.3 89.0664 153.397 82.0844 149.845C80.4005 148.992 78.5579 148.566 76.6552 148.566Z" fill="#273972"/>
<path d="M63.5985 160.136C59.9572 167.29 61.7724 175.603 67.5843 178.56C73.3962 181.517 80.996 177.997 84.6373 170.843C88.2786 163.688 86.5236 155.49 80.7171 152.534C74.9052 149.577 67.2398 152.982 63.5985 160.136Z" fill="#FFB923"/>
<path d="M72.0244 179.789C70.4388 179.789 68.9079 179.434 67.5028 178.718C64.6433 177.264 62.6422 174.51 61.8713 170.957C61.1004 167.421 61.658 163.546 63.4404 160.048C65.2228 156.551 68.0058 153.823 71.2753 152.37C74.5613 150.91 77.9402 150.91 80.8051 152.364C86.6936 155.359 88.4924 163.683 84.8073 170.919C83.0195 174.428 80.2529 177.177 77.0052 178.653C75.3431 179.412 73.6537 179.789 72.0244 179.789ZM63.599 160.136L63.763 160.218C62.0189 163.639 61.4776 167.427 62.2267 170.881C62.9757 174.319 64.9057 176.986 67.6668 178.39C70.4169 179.789 73.6755 179.768 76.8467 178.319C80.0178 176.876 82.7242 174.187 84.4738 170.75C88.0659 163.694 86.3437 155.594 80.6302 152.687C77.8691 151.282 74.5995 151.287 71.4175 152.703C68.2245 154.124 65.5017 156.791 63.763 160.212L63.599 160.136Z" fill="#D64E2D"/>
<path d="M74.9033 158.163C75.3407 158.25 75.7508 158.392 76.1444 158.584C76.5326 158.775 76.8825 159.021 77.1887 159.322C77.4949 159.622 77.7464 159.983 77.9487 160.404C78.151 160.825 78.2767 161.311 78.3314 161.852L76.7349 161.748C76.5818 161.191 76.3467 160.743 76.0351 160.409C75.7234 160.076 75.3133 159.846 74.7994 159.721L74.5042 164.169C74.8158 164.328 75.1275 164.486 75.4336 164.65C75.7398 164.814 76.0296 164.984 76.3084 165.17C76.5873 165.355 76.8442 165.552 77.0739 165.76C77.309 165.968 77.5058 166.203 77.6753 166.459C77.8448 166.716 77.9651 166.995 78.0471 167.296C78.1291 167.596 78.1564 167.93 78.1346 168.29C78.0963 168.897 77.9487 169.411 77.6917 169.837C77.4347 170.263 77.1121 170.619 76.7294 170.903C76.3412 171.182 75.9093 171.395 75.4336 171.531C74.958 171.673 74.4768 171.75 74.0012 171.772L73.8535 173.996L72.2406 173.887L72.3883 171.624C71.9181 171.488 71.4807 171.274 71.0815 170.99C70.6824 170.706 70.327 170.356 70.0263 169.957C69.7201 169.553 69.4741 169.105 69.2827 168.602C69.0914 168.099 68.9711 167.569 68.9219 167.006L70.6168 167.121C70.6551 167.46 70.7207 167.782 70.8246 168.088C70.9284 168.394 71.0542 168.673 71.2127 168.924C71.3713 169.176 71.5572 169.394 71.7704 169.58C71.9891 169.766 72.2242 169.908 72.4867 170.012L72.8093 165.181C72.3773 164.951 71.9563 164.716 71.5627 164.47C71.1635 164.224 70.8136 163.945 70.5075 163.634C70.2013 163.322 69.9607 162.972 69.7967 162.59C69.6272 162.202 69.5616 161.754 69.5944 161.245C69.6217 160.792 69.742 160.382 69.9498 160.005C70.1575 159.633 70.4309 159.311 70.7644 159.037C71.0979 158.764 71.4807 158.54 71.9181 158.376C72.35 158.212 72.8093 158.108 73.2849 158.07L73.3779 156.644L74.9908 156.747L74.9033 158.163ZM71.2784 161.284C71.262 161.519 71.2948 161.737 71.3713 161.934C71.4479 162.136 71.5572 162.322 71.7048 162.497C71.8525 162.672 72.0274 162.836 72.2406 162.994C72.4539 163.153 72.6835 163.3 72.9405 163.443L73.192 159.633C72.607 159.693 72.1532 159.879 71.8196 160.18C71.4861 160.48 71.3057 160.852 71.2784 161.284ZM76.467 168.214C76.4834 167.979 76.4342 167.755 76.3303 167.547C76.221 167.339 76.0733 167.137 75.8765 166.951C75.6797 166.76 75.4555 166.58 75.1985 166.41C74.9416 166.241 74.6737 166.082 74.3948 165.929L74.1105 170.22C74.455 170.198 74.7666 170.127 75.0509 170.012C75.3298 169.897 75.5758 169.755 75.7836 169.575C75.9913 169.394 76.1499 169.192 76.2702 168.957C76.3795 168.733 76.4451 168.482 76.467 168.214Z" fill="white"/>
<path d="M74.0386 174.198L72.0375 174.062L72.1906 171.755C71.7532 171.613 71.3486 171.406 70.9768 171.138C70.5613 170.837 70.1895 170.477 69.8779 170.061C69.5662 169.646 69.3038 169.176 69.1124 168.662C68.9156 168.148 68.7898 167.591 68.7406 167.011L68.7188 166.787L70.8019 166.924L70.8183 167.088C70.8511 167.41 70.9221 167.722 71.0151 168.017C71.1135 168.307 71.2338 168.575 71.3869 168.81C71.5345 169.039 71.7095 169.247 71.9063 169.422C72.0375 169.536 72.1742 169.629 72.3218 169.706L72.6171 165.284C72.2125 165.066 71.8243 164.847 71.4689 164.623C71.0588 164.372 70.6925 164.082 70.3754 163.76C70.0528 163.432 69.8013 163.06 69.6209 162.656C69.4405 162.24 69.3694 161.759 69.4022 161.218C69.435 160.737 69.5607 160.294 69.7849 159.896C70.0036 159.507 70.2934 159.163 70.6488 158.873C70.9987 158.589 71.4033 158.354 71.8516 158.179C72.2507 158.026 72.6717 157.928 73.1037 157.873L73.2021 156.414L75.2032 156.545L75.1102 157.999C75.4984 158.092 75.8757 158.223 76.2311 158.398C76.6411 158.6 77.0074 158.857 77.3246 159.174C77.6471 159.491 77.915 159.874 78.1228 160.311C78.3306 160.754 78.4673 161.262 78.5274 161.825L78.5493 162.054L76.5864 161.923L76.5482 161.792C76.4006 161.267 76.1819 160.841 75.8975 160.535C75.657 160.278 75.3563 160.092 74.9845 159.967L74.7111 164.044C74.9845 164.186 75.2579 164.328 75.5258 164.47C75.8265 164.629 76.1272 164.803 76.417 164.995C76.7067 165.186 76.9692 165.388 77.2097 165.601C77.4558 165.825 77.669 166.071 77.844 166.334C78.0189 166.602 78.1556 166.902 78.2431 167.225C78.3306 167.547 78.3634 167.902 78.336 168.285C78.2923 168.919 78.1337 169.465 77.8658 169.919C77.5979 170.367 77.2535 170.744 76.8489 171.039C76.4443 171.335 75.985 171.553 75.493 171.701C75.061 171.826 74.6236 171.908 74.1917 171.941L74.0386 174.198ZM72.4476 173.701L73.6723 173.783L73.8199 171.581L73.9949 171.575C74.4541 171.553 74.9243 171.477 75.3781 171.34C75.8319 171.209 76.2475 171.007 76.6193 170.739C76.9856 170.477 77.2917 170.138 77.5323 169.733C77.7729 169.334 77.9096 168.842 77.9478 168.274C77.9697 167.935 77.9424 167.624 77.8658 167.345C77.7893 167.061 77.669 166.798 77.5159 166.563C77.3574 166.323 77.166 166.104 76.9473 165.902C76.7231 165.7 76.4716 165.508 76.2037 165.328C75.9249 165.148 75.6351 164.973 75.3453 164.82C75.0391 164.656 74.733 164.497 74.4213 164.339L74.3065 164.279L74.6236 159.469L74.8478 159.524C75.3945 159.661 75.8429 159.912 76.1764 160.273C76.4826 160.601 76.7177 161.032 76.8817 161.557L78.1064 161.639C78.0408 161.213 77.9314 160.825 77.7674 160.48C77.5815 160.081 77.3355 159.737 77.0512 159.453C76.7614 159.169 76.4279 158.934 76.0561 158.753C75.6843 158.573 75.2797 158.436 74.8642 158.349L74.6947 158.316L74.7876 156.911L73.5629 156.829L73.47 158.229L73.3005 158.245C72.8467 158.283 72.4038 158.382 71.9883 158.54C71.5782 158.699 71.2064 158.912 70.8893 159.169C70.5777 159.425 70.3153 159.737 70.1184 160.081C69.9271 160.426 69.8123 160.814 69.7849 161.235C69.7521 161.71 69.8177 162.136 69.9708 162.492C70.1294 162.852 70.3535 163.186 70.6433 163.481C70.9386 163.781 71.283 164.049 71.6657 164.29C72.0484 164.525 72.464 164.765 72.9014 164.995L73.0162 165.055L72.6717 170.28L72.4257 170.181C72.1414 170.072 71.8844 169.914 71.6493 169.711C71.4197 169.515 71.2174 169.28 71.0534 169.012C70.8893 168.749 70.7527 168.449 70.6433 168.132C70.5558 167.864 70.4902 167.58 70.4465 167.285L69.1452 167.197C69.1999 167.656 69.3092 168.099 69.4678 168.514C69.6482 168.995 69.8888 169.433 70.184 169.821C70.4738 170.203 70.8128 170.537 71.1955 170.815C71.5728 171.089 71.9938 171.291 72.4421 171.422L72.5952 171.466L72.4476 173.701ZM73.8964 170.433L74.2136 165.618L74.4815 165.76C74.7658 165.913 75.0392 166.077 75.3016 166.246C75.564 166.421 75.8046 166.607 76.0069 166.809C76.2147 167.011 76.3787 167.225 76.499 167.454C76.6247 167.689 76.6739 167.952 76.6575 168.225C76.6357 168.52 76.5646 168.799 76.4334 169.05C76.3021 169.307 76.1272 169.531 75.903 169.728C75.6788 169.919 75.4164 170.078 75.1157 170.198C74.815 170.318 74.4815 170.389 74.1151 170.416L73.8964 170.433ZM74.5635 166.246L74.312 170.001C74.5471 169.968 74.7713 169.914 74.9681 169.832C75.2251 169.728 75.4547 169.591 75.646 169.427C75.8319 169.269 75.9796 169.083 76.0834 168.87C76.1873 168.662 76.2475 168.438 76.2639 168.192C76.2748 167.99 76.2365 167.804 76.149 167.629C76.0506 167.438 75.9085 167.252 75.7281 167.083C75.5422 166.902 75.3235 166.727 75.0829 166.569C74.9189 166.459 74.7439 166.35 74.5635 166.246ZM73.1091 163.765L72.8412 163.612C72.5733 163.459 72.3382 163.311 72.125 163.153C71.9008 162.983 71.7149 162.814 71.5564 162.628C71.3978 162.437 71.2721 162.229 71.1901 162.011C71.1026 161.787 71.0698 161.541 71.0862 161.278C71.119 160.797 71.3213 160.382 71.6876 160.043C72.0485 159.71 72.546 159.513 73.1693 159.447L73.3989 159.426L73.1091 163.765ZM72.9724 159.857C72.5405 159.934 72.1961 160.087 71.9446 160.322C71.6493 160.595 71.4962 160.912 71.4689 161.3C71.4525 161.508 71.4798 161.699 71.5454 161.869C71.611 162.049 71.7149 162.218 71.8461 162.377C71.9828 162.541 72.1469 162.694 72.3492 162.841C72.4749 162.934 72.6116 163.027 72.7592 163.115L72.9724 159.857Z" fill="#273972"/>
<path d="M150.203 171.613L61.4114 171.515C57.7373 171.28 53.4234 170.427 53.4289 167.711L53.4234 171.51L53.4125 183.43L53.3359 250.665C53.3305 255.491 57.2397 259.404 62.062 259.409L150.105 259.508C154.096 259.513 157.333 256.283 157.338 252.294L157.42 178.844C157.426 174.854 154.194 171.619 150.203 171.613Z" fill="#D64E2D"/>
<path d="M56.1075 175.8C56.0583 175.8 56.0037 175.789 55.949 175.773C54.3801 175.237 54.085 174.647 54.0303 174.417C53.9702 174.155 54.1287 173.898 54.3911 173.832C54.6371 173.772 54.8776 173.909 54.9596 174.138C54.9924 174.187 55.2384 174.505 56.2661 174.86C56.5175 174.947 56.6542 175.221 56.5667 175.472C56.4957 175.674 56.3098 175.8 56.1075 175.8Z" fill="white"/>
<path d="M146.225 254.933L143.541 254.928C143.273 254.928 143.054 254.709 143.054 254.441C143.054 254.173 143.273 253.955 143.541 253.955L146.225 253.96C146.592 253.96 146.963 253.927 147.319 253.856C147.581 253.807 147.833 253.982 147.887 254.244C147.937 254.507 147.767 254.758 147.499 254.813C147.084 254.895 146.652 254.933 146.225 254.933ZM139.664 254.928L135.788 254.922C135.52 254.922 135.301 254.704 135.301 254.436C135.301 254.168 135.52 253.949 135.788 253.949L139.664 253.955C139.932 253.955 140.151 254.173 140.151 254.441C140.151 254.709 139.932 254.928 139.664 254.928ZM131.917 254.917L128.041 254.911C127.773 254.911 127.554 254.693 127.554 254.425C127.554 254.157 127.773 253.938 128.041 253.938L131.917 253.944C132.185 253.944 132.404 254.162 132.404 254.43C132.404 254.698 132.185 254.917 131.917 254.917ZM124.17 254.906L120.293 254.9C120.025 254.9 119.807 254.682 119.807 254.414C119.807 254.146 120.025 253.927 120.293 253.927L124.17 253.933C124.437 253.933 124.656 254.152 124.656 254.419C124.656 254.693 124.437 254.906 124.17 254.906ZM116.422 254.9L112.546 254.895C112.278 254.895 112.059 254.676 112.059 254.408C112.059 254.141 112.278 253.922 112.546 253.922L116.422 253.927C116.69 253.927 116.909 254.146 116.909 254.414C116.909 254.682 116.69 254.9 116.422 254.9ZM108.675 254.889L104.798 254.884C104.53 254.884 104.312 254.665 104.312 254.397C104.312 254.13 104.53 253.911 104.798 253.911L108.675 253.917C108.943 253.917 109.161 254.135 109.161 254.403C109.156 254.676 108.943 254.889 108.675 254.889ZM100.927 254.884L97.0509 254.878C96.783 254.878 96.5643 254.66 96.5643 254.392C96.5643 254.124 96.783 253.906 97.0509 253.906L100.927 253.911C101.195 253.911 101.414 254.13 101.414 254.397C101.408 254.665 101.195 254.884 100.927 254.884ZM93.18 254.873C93.1745 254.873 93.1745 254.873 93.18 254.873L89.3035 254.868C89.0356 254.868 88.8169 254.649 88.8169 254.381C88.8169 254.113 89.0356 253.895 89.3035 253.895L93.18 253.9C93.4479 253.9 93.6665 254.119 93.6665 254.387C93.6611 254.654 93.4424 254.873 93.18 254.873ZM85.4271 254.862L81.5506 254.857C81.2827 254.857 81.064 254.638 81.064 254.37C81.064 254.102 81.2827 253.884 81.5506 253.884L85.4271 253.889C85.695 253.889 85.9137 254.108 85.9137 254.376C85.9137 254.649 85.695 254.862 85.4271 254.862ZM77.6797 254.857L73.8032 254.851C73.5353 254.851 73.3166 254.633 73.3166 254.365C73.3166 254.097 73.5353 253.878 73.8032 253.878L77.6797 253.884C77.9476 253.884 78.1663 254.102 78.1663 254.37C78.1663 254.638 77.9476 254.857 77.6797 254.857ZM69.9323 254.846L66.0558 254.84C65.7879 254.84 65.5692 254.622 65.5692 254.354C65.5692 254.086 65.7879 253.867 66.0558 253.867L69.9323 253.873C70.2002 253.873 70.4189 254.091 70.4189 254.359C70.4189 254.627 70.2002 254.846 69.9323 254.846ZM62.1849 254.775C62.1685 254.775 62.1575 254.775 62.1411 254.775C61.1515 254.682 59.6698 254.458 58.2373 253.889C57.9858 253.791 57.8656 253.512 57.964 253.261C58.0624 253.009 58.3412 252.889 58.5927 252.987C59.9159 253.512 61.2991 253.72 62.2286 253.807C62.4965 253.829 62.6933 254.07 62.666 254.332C62.6441 254.589 62.4309 254.775 62.1849 254.775ZM150.758 253.004C150.638 253.004 150.517 252.96 150.424 252.867C150.233 252.681 150.228 252.375 150.413 252.184C151.255 251.315 151.791 250.222 151.972 249.03C152.01 248.768 152.256 248.582 152.524 248.626C152.786 248.664 152.972 248.91 152.934 249.178C152.726 250.566 152.097 251.84 151.119 252.856C151.015 252.955 150.889 253.004 150.758 253.004ZM152.518 245.724C152.251 245.724 152.032 245.505 152.032 245.237L152.037 241.363C152.037 241.095 152.256 240.876 152.524 240.876C152.792 240.876 153.01 241.095 153.01 241.363L153.005 245.237C153.005 245.505 152.786 245.724 152.518 245.724ZM152.529 237.974C152.261 237.974 152.043 237.755 152.043 237.488L152.048 233.613C152.048 233.345 152.267 233.126 152.535 233.126C152.803 233.126 153.021 233.345 153.021 233.613L153.016 237.488C153.016 237.761 152.797 237.974 152.529 237.974ZM152.54 230.23C152.272 230.23 152.054 230.011 152.054 229.743L152.059 225.868C152.059 225.6 152.278 225.382 152.546 225.382C152.814 225.382 153.032 225.6 153.032 225.868L153.027 229.743C153.021 230.016 152.803 230.23 152.54 230.23ZM152.546 222.485C152.278 222.485 152.059 222.266 152.059 221.999L152.065 218.124C152.065 217.856 152.283 217.637 152.551 217.637C152.819 217.637 153.038 217.856 153.038 218.124L153.032 221.999C153.032 222.266 152.814 222.485 152.546 222.485ZM152.557 214.741C152.289 214.741 152.07 214.522 152.07 214.254L152.076 210.379C152.076 210.111 152.294 209.893 152.562 209.893C152.83 209.893 153.049 210.111 153.049 210.379L153.043 214.254C153.038 214.522 152.825 214.741 152.557 214.741ZM152.562 206.996C152.294 206.996 152.076 206.778 152.076 206.51L152.081 202.64C152.081 202.372 152.3 202.154 152.568 202.154C152.836 202.154 153.054 202.372 153.054 202.64L153.049 206.51C153.049 206.778 152.83 206.996 152.562 206.996ZM152.573 199.252C152.305 199.252 152.086 199.033 152.086 198.765L152.092 194.89C152.092 194.622 152.311 194.404 152.579 194.404C152.846 194.404 153.065 194.622 153.065 194.89L153.06 198.765C153.06 199.033 152.841 199.252 152.573 199.252ZM152.584 191.502C152.316 191.502 152.097 191.283 152.097 191.015L152.103 187.14C152.103 186.873 152.322 186.654 152.589 186.654C152.857 186.654 153.076 186.873 153.076 187.14L153.071 191.015C153.065 191.289 152.846 191.502 152.584 191.502ZM152.589 183.757C152.322 183.757 152.103 183.539 152.103 183.271V182.713C152.103 181.686 151.829 180.675 151.316 179.795C151.179 179.565 151.261 179.265 151.491 179.134C151.726 179.002 152.021 179.079 152.152 179.308C152.754 180.336 153.071 181.516 153.071 182.713V183.271C153.076 183.544 152.857 183.757 152.589 183.757ZM148.915 177.478C148.85 177.478 148.779 177.461 148.713 177.434C147.959 177.089 147.149 176.909 146.307 176.909H145.121C144.853 176.909 144.634 176.691 144.634 176.423C144.634 176.155 144.853 175.936 145.121 175.936H146.307C147.286 175.936 148.232 176.144 149.112 176.548C149.358 176.658 149.462 176.947 149.353 177.188C149.276 177.374 149.101 177.478 148.915 177.478ZM141.25 176.904L137.374 176.898C137.106 176.898 136.887 176.68 136.887 176.412C136.887 176.144 137.106 175.925 137.374 175.925L141.25 175.931C141.518 175.931 141.737 176.149 141.737 176.417C141.737 176.691 141.518 176.904 141.25 176.904ZM133.503 176.898L129.626 176.893C129.358 176.893 129.14 176.674 129.14 176.406C129.14 176.139 129.358 175.92 129.626 175.92L133.503 175.925C133.77 175.925 133.989 176.144 133.989 176.412C133.989 176.68 133.77 176.898 133.503 176.898ZM125.755 176.887L121.879 176.882C121.611 176.882 121.392 176.663 121.392 176.395C121.392 176.128 121.611 175.909 121.879 175.909L125.755 175.914C126.023 175.914 126.242 176.133 126.242 176.401C126.242 176.669 126.023 176.887 125.755 176.887ZM118.008 176.876L114.131 176.871C113.863 176.871 113.645 176.652 113.645 176.384C113.645 176.117 113.863 175.898 114.131 175.898L118.008 175.904C118.276 175.904 118.494 176.122 118.494 176.39C118.489 176.663 118.276 176.876 118.008 176.876ZM110.26 176.871L106.384 176.865C106.116 176.865 105.897 176.647 105.897 176.379C105.897 176.111 106.116 175.893 106.384 175.893L110.26 175.898C110.528 175.898 110.747 176.117 110.747 176.384C110.741 176.652 110.528 176.871 110.26 176.871ZM102.513 176.86C102.507 176.86 102.507 176.86 102.513 176.86L98.6365 176.854C98.3686 176.854 98.1499 176.636 98.1499 176.368C98.1499 176.1 98.3686 175.882 98.6365 175.882L102.513 175.887C102.781 175.887 103 176.106 103 176.374C102.994 176.641 102.775 176.86 102.513 176.86ZM94.76 176.849L90.8836 176.844C90.6157 176.844 90.397 176.625 90.397 176.357C90.397 176.089 90.6157 175.871 90.8836 175.871L94.76 175.876C95.0279 175.876 95.2467 176.095 95.2467 176.363C95.2467 176.636 95.0279 176.849 94.76 176.849ZM87.0126 176.844L83.1362 176.838C82.8683 176.838 82.6496 176.619 82.6496 176.352C82.6496 176.084 82.8683 175.865 83.1362 175.865L87.0126 175.871C87.2806 175.871 87.4992 176.089 87.4992 176.357C87.4992 176.625 87.2806 176.844 87.0126 176.844ZM79.2652 176.833L75.3888 176.827C75.1209 176.827 74.9022 176.609 74.9022 176.341C74.9022 176.073 75.1209 175.854 75.3888 175.854L79.2652 175.86C79.5331 175.86 79.7518 176.078 79.7518 176.346C79.7518 176.619 79.5331 176.833 79.2652 176.833ZM71.5178 176.827L67.6414 176.822C67.3735 176.822 67.1548 176.603 67.1548 176.335C67.1548 176.067 67.3735 175.849 67.6414 175.849L71.5178 175.854C71.7857 175.854 72.0044 176.073 72.0044 176.341C71.999 176.609 71.7857 176.827 71.5178 176.827ZM63.7704 176.789C63.765 176.789 63.7595 176.789 63.754 176.789C62.3106 176.745 60.9984 176.663 59.8502 176.537C59.5823 176.51 59.391 176.27 59.4183 176.002C59.4457 175.734 59.6807 175.543 59.9541 175.57C61.075 175.69 62.3653 175.772 63.7814 175.816C64.0493 175.822 64.257 176.046 64.2516 176.313C64.2461 176.581 64.0329 176.789 63.7704 176.789Z" fill="white"/>
<path d="M55.2886 251.698C55.141 251.698 54.9989 251.633 54.9005 251.507C54.4741 250.944 54.157 250.315 53.9548 249.626C53.8783 249.369 54.0258 249.102 54.2828 249.025C54.5397 248.949 54.8076 249.096 54.8841 249.353C55.0535 249.927 55.3214 250.452 55.6767 250.922C55.8407 251.135 55.797 251.441 55.5838 251.6C55.4909 251.665 55.387 251.698 55.2886 251.698Z" fill="white"/>
<path d="M156.059 227.891L137.655 227.869C136.135 227.869 134.905 226.634 134.905 225.114L134.922 212.303C134.922 210.784 136.157 209.554 137.677 209.554L156.075 209.576C157.595 209.576 158.825 210.811 158.825 212.331L158.809 225.141C158.809 226.661 157.579 227.891 156.059 227.891Z" fill="#C00014"/>
<path d="M157.191 227.043L138.787 227.021C137.267 227.021 136.037 225.786 136.037 224.267L136.054 211.456C136.054 209.937 137.289 208.707 138.809 208.707L157.213 208.729C158.733 208.729 159.963 209.964 159.963 211.483L159.946 224.294C159.941 225.814 158.711 227.043 157.191 227.043Z" fill="#AA3D22"/>
<path d="M148 218.348C147.995 220.966 145.873 223.081 143.254 223.081C140.635 223.075 138.52 220.955 138.52 218.337C138.525 215.719 140.646 213.604 143.265 213.604C145.884 213.609 148 215.735 148 218.348Z" fill="#D63C24"/>
<path d="M148.994 217.878C148.989 220.496 146.867 222.611 144.248 222.611C141.63 222.605 139.514 220.485 139.514 217.867C139.519 215.249 141.641 213.134 144.259 213.134C146.878 213.139 149 215.265 148.994 217.878Z" fill="#FFB923"/>
<path d="M186.289 94.1084C184.441 95.6223 183.78 97.2674 183.747 99.0327C183.32 99.1748 182.954 99.6066 183.091 100.164C183.484 101.722 183.905 103.268 184.386 104.793C184.638 105.58 184.851 106.903 185.535 107.477C186.579 108.346 189.373 107.848 190.483 107.4C191.669 106.919 192.538 107.422 192.413 106.127C192.309 105.056 190.964 100.399 191.051 98.8906C191.221 95.9174 188.99 91.9004 186.289 94.1084Z" fill="white"/>
<path d="M187.414 108.226C186.605 108.226 185.839 108.083 185.358 107.684C184.751 107.176 184.489 106.203 184.276 105.416C184.221 105.22 184.172 105.034 184.123 104.87C183.68 103.476 183.27 102 182.821 100.224C182.663 99.5902 183.007 99.0765 183.472 98.8414C183.554 96.8903 184.418 95.2725 186.107 93.8898C187.255 92.9497 188.24 93.1301 188.857 93.4471C190.52 94.2942 191.433 96.9395 191.318 98.9016C191.269 99.8143 191.777 102 192.187 103.76C192.439 104.837 192.635 105.684 192.679 106.094C192.789 107.225 192.16 107.318 191.547 107.411C191.258 107.455 190.935 107.504 190.58 107.646C189.962 107.909 188.633 108.226 187.414 108.226ZM186.457 94.3161C184.828 95.6497 184.052 97.1472 184.013 99.0327L184.008 99.224L183.827 99.2841C183.527 99.3825 183.248 99.6777 183.352 100.088C183.795 101.853 184.21 103.318 184.647 104.7C184.702 104.87 184.751 105.061 184.806 105.269C184.997 105.979 185.233 106.859 185.708 107.258C186.632 108.034 189.278 107.586 190.377 107.138C190.793 106.968 191.17 106.914 191.471 106.87C192.089 106.777 192.198 106.761 192.138 106.143C192.1 105.766 191.897 104.892 191.662 103.881C191.241 102.088 190.722 99.858 190.777 98.8688C190.891 96.8466 189.896 94.5839 188.611 93.9281C187.923 93.5837 187.195 93.7149 186.457 94.3161Z" fill="#273972"/>
<path d="M185.519 87.5447C186.492 87.3753 187.766 87.1895 188.745 87.4846C189.439 87.6923 189.909 88.206 190.281 88.9056C191.036 90.3212 191.774 95.8193 191.047 98.8909C190.478 97.7268 189.434 94.4038 188.668 93.0375C188.406 92.5784 188.269 92.0537 188.034 91.5782C187.209 89.9276 186.547 90.4469 185.481 90.0151C184.983 89.8129 184.447 89.321 184.42 88.6542C184.393 87.8727 184.956 87.6431 185.519 87.5447Z" fill="white"/>
<path d="M191.139 99.6997L190.805 99.0111C190.559 98.5083 190.225 97.6119 189.876 96.6664C189.405 95.393 188.864 93.9447 188.438 93.174C188.285 92.9008 188.17 92.6111 188.06 92.3324C187.978 92.1192 187.896 91.9061 187.792 91.7039C187.273 90.6654 186.879 90.5998 186.289 90.5015C186.026 90.4577 185.726 90.4086 185.381 90.2719C184.796 90.0369 184.184 89.4467 184.151 88.6706C184.102 87.5174 185.13 87.337 185.469 87.2769C186.562 87.0856 187.82 86.9271 188.82 87.2277C189.526 87.4409 190.067 87.9327 190.521 88.7799C191.335 90.2992 192.035 95.9013 191.314 98.9564L191.139 99.6997ZM185.567 87.8125C184.911 87.9273 184.676 88.1568 184.698 88.6487C184.72 89.1843 185.163 89.5942 185.584 89.7691C185.868 89.8839 186.125 89.9276 186.371 89.9659C187.016 90.0697 187.628 90.1681 188.279 91.4634C188.388 91.682 188.476 91.9061 188.563 92.1356C188.673 92.4089 188.771 92.6712 188.908 92.9062C189.362 93.7151 189.903 95.1853 190.384 96.4751C190.581 97.0053 190.767 97.5136 190.942 97.9453C191.368 94.8027 190.657 90.1845 190.04 89.0313C189.662 88.3208 189.225 87.9163 188.662 87.7469C187.776 87.4791 186.601 87.6321 185.567 87.8125Z" fill="#273972"/>
<path d="M223.676 277.768C224.392 276.871 232.156 277.62 232.232 278.085C232.473 279.511 232.839 284.982 232.096 285.703C231.379 286.409 224.676 287.928 224.523 286.545C224.392 285.348 222.981 278.631 223.676 277.768Z" fill="white"/>
<path d="M226.016 287.376C225.546 287.376 225.142 287.332 224.863 287.228C224.403 287.064 224.278 286.78 224.256 286.578C224.229 286.31 224.13 285.742 224.004 285.02C223.277 280.801 222.955 278.232 223.463 277.598C224.256 276.609 230.489 277.259 231.85 277.615C232.222 277.713 232.463 277.817 232.501 278.041C232.659 278.976 233.223 284.987 232.288 285.9C231.697 286.48 228.138 287.376 226.016 287.376ZM226.262 277.62C225.043 277.62 224.07 277.708 223.89 277.937C223.436 278.506 224.212 283.004 224.54 284.927C224.666 285.66 224.764 286.234 224.797 286.518C224.808 286.611 224.939 286.676 225.043 286.715C226.459 287.223 231.391 286.01 231.905 285.507C232.473 284.949 232.26 280.052 231.976 278.216C231.38 277.91 228.433 277.62 226.262 277.62Z" fill="#273972"/>
<path d="M232.642 284.036C232.642 284.036 236.228 289.163 233.664 293.191C233.664 293.191 214.982 294.071 209.339 293.191C209.339 293.191 209.192 286.31 214.025 285.72C218.858 285.135 224.309 285.217 224.309 285.217C224.309 285.217 229.132 287.846 232.642 284.036Z" fill="#344D99"/>
<path d="M266.104 277.795C266.826 276.899 273.474 277.62 273.551 278.085C273.791 279.511 274.158 284.982 273.414 285.703C272.698 286.409 266.859 288.682 266.706 287.299C266.58 286.102 265.415 278.659 266.104 277.795Z" fill="white"/>
<path d="M267.545 288.004C267.31 288.004 267.102 287.977 266.944 287.922C266.649 287.819 266.468 287.605 266.441 287.327C266.419 287.13 266.37 286.764 266.304 286.288C265.665 281.577 265.353 278.298 265.889 277.62C266.638 276.686 271.662 277.199 273.1 277.571C273.516 277.68 273.784 277.795 273.822 278.035C273.981 278.97 274.544 284.982 273.609 285.895C273.018 286.48 269.355 288.004 267.545 288.004ZM266.315 277.964C265.812 278.598 266.589 284.332 266.846 286.217C266.911 286.698 266.96 287.07 266.982 287.267C266.988 287.299 266.993 287.359 267.13 287.403C268.234 287.797 272.592 286.124 273.232 285.507C273.806 284.944 273.587 280.036 273.303 278.205C272.461 277.724 266.829 277.33 266.315 277.964Z" fill="#273972"/>
<path d="M232.436 211.374C231.556 222.36 232.365 244.511 233.245 255.496C233.3 256.234 233.3 281.752 233.3 281.752L222.966 282.741C217.346 265.968 206.607 228.355 206.607 211.658C206.607 194.961 208.051 167.137 214.185 153.933C220.025 141.384 243.048 158.72 245.76 161.792C247.007 163.213 244.645 175.92 241.375 184.342C237.57 194.092 232.911 205.466 232.436 211.374Z" fill="#415EBE"/>
<path d="M233.975 255.42C233.373 244.418 231.553 222.359 232.433 211.374C232.909 205.466 240.071 188.441 243.871 178.68C242.87 175.674 244.122 169.219 241.64 167.552C239.584 166.181 231.536 175.27 230.64 177.959C229.918 180.085 231.236 182.774 231.394 184.9C231.678 188.802 230.727 192.633 228.824 196.044C225.976 201.088 222.477 205.061 220.875 210.773C217.78 221.878 220.257 233.465 222.859 244.396C224.511 251.288 226.271 258.229 226.692 265.328C226.922 269.406 227.496 278.347 226.916 282.353L233.291 281.746C233.297 281.752 234.576 266.378 233.975 255.42Z" fill="#344D99"/>
<path d="M274.347 281.752L265.178 282.741C260.389 266.919 247.6 239.892 245.72 223.299C242.8 197.53 239.279 169.935 239.12 163.153C239.104 162.06 239.082 161.48 239.082 161.48C245.397 153.796 256.097 150.67 260.859 150.107C262.74 149.877 264.112 150.249 264.708 151.233C266.644 154.468 268.153 157.458 269.334 160.267C277.021 178.511 270.547 189.534 270.689 213.265C270.689 214.637 270.706 216.041 270.744 217.43C270.99 227.24 268.344 239.319 271.165 249.566C276.693 269.657 274.347 281.752 274.347 281.752Z" fill="#415EBE"/>
<path d="M272.916 248.905C271.325 238.395 270.969 227.235 270.74 217.43C270.702 216.042 270.685 214.637 270.685 213.265C270.543 189.534 277.011 177.942 269.329 159.693C269.329 156.048 260.702 154.272 260.63 156.485C260.559 159.19 260.915 161.83 261.314 164.448C262.074 169.056 263.053 173.608 262.386 178.352C261.347 185.698 258.974 192.644 258.482 200.132C257.585 213.894 260.734 226.535 265.409 239.33C268.329 247.276 270.685 255.185 271.598 263.623C272.178 268.968 272.304 276.576 272.254 281.954L274.343 281.752C274.348 281.752 276.754 274.171 272.916 248.905Z" fill="#344D99"/>
<path d="M273.964 284.036C273.964 284.036 277.551 289.163 274.986 293.191C274.986 293.191 256.304 294.071 250.662 293.191C250.662 293.191 250.514 286.31 255.347 285.72C260.18 285.135 266.386 284.873 266.386 284.873C266.386 284.873 270.454 287.846 273.964 284.036Z" fill="#344D99"/>
<path d="M228.251 114.79C228.251 114.79 228.678 117.047 228.486 120.342C228.049 128.092 224.255 141.526 203.762 144.56C181.297 147.85 181.236 124.212 182.417 113.172C182.751 109.86 183.21 107.668 183.21 107.668C183.341 105.537 192.242 104.979 192.242 104.979C194.916 105.296 198.831 125.403 201.286 123.78C203.724 122.157 216.737 94.7753 225.884 89.534C231.466 86.3532 228.251 114.79 228.251 114.79Z" fill="white"/>
<path d="M199.729 145.144C194.972 145.144 191.106 143.74 188.198 140.941C181.079 134.104 181.352 120.588 182.145 113.144C182.473 109.86 182.938 107.635 182.944 107.613C183.08 105.4 190.702 104.804 192.227 104.706C193.638 104.87 194.939 108.499 196.924 114.462C198.291 118.561 199.833 123.212 200.904 123.583C200.986 123.611 201.057 123.605 201.134 123.551C201.888 123.048 203.988 119.457 206.421 115.298C211.653 106.351 219.565 92.8351 225.748 89.2935C226.388 88.9273 226.968 88.9109 227.471 89.2443C231.063 91.6108 228.69 113.374 228.531 114.779C228.591 115.112 228.941 117.265 228.761 120.359C228.318 128.185 224.485 141.772 203.802 144.827C202.38 145.041 201.019 145.144 199.729 145.144ZM192.211 105.252C188.914 105.466 183.567 106.313 183.485 107.685C183.474 107.745 183.015 109.942 182.692 113.199C181.91 120.55 181.631 133.869 188.58 140.548C192.151 143.98 197.246 145.237 203.725 144.292C224.026 141.291 227.782 127.994 228.22 120.331C228.406 117.107 227.995 114.866 227.99 114.844L227.985 114.806L227.99 114.768C228.706 108.422 229.958 91.5452 227.175 89.7143C226.853 89.5012 226.481 89.523 226.027 89.7854C219.975 93.2559 212.107 106.695 206.902 115.588C204.234 120.151 202.304 123.447 201.445 124.015C201.227 124.163 200.981 124.196 200.735 124.108C199.499 123.682 198.274 120.249 196.41 114.642C195.032 110.516 193.326 105.384 192.211 105.252Z" fill="#273972"/>
<path d="M182.581 113.594C183.976 121.924 185.54 132.06 192.746 137.4C200.914 143.466 211.089 138.701 216.765 131.645C217.891 130.251 218.919 128.852 219.963 127.513C224.255 116.866 218.946 104.258 222.762 93.245C223.129 92.1792 224.835 92.6219 224.463 93.6931C223.38 96.8139 223.025 100.049 222.97 103.329C223.271 103.438 223.517 103.7 223.544 104.121C223.697 106.449 223.954 108.881 224.173 111.335C224.709 114.964 225.354 118.746 225.146 122.222C226.141 121.501 227.235 120.856 228.487 120.348C228.049 128.098 224.255 141.532 203.763 144.565C181.136 146.806 181.618 123.702 182.581 113.594Z" fill="#FFF3F0"/>
<path d="M211.755 156.971C212.017 157.797 233.647 162.787 240.279 163.809C247.397 164.918 255.806 165.284 261.941 165.006C266.654 164.776 270.049 164.18 270.503 163.229C271.438 161.224 269.535 143.614 269.923 130.639C269.994 128.551 270.027 126.442 270.049 124.349C270.175 110.849 269.295 97.896 266.249 95.5568C265.582 95.0321 264.806 94.4856 263.947 93.9063C262.662 93.0263 261.17 92.1136 259.48 91.2337C256.845 89.8455 253.75 88.5611 250.284 87.6812C244.959 86.293 238.748 85.8339 231.93 87.397C231.93 87.397 231.93 87.4134 231.913 87.4134C230.262 87.785 228.573 88.2769 226.845 88.9273C226.44 89.0639 226.036 89.2279 225.615 89.3809C219.847 91.6982 220.672 104.252 221.607 114.779C222.028 119.665 222.466 124.113 222.291 126.89C222.22 127.824 222.116 128.754 221.941 129.666C220.634 137.427 212.723 151.331 211.755 156.971Z" fill="white"/>
<path d="M257.665 165.372C251.93 165.372 245.577 164.913 240.235 164.082C235.511 163.355 211.864 158.212 211.493 157.059L211.471 156.993L211.482 156.928C211.93 154.31 213.86 149.921 215.905 145.281C218.278 139.898 220.962 133.793 221.662 129.634C221.821 128.814 221.93 127.939 222.012 126.879C222.165 124.425 221.843 120.698 221.465 116.38L221.329 114.817C220.29 103.094 219.759 91.4524 225.511 89.1406L225.861 89.0094C226.162 88.8946 226.457 88.7799 226.752 88.6815C228.338 88.0858 229.984 87.5884 231.651 87.2058V87.1949L231.864 87.1457C238.004 85.7356 244.226 85.834 250.35 87.4299C253.51 88.2333 256.627 89.4357 259.606 91.0043C261.175 91.8186 262.69 92.7259 264.101 93.6932C265.079 94.3546 265.817 94.8847 266.419 95.3547C269.841 97.9836 270.426 112.582 270.323 124.365C270.306 126.699 270.262 128.759 270.197 130.667C270.005 137.132 270.383 144.838 270.689 151.031C271.044 158.229 271.225 162.344 270.749 163.361C270.137 164.634 265.626 165.115 261.952 165.295C260.58 165.339 259.142 165.372 257.665 165.372ZM212.05 156.879C213.68 157.89 233.767 162.535 240.317 163.541C247.009 164.579 255.287 165.039 261.925 164.732C267.622 164.454 269.967 163.716 270.251 163.115C270.689 162.175 270.432 157.015 270.137 151.047C269.83 144.844 269.448 137.127 269.645 130.639C269.71 128.737 269.748 126.682 269.77 124.354C269.918 108.111 268.573 97.6994 266.08 95.781C265.489 95.3165 264.762 94.7918 263.789 94.136C262.395 93.1795 260.902 92.2886 259.349 91.4798C256.408 89.9331 253.335 88.7471 250.213 87.9546C244.243 86.3969 238.185 86.2876 232.198 87.6267V87.6813L231.946 87.6977C230.246 88.0803 228.557 88.5831 226.938 89.1952C226.643 89.2991 226.353 89.4084 226.052 89.5232L225.708 89.6543C220.312 91.8241 220.853 103.252 221.875 114.773L222.012 116.336C222.389 120.676 222.717 124.425 222.564 126.923C222.482 128.01 222.367 128.901 222.209 129.732C221.498 133.957 218.797 140.094 216.413 145.505C214.418 150.025 212.531 154.304 212.05 156.879Z" fill="#273972"/>
<path d="M236.993 80.9367V86.577C236.993 86.577 235.659 89.02 236.993 89.2879C239.924 89.8727 244.156 86.5825 244.156 86.5825V77.9745L236.993 80.9367Z" fill="white"/>
<path d="M237.735 89.6269C237.462 89.6269 237.2 89.6051 236.937 89.5504C236.609 89.4848 236.368 89.3045 236.237 89.0257C235.865 88.2332 236.538 86.8505 236.718 86.5062V80.7511L244.428 77.5593V86.7084L244.324 86.7904C244.16 86.9161 240.644 89.6269 237.735 89.6269ZM237.271 81.1173V86.6428L237.238 86.7029C236.932 87.2659 236.522 88.3316 236.74 88.7962C236.773 88.8727 236.844 88.9765 237.052 89.0148C239.578 89.5176 243.225 86.9325 243.886 86.4406V78.3791L237.271 81.1173Z" fill="#273972"/>
<path d="M244.156 80.9695V78.7999C244.156 78.7999 241.078 82.2701 237.562 82.4668C237.562 82.4723 241.237 82.9204 244.156 80.9695Z" fill="#ABCEF4"/>
<path d="M259.094 97.1472C259.006 97.3057 254.408 102.093 256.169 110.592C257.623 117.615 260.833 123.102 262.292 130.131C263.719 136.968 263.03 143.63 262.435 150.522C262.156 153.719 261.855 156.922 261.593 160.119C261.456 161.77 261.55 163.653 262.031 164.616C266.744 164.386 269.591 164.123 270.051 163.172C270.986 161.166 269.353 143.416 269.735 130.441C269.806 128.353 269.713 126.277 269.735 124.184C269.745 123.221 269.827 116.905 269.755 116.15C269.438 112.778 269.69 99.6012 265.551 95.0266C264.813 94.2177 258.58 96.2891 259.094 97.1472Z" fill="#FFF3F0"/>
<path d="M212.102 97.6447C211.938 97.1528 211.675 96.6773 211.511 96.3002C211.057 95.2727 210.494 94.278 210.275 93.174C210.161 92.0263 210.412 90.8348 210.74 89.7363C211.024 88.7908 211.894 87.2714 210.8 86.5281C209.762 85.823 208.482 86.7522 207.93 87.6321C207.842 87.7687 207.788 87.9327 207.717 88.0857C207.602 87.9709 207.52 87.8452 207.389 87.7359C206.733 86.5937 205.923 85.5552 204.928 84.7791C203.693 83.8172 200.543 82.4345 199.439 84.2162C199.1 84.7682 199.33 85.4787 200.013 85.588C201.363 85.7957 202.698 86.14 203.818 86.8123C203.091 86.9817 202.408 87.561 202.189 88.5393C202.14 88.7689 202.129 89.0476 202.151 89.3318C201.927 89.4958 201.735 89.7089 201.67 90.0259C201.615 90.2828 201.648 90.5397 201.724 90.7966C201.254 90.9168 200.877 91.3868 201.134 91.9388C201.67 93.1029 202.479 94.0321 203.512 94.7262C203.55 95.0049 203.6 95.2891 203.687 95.5678C204.097 96.8577 205.032 97.836 206.044 98.6886C206.596 99.2898 207.241 99.7981 207.706 100.088C207.706 100.088 207.706 100.093 207.711 100.099C209.242 99.3991 210.8 98.7487 212.238 97.9125C212.156 97.7431 212.102 97.6447 212.102 97.6447Z" fill="white"/>
<path d="M207.546 100.47L207.481 100.252C206.929 99.8964 206.327 99.3827 205.852 98.8634C204.982 98.1365 203.9 97.0872 203.435 95.6443C203.347 95.382 203.304 95.1197 203.265 94.8792C202.227 94.1577 201.428 93.2068 200.893 92.0481C200.756 91.7475 200.75 91.425 200.887 91.1463C200.991 90.9222 201.182 90.7364 201.412 90.6216C201.368 90.3866 201.368 90.168 201.412 89.9658C201.472 89.6707 201.625 89.4192 201.877 89.2061C201.866 88.9383 201.882 88.6923 201.931 88.4792C202.101 87.7086 202.549 87.1074 203.172 86.7685C202.32 86.3532 201.286 86.058 199.974 85.8558C199.58 85.7957 199.269 85.5661 199.116 85.2273C198.952 84.8666 198.984 84.4348 199.209 84.0686C199.526 83.5549 200.007 83.2379 200.641 83.1231C202.177 82.8444 204.189 83.8555 205.092 84.5605C206.026 85.2874 206.868 86.293 207.601 87.5555C207.612 87.5665 207.623 87.5774 207.634 87.5883C207.65 87.5555 207.672 87.5173 207.694 87.4845C208.039 86.9325 208.744 86.2274 209.608 86.0416C210.089 85.9432 210.554 86.0307 210.947 86.2985C212.019 87.0309 211.538 88.3207 211.188 89.2608C211.117 89.4575 211.046 89.6433 210.996 89.8128C210.723 90.7419 210.417 91.9552 210.537 93.1466C210.69 93.9227 211.035 94.6551 211.401 95.4312C211.521 95.6826 211.642 95.934 211.751 96.1909C211.8 96.3056 211.866 96.4368 211.926 96.568C212.068 96.8631 212.227 97.191 212.341 97.5299L212.609 97.9999L212.374 98.1365C211.232 98.8033 210.001 99.3553 208.809 99.8909C208.481 100.039 208.148 100.186 207.82 100.339L207.546 100.47ZM201.199 83.6259C201.04 83.6259 200.887 83.6369 200.739 83.6642C200.258 83.7516 199.908 83.9757 199.673 84.3583C199.548 84.566 199.526 84.8065 199.613 84.9977C199.69 85.1726 199.854 85.2819 200.061 85.3147C201.713 85.5716 202.954 85.9706 203.965 86.5772L204.545 86.9216L203.883 87.0746C203.167 87.244 202.637 87.807 202.462 88.594C202.418 88.7907 202.407 89.0421 202.429 89.3099L202.44 89.463L202.32 89.5504C202.101 89.7089 201.986 89.8729 201.942 90.0806C201.904 90.2664 201.92 90.4741 201.991 90.7145L202.073 90.9878L201.795 91.0589C201.609 91.1081 201.445 91.2283 201.374 91.3813C201.308 91.518 201.314 91.6601 201.385 91.8186C201.893 92.9171 202.659 93.8189 203.665 94.4911L203.768 94.5567L203.785 94.677C203.823 94.9338 203.867 95.2016 203.954 95.4749C204.375 96.7866 205.387 97.7649 206.229 98.4699C206.759 99.0438 207.339 99.5029 207.749 99.7707C208.028 99.645 208.312 99.5138 208.596 99.3881C209.695 98.8962 210.827 98.388 211.877 97.7977L211.844 97.7321C211.735 97.4151 211.581 97.0872 211.445 96.803C211.379 96.6609 211.314 96.5297 211.259 96.4095C211.149 96.1581 211.029 95.9121 210.914 95.6607C210.554 94.8901 210.176 94.0922 210.007 93.2232C209.87 91.9115 210.187 90.6271 210.482 89.6543C210.537 89.4739 210.608 89.2771 210.685 89.0695C211.073 88.031 211.314 87.2003 210.646 86.7521C210.373 86.5663 210.067 86.5117 209.728 86.5827C209.077 86.7193 208.476 87.2823 208.164 87.7796C208.115 87.8561 208.082 87.9436 208.044 88.031C208.017 88.0912 207.995 88.1513 207.967 88.2059L207.798 88.5557L207.525 88.2824C207.475 88.2333 207.426 88.1786 207.382 88.1239C207.333 88.0638 207.279 88.0037 207.213 87.9491L207.153 87.878C206.453 86.6592 205.649 85.6918 204.758 85.0032C203.976 84.3747 202.44 83.6259 201.199 83.6259Z" fill="#273972"/>
<path d="M216.971 134.454C208.545 121.594 201.957 98.7979 201.957 98.7979L205.03 97.9508L213.854 95.5023C213.641 96.016 219.442 102.973 224.21 110.335C227.189 114.954 230.946 119.555 234.756 117.735C236.424 116.943 238.245 112.5 240.891 107.291C244.92 99.41 245.916 98.4754 249.267 95.6225C252.75 92.6603 257.769 92.0591 260.885 92.6001C265.423 93.3871 268.77 96.1909 267.807 100.481C266.047 108.33 265.713 113.478 259.305 124.075C258.961 124.682 252.87 133.055 252.509 133.629C242.498 149.172 222.416 142.767 216.971 134.454Z" fill="white"/>
<path d="M235.369 143.379C226.911 143.379 219.601 138.974 216.736 134.602C208.387 121.851 201.755 99.0985 201.69 98.8689L201.613 98.6011L214.314 95.0869L214.123 95.5514C214.249 95.9668 215.665 97.8742 217.157 99.8855C219.186 102.618 221.958 106.362 224.44 110.188C227.021 114.183 230.881 119.282 234.637 117.49C235.856 116.91 237.261 114.046 239.033 110.417C239.536 109.39 240.071 108.297 240.646 107.165C244.62 99.3827 245.599 98.3825 249.087 95.4148C252.554 92.4635 257.535 91.742 260.93 92.3268C263.833 92.8297 266.097 94.0976 267.294 95.8903C268.196 97.2402 268.459 98.8033 268.07 100.536C267.808 101.7 267.578 102.809 267.354 103.881C266.097 109.925 265.014 115.15 259.536 124.212C259.35 124.54 257.72 126.808 255.446 129.972C254.128 131.803 252.887 133.53 252.734 133.771C247.644 141.674 240.531 143.352 235.462 143.374C235.435 143.379 235.402 143.379 235.369 143.379ZM217.201 134.307C220.394 139.176 228.196 142.838 235.386 142.838C235.413 142.838 235.441 142.838 235.468 142.838C240.405 142.816 247.327 141.182 252.28 133.487C252.439 133.235 253.631 131.579 255.009 129.661C256.736 127.262 258.88 124.272 259.071 123.939C264.5 114.954 265.528 110.018 266.824 103.771C267.048 102.695 267.278 101.585 267.54 100.416C267.895 98.8361 267.66 97.4151 266.846 96.1909C265.73 94.5239 263.598 93.3379 260.842 92.8624C257.677 92.3159 252.756 93.0045 249.448 95.8247C246.195 98.5902 245.216 99.4264 241.138 107.406C240.564 108.532 240.033 109.625 239.53 110.647C237.638 114.516 236.272 117.309 234.877 117.97C230.777 119.927 226.906 114.992 223.986 110.472C221.515 106.663 218.748 102.93 216.725 100.202C214.675 97.437 213.893 96.3494 213.664 95.8302L202.308 98.9728C203.068 101.574 209.383 122.37 217.201 134.307Z" fill="#273972"/>
<path d="M186.214 79.5378L180.735 80.1335L180.839 80.9588L183.617 80.6801L185.596 80.4888C186.263 80.4232 186.881 80.9971 186.974 81.7732L188.794 96.5079C188.893 97.284 188.428 97.9671 187.761 98.0327L183.01 98.5301L183.229 100.263L188.712 99.7652C189.379 99.6997 189.844 99.0165 189.746 98.2404L187.592 80.8167C187.499 80.0461 186.881 79.4722 186.214 79.5378Z" fill="#344D99"/>
<path d="M185.662 79.6144C185.635 79.6144 185.608 79.6144 185.58 79.6198L177.576 80.4232C176.909 80.4888 176.444 81.172 176.542 81.9481L178.697 99.3718C178.79 100.148 179.407 100.722 180.074 100.651L188.079 99.8527C188.106 99.8527 188.133 99.8473 188.161 99.8418C188.784 99.727 189.205 99.0712 189.112 98.3279L186.958 80.9042C186.865 80.1554 186.296 79.598 185.662 79.6144Z" fill="#415EBE"/>
<path d="M181.824 81.1938C181.365 81.243 181.031 81.6585 181.086 82.1177C181.141 82.5769 181.551 82.9049 182.01 82.8557C182.469 82.8065 182.802 82.391 182.748 81.9318C182.693 81.4726 182.278 81.1447 181.824 81.1938Z" fill="#1B30A7"/>
<path d="M177.414 94.7426C177.42 94.6552 177.48 94.5841 177.557 94.5349C177.174 94.3983 176.775 94.1961 176.616 93.8299C176.408 93.3599 176.693 92.9226 176.9 92.5838C176.911 92.5674 176.928 92.5619 176.939 92.5455C176.08 92.3542 175.266 91.9389 175.085 91.1027C174.916 90.3102 175.435 89.9057 176.13 89.6817C175.818 89.5888 175.523 89.4631 175.26 89.31C174.21 88.7088 174.599 87.4736 175.216 86.867C175.32 86.7686 175.441 86.7577 175.544 86.7959C175.572 86.785 175.599 86.7741 175.626 86.7686C176.419 86.6702 177.218 86.6593 178.038 86.7686C178.601 86.8397 179.426 86.8943 179.94 87.2933C180.848 88.0038 180.006 88.8564 179.372 89.3155C180.181 89.2718 180.979 89.4576 181.028 90.5616C181.061 91.3158 180.75 91.835 180.279 92.1739C180.684 92.234 181.067 92.3542 181.395 92.5838C182.226 93.1741 181.619 94.1141 181.094 94.5021C180.842 94.688 180.569 94.8082 180.279 94.8847C180.334 94.9284 180.389 94.9776 180.432 95.0432C180.799 95.5843 180.268 96.2511 179.908 96.497C178.809 97.2239 177.272 96.2237 177.414 94.7426Z" fill="white"/>
<path d="M179.098 97.0162C178.781 97.0162 178.453 96.9233 178.147 96.7429C177.447 96.3276 177.059 95.546 177.135 94.7153C177.135 94.6989 177.141 94.6825 177.141 94.6606C176.834 94.5131 176.512 94.2944 176.353 93.9392C176.145 93.4746 176.304 93.0483 176.49 92.7149C175.539 92.4198 174.959 91.8897 174.8 91.1628C174.702 90.7037 174.757 90.1243 175.402 89.709C175.298 89.6598 175.2 89.6106 175.101 89.5559C174.653 89.2991 174.385 88.9165 174.319 88.441C174.226 87.725 174.625 87.0419 174.997 86.6812C175.139 86.5445 175.325 86.4899 175.506 86.5227C175.528 86.5172 175.549 86.5117 175.577 86.5117C176.424 86.4079 177.239 86.4079 178.048 86.5117L178.256 86.539C178.841 86.6101 179.574 86.6976 180.082 87.0911C180.421 87.3589 180.591 87.6704 180.585 88.0202C180.58 88.4191 180.339 88.7853 180.044 89.0859C180.361 89.1406 180.612 89.2608 180.809 89.4357C181.094 89.6926 181.252 90.0697 181.274 90.5561C181.301 91.13 181.143 91.6328 180.815 92.0263C181.083 92.1083 181.318 92.2231 181.525 92.3706C181.952 92.6767 182.045 93.0429 182.05 93.2997C182.056 93.8572 181.64 94.4202 181.23 94.7262C181.072 94.8465 180.897 94.9448 180.705 95.0213C180.798 95.2126 180.826 95.4313 180.782 95.6553C180.694 96.1035 180.344 96.5189 180.033 96.7265C179.754 96.9178 179.431 97.0162 179.098 97.0162ZM177.682 94.7645C177.611 95.5078 178.021 96.0324 178.425 96.2729C178.857 96.5298 179.349 96.5298 179.732 96.2675C179.94 96.1254 180.197 95.8248 180.246 95.546C180.273 95.4149 180.252 95.3001 180.18 95.1962C180.159 95.1634 180.126 95.1306 180.093 95.1033L179.628 94.7645L180.186 94.6169C180.465 94.5459 180.7 94.4365 180.908 94.2835C181.208 94.0594 181.515 93.6495 181.509 93.2997C181.509 93.1085 181.411 92.9445 181.214 92.8079C180.957 92.622 180.629 92.5073 180.219 92.4417L179.552 92.3433L180.098 91.9498C180.547 91.6273 180.76 91.1628 180.733 90.5725C180.716 90.2337 180.623 89.9932 180.448 89.8347C180.23 89.6379 179.88 89.5614 179.36 89.5887L178.425 89.6434L179.185 89.0969C179.721 88.7088 180.033 88.3098 180.038 87.9983C180.044 87.8234 179.945 87.6649 179.743 87.5064C179.355 87.2058 178.71 87.1238 178.19 87.0637L177.977 87.0364C177.212 86.938 176.446 86.938 175.637 87.0364L175.533 87.0801L175.418 87.0473C175.09 87.3479 174.806 87.8781 174.866 88.359C174.904 88.6596 175.074 88.8946 175.375 89.0695C175.615 89.2062 175.888 89.3209 176.189 89.4139L177.02 89.6707L176.189 89.9385C175.282 90.2282 175.254 90.6818 175.331 91.0425C175.489 91.7968 176.315 92.1301 176.977 92.2777L177.414 92.3761L177.08 92.7641C176.867 93.1085 176.703 93.4091 176.84 93.7151C176.938 93.9392 177.184 94.1141 177.627 94.2726L178.152 94.4639L177.682 94.7645Z" fill="#273972"/>
<path d="M234.099 66.6615C234.099 66.6615 231.961 72.4274 231.814 77.6086C231.71 81.2868 238.85 85.3859 243.733 79.7183C248.615 74.0507 246.303 66.3882 246.303 66.3882L234.099 66.6615Z" fill="white"/>
<path d="M238.071 82.7951C237.196 82.7951 236.305 82.6311 235.43 82.2923C233.084 81.385 231.488 79.4557 231.542 77.603C231.69 72.4382 233.822 66.6285 233.844 66.5683L233.91 66.3934L246.507 66.1093L246.567 66.306C246.589 66.3825 248.863 74.1762 243.943 79.893C242.302 81.7895 240.225 82.7951 238.071 82.7951ZM234.292 66.9291C233.943 67.9292 232.215 73.0339 232.084 77.6139C232.04 79.2153 233.527 80.9642 235.627 81.7785C238.426 82.8607 241.378 82.0245 243.522 79.5377C247.814 74.5533 246.403 67.8964 246.091 66.6613L234.292 66.9291Z" fill="#273972"/>
<path d="M229.525 65.4917C232.352 69.077 238.683 68.7819 243.418 68.361C243.374 68.8529 243.407 69.3667 243.385 69.7656C243.297 71.5364 242.554 73.7608 243.368 75.4496C243.91 76.5755 245.178 77.133 246.348 76.581C247.108 76.2203 247.349 75.6628 247.464 75.0343C249.235 71.8643 248.934 66.3224 246.682 63.8193C245.255 62.2343 243.336 61.9228 241.307 61.7206C239.667 61.5566 238.322 61.4473 236.791 60.704C235.878 60.2613 235.206 59.7858 234.178 59.6273C230.339 59.0425 226.622 61.808 229.525 65.4917Z" fill="#D64E2D"/>
<path d="M245.763 99.4318C245.763 99.4318 245.932 98.7814 245.249 99.0929C244.566 99.4044 245.517 93.4362 245.517 93.4362L247.19 91.5233C247.19 91.5233 253.658 90.9768 253.844 90.9768C254.03 90.9768 259.038 91.7037 259.038 91.7037L260.853 92.294C260.853 92.294 264.183 93.8461 264.817 94.2943C265.451 94.737 261.176 102.132 260.766 102.591C260.356 103.044 249.924 105.28 248.694 104.137C247.458 102.995 245.763 99.4318 245.763 99.4318Z" fill="white"/>
<path d="M215.112 30.9835C215.112 39.7172 208.026 46.8003 199.289 46.8003C190.552 46.8003 183.466 39.7172 183.466 30.9835C183.466 22.2498 190.552 15.1666 199.289 15.1666C208.026 15.1666 215.112 22.2498 215.112 30.9835Z" fill="#D64E2D"/>
<path d="M199.288 47.09C190.404 47.09 183.176 39.8647 183.176 30.9835C183.176 22.1022 190.404 14.877 199.288 14.877C208.173 14.877 215.401 22.1022 215.401 30.9835C215.401 39.8647 208.173 47.09 199.288 47.09ZM199.288 15.4563C190.721 15.4563 183.75 22.4247 183.75 30.9889C183.75 39.5532 190.721 46.5216 199.288 46.5216C207.856 46.5216 214.827 39.5532 214.827 30.9889C214.822 22.4192 207.856 15.4563 199.288 15.4563Z" fill="#AA3D22"/>
<path d="M197.48 40.5259C196.659 40.5259 194.806 40.034 189.459 32.4754C188.934 31.7376 189.109 30.7155 189.852 30.1909C190.591 29.6662 191.613 29.8411 192.138 30.5844C193.789 32.9181 195.91 35.5524 197.141 36.7275C199.442 33.0055 206.08 22.6978 206.402 22.2005C206.895 21.4408 207.906 21.2222 208.671 21.7086C209.431 22.2005 209.656 23.2116 209.164 23.9767C206.659 27.8626 200.011 38.225 199.311 39.4875C198.972 40.0996 198.36 40.4822 197.665 40.5205C197.605 40.5259 197.545 40.5259 197.48 40.5259Z" fill="#FFF3F0"/>
<path d="M300.73 294H0.554515C0.249532 294 0 293.751 0 293.446C0 293.141 0.249532 292.891 0.554515 292.891H300.73C301.035 292.891 301.284 293.141 301.284 293.446C301.284 293.751 301.04 294 300.73 294Z" fill="#EAA695"/>
</svg>
