<svg width="307" height="296" viewBox="0 0 307 296" fill="none" xmlns="http://www.w3.org/2000/svg">
<mask id="mask0_6641_175950" style="mask-type:alpha" maskUnits="userSpaceOnUse" x="0" y="0" width="307" height="295">
<path d="M272.738 94.3595C236.684 83.4011 205.606 67.9124 170.387 24.9317C135.168 -18.0433 40.5171 -4.81978 13.0042 59.6428C-14.5088 124.111 5.29807 183.62 38.317 194.64C71.3359 205.661 85.5014 216.45 103.734 258.736C118.357 292.656 199.654 308.992 224.843 276.28C270.916 216.455 272.185 239.824 294.198 195.194C316.211 150.558 309.768 105.612 272.738 94.3595Z" fill="#EEF6F9"/>
</mask>
<g mask="url(#mask0_6641_175950)">
<path d="M272.738 94.3595C236.684 83.4011 205.606 67.9124 170.387 24.9317C135.168 -18.0433 40.5171 -4.81978 13.0042 59.6428C-14.5088 124.111 5.29807 183.62 38.317 194.64C71.3359 205.661 85.5014 216.45 103.734 258.736C118.357 292.656 199.654 308.992 224.843 276.28C270.916 216.455 272.185 239.824 294.198 195.194C316.211 150.558 309.768 105.612 272.738 94.3595Z" fill="#FFF5F2"/>
<path d="M250.534 32.4559C226.039 4.73786 216.765 -3.54308 189.692 2.30328C162.614 8.1553 206.616 55.203 251.459 78.2778C296.303 101.353 280.524 66.3817 250.534 32.4559Z" fill="#FFF5F2"/>
<path d="M9.26868 75.8942V64.8059H27.6313V11.8158H32.6973V64.8059H52.4815V75.8942H63.076V298.073H-13.3419V75.8942H9.26868Z" fill="#FFF5F2"/>
<path d="M101.287 128.817H24.8691V298.073H101.287V128.817Z" fill="#FFF5F2"/>
<path d="M35.4636 128.817H24.8691V298.073H35.4636V128.817Z" fill="#EAA695"/>
<path d="M90.625 136.03H79.6582V140.588H90.625V136.03Z" fill="#F2C9BF"/>
<path d="M72.1612 136.03H61.1943V140.588H72.1612V136.03Z" fill="#F2C9BF"/>
<path d="M90.625 152.62H79.6582V157.178H90.625V152.62Z" fill="#F2C9BF"/>
<path d="M72.1612 152.62H61.1943V157.178H72.1612V152.62Z" fill="#F2C9BF"/>
<path d="M53.7012 152.62H42.7344V157.178H53.7012V152.62Z" fill="#F2C9BF"/>
<path d="M90.625 169.216H79.6582V173.774H90.625V169.216Z" fill="#F2C9BF"/>
<path d="M53.7012 169.216H42.7344V173.774H53.7012V169.216Z" fill="#F2C9BF"/>
<path d="M72.1612 177.508H61.1943V182.066H72.1612V177.508Z" fill="#F2C9BF"/>
<path d="M90.625 185.806H79.6582V190.364H90.625V185.806Z" fill="#F2C9BF"/>
<path d="M72.1612 194.104H61.1943V198.662H72.1612V194.104Z" fill="#F2C9BF"/>
<path d="M90.625 202.396H79.6582V206.954H90.625V202.396Z" fill="#F2C9BF"/>
<path d="M53.7012 202.396H42.7344V206.954H53.7012V202.396Z" fill="#F2C9BF"/>
<path d="M90.625 217.732H79.6582V222.291H90.625V217.732Z" fill="#F2C9BF"/>
<path d="M72.1612 217.732H61.1943V222.291H72.1612V217.732Z" fill="#F2C9BF"/>
<path d="M90.625 234.322H79.6582V238.881H90.625V234.322Z" fill="#F2C9BF"/>
<path d="M72.1612 234.322H61.1943V238.881H72.1612V234.322Z" fill="#F2C9BF"/>
<path d="M53.7012 234.322H42.7344V238.881H53.7012V234.322Z" fill="#F2C9BF"/>
<path d="M90.625 250.918H79.6582V255.477H90.625V250.918Z" fill="#F2C9BF"/>
<path d="M53.7012 250.918H42.7344V255.477H53.7012V250.918Z" fill="#F2C9BF"/>
<path d="M72.1612 259.21H61.1943V263.769H72.1612V259.21Z" fill="#F2C9BF"/>
<path d="M53.7012 259.21H42.7344V263.769H53.7012V259.21Z" fill="#F2C9BF"/>
<path d="M90.625 267.508H79.6582V272.067H90.625V267.508Z" fill="#F2C9BF"/>
<path d="M72.1612 275.806H61.1943V280.365H72.1612V275.806Z" fill="#F2C9BF"/>
<path d="M90.625 284.098H79.6582V288.657H90.625V284.098Z" fill="#F2C9BF"/>
<path d="M53.7012 284.098H42.7344V288.657H53.7012V284.098Z" fill="#F2C9BF"/>
<path d="M284.129 128.817H207.711V298.073H284.129V128.817Z" fill="#F2C9BF"/>
<path d="M218.305 128.817H207.711V298.073H218.305V128.817Z" fill="#EAA695"/>
<path d="M201.69 48.3119H99.1582V298.073H201.69V48.3119Z" fill="#F2C9BF"/>
<path d="M109.753 48.3119H99.1582V298.073H109.753V48.3119Z" fill="#EAA695"/>
<path d="M190.887 60.2758H174.877V66.9299H190.887V60.2758Z" fill="#FFF5F2"/>
<path d="M163.933 60.2758H147.917V66.9299H163.933V60.2758Z" fill="#FFF5F2"/>
<path d="M190.887 84.5028H174.877V91.1569H190.887V84.5028Z" fill="#FFF5F2"/>
<path d="M163.933 84.5028H147.917V91.1569H163.933V84.5028Z" fill="#FFF5F2"/>
<path d="M136.966 84.5028H120.956V91.1569H136.966V84.5028Z" fill="#FFF5F2"/>
<path d="M190.887 108.736H174.877V115.39H190.887V108.736Z" fill="#FFF5F2"/>
<path d="M136.966 108.736H120.956V115.39H136.966V108.736Z" fill="#FFF5F2"/>
<path d="M163.933 120.846H147.917V127.501H163.933V120.846Z" fill="#FFF5F2"/>
<path d="M190.887 132.963H174.877V139.617H190.887V132.963Z" fill="#FFF5F2"/>
<path d="M163.933 145.079H147.917V151.733H163.933V145.079Z" fill="#FFF5F2"/>
<path d="M190.887 157.195H174.877V163.85H190.887V157.195Z" fill="#FFF5F2"/>
<path d="M136.966 157.195H120.956V163.85H136.966V157.195Z" fill="#FFF5F2"/>
<path d="M190.887 179.587H174.877V186.241H190.887V179.587Z" fill="#FFF5F2"/>
<path d="M163.933 179.587H147.917V186.241H163.933V179.587Z" fill="#FFF5F2"/>
<path d="M190.887 203.814H174.877V210.468H190.887V203.814Z" fill="#FFF5F2"/>
<path d="M163.933 203.814H147.917V210.468H163.933V203.814Z" fill="#FFF5F2"/>
<path d="M136.966 203.814H120.956V210.468H136.966V203.814Z" fill="#FFF5F2"/>
<path d="M190.887 228.041H174.877V234.695H190.887V228.041Z" fill="#FFF5F2"/>
<path d="M136.966 228.041H120.956V234.695H136.966V228.041Z" fill="#FFF5F2"/>
<path d="M163.933 240.158H147.917V246.812H163.933V240.158Z" fill="#FFF5F2"/>
<path d="M136.966 240.158H120.956V246.812H136.966V240.158Z" fill="#FFF5F2"/>
<path d="M190.887 252.274H174.877V258.928H190.887V252.274Z" fill="#FFF5F2"/>
<path d="M163.933 264.39H147.917V271.044H163.933V264.39Z" fill="#FFF5F2"/>
<path d="M190.887 276.501H174.877V283.155H190.887V276.501Z" fill="#FFF5F2"/>
<path d="M136.966 276.501H120.956V283.155H136.966V276.501Z" fill="#FFF5F2"/>
<path d="M360.852 66.9298H260.362V298.073H360.852V66.9298Z" fill="#FFF5F2"/>
<path d="M270.748 66.9298H260.362V298.073H270.748V66.9298Z" fill="#EAA695"/>
<path d="M297.42 100.421H281.726V106.578H297.42V100.421Z" fill="#F2C9BF"/>
<path d="M297.42 122.846H281.726V129.003H297.42V122.846Z" fill="#F2C9BF"/>
<path d="M297.42 167.696H281.726V173.853H297.42V167.696Z" fill="#F2C9BF"/>
<path d="M297.42 210.841H281.726V216.998H297.42V210.841Z" fill="#F2C9BF"/>
<path d="M297.42 233.266H281.726V239.423H297.42V233.266Z" fill="#F2C9BF"/>
<path d="M297.42 244.473H281.726V250.63H297.42V244.473Z" fill="#F2C9BF"/>
<path d="M297.42 278.111H281.726V284.268H297.42V278.111Z" fill="#F2C9BF"/>
<path d="M0.323013 140.419H-64.4004V298.073H0.323013V140.419Z" fill="#FFF5F2"/>
<path opacity="0.14" d="M169.327 -12.4567H-104.956V300.683H169.327V-12.4567Z" fill="white"/>
<path d="M172.334 -16.0378H166.332V304.722H172.334V-16.0378Z" fill="white"/>
<path opacity="0.5" d="M-10.5259 295.029H-31.8164L82.3028 -8.87524H103.588L-10.5259 295.029Z" fill="white"/>
<path opacity="0.5" d="M-48.1135 295.029H-58.7588L55.3548 -8.87524H66L-48.1135 295.029Z" fill="white"/>
<path opacity="0.5" d="M78.9753 295.029H68.3301L166.168 23.7571V45.6118L78.9753 295.029Z" fill="white"/>
<path d="M80.9047 -14.4222H74.9023V303.106H80.9047V-14.4222Z" fill="white"/>
<path opacity="0.14" d="M445.055 -18.6531H170.771V294.486H445.055V-18.6531Z" fill="white"/>
<path d="M172.356 -16.0377H166.354V304.722H172.356V-16.0377Z" fill="white"/>
<path opacity="0.5" d="M216.133 295.029H194.849L308.962 -8.875H330.253L216.133 295.029Z" fill="white"/>
<path opacity="0.5" d="M178.545 295.029H167.899L282.019 -8.875H292.664L178.545 295.029Z" fill="white"/>
<path d="M263.785 -14.4222H257.782V303.106H263.785V-14.4222Z" fill="white"/>
<path d="M-107.958 40.445V44.0262L456.495 44.0262V40.445L-107.958 40.445Z" fill="white"/>
<path d="M-107.957 135.986V139.567L456.496 139.567V135.986L-107.957 135.986Z" fill="white"/>
<path d="M-107.956 231.527V235.108L456.497 235.108V231.527L-107.956 231.527Z" fill="white"/>
</g>
<path d="M306.119 295.175H0.735035C0.42476 295.175 0.170898 294.921 0.170898 294.61C0.170898 294.3 0.42476 294.046 0.735035 294.046H306.119C306.429 294.046 306.683 294.3 306.683 294.61C306.683 294.927 306.429 295.175 306.119 295.175Z" fill="#EAA695"/>
<path d="M278.874 58.1009V213.242C278.874 216.857 275.935 219.805 272.319 219.805H75.3787C74.6679 219.805 73.9853 219.687 73.3478 219.478C72.5355 219.212 71.7965 218.794 71.159 218.258C69.7317 217.049 68.8291 215.252 68.8291 213.242V58.1009C68.8291 57.3779 68.925 56.6718 69.0942 56.0053C69.1676 55.7398 69.2466 55.48 69.3368 55.2258C69.4779 54.8417 69.6471 54.4632 69.8389 54.1073C70.0307 53.7515 70.2507 53.4125 70.4933 53.0906C70.5723 52.9832 70.6513 52.8816 70.7415 52.7742C70.9051 52.5709 71.0913 52.3732 71.2775 52.1811C71.4693 51.9891 71.6667 51.8083 71.8698 51.6445C71.977 51.5541 72.0842 51.4694 72.1857 51.3903C72.5129 51.1587 72.857 50.9384 73.2124 50.7407C73.3873 50.6447 73.5678 50.5543 73.754 50.4696C73.8781 50.4131 74.0022 50.3623 74.1263 50.3114C74.2843 50.2436 74.4479 50.1872 74.6115 50.1363C74.7074 50.1024 74.8033 50.0742 74.8992 50.0516C74.9726 50.029 75.0459 50.0064 75.1192 49.9895C75.249 49.9556 75.3787 49.9273 75.5085 49.8991C75.7454 49.8482 75.988 49.8087 76.2306 49.7861C76.3321 49.7748 76.4337 49.7635 76.5296 49.7522H76.5634L76.868 49.7353C76.9752 49.7296 77.0824 49.7296 77.1896 49.7296H270.514C271.1 49.7296 271.659 49.7918 272.206 49.8991C272.375 49.933 272.545 49.9725 272.708 50.0177C272.872 50.0629 273.035 50.1137 273.199 50.1702C273.363 50.221 273.52 50.2832 273.678 50.3453C274.305 50.6052 274.897 50.9384 275.439 51.3338C275.574 51.4355 275.709 51.5372 275.839 51.6445C275.946 51.7292 276.048 51.8196 276.144 51.9044C276.24 51.9947 276.335 52.0851 276.431 52.1811C277.943 53.7006 278.874 55.7906 278.874 58.1009Z" fill="white"/>
<path d="M272.324 220.127H75.3778C74.6614 220.127 73.9393 220.014 73.2454 219.783C72.4048 219.506 71.632 219.077 70.9493 218.5C69.3923 217.184 68.501 215.264 68.501 213.236V58.1009C68.501 57.3779 68.5913 56.6435 68.7774 55.9262C68.8564 55.6494 68.9354 55.3782 69.0313 55.1184C69.1779 54.7117 69.3585 54.3219 69.5503 53.9548C69.7477 53.5933 69.9734 53.2374 70.2329 52.8985C70.3119 52.7911 70.3965 52.6838 70.4924 52.5708C70.6616 52.3562 70.8591 52.1528 71.0452 51.9608C71.254 51.7518 71.4627 51.5597 71.6658 51.3959C71.773 51.3055 71.8802 51.2208 71.9874 51.1361C72.3484 50.8762 72.7038 50.6559 73.0536 50.4582C73.2397 50.3566 73.4259 50.2605 73.6177 50.1758C73.7475 50.1193 73.8716 50.0628 74.0013 50.012C74.1649 49.9442 74.3398 49.8821 74.5147 49.8256C74.6106 49.7917 74.7178 49.7578 74.825 49.7352C74.8927 49.7126 74.9716 49.69 75.045 49.6731C75.1691 49.6392 75.3045 49.6109 75.4399 49.5827C75.6994 49.5262 75.9589 49.4867 76.2015 49.4641L76.8502 49.4132C76.963 49.4076 77.0759 49.4076 77.1887 49.4076H270.513C271.088 49.4076 271.664 49.4641 272.267 49.5827C272.448 49.6166 272.623 49.6618 272.792 49.707C272.961 49.7522 273.13 49.8087 273.305 49.8651C273.463 49.9103 273.621 49.9781 273.779 50.0402C274.45 50.317 275.065 50.6616 275.629 51.074C275.77 51.1813 275.911 51.2886 276.047 51.3959C276.143 51.475 276.244 51.5597 276.335 51.6445C276.464 51.7631 276.56 51.8591 276.662 51.9551C278.303 53.5989 279.206 55.7793 279.206 58.1065V213.247C279.2 217.037 276.115 220.127 272.324 220.127ZM77.1661 50.0515C77.0702 50.0515 76.9743 50.0515 76.8784 50.0572L76.2861 50.1024C76.0379 50.125 75.8065 50.1645 75.5696 50.2154C75.4455 50.2436 75.3214 50.2718 75.1916 50.3001C75.1183 50.317 75.0563 50.334 74.9942 50.3566C74.8757 50.3848 74.7911 50.4131 74.7065 50.4413C74.5429 50.4921 74.3906 50.543 74.2439 50.6108C74.1198 50.6616 73.9957 50.7124 73.8772 50.7633C73.6967 50.8424 73.5274 50.9327 73.3582 51.0231C73.031 51.2039 72.6982 51.4185 72.3653 51.6558C72.2807 51.7235 72.1735 51.8083 72.072 51.893C71.8802 52.0455 71.6884 52.2206 71.5022 52.4127C71.3273 52.5934 71.1468 52.7855 70.9888 52.9775C70.8986 53.0849 70.8252 53.1809 70.7462 53.2826C70.5093 53.5989 70.2949 53.9265 70.1144 54.2598C69.9339 54.5987 69.7703 54.9602 69.6292 55.3387C69.5446 55.5816 69.4657 55.8358 69.3923 56.09C69.2231 56.7509 69.1385 57.4287 69.1385 58.1009V213.241C69.1385 215.077 69.9452 216.817 71.3555 218.009C71.9704 218.529 72.6756 218.918 73.4372 219.167C74.069 219.376 74.7178 219.478 75.3665 219.478H272.324C275.759 219.478 278.552 216.681 278.552 213.241V58.1009C278.552 55.9544 277.717 53.9322 276.199 52.4127C276.103 52.3167 276.013 52.2319 275.917 52.1415C275.816 52.0568 275.731 51.9777 275.635 51.8987C275.505 51.7913 275.37 51.6897 275.24 51.5936C274.721 51.2152 274.151 50.8932 273.548 50.6447C273.39 50.5825 273.249 50.526 273.096 50.4808C272.927 50.4244 272.769 50.3735 272.617 50.3283C272.459 50.2831 272.301 50.2492 272.137 50.2154C271.579 50.108 271.043 50.0515 270.507 50.0515H77.1887C77.1774 50.0515 77.1718 50.0515 77.1661 50.0515Z" fill="#EAA695"/>
<path d="M278.874 58.0952V78.5659H68.8291V58.0952C68.8291 57.3721 68.9194 56.6717 69.0942 55.9995C69.1619 55.734 69.2466 55.4742 69.3368 55.22C69.4722 54.8415 69.6471 54.4631 69.8389 54.1072C70.0307 53.7513 70.2451 53.4068 70.4877 53.0905C70.5723 52.9831 70.6456 52.8758 70.7359 52.7741C70.9051 52.5708 71.0856 52.3731 71.2718 52.181C71.458 51.989 71.6554 51.8082 71.8642 51.6444C71.9713 51.554 72.0785 51.4693 72.1801 51.3959C72.5073 51.153 72.8458 50.9327 73.2012 50.7463C73.9063 50.3565 74.6848 50.0684 75.4972 49.9046C76.0444 49.7916 76.6086 49.7295 77.1896 49.7295H270.508C272.827 49.7295 274.92 50.6728 276.426 52.1867C277.943 53.6949 278.874 55.7905 278.874 58.0952Z" fill="#F2C9BF"/>
<path d="M279.2 78.8935H68.501V58.1008C68.501 57.3552 68.5913 56.6265 68.7774 55.9261C68.8451 55.6549 68.9354 55.3838 69.0256 55.1183C69.161 54.7455 69.3359 54.3557 69.5446 53.9603C69.7364 53.5932 69.9677 53.2373 70.2272 52.8984L70.3119 52.7854C70.3683 52.712 70.4247 52.6385 70.4867 52.5651C70.6447 52.3674 70.8309 52.1697 71.0396 51.955C71.254 51.7404 71.4571 51.554 71.6545 51.3958C71.7617 51.3055 71.8745 51.2151 71.9874 51.136C72.3315 50.8762 72.6925 50.6502 73.0479 50.4582C73.7869 50.0514 74.588 49.7577 75.4286 49.5826C76.004 49.464 76.5963 49.4019 77.183 49.4019H270.501C272.831 49.4019 275.015 50.3113 276.651 51.955C278.292 53.5988 279.195 55.7792 279.195 58.1008V78.8935H279.2ZM69.1554 78.2383H278.552V58.0951C278.552 55.9487 277.717 53.9264 276.199 52.4069C274.687 50.8818 272.668 50.0458 270.513 50.0458H77.1943C76.6528 50.0458 76.1055 50.1023 75.5696 50.2153C74.7911 50.3734 74.0521 50.6502 73.3638 51.023C73.0367 51.1981 72.7038 51.4071 72.3766 51.65C72.2751 51.7235 72.1735 51.8025 72.0776 51.8873C71.8858 52.0398 71.7053 52.2092 71.5022 52.4069C71.3047 52.6046 71.1355 52.7911 70.9832 52.9718C70.9211 53.0396 70.876 53.1074 70.8252 53.1695L70.735 53.2825C70.5037 53.5875 70.2949 53.9151 70.1144 54.2484C69.917 54.6212 69.7534 54.9827 69.6349 55.3217C69.5446 55.5702 69.4657 55.8187 69.4036 56.0729C69.2344 56.7225 69.1497 57.4004 69.1497 58.0839V78.2383H69.1554Z" fill="#EAA695"/>
<path d="M114.908 64.1449C114.908 61.699 116.888 59.7163 119.331 59.7163C121.774 59.7163 123.754 61.699 123.754 64.1449C123.754 66.5907 121.774 68.5734 119.331 68.5734C116.894 68.5734 114.908 66.5907 114.908 64.1449Z" fill="white"/>
<path d="M97.8826 64.1449C97.8826 61.699 99.8627 59.7163 102.305 59.7163C104.748 59.7163 106.728 61.699 106.728 64.1449C106.728 66.5907 104.748 68.5734 102.305 68.5734C99.8683 68.5734 97.8826 66.5907 97.8826 64.1449Z" fill="white"/>
<path d="M80.8623 64.1449C80.8623 61.699 82.8424 59.7163 85.2851 59.7163C87.7278 59.7163 89.708 61.699 89.708 64.1449C89.708 66.5907 87.7278 68.5734 85.2851 68.5734C82.8424 68.5734 80.8623 66.5907 80.8623 64.1449Z" fill="white"/>
<path d="M169.45 186.348H138.783V208.564H169.45V186.348Z" fill="#D63C24"/>
<path d="M125.346 194.499H94.6797V208.559H125.346V194.499Z" fill="#0930A9"/>
<path d="M211.439 169.295H180.772V208.559H211.439V169.295Z" fill="#344D99"/>
<path d="M253.427 147.914H222.761V208.558H253.427V147.914Z" fill="#D64E2D"/>
<path d="M173.134 155.28L108.202 164.595C107.333 164.838 106.425 164.329 106.183 163.459C105.94 162.589 106.448 161.68 107.317 161.437L172.091 152.094L217.481 128.805L234.732 92.8115C235.122 91.9925 236.103 91.6535 236.921 92.0433C237.739 92.4387 238.078 93.4159 237.689 94.235L219.929 131.29L219.394 131.539L173.134 155.28Z" fill="#D64E2D"/>
<path d="M107.756 164.815C107.451 164.815 107.146 164.736 106.876 164.584C106.458 164.346 106.154 163.962 106.024 163.499C105.753 162.539 106.317 161.545 107.276 161.274L172.045 151.931L217.362 128.675L234.585 92.7326C234.794 92.2977 235.16 91.9701 235.612 91.8119C236.069 91.6537 236.554 91.682 236.988 91.891C237.423 92.1 237.75 92.4671 237.908 92.919C238.066 93.3766 238.037 93.8624 237.829 94.2973L220.047 131.403L219.46 131.675L173.184 155.438L173.156 155.444L108.224 164.759C108.072 164.793 107.914 164.815 107.756 164.815ZM236.21 92.0322C236.046 92.0322 235.882 92.0604 235.719 92.1169C235.347 92.2469 235.047 92.5123 234.878 92.8682L217.604 128.912L217.554 128.935L172.135 152.236L172.107 152.241L107.333 161.584C106.972 161.686 106.661 161.934 106.464 162.279C106.272 162.624 106.221 163.019 106.328 163.403C106.436 163.782 106.684 164.098 107.028 164.29C107.372 164.482 107.767 164.533 108.151 164.425L173.077 155.111L219.308 131.369L219.793 131.144L237.524 94.1448C237.693 93.7889 237.716 93.3879 237.586 93.0151C237.456 92.6423 237.186 92.3429 236.836 92.1734C236.644 92.083 236.43 92.0322 236.21 92.0322Z" fill="#C00014"/>
<path d="M240.854 106.396C240.16 106.611 239.427 106.227 239.212 105.532L235.777 94.4212L224.962 98.6634C224.285 98.9288 223.524 98.5956 223.264 97.9177C222.999 97.2399 223.332 96.483 224.009 96.2175L235.963 91.5291C236.764 91.2128 237.667 91.6477 237.92 92.4724L241.723 104.753C241.931 105.442 241.548 106.176 240.854 106.396Z" fill="#D64E2D"/>
<path d="M240.464 106.617C240.227 106.617 239.996 106.561 239.776 106.448C239.426 106.261 239.173 105.956 239.054 105.578L235.669 94.6362L225.018 98.8163C224.652 98.9575 224.251 98.9518 223.89 98.7937C223.529 98.6355 223.253 98.3474 223.106 97.9803C222.813 97.2233 223.185 96.3647 223.941 96.0654L235.895 91.377C236.318 91.2132 236.798 91.2301 237.209 91.4278C237.621 91.6255 237.931 91.987 238.067 92.4276L241.869 104.708C242.112 105.487 241.672 106.312 240.899 106.555C240.758 106.594 240.611 106.617 240.464 106.617ZM235.878 94.2013L239.37 105.476C239.46 105.77 239.663 106.013 239.934 106.154C240.205 106.295 240.515 106.323 240.809 106.233C241.412 106.047 241.751 105.397 241.565 104.793L237.762 92.5123C237.655 92.1565 237.407 91.874 237.074 91.7159C236.741 91.5521 236.363 91.5408 236.019 91.6763L224.065 96.3647C223.478 96.5963 223.185 97.2629 223.416 97.856C223.529 98.1441 223.743 98.37 224.025 98.4886C224.308 98.6129 224.618 98.6186 224.906 98.5056L235.878 94.2013Z" fill="#C00014"/>
<path d="M225.143 130.036C225.143 133.595 222.261 136.481 218.707 136.481C215.152 136.481 212.27 133.595 212.27 130.036C212.27 126.478 215.152 123.591 218.707 123.591C222.261 123.591 225.143 126.478 225.143 130.036Z" fill="#F2C9BF"/>
<path d="M218.707 136.645C215.068 136.645 212.106 133.68 212.106 130.037C212.106 126.393 215.068 123.428 218.707 123.428C222.346 123.428 225.307 126.393 225.307 130.037C225.307 133.68 222.346 136.645 218.707 136.645ZM218.707 123.755C215.249 123.755 212.434 126.574 212.434 130.037C212.434 133.499 215.249 136.318 218.707 136.318C222.165 136.318 224.98 133.499 224.98 130.037C224.98 126.574 222.165 123.755 218.707 123.755Z" fill="#EAA695"/>
<path d="M178.788 153.467C179.143 157.009 176.559 160.166 173.022 160.522C169.485 160.878 166.331 158.291 165.976 154.749C165.621 151.207 168.204 148.05 171.742 147.694C175.279 147.338 178.432 149.925 178.788 153.467Z" fill="#F2C9BF"/>
<path d="M172.368 160.714C170.851 160.714 169.39 160.195 168.199 159.218C166.834 158.099 165.988 156.517 165.813 154.761C165.452 151.134 168.104 147.892 171.725 147.53C175.358 147.175 178.585 149.824 178.946 153.45C179.121 155.207 178.602 156.924 177.485 158.291C176.368 159.658 174.789 160.505 173.034 160.681C172.814 160.703 172.594 160.714 172.368 160.714ZM172.385 147.824C172.177 147.824 171.968 147.835 171.759 147.858C168.318 148.203 165.796 151.287 166.14 154.733C166.31 156.405 167.111 157.907 168.408 158.969C169.706 160.031 171.336 160.522 173.006 160.359C174.676 160.195 176.176 159.387 177.237 158.088C178.298 156.789 178.788 155.156 178.625 153.484C178.303 150.247 175.567 147.824 172.385 147.824Z" fill="#EAA695"/>
<path d="M113.561 161.799C114.52 165.228 112.517 168.781 109.099 169.741C105.674 170.701 102.126 168.696 101.167 165.273C100.208 161.844 102.21 158.291 105.629 157.331C109.053 156.37 112.607 158.37 113.561 161.799Z" fill="#F2C9BF"/>
<path d="M107.368 170.142C104.479 170.142 101.822 168.227 101.01 165.312C100.028 161.805 102.082 158.15 105.591 157.167C109.1 156.184 112.744 158.24 113.726 161.754C114.707 165.262 112.654 168.916 109.145 169.899C108.552 170.063 107.954 170.142 107.368 170.142ZM107.362 157.257C106.804 157.257 106.239 157.331 105.675 157.489C102.347 158.421 100.395 161.895 101.326 165.228C102.257 168.56 105.72 170.515 109.054 169.583C112.383 168.651 114.335 165.177 113.404 161.844C112.631 159.071 110.104 157.257 107.362 157.257Z" fill="#EAA695"/>
<g opacity="0.1">
<path d="M164.864 84.3953C163.99 82.2996 163.008 80.3452 161.947 78.5659C157.164 70.5165 150.868 66.0202 146.518 68.1441C144.82 68.9744 143.624 70.7199 142.947 73.0867L136.697 78.5659L119.299 93.8173L118.199 94.7832C117.719 95.1955 117.341 95.687 117.065 96.2236C116.534 97.2291 116.365 98.387 116.585 99.5111C116.664 99.9404 116.805 100.358 117.003 100.765C116.738 101.121 116.512 101.511 116.337 101.912C115.874 102.929 115.688 104.07 115.824 105.199C115.897 105.815 116.066 106.425 116.331 107.018C116.422 107.222 116.523 107.419 116.642 107.606C117.759 109.532 119.801 110.656 121.939 110.673L122.052 110.893L122.074 110.933C122.616 112.017 123.507 112.836 124.568 113.294C125.386 113.65 126.305 113.785 127.23 113.661L127.259 113.655L128.607 116.587L128.669 116.728C128.534 116.932 128.483 117.191 128.601 117.457C128.833 117.965 129.013 118.474 129.154 118.988C129.352 119.671 129.487 120.372 129.594 121.106C129.668 121.586 129.82 122.004 130.012 122.405L129.82 122.332L129.346 124.523L129.876 124.766C129.448 126.393 128.737 128.924 127.8 131.68C127.8 131.68 127.8 131.68 127.8 131.686C125.995 136.979 123.377 143.085 120.382 145.096C118.441 146.401 115.795 144.768 112.71 142.272C107.869 138.346 95.3229 123.625 86.0203 121.846C85.1177 121.428 84.1361 121.061 83.0642 120.761L83.0417 120.75C81.6482 118.909 81.2195 117.152 81.1349 115.853C84.6043 114.062 85.648 108.696 83.4309 103.635C83.1658 103.025 82.8611 102.454 82.5339 101.917C84.0853 101.279 85.112 100.816 85.112 100.816C83.3068 94.5121 78.6752 93.5179 76.1028 93.4783C75.9617 93.4558 75.8264 93.4445 75.7079 93.4558C75.5386 93.4671 75.3863 93.4896 75.2227 93.5009C74.9971 93.5179 74.8109 93.5405 74.6642 93.5574C72.2272 93.8512 70.3204 94.5008 68.8311 95.3085V114.424C69.2711 114.52 69.7845 114.52 70.3881 114.384C71.4543 114.147 71.962 113.638 72.1313 112.972C72.7236 113.667 73.3724 114.271 74.0493 114.774C74.2129 117.683 73.4457 119.891 73.44 119.903C73.299 119.829 73.1523 119.801 73.0057 119.801C72.5656 119.801 72.1595 120.067 72.1595 120.067C72.1651 120.067 72.1651 120.072 72.1707 120.072C71.0143 120.253 69.8973 120.524 68.8311 120.874V213.241C68.8311 215.252 69.7337 217.049 71.1609 218.257C71.7984 218.794 72.5374 219.212 73.3498 219.477C73.9873 219.686 74.6699 219.805 75.3807 219.805H80.9205C81.5298 214.755 81.9585 210.078 82.2575 205.842C86.088 205.768 90.3754 205.339 94.6798 205.028C98.3693 204.768 102.07 204.588 105.511 204.797C110.131 205.169 114.267 206.22 117.302 208.564C117.668 208.835 118.024 209.14 118.357 209.462C119.192 210.332 120.049 211.293 120.918 212.321C122.571 214.343 124.461 216.941 126.435 219.805H143.805C143.212 216.111 142.547 212.298 141.813 208.564C140.905 203.938 139.895 199.436 138.784 195.448C138.547 194.589 138.304 193.753 138.056 192.946C131.366 171.131 109.342 177.954 101.906 180.982C97.3877 171.695 96.7897 161.387 96.4625 151.914C99.7119 153.885 103.108 155.67 106.453 157.156H106.459C108.467 158.054 110.453 158.85 112.388 159.511C113.257 159.816 114.114 160.087 114.955 160.33C117.871 161.195 120.596 161.72 122.966 161.827C124.274 161.929 125.465 161.872 126.486 161.624C127.078 161.511 127.637 161.358 128.139 161.155C129.684 160.534 130.993 159.387 132.088 157.862C136.223 152.117 137.323 141.057 136.544 133.059C137.052 133.454 137.628 133.606 138.101 133.392L140.561 132.285C141.39 131.906 141.605 130.584 141.041 129.33L138.35 123.456C138.965 123.139 139.625 122.693 139.878 122.106C139.986 121.863 140.003 121.541 139.929 121.281C139.929 121.213 139.952 121.162 139.94 121.095C139.89 120.739 139.715 120.462 139.467 120.276C139.517 119.965 139.5 119.637 139.292 119.293C139.218 119.168 139.139 119.067 139.049 118.988C138.908 118.835 138.745 118.734 138.57 118.66C138.553 118.626 138.525 118.592 138.508 118.558C138.739 117.999 138.643 117.508 137.864 117.316C137.65 117.152 137.402 117.073 137.142 117.056C137.159 116.903 137.142 116.745 137.092 116.587C137.035 116.412 136.934 116.237 136.77 116.062C136.155 115.395 135.501 115.508 134.903 115.932L133.752 113.424L133.47 112.808L146.518 111.023L157.835 109.475C160.063 110.65 162.201 110.916 164.001 110.035C169.309 107.442 169.693 95.9638 164.864 84.3953Z" fill="#242424"/>
</g>
<path d="M56.918 193.833C65.8821 200.391 96.6276 188.636 107.899 199.481C115.396 206.695 133.46 237.706 133.46 237.706L136.766 235.554C136.766 235.554 133.364 201.786 127.599 182.959C119.498 156.568 88.9666 172.091 88.9666 172.091C88.9666 172.091 80.0138 173.305 74.5755 176.141C74.378 176.248 72.3979 175.638 72.2005 175.751C63.5071 180.31 54.6107 187.026 56.1282 188.331C56.5118 188.67 55.282 192.635 56.918 193.833Z" fill="#344D99"/>
<path d="M107.898 199.487C118.921 210.942 133.459 237.711 133.459 237.711C133.459 237.711 135.338 219.545 121.448 194.414C109.116 172.102 74.3713 174.627 72.662 176.209C67.3365 181.112 60.6797 193.691 60.6797 193.691C69.6438 200.249 97.7209 188.907 107.898 199.487Z" fill="#415EBE"/>
<path d="M42.6439 281.183L41.3634 288.493H37.8939L36.2354 280.404L42.6439 281.183Z" fill="white"/>
<path d="M41.6234 288.804H37.6406L35.8467 280.048L42.9999 280.912L41.6234 288.804ZM38.1427 288.188H41.1101L42.2891 281.449L36.6252 280.765L38.1427 288.188Z" fill="#344D99"/>
<path d="M72.2163 170.346C72.2163 170.346 74.1061 196.132 66.8175 232.645C62.5639 253.957 42.5427 281.178 42.5427 281.178H36.309C36.309 281.178 44.7146 258.137 44.032 228.369C43.4622 203.373 33.1329 184.693 36.9239 173.786C38.7855 168.431 72.2163 170.346 72.2163 170.346Z" fill="#344D99"/>
<path d="M44.0093 283.341C44.0093 283.341 45.4309 282.793 44.8385 281.302C44.8385 281.302 45.1262 280.285 44.9852 279.811C44.8385 279.342 35.0733 278.478 34.5431 279.811C34.0128 281.144 34.9605 281.534 34.9605 281.534C34.9605 281.534 33.7758 282.477 35.0169 282.788C36.2524 283.104 40.7542 284.279 44.0093 283.341Z" fill="#1300A1"/>
<path d="M41.7792 286.132C41.7792 286.132 56.8586 286.132 59.809 293.808H35.2014C35.2014 293.808 33.1874 288.414 37.4636 286.358C37.4636 286.358 39.1955 287.838 41.7792 286.132Z" fill="#344D99"/>
<path d="M35.0717 292.972H52.0014C51.9845 291.272 52.3455 289.634 53.1184 288.092C53.1917 287.945 53.4118 288.075 53.3384 288.222C52.5881 289.724 52.244 291.317 52.2553 292.972H59.6116C59.7809 292.972 59.7809 293.227 59.6116 293.227H52.2553C52.2609 293.419 52.2496 293.605 52.2665 293.803C52.2835 293.967 52.024 293.967 52.0127 293.803C51.9958 293.611 52.007 293.419 52.0014 293.227H35.066C34.9081 293.232 34.9081 292.972 35.0717 292.972Z" fill="#ADD0F6"/>
<path d="M43.9003 289.402C43.9116 289.566 44.1655 289.566 44.1598 289.402C44.0865 288.233 44.5942 287.137 45.542 286.448C45.5476 286.442 45.5476 286.437 45.5533 286.431C45.5645 286.42 45.5702 286.403 45.5815 286.386C45.5871 286.386 45.5927 286.392 45.604 286.386C45.6153 286.38 45.6322 286.375 45.6435 286.375C46.0666 286.454 46.501 286.522 46.941 286.538C46.1343 287.256 45.6943 288.273 45.7507 289.363C45.762 289.527 46.0159 289.527 46.0046 289.363C45.9538 288.301 46.3769 287.329 47.1949 286.646C47.2344 286.612 47.24 286.572 47.2287 286.538C47.7534 286.516 48.2611 286.386 48.7011 286.041C49.2427 285.618 49.7956 284.674 49.4684 283.98C49.7674 283.183 49.7899 282.02 49.0735 281.494C46.9749 279.952 44.8312 284.731 45.2204 286.245C45.2317 286.296 45.2712 286.318 45.3107 286.324C44.3516 287.058 43.827 288.182 43.9003 289.402ZM49.2935 283.725C48.7011 283.059 47.5052 283.347 46.8846 283.805C46.202 284.313 45.5927 285.025 45.4066 285.861C45.3163 284.917 45.8692 283.917 46.3092 283.127C46.8451 282.161 48.6278 280.398 49.2878 282.37C49.4684 282.889 49.4402 283.336 49.2935 283.725ZM46.6759 284.324C47.099 283.934 47.539 283.618 48.137 283.596C48.5375 283.579 48.9663 283.663 49.1694 283.991C48.5375 285.104 46.7944 285.686 45.6435 286.098C45.7394 285.392 46.1512 284.816 46.6759 284.324ZM46.1287 286.2C47.2626 285.815 48.6786 285.335 49.2766 284.335C49.2822 284.369 49.2991 284.386 49.2991 284.426C49.3386 285.279 48.4868 286.019 47.7421 286.205C47.2175 286.341 46.6646 286.296 46.1287 286.2Z" fill="#ADD0F6"/>
<path d="M137.544 234.356L139.908 241.394L136.856 243.055L131.542 236.74L137.544 234.356Z" fill="white"/>
<path d="M136.783 243.445L131.034 236.616L137.73 233.955L140.28 241.541L136.783 243.445ZM132.055 236.87L136.935 242.665L139.541 241.247L137.364 234.763L132.055 236.87Z" fill="#344D99"/>
<path d="M139.412 239.649C139.412 239.649 153.267 232.718 159.337 238.265L137.325 249.28C137.325 249.28 133.116 245.354 136.022 241.603C136.022 241.603 137.866 242.332 139.412 239.649Z" fill="#344D99"/>
<path d="M136.833 248.591L151.975 241.01C151.202 239.496 150.79 237.875 150.796 236.147C150.796 235.983 151.049 236 151.049 236.164C151.049 237.847 151.45 239.423 152.2 240.897L158.784 237.604C158.93 237.531 159.049 237.762 158.902 237.836L152.319 241.129C152.409 241.298 152.482 241.473 152.59 241.637C152.674 241.778 152.443 241.891 152.358 241.75C152.257 241.586 152.183 241.411 152.093 241.242L136.946 248.822C136.799 248.896 136.687 248.664 136.833 248.591Z" fill="#ADD0F6"/>
<path d="M143.136 241.445C143.221 241.586 143.452 241.473 143.367 241.327C142.781 240.31 142.741 239.107 143.288 238.062C143.294 238.05 143.288 238.045 143.288 238.039C143.294 238.022 143.294 238.005 143.294 237.988C143.3 237.983 143.305 237.988 143.311 237.983C143.317 237.971 143.328 237.96 143.339 237.954C143.751 237.841 144.18 237.706 144.575 237.519C144.174 238.525 144.236 239.626 144.766 240.575C144.845 240.717 145.077 240.604 144.998 240.462C144.479 239.536 144.422 238.474 144.851 237.497C144.874 237.452 144.857 237.418 144.834 237.384C145.291 237.124 145.692 236.785 145.928 236.277C146.222 235.655 146.295 234.565 145.692 234.085C145.601 233.238 145.105 232.187 144.23 232.04C141.664 231.605 141.878 236.836 142.905 238.011C142.939 238.05 142.984 238.056 143.023 238.045C142.499 239.146 142.527 240.389 143.136 241.445ZM145.432 233.949C144.603 233.622 143.666 234.407 143.317 235.096C142.933 235.859 142.707 236.768 142.91 237.598C142.408 236.791 142.459 235.65 142.499 234.746C142.549 233.639 143.35 231.266 144.823 232.735C145.212 233.13 145.387 233.537 145.432 233.949ZM143.356 235.661C143.559 235.124 143.813 234.644 144.332 234.356C144.682 234.164 145.105 234.045 145.438 234.249C145.364 235.531 144.067 236.825 143.221 237.711C142.989 237.034 143.102 236.333 143.356 235.661ZM143.7 237.587C144.546 236.734 145.596 235.672 145.686 234.514C145.703 234.543 145.731 234.548 145.748 234.582C146.16 235.322 145.731 236.373 145.15 236.87C144.738 237.226 144.225 237.429 143.7 237.587Z" fill="#ADD0F6"/>
<path d="M139.811 235.927C139.811 235.927 140.787 234.757 139.546 233.74C139.546 233.74 139.303 232.712 138.948 232.368C138.592 232.029 129.64 236.023 129.82 237.446C130.001 238.869 131.016 238.751 131.016 238.751C131.016 238.751 130.441 240.146 131.676 239.818C132.923 239.491 137.425 238.333 139.811 235.927Z" fill="#1300A1"/>
<path d="M119.966 113.215C119.966 113.209 119.966 113.209 119.966 113.198C119.582 112.548 119.255 111.921 119.136 111.125C118.944 109.837 118.679 108.668 118.143 107.476C117.805 106.713 118.803 106.001 119.435 106.51C120.383 107.272 120.93 108.289 121.009 109.487C121.387 108.809 122.098 107.899 122.865 107.278C123.537 106.532 124.501 105.883 125.522 106.25C126.047 106.436 126.278 106.736 126.34 107.086C126.803 107.029 127.249 107.109 127.587 107.476C127.937 107.854 127.942 108.221 127.83 108.577C128.134 108.656 128.394 108.837 128.529 109.21C128.67 109.588 128.614 110.012 128.467 110.407C128.676 110.582 128.823 110.837 128.856 111.198C128.913 111.859 128.586 112.407 128.14 112.876C127.655 113.661 125.032 115.192 124.36 115.57C120.276 124.1 117.822 119.033 119.966 113.215Z" fill="white"/>
<path d="M120.544 120.417C120.358 120.417 120.2 120.377 120.07 120.321C118.66 119.722 118.462 116.497 119.63 113.237C119.286 112.65 118.953 112 118.829 111.176C118.609 109.701 118.321 108.634 117.859 107.606C117.65 107.142 117.797 106.612 118.214 106.29C118.649 105.951 119.218 105.951 119.619 106.273C120.414 106.911 120.939 107.724 121.176 108.651C121.571 108.103 122.096 107.504 122.66 107.046C123.579 106.018 124.645 105.623 125.616 105.968C126.09 106.137 126.406 106.408 126.558 106.77C126.569 106.77 126.575 106.77 126.586 106.77C127.088 106.77 127.494 106.939 127.81 107.272C128.12 107.606 128.245 107.973 128.188 108.391C128.487 108.538 128.696 108.781 128.82 109.114C128.955 109.47 128.955 109.882 128.82 110.334C129.017 110.56 129.136 110.842 129.164 111.176C129.221 111.831 128.967 112.452 128.386 113.074C127.844 113.898 125.452 115.31 124.595 115.796C122.756 119.603 121.385 120.417 120.544 120.417ZM120.273 113.226L120.256 113.316C119.106 116.44 119.343 119.338 120.313 119.75C121.001 120.038 122.349 119.061 124.087 115.44L124.126 115.356L124.211 115.31C125.796 114.407 127.551 113.26 127.884 112.718L127.923 112.667C128.397 112.164 128.6 111.707 128.555 111.226C128.532 110.978 128.442 110.786 128.273 110.645L128.109 110.503L128.183 110.3C128.324 109.91 128.346 109.583 128.245 109.312C128.154 109.069 128.002 108.933 127.754 108.865L127.438 108.786L127.534 108.476C127.618 108.204 127.624 107.962 127.359 107.673C127.122 107.425 126.806 107.329 126.372 107.38L126.084 107.414L126.033 107.131C126.005 106.956 125.903 106.708 125.413 106.532C124.442 106.188 123.54 106.973 123.088 107.476C122.293 108.125 121.616 109.018 121.278 109.628L121.204 109.758L120.725 109.837L120.702 109.498C120.629 108.385 120.138 107.459 119.247 106.736C119.038 106.566 118.773 106.628 118.598 106.758C118.525 106.815 118.288 107.029 118.429 107.335C118.914 108.413 119.218 109.532 119.444 111.063C119.557 111.837 119.895 112.452 120.234 113.023L120.296 113.124L120.273 113.226Z" fill="#344D99"/>
<path d="M117.68 151.18C127.327 147.299 127.823 122.705 124.359 115.582L119.88 112.944C119.88 112.944 118.932 116.999 117.336 121.705C117.336 121.705 117.336 121.705 117.33 121.716C115.525 127.009 112.907 133.115 109.912 135.126C107.971 136.431 105.325 134.798 102.239 132.296C96.3498 127.529 79.0646 106.77 70.0779 112.774C50.9988 125.529 103.385 156.936 117.68 151.18Z" fill="white"/>
<path d="M113.359 152.191C99.8645 152.191 73.7675 137.583 67.1897 125.105C64.448 119.897 65.3901 115.542 69.9201 112.514C77.2652 107.606 89.4731 119.558 97.5515 127.466C99.5316 129.404 101.241 131.082 102.443 132.053C105.574 134.584 108.011 136.03 109.754 134.866C112.112 133.285 114.634 128.703 117.048 121.614C118.622 116.971 119.575 112.915 119.587 112.876L119.683 112.469L124.596 115.367L124.636 115.452C127.242 120.818 127.513 134.957 124.111 143.802C122.56 147.83 120.439 150.411 117.793 151.473C116.563 151.959 115.057 152.191 113.359 152.191ZM73.7788 112.006C72.5038 112.006 71.3192 112.322 70.2586 113.028C65.9711 115.898 65.1193 119.863 67.7312 124.823C71.0879 131.195 80.1761 138.792 91.4476 144.65C102.657 150.473 112.67 152.868 117.567 150.897C120.044 149.903 122.052 147.44 123.541 143.576C126.875 134.911 126.65 121.123 124.128 115.802L120.089 113.418C119.807 114.565 118.927 117.988 117.635 121.801C115.136 129.127 112.603 133.691 110.098 135.375C108.044 136.753 105.399 135.233 102.059 132.533C100.835 131.545 99.1142 129.856 97.1228 127.907C90.8044 121.722 80.8756 112.006 73.7788 112.006Z" fill="#344D99"/>
<path d="M116.592 151.485C123.932 148.999 125.393 136.165 125.348 135.747C123.542 141.04 119.024 145.762 116.034 147.773C114.093 149.078 102.365 146.689 99.2789 144.192C86.1289 129.167 82.1855 124.636 82.1855 124.636L84.3293 140.707C84.3349 140.713 107.927 154.422 116.592 151.485Z" fill="#FFF3F0"/>
<path d="M91.7075 171.537C91.7075 171.537 72.0868 181.434 32.6367 174.435C32.6367 174.435 32.5521 105.086 69.0292 110.052C95.6903 113.678 79.0708 146.502 91.7075 171.537Z" fill="white"/>
<path d="M59.3427 177.226C51.7381 177.226 42.8191 176.553 32.58 174.74L32.3262 174.695V174.435C32.3262 174 32.4785 130.833 50.3447 115.192C55.5855 110.6 61.8869 108.769 69.0684 109.747C85.3155 111.955 85.7443 124.998 86.2464 140.102C86.5736 150.106 86.9515 161.443 91.978 171.402L92.119 171.679L91.8426 171.82C91.6959 171.882 80.7742 177.226 59.3427 177.226ZM32.9467 174.175C69.1699 180.553 88.768 172.526 91.2897 171.39C86.3366 161.381 85.9643 150.089 85.6371 140.119C85.1294 124.687 84.7232 112.497 68.9894 110.357C61.9885 109.402 55.8563 111.187 50.7509 115.655C33.8098 130.483 32.9862 170.571 32.9467 174.175Z" fill="#344D99"/>
<path d="M72.583 110.775C72.583 110.775 72.882 113.898 71.0768 116.932C68.6059 113.554 65.6047 111.532 62.9814 109.933C62.9814 109.933 64.3241 106.097 63.0999 101.855L70.8624 103.736C70.8624 103.736 69.7906 107.075 72.583 110.775Z" fill="white"/>
<path d="M71.1053 117.485L70.8289 117.112C68.4538 113.876 65.5767 111.87 62.8237 110.193L62.6094 110.063L62.6883 109.826C62.6996 109.786 63.9802 106.03 62.8012 101.94L62.6545 101.432L71.2463 103.516L71.1504 103.832C71.1391 103.866 70.1744 107.075 72.8259 110.594L72.8767 110.662L72.8823 110.746C72.8936 110.876 73.17 114.006 71.3309 117.09L71.1053 117.485ZM63.3484 109.792C65.9829 111.413 68.719 113.345 71.0376 116.367C72.3746 113.859 72.3069 111.368 72.2843 110.882C69.9601 107.747 70.2873 104.894 70.4904 103.957L63.5346 102.268C64.3977 105.804 63.6135 108.916 63.3484 109.792Z" fill="#344D99"/>
<path d="M62.1239 87.1744C58.4119 88.8069 57.2554 94.3426 59.5345 99.5506C61.8136 104.759 66.6708 107.656 70.3829 106.03C74.0949 104.397 75.2514 98.8615 72.9722 93.6534C70.6931 88.4454 65.8359 85.5476 62.1239 87.1744Z" fill="white"/>
<path d="M68.1777 106.792C66.9083 106.792 65.5713 106.397 64.2625 105.617C62.1583 104.363 60.3813 102.251 59.253 99.6749C58.1247 97.0992 57.7806 94.3596 58.2827 91.9589C58.7904 89.5243 60.1161 87.7224 62.0003 86.892C63.8902 86.0617 66.1016 86.3102 68.2397 87.5868C70.3439 88.8408 72.121 90.9534 73.2492 93.5292C75.5904 98.8841 74.3606 104.618 70.5019 106.312C69.7742 106.634 68.99 106.792 68.1777 106.792ZM64.3302 87.0276C63.6025 87.0276 62.903 87.1688 62.2542 87.4569C60.5505 88.2025 59.3546 89.8463 58.8863 92.0831C58.4124 94.3596 58.7396 96.9636 59.8171 99.4264C60.8946 101.889 62.5871 103.9 64.5785 105.086C66.5417 106.256 68.5556 106.493 70.2593 105.742C73.8077 104.183 74.9022 98.8107 72.6907 93.7721C71.6132 91.3093 69.9208 89.2984 67.9294 88.1121C66.7222 87.3948 65.4924 87.0276 64.3302 87.0276Z" fill="#344D99"/>
<path d="M70.0738 89.4847C70.0738 89.4847 71.5857 90.9873 71.975 91.7724C71.975 91.7724 69.6056 93.0547 66.61 91.8402C62.2098 90.0553 58.8306 93.6986 58.8306 93.6986L58.667 90.3094L68.5055 85.9374L70.0738 89.4847Z" fill="#DC3F53"/>
<path d="M33.4041 109.125C34.0923 109.453 34.9385 109.408 35.5873 109.724C38.3008 111.046 38.2275 112.678 39.6265 114.491C40.5235 115.655 41.7308 116.531 43.1129 117.028C46.3623 118.203 49.5722 117.158 49.9953 113.537C50.2041 111.757 49.7528 109.769 49.1209 108.108C48.7317 107.086 47.8291 106.109 47.5132 105.115C46.87 103.087 48.2409 102.076 49.6512 100.765C50.9995 99.4999 52.3309 98.2572 53.414 96.8958C53.8597 99.0593 54.61 101.014 55.3152 101.742C56.3532 102.821 57.1712 105.03 59.9354 104.409C64.3583 103.42 59.2246 97.8166 59.896 95.3142C59.896 95.3142 61.6561 95.0092 61.8817 92.8909C62.113 90.7727 64.7419 90.3942 66.8179 91.0156C68.8939 91.6369 70.891 91.8911 72.7583 90.2587C74.1855 89.0103 67.5231 83.3108 65.2553 83.4803C59.219 83.9265 56.1557 86.4684 54.5987 88.5528C52.1447 86.186 48.8502 84.5648 45.4653 86.1577C44.2299 86.7395 43.1975 87.6659 42.6165 88.9143C41.7195 90.8518 42.7744 91.6595 39.9763 93.1282C39.0116 93.6366 37.6915 93.6083 36.6422 93.9698C30.6624 96.0203 25.8277 105.504 33.4041 109.125Z" fill="#D64E2D"/>
<path d="M61.125 97.1727C61.125 97.1727 59.3255 95.8622 58.4454 97.3704C57.5653 98.8785 60.1152 102.612 61.7851 100.878C63.4549 99.144 61.125 97.1727 61.125 97.1727Z" fill="white"/>
<path d="M60.8098 101.635C60.4036 101.635 59.9748 101.477 59.5574 101.161C58.4009 100.285 57.5265 98.3307 58.1752 97.2179C58.446 96.7547 58.8127 96.4722 59.2753 96.3762C60.2513 96.1729 61.2554 96.8959 61.3006 96.9241L61.3175 96.9354C61.3682 96.9806 62.6206 98.0482 62.6883 99.3813C62.7222 100.008 62.4909 100.584 62.0057 101.087C61.6616 101.454 61.2498 101.635 60.8098 101.635ZM59.6476 96.9524C59.5687 96.9524 59.484 96.958 59.4051 96.975C59.1174 97.0371 58.886 97.2179 58.7055 97.5229C58.2768 98.2572 58.9143 99.901 59.9241 100.669C60.3528 100.997 60.9846 101.262 61.5601 100.664C61.9267 100.279 62.096 99.8727 62.0734 99.4152C62.0226 98.3984 61.0354 97.5059 60.9282 97.4156C60.8549 97.3591 60.2456 96.9524 59.6476 96.9524Z" fill="#344D99"/>
<path d="M32.6699 174.452C32.6699 174.452 32.6361 147.576 40.3535 131.415L57.5089 117.118C57.5089 117.118 64.0923 131.302 45.7184 149.666C40.6468 154.733 69.6604 166.533 69.6604 166.533L32.6699 174.452Z" fill="#FFF3F0"/>
<path d="M63.8554 83.6327C63.8554 83.6327 72.0919 81.893 74.653 90.8348C74.653 90.8348 62.2589 96.427 58.4905 95.4667L56.3242 89.9875L63.8554 83.6327Z" fill="#D64E2D"/>
<path d="M66.7226 84.6892C67.896 85.2484 69.2104 85.7285 70.2428 86.5363C71.2018 87.2819 71.749 88.3721 72.2398 89.4566C72.4542 89.9424 71.7434 90.383 71.529 89.8916C71.0495 88.8127 70.5305 87.762 69.5433 87.0616C68.5729 86.3725 67.3939 85.9319 66.322 85.4178C65.8312 85.1863 66.2374 84.4576 66.7226 84.6892Z" fill="#D63C24"/>
<path d="M68.414 87.5473C69.2658 88.2139 69.8412 89.0725 70.1515 90.1062C70.3095 90.6202 69.5084 90.8518 69.3504 90.3378C69.074 89.4396 68.5719 88.7335 67.8385 88.1574C67.4154 87.8184 67.9909 87.2197 68.414 87.5473Z" fill="#D63C24"/>
<path d="M52.6851 96.845C52.7753 93.9811 53.1984 91.1624 53.9713 88.4059C54.259 87.3722 55.8781 87.7789 55.5904 88.8182C54.857 91.4449 54.4395 94.0997 54.3549 96.8224C54.3211 97.8956 52.6512 97.9239 52.6851 96.845Z" fill="#344D99"/>
<path d="M62.981 109.927C62.981 109.927 69.2035 113.147 71.0764 116.926L68.0808 120.575C68.0808 120.575 64.8032 112.396 61.7061 110.085C61.7004 110.085 62.4113 109.617 62.981 109.927Z" fill="#D64E2D"/>
<path d="M72.5834 110.775C72.5834 110.775 72.3521 115.373 71.0771 116.932L74.1799 120.569C74.1799 120.569 74.7835 114.265 73.1588 111.012L72.5834 110.775Z" fill="#D64E2D"/>
<path d="M70.7051 125.936C70.7051 125.247 71.2636 124.682 71.9575 124.682C72.6457 124.682 73.2098 125.241 73.2098 125.936C73.2098 126.63 72.6514 127.19 71.9575 127.19C71.2692 127.19 70.7051 126.625 70.7051 125.936Z" fill="#D64E2D"/>
<path d="M71.3818 134.499C71.3818 133.81 71.9403 133.245 72.6342 133.245C73.3225 133.245 73.8866 133.804 73.8866 134.499C73.8866 135.194 73.3281 135.753 72.6342 135.753C71.9403 135.753 71.3818 135.188 71.3818 134.499Z" fill="#D64E2D"/>
<path d="M71.3984 149.632C71.3984 148.943 71.9569 148.378 72.6508 148.378C73.3447 148.378 73.9032 148.937 73.9032 149.632C73.9032 150.327 73.3447 150.886 72.6508 150.886C71.9569 150.886 71.3984 150.327 71.3984 149.632Z" fill="#D64E2D"/>
<path d="M71.3877 141.565C71.3877 140.871 71.9462 140.311 72.6401 140.311C73.3283 140.311 73.8925 140.871 73.8925 141.565C73.8925 142.255 73.334 142.819 72.6401 142.819C71.9518 142.819 71.3877 142.255 71.3877 141.565Z" fill="#D64E2D"/>
<path d="M71.4102 157.997C71.4102 157.308 71.9687 156.743 72.6625 156.743C73.3508 156.743 73.9149 157.303 73.9149 157.997C73.9149 158.692 73.3564 159.251 72.6625 159.251C71.9687 159.251 71.4102 158.692 71.4102 157.997Z" fill="#D64E2D"/>
<path d="M119.361 112.351L118.887 114.548L126.446 117.999L126.367 115.192L119.361 112.351Z" fill="#D64E2D"/>
<path d="M60.6406 164.64C62.4966 162.782 66.2368 159.788 68.0646 161.833C68.5385 162.364 68.0138 163.036 67.4666 163.155C66.5753 163.347 65.7291 163.477 64.9957 164.075C64.9901 164.081 64.9844 164.087 64.9732 164.092C68.4087 164.341 72.5213 165.279 74.1855 167.962C75.1671 169.543 74.0727 170.029 72.6228 168.978C69.8247 166.951 68.6006 167.47 71.4043 169.769C72.211 170.436 74.0332 173.012 73.6101 173.554C72.7131 174.706 69.6273 171.198 68.2282 170.306C66.7897 170.086 70.3663 173.723 70.2309 174.627C69.9263 176.695 65.2045 171.831 64.7249 171.989C63.3936 172.447 68.5667 174.96 66.3327 175.717C64.708 176.271 60.6688 171.515 59.2923 170.859C58.1584 170.323 57.0414 170.605 56.5732 169.374C55.8511 167.431 58.4799 165.572 60.6406 164.64Z" fill="white"/>
<path d="M66.0617 176.062C64.815 176.062 62.959 174.379 61.3061 172.882C60.4316 172.091 59.608 171.345 59.1623 171.131C58.8182 170.967 58.4684 170.882 58.13 170.803C57.4079 170.633 56.6576 170.453 56.2852 169.475C55.5067 167.402 58.0341 165.437 60.4599 164.375C61.5825 163.256 64.3355 160.782 66.5638 160.833C67.2577 160.85 67.8331 161.115 68.2844 161.618C68.5326 161.895 68.6116 162.24 68.4988 162.584C68.3634 162.996 67.9629 163.352 67.5228 163.448L67.269 163.505C66.8007 163.601 66.3551 163.697 65.9376 163.866C69.0968 164.205 72.8257 165.183 74.4448 167.798C75.1161 168.888 74.8397 169.402 74.614 169.617C74.174 170.029 73.3391 169.877 72.4421 169.227C71.2292 168.346 70.4451 168.052 70.1517 168.024C70.2476 168.233 70.6087 168.724 71.5959 169.532C72.3011 170.114 74.4956 172.916 73.8525 173.74C73.6945 173.938 73.4801 174.057 73.2263 174.085C72.3011 174.181 70.9189 172.972 69.5932 171.808C69.0968 171.373 68.6285 170.961 68.2562 170.696C68.4254 171.068 68.9163 171.758 69.2604 172.249C70.101 173.43 70.6087 174.181 70.5353 174.672C70.4676 175.124 70.2251 175.311 70.0333 175.39C69.2322 175.706 67.8162 174.661 66.0504 173.26C65.6499 172.944 65.1704 172.56 64.8996 172.385C65.0745 172.611 65.4637 172.961 65.7458 173.215C66.5243 173.915 67.331 174.638 67.1956 175.305C67.1279 175.621 66.8741 175.858 66.4341 176.005C66.3156 176.045 66.1915 176.062 66.0617 176.062ZM66.4848 161.449C64.4201 161.449 61.6558 164.047 60.8547 164.855L60.7588 164.917C58.9931 165.68 56.1837 167.459 56.8607 169.261C57.1145 169.933 57.5715 170.046 58.271 170.21C58.6208 170.295 59.0213 170.385 59.4218 170.577C59.9465 170.826 60.7645 171.566 61.7122 172.424C63.1621 173.735 65.3566 175.712 66.2366 175.418C66.4453 175.344 66.5751 175.26 66.592 175.175C66.6597 174.853 65.8304 174.107 65.334 173.661C64.6288 173.023 64.1154 172.565 64.2057 172.113C64.2339 171.978 64.3298 171.791 64.6232 171.69C64.9222 171.588 65.2719 171.848 66.4284 172.769C67.4213 173.554 69.2717 175.022 69.802 174.808C69.864 174.785 69.9035 174.706 69.9204 174.571C69.9599 174.299 69.204 173.232 68.7527 172.594C67.8444 171.317 67.3874 170.628 67.6469 170.21C67.7259 170.08 67.9008 169.939 68.2675 169.995L68.386 170.04C68.8147 170.317 69.3845 170.814 69.9881 171.34C71.043 172.26 72.5098 173.537 73.1586 173.463C73.2488 173.458 73.3109 173.424 73.3617 173.356C73.5083 172.955 72.0811 170.724 71.201 170.001C69.0911 168.272 69.4747 167.775 69.5989 167.606C70.1291 166.911 72.0077 168.154 72.7919 168.719C73.514 169.244 74.0443 169.289 74.1853 169.154C74.2981 169.046 74.2643 168.673 73.9145 168.109C72.2616 165.448 68.1208 164.612 64.9391 164.38L64.1832 164.324L64.7698 163.838C65.5089 163.228 66.3382 163.059 67.1392 162.889L67.3931 162.838C67.6187 162.787 67.85 162.59 67.9177 162.386C67.9629 162.257 67.9347 162.132 67.8331 162.019C67.4946 161.641 67.0772 161.449 66.5525 161.437C66.53 161.449 66.5074 161.449 66.4848 161.449Z" fill="#344D99"/>
<path d="M16.1816 150.874C18.0094 160.72 48.4615 168.82 58.3565 170.718L59.1632 164.821C59.1632 164.821 52.4895 160.166 47.8353 157.574C47.8353 157.574 47.8353 157.574 47.8297 157.568C42.5945 154.642 36.688 150.767 35.2607 147.525C34.3299 145.423 36.7218 143.362 40.1405 141.102C46.6732 136.792 62.0629 127.28 60.3028 119.869C55.0958 97.8956 13.4794 136.29 16.1816 150.874Z" fill="white"/>
<path d="M58.6216 171.08L58.3057 171.018C49.8324 169.391 17.7951 161.217 15.8883 150.931C13.9082 140.244 35.6049 116.282 50.0355 113.226C55.6543 112.04 59.3099 114.305 60.613 119.796C62.3167 126.964 48.8395 135.781 41.596 140.52C41.139 140.82 40.7159 141.097 40.3154 141.356C36.8572 143.639 34.7248 145.542 35.5428 147.401C36.6711 149.959 40.9698 153.382 47.9764 157.303L48.0215 157.337C52.5966 159.878 59.2704 164.527 59.3381 164.572L59.4904 164.68L58.6216 171.08ZM16.4863 150.818C18.3084 160.641 49.2626 168.611 58.1026 170.351L58.8417 164.962C57.8149 164.251 51.8915 160.178 47.6943 157.839L47.6492 157.805C40.4621 153.789 36.1859 150.366 34.9899 147.643C33.8842 145.141 36.987 142.819 39.9826 140.842C40.3774 140.583 40.8062 140.3 41.2632 140.001C48.3769 135.346 61.6228 126.681 60.015 119.937C58.7852 114.757 55.4738 112.706 50.1652 113.831C43.7566 115.186 35.0464 121.185 27.4362 129.483C19.7808 137.815 15.5893 145.988 16.4863 150.818Z" fill="#344D99"/>
<path d="M58.8122 163.2L56.4541 170.724L59.145 172.899L61.4523 164.036L58.8122 163.2Z" fill="#D64E2D"/>
<path d="M130.582 119.355L121.144 98.7543L115.678 101.223L125.121 121.823C125.686 123.077 126.814 123.789 127.649 123.416L130.108 122.304C130.932 121.931 131.146 120.609 130.582 119.355Z" fill="#344D99"/>
<path d="M114.081 100.149L118.357 98.2176L113.258 86.8864L108.981 88.8182C105.856 90.2247 104.468 93.9076 105.879 97.037C107.278 100.166 110.956 101.562 114.081 100.149Z" fill="#344D99"/>
<path d="M116.772 103.68L153.001 98.7262L136.624 59.4792L107.74 84.8022C106.025 86.3047 105.54 88.7732 106.556 90.818L111.61 100.952C112.575 102.878 114.645 103.974 116.772 103.68Z" fill="#D64E2D"/>
<path d="M135.197 83.8023C140.026 95.3707 148.24 102.646 153.543 100.053C158.851 97.4607 159.235 85.9826 154.406 74.4142C149.577 62.8457 141.363 55.5702 136.06 58.163C130.751 60.7557 130.368 72.2338 135.197 83.8023Z" fill="#D63C24"/>
<path d="M152.905 98.5283C149.836 100.025 145.368 97.0088 141.425 91.3432C140.488 89.9988 139.586 88.5019 138.751 86.8751C138.085 85.6493 137.476 84.3332 136.906 82.9549C135.924 80.622 135.168 78.2948 134.604 76.0805C134.418 75.2953 134.249 74.5271 134.097 73.7702C132.76 66.8167 133.623 61.1906 136.692 59.6937C141.058 57.5698 148.234 64.529 152.707 75.2445C157.181 85.9769 157.271 96.3987 152.905 98.5283Z" fill="#FFB923"/>
<path d="M138.744 86.8751C138.078 85.6494 137.469 84.3332 136.899 82.9549C135.918 80.622 135.162 78.2948 134.598 76.0805C134.942 75.8659 135.308 75.719 135.698 75.6004C138.722 74.6627 141.909 76.3686 142.828 79.3963C143.765 82.3901 141.717 85.9092 138.744 86.8751Z" fill="#344D99"/>
<path d="M129.472 111.3C129.472 111.238 129.494 111.181 129.483 111.113C129.432 110.758 129.257 110.481 129.009 110.294C129.06 109.984 129.043 109.662 128.84 109.311C128.654 108.995 128.4 108.803 128.118 108.684C128.101 108.651 128.072 108.617 128.056 108.583C128.304 107.984 128.191 107.464 127.283 107.301C127.113 107.272 126.724 107.238 126.685 107.193C126.752 106.832 126.668 106.459 126.318 106.086C124.851 104.488 123.148 107.329 122.55 108.289C122.296 108.701 122.448 109.102 122.741 109.34C122.922 109.571 123.215 109.713 123.559 109.622C123.712 109.583 123.892 109.515 124.095 109.436C123.915 109.741 123.83 110.08 123.977 110.492C124.152 110.978 124.53 111.147 124.947 111.159C124.829 111.469 124.829 111.814 125.054 112.204C125.382 112.785 125.793 112.881 126.222 112.774C125.996 113.48 126.82 113.983 127.424 113.717C128.123 113.401 129.11 112.881 129.432 112.13C129.528 111.887 129.545 111.565 129.472 111.3Z" fill="white"/>
<path d="M127.057 114.096C126.758 114.096 126.453 113.989 126.222 113.78C126.019 113.599 125.9 113.367 125.872 113.119C125.426 113.102 125.054 112.842 124.777 112.356C124.597 112.045 124.524 111.729 124.563 111.418C124.14 111.311 123.835 111.029 123.683 110.599C123.604 110.373 123.576 110.153 123.598 109.933C123.192 110.029 122.792 109.893 122.515 109.56C122.081 109.182 121.985 108.611 122.29 108.131L122.329 108.069C122.859 107.216 123.959 105.437 125.229 105.312C125.708 105.267 126.154 105.459 126.543 105.883C126.848 106.216 127.006 106.578 127.011 106.962C127.045 106.967 127.074 106.967 127.107 106.973C127.192 106.984 127.277 106.996 127.333 107.007C127.841 107.097 128.185 107.306 128.354 107.617C128.49 107.865 128.506 108.159 128.411 108.492C128.698 108.651 128.935 108.877 129.104 109.165C129.336 109.549 129.358 109.905 129.336 110.176C129.584 110.413 129.742 110.724 129.793 111.08C129.804 111.164 129.793 111.238 129.787 111.283C129.866 111.599 129.838 111.966 129.708 112.26C129.341 113.107 128.298 113.661 127.542 114.006C127.384 114.062 127.22 114.096 127.057 114.096ZM126.667 112.339L126.498 112.865C126.43 113.085 126.526 113.232 126.622 113.322C126.803 113.48 127.074 113.525 127.282 113.435C127.66 113.26 128.822 112.735 129.138 112.006C129.217 111.825 129.229 111.577 129.172 111.385L129.161 111.339V111.294C129.161 111.255 129.166 111.215 129.172 111.181C129.144 110.904 129.02 110.69 128.822 110.543L128.676 110.43L128.704 110.249C128.755 109.944 128.715 109.707 128.568 109.47C128.433 109.238 128.241 109.074 127.987 108.967L127.886 108.922L127.835 108.826C127.801 108.781 127.784 108.747 127.767 108.718L127.705 108.594L127.756 108.464C127.824 108.295 127.892 108.063 127.801 107.905C127.705 107.73 127.423 107.645 127.209 107.606C127.158 107.594 127.09 107.589 127.011 107.577C126.69 107.538 126.543 107.515 126.436 107.402L126.334 107.289L126.363 107.137C126.419 106.843 126.323 106.566 126.075 106.295C125.815 106.018 125.556 105.894 125.274 105.922C124.309 106.013 123.237 107.741 122.837 108.391L122.797 108.453C122.594 108.781 122.814 109.018 122.921 109.108L122.967 109.153C123.04 109.249 123.204 109.396 123.463 109.328C123.604 109.289 123.779 109.227 123.965 109.153L124.794 108.82L124.349 109.594C124.185 109.876 124.157 110.114 124.253 110.39C124.321 110.582 124.467 110.842 124.941 110.854L125.375 110.865L125.218 111.272C125.116 111.531 125.144 111.78 125.302 112.057C125.579 112.548 125.866 112.548 126.126 112.48L126.667 112.339Z" fill="#344D99"/>
<path d="M59.8559 96.2181C59.8559 96.2181 59.8051 96.5457 60.0985 97.2461C60.3918 97.9466 61.2888 100.472 61.2888 100.472C61.2888 100.472 61.537 100.94 61.6329 101.488C61.7288 102.036 64.0756 102.268 64.2167 101.669C64.3521 101.065 65.5142 99.5621 64.5439 98.5058C63.5736 97.4495 62.6089 96.9411 62.6089 96.9411C62.6089 96.9411 62.2422 96.2633 61.5878 96.0091C60.9334 95.7605 60.7303 95.6024 60.6006 95.721C60.4708 95.834 59.8559 96.2181 59.8559 96.2181Z" fill="white"/>
<path d="M52.6017 113.52C52.6017 113.52 53.3464 113.61 54.3449 113.045C55.3435 112.475 60.9171 114.599 60.9171 114.599C60.9171 114.599 64.6009 118.191 64.6291 119.039C64.663 119.892 64.8435 122.298 63.8901 123.699C62.9367 125.1 62.1752 126.727 61.3854 127.387C60.5956 128.048 58.4744 126.783 58.4744 126.783C58.4744 126.783 58.4406 125.913 57.741 126.664C57.0415 127.421 45.6572 123.332 45.6572 123.332L47.7615 118.909L52.6017 113.52Z" fill="white"/>
<path d="M82.5817 88.9552L77.8193 92.219L78.1507 92.7038L82.913 89.44L82.5817 88.9552Z" fill="#273972"/>
<path d="M79.111 101.502L78.9912 102.077L89.7813 104.334L89.9011 103.759L79.111 101.502Z" fill="#273972"/>
<path d="M83.7768 98.0109L79.6113 98.4789L79.6767 99.062L83.8422 98.594L83.7768 98.0109Z" fill="#273972"/>
<path d="M89.1345 93.7095L79.1816 96.5994L79.345 97.1636L89.2979 94.2737L89.1345 93.7095Z" fill="#273972"/>
<path d="M74.2861 111.707C74.2861 111.707 77.7387 111.983 83.0585 115.672C88.3783 119.361 89.3317 128.263 89.3317 128.263L85.5971 128.551C85.5971 128.551 85.0104 127.732 84.8919 128.551C84.7734 129.37 76.3452 127.585 76.3452 127.585L76.0745 118.005L74.2861 111.707Z" fill="white"/>
<path d="M186.712 289.465C186.712 291.843 184.789 293.769 182.414 293.769L142.021 293.791C140.831 293.797 139.754 293.311 138.975 292.526C138.202 291.747 137.723 290.679 137.723 289.493L137.706 256.86L137.7 251.641C137.7 249.263 139.624 247.337 141.993 247.337L182.385 247.314C184.76 247.309 186.684 249.235 186.684 251.613L186.712 289.465Z" fill="#D64E2D"/>
<path d="M142 294.023C140.792 294.023 139.664 293.548 138.807 292.69C137.955 291.831 137.486 290.696 137.486 289.493L137.464 251.641C137.464 249.139 139.495 247.1 141.994 247.1L182.386 247.077C182.392 247.077 182.392 247.077 182.397 247.077C183.605 247.077 184.739 247.546 185.59 248.399C186.448 249.257 186.922 250.398 186.922 251.613L186.95 289.464C186.95 291.967 184.919 294.006 182.414 294.006L142.022 294.029C142.011 294.023 142.005 294.023 142 294.023ZM182.392 247.546C182.386 247.546 182.386 247.546 182.38 247.546L141.988 247.568C139.749 247.568 137.932 249.393 137.932 251.635L137.955 289.487C137.955 290.566 138.378 291.583 139.139 292.357C139.907 293.13 140.922 293.554 142 293.554C142.005 293.554 142.011 293.554 142.016 293.554L182.409 293.532C184.648 293.532 186.47 291.707 186.47 289.464L186.442 251.613C186.442 250.523 186.019 249.5 185.252 248.732C184.49 247.969 183.475 247.546 182.392 247.546Z" fill="#C00014"/>
<g opacity="0.2">
<path d="M147.281 289.216C147.281 291.04 145.809 292.52 143.987 292.52L138.977 292.526C138.204 291.747 137.725 290.679 137.725 289.493L137.708 256.86L143.947 256.855C145.77 256.855 147.248 258.335 147.248 260.159L147.281 289.216Z" fill="#242424"/>
</g>
<path d="M109.132 258.414L140.143 258.38C141.965 258.38 143.443 259.854 143.443 261.679L143.471 290.735C143.471 292.56 141.999 294.04 140.177 294.04L109.166 294.074C107.344 294.074 105.866 292.599 105.866 290.775L105.838 261.718C105.838 259.899 107.31 258.419 109.132 258.414Z" fill="#344D99"/>
</svg>
