<svg width="311" height="357" viewBox="0 0 311 357" fill="none" xmlns="http://www.w3.org/2000/svg">
<mask id="mask0_6641_176281" style="mask-type:alpha" maskUnits="userSpaceOnUse" x="5" y="80" width="300" height="274">
<path d="M138.894 81.8261C179.381 89.8047 200.053 135.659 265.254 176.46C330.454 217.262 316.103 376.593 213.124 350.612C114.884 325.818 110.34 327.779 45.997 330.065C-34.5317 332.934 10.7621 56.5815 138.894 81.8261Z" fill="#EEF6F9"/>
</mask>
<g mask="url(#mask0_6641_176281)">
<path d="M138.894 81.8261C179.381 89.8047 200.053 135.659 265.254 176.46C330.454 217.262 316.103 376.593 213.124 350.612C114.884 325.818 110.34 327.779 45.997 330.065C-34.5317 332.934 10.7621 56.5815 138.894 81.8261Z" fill="#FFF6F4"/>
<path d="M-13.1326 139.882V128.663H5.47076V75.0477H10.6031V128.663H30.6467V139.882H41.3801V364.683H-36.0396V139.882H-13.1326Z" fill="#FFF6F4"/>
<path d="M80.0883 193.429H2.6687V364.683H80.0883V193.429Z" fill="#FFF6F4"/>
<path d="M13.4021 193.429H2.6687V364.683H13.4021V193.429Z" fill="#EAA695"/>
<path d="M69.2863 200.728H58.1758V205.34H69.2863V200.728Z" fill="#F4D1C8"/>
<path d="M50.581 200.728H39.4705V205.34H50.581V200.728Z" fill="#F4D1C8"/>
<path d="M69.2863 217.513H58.1758V222.126H69.2863V217.513Z" fill="#F4D1C8"/>
<path d="M50.581 217.513H39.4705V222.126H50.581V217.513Z" fill="#F4D1C8"/>
<path d="M31.8801 217.513H20.7695V222.126H31.8801V217.513Z" fill="#F4D1C8"/>
<path d="M69.2863 234.305H58.1758V238.917H69.2863V234.305Z" fill="#F4D1C8"/>
<path d="M31.8801 234.305H20.7695V238.917H31.8801V234.305Z" fill="#F4D1C8"/>
<path d="M50.581 242.695H39.4705V247.307H50.581V242.695Z" fill="#F4D1C8"/>
<path d="M69.2863 251.091H58.1758V255.703H69.2863V251.091Z" fill="#F4D1C8"/>
<path d="M50.581 259.487H39.4705V264.099H50.581V259.487Z" fill="#F4D1C8"/>
<path d="M69.2863 267.882H58.1758V272.495H69.2863V267.882Z" fill="#F4D1C8"/>
<path d="M31.8801 267.882H20.7695V272.495H31.8801V267.882Z" fill="#F4D1C8"/>
<path d="M69.2863 283.394H58.1758V288.006H69.2863V283.394Z" fill="#F4D1C8"/>
<path d="M50.581 283.394H39.4705V288.006H50.581V283.394Z" fill="#F4D1C8"/>
<path d="M69.2863 300.18H58.1758V304.792H69.2863V300.18Z" fill="#F4D1C8"/>
<path d="M50.581 300.18H39.4705V304.792H50.581V300.18Z" fill="#F4D1C8"/>
<path d="M31.8801 300.18H20.7695V304.792H31.8801V300.18Z" fill="#F4D1C8"/>
<path d="M69.2863 316.971H58.1758V321.583H69.2863V316.971Z" fill="#F4D1C8"/>
<path d="M31.8801 316.971H20.7695V321.583H31.8801V316.971Z" fill="#F4D1C8"/>
<path d="M50.581 325.367H39.4705V329.979H50.581V325.367Z" fill="#F4D1C8"/>
<path d="M31.8801 325.367H20.7695V329.979H31.8801V325.367Z" fill="#F4D1C8"/>
<path d="M69.2863 333.757H58.1758V338.369H69.2863V333.757Z" fill="#F4D1C8"/>
<path d="M50.581 342.153H39.4705V346.765H50.581V342.153Z" fill="#F4D1C8"/>
<path d="M69.2863 350.549H58.1758V355.161H69.2863V350.549Z" fill="#F4D1C8"/>
<path d="M31.8801 350.549H20.7695V355.161H31.8801V350.549Z" fill="#F4D1C8"/>
<path d="M265.328 193.429H187.908V364.683H265.328V193.429Z" fill="#F2C9BF"/>
<path d="M198.642 193.429H187.908V364.683H198.642V193.429Z" fill="#EAA695"/>
<path d="M181.811 111.974H77.9353V364.683H181.811V111.974Z" fill="#F2C9BF"/>
<path d="M88.6687 111.974H77.9353V364.683H88.6687V111.974Z" fill="#EAA695"/>
<path d="M170.867 124.079H154.647V130.812H170.867V124.079Z" fill="#FFF6F4"/>
<path d="M143.551 124.079H127.331V130.812H143.551V124.079Z" fill="#FFF6F4"/>
<path d="M170.867 148.592H154.647V155.325H170.867V148.592Z" fill="#FFF6F4"/>
<path d="M143.551 148.592H127.331V155.325H143.551V148.592Z" fill="#FFF6F4"/>
<path d="M116.24 148.592H100.02V155.325H116.24V148.592Z" fill="#FFF6F4"/>
<path d="M170.867 173.111H154.647V179.844H170.867V173.111Z" fill="#FFF6F4"/>
<path d="M116.24 173.111H100.02V179.844H116.24V173.111Z" fill="#FFF6F4"/>
<path d="M143.551 185.37H127.331V192.103H143.551V185.37Z" fill="#FFF6F4"/>
<path d="M170.867 197.624H154.647V204.357H170.867V197.624Z" fill="#FFF6F4"/>
<path d="M143.551 209.883H127.331V216.616H143.551V209.883Z" fill="#FFF6F4"/>
<path d="M170.867 222.143H154.647V228.875H170.867V222.143Z" fill="#FFF6F4"/>
<path d="M116.24 222.143H100.02V228.875H116.24V222.143Z" fill="#FFF6F4"/>
<path d="M170.867 244.798H154.647V251.531H170.867V244.798Z" fill="#FFF6F4"/>
<path d="M143.551 244.798H127.331V251.531H143.551V244.798Z" fill="#FFF6F4"/>
<path d="M170.867 269.311H154.647V276.044H170.867V269.311Z" fill="#FFF6F4"/>
<path d="M143.551 269.311H127.331V276.044H143.551V269.311Z" fill="#FFF6F4"/>
<path d="M116.24 269.311H100.02V276.044H116.24V269.311Z" fill="#FFF6F4"/>
<path d="M170.867 293.83H154.647V300.563H170.867V293.83Z" fill="#FFF6F4"/>
<path d="M116.24 293.83H100.02V300.563H116.24V293.83Z" fill="#FFF6F4"/>
<path d="M143.551 306.083H127.331V312.816H143.551V306.083Z" fill="#FFF6F4"/>
<path d="M116.24 306.083H100.02V312.816H116.24V306.083Z" fill="#FFF6F4"/>
<path d="M170.867 318.343H154.647V325.076H170.867V318.343Z" fill="#FFF6F4"/>
<path d="M143.551 330.602H127.331V337.335H143.551V330.602Z" fill="#FFF6F4"/>
<path d="M170.867 342.862H154.647V349.594H170.867V342.862Z" fill="#FFF6F4"/>
<path d="M116.24 342.862H100.02V349.594H116.24V342.862Z" fill="#FFF6F4"/>
<path d="M343.056 130.812H241.25V364.683H343.056V130.812Z" fill="#FFF6F4"/>
<path d="M251.771 130.812H241.25V364.683H251.771V130.812Z" fill="#EAA695"/>
<path d="M305.566 142.014H289.666V148.244H305.566V142.014Z" fill="#F4D1C8"/>
<path d="M305.566 164.704H289.666V170.933H305.566V164.704Z" fill="#F4D1C8"/>
<path d="M278.794 164.704H262.894V170.933H278.794V164.704Z" fill="#F4D1C8"/>
<path d="M278.794 187.388H262.894V193.618H278.794V187.388Z" fill="#F4D1C8"/>
<path d="M305.566 198.733H289.666V204.962H305.566V198.733Z" fill="#F4D1C8"/>
<path d="M305.566 221.423H289.666V227.652H305.566V221.423Z" fill="#F4D1C8"/>
<path d="M278.794 232.767H262.894V238.997H278.794V232.767Z" fill="#F4D1C8"/>
<path d="M305.566 253.731H289.666V259.961H305.566V253.731Z" fill="#F4D1C8"/>
<path d="M305.566 276.421H289.666V282.651H305.566V276.421Z" fill="#F4D1C8"/>
<path d="M278.794 276.421H262.894V282.651H278.794V276.421Z" fill="#F4D1C8"/>
<path d="M278.794 299.111H262.894V305.34H278.794V299.111Z" fill="#F4D1C8"/>
<path d="M305.566 310.456H289.666V316.685H305.566V310.456Z" fill="#F4D1C8"/>
<path d="M278.794 310.456H262.894V316.685H278.794V310.456Z" fill="#F4D1C8"/>
<path d="M305.566 333.14H289.666V339.369H305.566V333.14Z" fill="#F4D1C8"/>
<path d="M278.794 344.485H262.894V350.714H278.794V344.485Z" fill="#F4D1C8"/>
<path opacity="0.14" d="M149.022 50.489H-128.857V367.323H149.022V50.489Z" fill="white"/>
<path d="M152.068 46.8656H145.987V371.41H152.068V46.8656Z" fill="white"/>
<path opacity="0.5" d="M-33.188 361.602H-54.7576L60.8575 54.1183H82.4213L-33.188 361.602Z" fill="white"/>
<path opacity="0.5" d="M-71.2689 361.602H-82.0537L33.5556 54.1183H44.3404L-71.2689 361.602Z" fill="white"/>
<path opacity="0.5" d="M57.4852 361.602H46.7004L145.821 87.1299V109.242L57.4852 361.602Z" fill="white"/>
<path d="M59.44 48.5001H53.3589V369.775H59.44V48.5001Z" fill="white"/>
<path opacity="0.14" d="M428.364 44.2194H150.486V361.053H428.364V44.2194Z" fill="white"/>
<path d="M152.092 46.8656H146.01V371.41H152.092V46.8656Z" fill="white"/>
<path opacity="0.5" d="M196.442 361.602H174.878L290.488 54.1183H312.057L196.442 361.602Z" fill="white"/>
<path opacity="0.5" d="M158.361 361.602H147.577L263.192 54.1183H273.971L158.361 361.602Z" fill="white"/>
<path d="M244.72 48.5001H238.639V369.775H244.72V48.5001Z" fill="white"/>
<path d="M439.954 104.013H-131.898V107.636H439.954V104.013Z" fill="white"/>
<path d="M439.954 200.682H-131.898V204.305H439.954V200.682Z" fill="white"/>
<path d="M439.954 297.351H-131.898V300.974H439.954V297.351Z" fill="white"/>
<path d="M248.702 149.05C229.698 133.927 213.872 107.539 222.874 82.1118C231.876 56.6844 250.45 104.013 265.402 119.781C287.034 142.591 288.469 180.695 248.702 149.05Z" fill="#FFF6F4"/>
</g>
<path d="M175.247 113.18C174.344 114.392 172.578 115.478 171.138 114.432C171.109 114.415 171.092 114.386 171.063 114.363C170.892 114.295 170.726 114.232 170.566 114.112C170.32 113.923 170.137 113.723 169.989 113.506C169.897 113.523 169.806 113.552 169.709 113.546C168.737 113.552 168.154 112.609 168.046 111.74C168.04 111.689 168.046 111.637 168.046 111.58C167.445 111.609 166.862 111.454 166.428 110.894C164.679 108.671 168.274 105.556 169.389 105.236C170.48 104.927 170.2 107.299 170.154 107.442C170.143 107.476 170.126 107.505 170.109 107.539C170.572 107.288 171.098 107.179 171.663 107.265C172.355 107.374 172.692 107.968 172.555 108.534C172.635 108.499 172.715 108.465 172.789 108.437C173.532 108.179 174.275 108.625 174.252 109.454C174.247 109.705 174.184 109.928 174.132 110.157C175.847 110.128 176.116 112.014 175.247 113.18Z" fill="white"/>
<path d="M172.418 115.141C171.921 115.141 171.424 114.992 170.966 114.661L170.904 114.609C170.726 114.54 170.555 114.466 170.395 114.346C170.195 114.192 170.018 114.02 169.863 113.832C169.812 113.843 169.76 113.843 169.703 113.843H169.698C168.629 113.843 167.932 112.872 167.772 111.883C167.114 111.849 166.588 111.586 166.194 111.088C165.651 110.397 165.52 109.557 165.817 108.642C166.377 106.911 168.412 105.23 169.298 104.979C169.612 104.887 169.903 104.956 170.109 105.179C170.515 105.607 170.521 106.528 170.475 107.088C170.869 106.962 171.281 106.933 171.698 107.002C172.104 107.065 172.435 107.276 172.647 107.585C172.755 107.751 172.824 107.939 172.852 108.134C173.264 108.036 173.687 108.111 174.007 108.345C174.356 108.597 174.544 109.008 174.533 109.471C174.527 109.625 174.51 109.762 174.481 109.9C175.07 109.974 175.521 110.283 175.784 110.786C176.167 111.529 176.036 112.58 175.464 113.346C174.71 114.375 173.555 115.141 172.418 115.141ZM170.069 113.197L170.229 113.346C170.372 113.552 170.543 113.729 170.744 113.883C170.858 113.969 170.995 114.026 171.138 114.083L171.241 114.14C171.264 114.158 171.286 114.18 171.304 114.203C172.647 115.181 174.258 114.026 175.013 113.015C175.453 112.426 175.567 111.603 175.281 111.054C175.076 110.654 174.676 110.437 174.144 110.46L173.784 110.465L173.893 109.98C173.933 109.803 173.973 109.637 173.973 109.46C173.978 109.18 173.875 108.951 173.681 108.808C173.47 108.654 173.173 108.619 172.887 108.722C172.824 108.745 172.761 108.774 172.698 108.802L172.167 109.037L172.275 108.482C172.327 108.277 172.292 108.071 172.178 107.899C172.058 107.716 171.864 107.602 171.618 107.562C171.144 107.488 170.681 107.568 170.241 107.802L169.549 108.174L169.869 107.385C169.943 107.099 170.012 105.865 169.698 105.562C169.669 105.533 169.618 105.482 169.463 105.527C168.8 105.716 166.891 107.196 166.366 108.814C166.131 109.545 166.223 110.191 166.651 110.728C166.983 111.146 167.429 111.334 168.034 111.306L168.309 111.294L168.332 111.569C168.332 111.603 168.332 111.637 168.332 111.677C168.429 112.489 168.932 113.272 169.703 113.272H169.709C169.76 113.272 169.818 113.26 169.88 113.249L170.069 113.197Z" fill="#344D99"/>
<path d="M309.958 354.601H0.571531C0.257189 354.601 0 354.344 0 354.029C0 353.715 0.257189 353.458 0.571531 353.458H309.958C310.273 353.458 310.53 353.715 310.53 354.029C310.53 354.344 310.279 354.601 309.958 354.601Z" fill="#EAA695"/>
<path d="M193.546 200.596C193.386 200.831 190.665 203.974 186.562 207.175C180.429 211.964 171.199 216.885 162.689 212.33C157.311 209.615 148.389 196.658 145.24 191.703C144.468 190.52 144.04 189.783 144.08 189.783C145.406 189.737 148.212 184.982 148.212 184.982C148.635 185.336 164.243 199.499 168.998 199.693C169.387 199.699 185.396 185.176 186.453 184.702C196.683 180.244 195.552 197.79 193.546 200.596Z" fill="white"/>
<path d="M169.924 214.427C167.466 214.427 164.98 213.884 162.551 212.581C156.196 209.375 145.451 192.572 144.994 191.857C143.702 189.874 143.731 189.817 143.828 189.646L143.914 189.497L144.091 189.503C144.879 189.474 146.84 186.759 147.971 184.845L148.143 184.553L148.4 184.77C148.429 184.793 148.52 184.879 148.674 185.01C158.608 193.841 166.163 199.207 168.941 199.407C169.495 199.042 173.17 195.801 176.428 192.926C182.052 187.965 185.778 184.696 186.344 184.445C189.968 182.862 192.014 184.113 193.088 185.439C196.266 189.366 195.283 198.67 193.785 200.762C193.591 201.036 190.848 204.197 186.744 207.397C182.229 210.918 176.171 214.427 169.924 214.427ZM144.491 189.966C144.657 190.251 144.971 190.772 145.48 191.543C145.931 192.252 156.596 208.929 162.82 212.067C171.158 216.53 180.24 211.741 186.39 206.94C190.43 203.791 193.151 200.659 193.311 200.425L193.317 200.419C194.706 198.481 195.614 189.463 192.642 185.788C191.265 184.085 189.225 183.805 186.578 184.959C186.058 185.193 180.932 189.714 176.811 193.349C169.57 199.739 169.261 199.99 169.004 199.973C164.894 199.807 153.155 189.748 148.303 185.428C148.297 185.428 148.297 185.422 148.291 185.416C147.611 186.531 145.782 189.388 144.491 189.966Z" fill="#344D99"/>
<path d="M185.674 205.997C182.525 206.334 179.885 208.22 176.867 209.163C172.032 210.678 168.529 210.632 164.088 207.94C160.704 205.911 157.589 203.437 154.852 200.591C152.086 197.721 149.914 194.344 146.902 191.703C146.536 191.383 146.107 191.412 145.787 191.595C145.599 191.577 145.416 191.617 145.233 191.703C148.388 196.653 157.309 209.615 162.682 212.33C171.192 216.885 180.422 211.958 186.555 207.175C186.692 206.649 186.297 205.94 185.674 205.997Z" fill="#F2C9BF"/>
<path d="M147.908 183.667C146.583 180.958 143.508 177.592 140.153 177.683C138.535 177.729 138.541 178.775 139.907 179.341C142.542 180.427 144.028 181.987 140.193 180.13C139.416 179.752 137.638 179.364 137.358 179.941C136.764 181.17 139.696 182.147 140.919 182.747C141.616 183.707 138.524 182.764 137.901 182.959C135.083 183.839 136.335 186.005 138.09 187.279C139.278 188.142 142.696 188.943 143.725 189.646C144.571 190.223 144.742 191.194 145.902 190.937C148.474 190.36 148.463 184.816 147.908 183.667Z" fill="white"/>
<path d="M145.542 191.263C144.879 191.263 144.513 190.846 144.182 190.474C143.999 190.263 143.81 190.051 143.559 189.88C143.113 189.571 142.13 189.234 141.096 188.868C139.861 188.44 138.587 187.994 137.918 187.508C136.849 186.731 135.78 185.491 135.969 184.336C136.095 183.582 136.712 183.022 137.809 182.684C138.084 182.599 138.558 182.662 139.301 182.77C139.678 182.827 140.244 182.902 140.57 182.902C140.41 182.827 140.227 182.747 140.033 182.662C138.85 182.141 137.369 181.49 137.049 180.621C136.952 180.353 136.964 180.078 137.089 179.815C137.278 179.432 137.787 179.29 138.615 179.392C139.187 179.467 139.867 179.655 140.307 179.872C140.644 180.033 140.924 180.164 141.164 180.273C140.781 180.061 140.313 179.827 139.787 179.61C138.975 179.272 138.53 178.747 138.621 178.226C138.667 177.986 138.901 177.432 140.13 177.403C143.753 177.301 146.914 181.021 148.148 183.547C148.583 184.433 148.714 187.594 147.76 189.583C147.32 190.497 146.708 191.052 145.942 191.223C145.805 191.246 145.668 191.263 145.542 191.263ZM138.141 183.216C138.072 183.216 138.021 183.222 137.987 183.233C137.112 183.507 136.626 183.907 136.541 184.433C136.421 185.176 137.095 186.199 138.261 187.051C138.861 187.485 140.153 187.937 141.29 188.337C142.364 188.708 143.376 189.063 143.89 189.411C144.199 189.623 144.422 189.874 144.616 190.097C144.999 190.532 145.228 190.794 145.839 190.657C146.422 190.526 146.902 190.08 147.263 189.331C148.148 187.485 147.994 184.496 147.651 183.799C146.497 181.438 143.593 177.975 140.29 177.975C140.244 177.975 140.204 177.975 140.158 177.975C139.541 177.992 139.227 178.169 139.198 178.329C139.164 178.512 139.438 178.838 140.015 179.078C140.718 179.37 142.742 180.324 142.805 180.896L142.822 181.061L142.662 181.204C142.513 181.307 142.296 181.461 140.061 180.381C139.673 180.193 139.055 180.021 138.547 179.952C137.861 179.867 137.638 179.998 137.609 180.055C137.552 180.175 137.546 180.29 137.592 180.415C137.832 181.056 139.295 181.701 140.267 182.13C140.558 182.256 140.827 182.376 141.039 182.484L141.101 182.513L141.141 182.57C141.359 182.862 141.313 183.073 141.239 183.193C141.016 183.565 140.358 183.49 139.215 183.325C138.861 183.285 138.398 183.216 138.141 183.216Z" fill="#344D99"/>
<path d="M175.388 335.117C175.965 334.072 182.777 334.352 182.869 334.86C183.155 336.426 184.126 344.382 183.435 345.142C178.674 350.366 175.833 344.691 175.622 343.159C175.439 341.839 174.833 336.123 175.388 335.117Z" fill="white"/>
<path d="M179.662 347.594C179.336 347.594 179.016 347.543 178.702 347.445C176.633 346.805 175.467 344.182 175.33 343.199C175.318 343.13 174.444 336.232 175.13 334.98C175.73 333.889 180.565 334.049 182.131 334.306C182.834 334.42 183.097 334.552 183.148 334.809C183.28 335.523 184.514 344.376 183.64 345.331C182.274 346.834 180.936 347.594 179.662 347.594ZM175.638 335.255C175.181 336.089 175.644 341.221 175.907 343.119C176.021 343.971 177.078 346.342 178.879 346.897C180.21 347.308 181.668 346.651 183.222 344.942C183.748 344.319 182.994 337.204 182.605 334.992C182.005 334.712 178.222 334.5 176.387 334.923C175.752 335.078 175.644 335.238 175.638 335.255Z" fill="#344D99"/>
<path d="M183.675 343.222C183.675 343.222 187.081 348.966 185.001 353.344C185.001 353.344 168.541 353.858 163.523 352.749C163.523 352.749 163.071 345.154 167.318 344.622C171.559 344.096 175.839 344.399 175.839 344.399C175.839 344.399 180.749 347.337 183.675 343.222Z" fill="#273972"/>
<path d="M207.022 239.757C206.29 251.251 194.002 262.156 185.035 270.74C179.668 275.895 175.49 280.222 175.748 283.342C176.742 295.545 184.172 325.127 185.018 336.392C184.566 338.084 182.795 339.027 180.806 339.552C177.594 340.416 173.781 340.181 173.781 340.181C167.152 317.554 159.013 297.465 156.858 280.502C153.229 252.005 180.394 224.017 180.394 224.017C183.395 213.621 208.296 219.611 207.022 239.757Z" fill="#415EBE"/>
<path d="M238.886 322.921C238.583 321.778 242.898 315.468 243.269 315.674C244.424 316.297 248.579 319.149 248.745 320.218C248.91 321.246 245.127 327.968 244.047 327.293C243.115 326.71 239.177 324.024 238.886 322.921Z" fill="white"/>
<path d="M244.219 327.625C244.082 327.625 243.979 327.585 243.899 327.533C243.847 327.505 238.983 324.384 238.612 322.995C238.263 321.681 242.184 316.114 242.944 315.514C243.116 315.377 243.276 315.348 243.413 315.423C244.144 315.817 248.831 318.863 249.037 320.172C249.202 321.229 246.333 326.402 244.802 327.419C244.562 327.573 244.373 327.625 244.219 327.625ZM239.161 322.847C239.401 323.75 242.858 326.219 244.196 327.047C244.213 327.059 244.31 327.047 244.476 326.939C245.888 326.002 248.585 321.024 248.459 320.258C248.334 319.44 244.75 316.829 243.247 315.988C242.35 316.68 238.943 322.024 239.161 322.847Z" fill="#344D99"/>
<path d="M200.163 223.36C197.854 240.14 186.875 239.163 178.451 259.573C176.108 265.254 167.878 277.393 170.187 285.983C173.05 296.642 173.153 307.455 174.822 318.44C175.656 323.944 176.891 329.385 178.742 334.489C179.348 336.118 179.96 337.975 180.8 339.547C182.789 339.021 184.561 338.078 185.012 336.386C184.172 325.121 176.736 295.539 175.742 283.337C175.49 280.216 185.378 269.986 190.75 264.831C191.865 260.173 197.683 257.161 199.203 252.674C201.169 246.845 200.061 222.886 200.163 223.36Z" fill="#1B30A7"/>
<path d="M247.801 318.772C247.801 318.772 253.27 318.635 254.956 323.201C254.956 323.201 246.521 339.947 243.143 344.336C243.143 344.336 238.068 340.467 239.988 335.923C241.908 331.38 244.383 327.27 244.383 327.27C244.383 327.27 248.864 324.035 247.801 318.772Z" fill="#273972"/>
<path d="M229.237 231.247C232.969 247.993 211.463 264.991 214.28 272.083C218.418 282.491 239.388 313.782 245.572 315.811C245.566 316.36 245.52 316.926 245.412 317.531C244.663 321.721 241.605 326.705 241.605 326.705C228.632 319.875 207.508 302.083 197.134 289.772C181.052 270.677 199.998 227.933 199.998 227.933C200.089 219.44 216.807 214.804 225.151 223.366C227.043 225.292 228.489 227.887 229.237 231.247Z" fill="#415EBE"/>
<path d="M225.157 223.36C223.899 223.766 222.682 224.595 221.693 225.869C221.15 226.572 221.779 227.498 222.391 227.39C226.386 238.986 219.727 250.165 214.046 259.087C210.017 265.419 207.359 271.329 211.057 278.833C213.229 283.263 216.201 287.229 218.819 291.293C221.402 295.282 223.905 299.363 226.706 303.146C231.815 310.033 238.125 314.931 245.412 317.526C245.52 316.92 245.566 316.354 245.572 315.806C239.388 313.777 218.413 282.491 214.281 272.078C211.463 264.985 232.97 247.988 229.238 231.242C228.489 227.887 227.043 225.292 225.157 223.36Z" fill="#1B30A7"/>
<path d="M232.496 163.572C230.57 163.807 226.163 164.984 224.3 161.303C223.603 159.926 223.511 157.503 223.368 155.874C223.168 153.553 223.151 151.204 222.677 148.918C222.088 146.101 220.922 143.072 218.499 141.311C214.658 138.528 207.377 140.62 205.331 144.78C205.125 145.198 205.262 145.575 205.531 145.815C205.565 145.889 205.588 145.958 205.651 146.032C207.994 148.775 210.709 148.861 211.606 153.319C212.063 155.611 211.463 158.017 211.515 160.332C211.606 164.567 213.212 169.265 216.841 171.768C222.66 175.786 232.461 171.031 233.913 164.51C234.096 163.652 233.153 163.247 232.496 163.572Z" fill="#D64E2D"/>
<path d="M200.135 187.137C200.861 189.708 198.266 194.269 195.923 198.756C195.563 199.436 195.203 200.122 194.877 200.79C194.111 202.316 193.448 203.802 193.014 205.14C186.647 204.717 181.24 198.727 177.994 189.205C180.531 182.359 185.778 177.123 191.156 173.557C191.876 173.054 192.585 172.614 193.305 172.197C195.123 171.122 196.929 170.259 198.58 169.585C204.787 167.03 199.198 183.81 200.135 187.137Z" fill="white"/>
<path d="M193.226 205.437L193.003 205.42C186.647 205.003 181.08 199.122 177.731 189.291L177.697 189.194L177.731 189.097C180.572 181.438 186.516 176.283 191.002 173.311C191.625 172.877 192.294 172.454 193.163 171.94C194.849 170.945 196.638 170.059 198.472 169.311C199.449 168.911 200.232 168.933 200.804 169.385C202.541 170.762 201.753 175.735 200.987 180.547C200.541 183.353 200.118 185.999 200.415 187.051C201.113 189.514 199.009 193.498 196.792 197.721L196.186 198.882C195.82 199.573 195.466 200.248 195.146 200.911C194.283 202.631 193.677 204.043 193.3 205.226L193.226 205.437ZM178.309 189.206C181.538 198.63 186.819 204.311 192.82 204.831C193.208 203.665 193.803 202.299 194.626 200.653C194.946 199.99 195.306 199.316 195.66 198.636L196.278 197.458C198.346 193.521 200.49 189.451 199.861 187.211C199.529 186.039 199.941 183.456 200.421 180.461C201.09 176.249 201.93 171.008 200.45 169.836C200.05 169.522 199.478 169.522 198.695 169.842C196.883 170.585 195.123 171.454 193.46 172.437C192.603 172.94 191.945 173.351 191.334 173.786C186.922 176.712 181.109 181.747 178.309 189.206Z" fill="#344D99"/>
<path d="M192.745 177.432C192.38 178.238 192.031 179.078 191.682 179.918C189.07 187.862 187.847 197.527 195.186 203.105C194.826 203.791 194.466 204.471 194.14 205.14C190.768 203.665 183.784 197.516 182.892 194.618C181.269 189.446 189.482 178.912 189.653 178.432C190.374 177.929 191.854 176.969 192.574 176.546C192.803 176.746 192.905 177.061 192.745 177.432Z" fill="#F2C9BF"/>
<path d="M232.798 229.035C229.786 230.727 226.386 231.865 222.819 232.596C202.164 236.728 175.177 226.738 175.177 226.738C175.177 226.738 181.115 217.771 186.093 208.346C186.573 207.483 187.013 206.62 187.453 205.734C189.636 201.402 189.162 198.55 187.842 196.012C186.041 192.52 182.641 189.657 182.424 184.347C182.058 175.18 201.587 167.516 201.587 167.516C230.878 165.773 223.945 182.953 221.156 196.858C220.899 198.127 220.682 199.356 220.533 200.55C220.493 200.808 220.476 201.082 220.459 201.339C220.419 201.688 220.402 202.019 220.385 202.368C219.847 216.062 232.798 229.035 232.798 229.035Z" fill="white"/>
<path d="M211.903 233.882C193.883 233.882 175.302 227.092 175.079 227.012L174.742 226.887L174.942 226.584C174.999 226.492 180.926 217.519 185.841 208.215C186.356 207.289 186.813 206.38 187.196 205.614C189.499 201.042 188.688 198.27 187.584 196.155C187.064 195.144 186.407 194.195 185.721 193.189C184.035 190.737 182.292 188.2 182.132 184.37C181.761 175.106 200.673 167.579 201.478 167.259L201.564 167.242C211.697 166.636 218.236 168.236 221.545 172.128C225.831 177.163 224.042 185.136 222.311 192.846C222.008 194.195 221.693 195.59 221.431 196.921C221.139 198.35 220.945 199.516 220.808 200.596C220.773 200.836 220.756 201.093 220.739 201.333C220.699 201.728 220.682 202.054 220.665 202.397C220.145 215.799 232.873 228.71 233.004 228.841L233.273 229.11L232.941 229.293C230.095 230.887 226.706 232.099 222.882 232.888C219.356 233.585 215.641 233.882 211.903 233.882ZM175.617 226.595C178.806 227.721 203.673 236.145 222.768 232.322C226.391 231.573 229.609 230.447 232.335 228.967C230.489 227.012 219.607 214.93 220.093 202.362C220.11 202.008 220.127 201.671 220.167 201.316C220.185 201.036 220.207 200.768 220.242 200.516C220.373 199.43 220.573 198.247 220.87 196.807C221.139 195.47 221.453 194.069 221.756 192.72C223.454 185.148 225.208 177.318 221.111 172.5C217.927 168.756 211.566 167.224 201.644 167.807C200.638 168.213 182.355 175.683 182.704 184.342C182.858 188.005 184.55 190.474 186.19 192.858C186.893 193.881 187.556 194.841 188.093 195.887C189.259 198.127 190.128 201.065 187.71 205.866C187.327 206.637 186.859 207.552 186.344 208.483C181.926 216.845 176.697 224.943 175.617 226.595Z" fill="#344D99"/>
<path d="M220.379 202.374C220.396 202.025 220.414 201.693 220.454 201.345C219.368 199.636 218.213 197.944 216.979 196.327C216.264 195.39 214.738 196.435 215.453 197.373C215.561 197.504 215.653 197.647 215.744 197.796C217.253 202.442 216.15 207.112 216.39 211.872C216.607 216.062 218.082 219.937 219.585 223.817C220.391 225.858 221.277 230.304 222.82 232.596C226.386 231.865 229.781 230.722 232.799 229.036C232.799 229.036 219.848 216.062 220.379 202.374Z" fill="#F2C9BF"/>
<path d="M213.646 193.715C215.063 196.27 217.892 200.493 220.373 202.368C220.39 201.762 220.447 201.156 220.521 200.55C220.67 199.356 220.887 198.127 221.144 196.858C220.356 195.372 219.104 193.606 217.087 191.732C211.76 186.697 212.217 174.334 212.217 174.334C211 180.501 211.588 189.931 213.646 193.715Z" fill="#F2C9BF"/>
<path d="M198.534 163.549V168.733C198.534 168.733 197.14 171.288 198.534 171.568C201.598 172.18 206.016 167.402 206.016 167.402V160.446L198.534 163.549Z" fill="white"/>
<path d="M199.093 171.905C198.882 171.905 198.676 171.888 198.476 171.848C198.133 171.779 197.882 171.591 197.745 171.299C197.356 170.471 198.059 169.025 198.248 168.665V163.361L206.3 160.023V167.516L206.226 167.596C206.049 167.779 202.197 171.905 199.093 171.905ZM198.819 163.738V168.802L198.785 168.865C198.465 169.453 198.036 170.568 198.265 171.054C198.299 171.134 198.373 171.242 198.591 171.282C201.254 171.814 205.14 167.899 205.729 167.282V160.869L198.819 163.738Z" fill="#344D99"/>
<path d="M206.016 164.858V160.903C206.016 160.903 202.209 164.538 198.534 164.75C198.534 164.75 202.964 166.899 206.016 164.858Z" fill="#F2C9BF"/>
<path d="M196.694 148.427C196.694 148.427 193.939 154.016 193.248 159.223C192.756 162.921 199.523 167.796 205.038 162.589C210.548 157.383 209.022 149.421 209.022 149.421L196.694 148.427Z" fill="white"/>
<path d="M199.735 165.15C198.609 165.15 197.477 164.881 196.403 164.327C194.134 163.167 192.722 161.052 192.968 159.183C193.654 153.988 196.414 148.358 196.443 148.301L196.529 148.124L209.262 149.153L209.302 149.364C209.32 149.444 210.8 157.543 205.239 162.795C203.593 164.35 201.667 165.15 199.735 165.15ZM196.872 148.73C196.409 149.713 194.145 154.668 193.534 159.263C193.322 160.869 194.637 162.784 196.66 163.818C199.364 165.201 202.421 164.664 204.839 162.384C209.674 157.817 208.954 150.982 208.771 149.69L196.872 148.73Z" fill="#344D99"/>
<path d="M198.443 144.66C200.449 143.912 202.769 144.203 204.798 144.695C205.433 144.849 205.518 145.438 205.278 145.889C207.284 146.289 209.462 148.198 210.319 149.496C212.017 152.079 212.234 156.4 210.508 159.04C209.153 161.109 206.604 162.801 205.233 160.057C204.187 157.96 204.358 156.011 204.53 153.771C204.593 152.948 204.615 152.25 204.53 151.622C203.444 150.141 195.139 153.582 192.225 148.427C189.807 144.18 197.66 144.952 198.443 144.66Z" fill="#D64E2D"/>
<path d="M203.987 154.342C203.987 154.342 206.204 153.308 206.644 155.091C207.085 156.868 205.467 157.92 204.61 157.6C203.758 157.268 203.472 155.091 203.987 154.342Z" fill="white"/>
<path d="M204.954 157.937C204.8 157.937 204.651 157.914 204.514 157.863C204.022 157.68 203.76 157.126 203.628 156.691C203.388 155.914 203.348 154.765 203.754 154.176L203.8 154.114L203.868 154.079C203.92 154.056 205.177 153.479 206.097 153.925C206.52 154.125 206.8 154.496 206.926 155.022C207.154 155.948 206.903 156.823 206.24 157.411C205.857 157.749 205.377 157.937 204.954 157.937ZM204.188 154.571C203.971 154.971 203.965 155.84 204.177 156.525C204.308 156.948 204.514 157.251 204.72 157.331C205.028 157.451 205.497 157.308 205.863 156.983C206.103 156.771 206.623 156.171 206.377 155.159C206.291 154.805 206.12 154.571 205.857 154.445C205.28 154.165 204.44 154.468 204.188 154.571Z" fill="#344D99"/>
<path d="M210.302 148.232C209.468 146.009 207.422 144.878 205.295 144.117C204.192 143.723 203.415 145.392 204.53 145.786C206.153 146.369 207.919 147.118 208.57 148.85C208.988 149.959 210.719 149.341 210.302 148.232Z" fill="#415EBE"/>
<path d="M197.608 198.19C194.487 196.995 191.047 197.453 187.983 196.018C189.303 198.556 189.784 201.402 187.595 205.74C187.155 206.62 186.714 207.483 186.234 208.352C188.881 206.866 191.047 205.026 193.933 203.854C195.333 203.282 198.968 202.345 199.425 200.585C199.774 199.287 198.619 198.573 197.608 198.19Z" fill="#F2C9BF"/>
<path d="M146.52 179.341C145.812 177.855 144.594 176.386 143.097 176.266C142.548 176.22 141.96 176.809 142.331 177.478C142.948 178.592 143.468 179.707 143.708 180.827C143.548 181.135 143.343 181.427 143.148 181.781C142.817 182.404 142.645 183.067 142.64 183.77C142.634 184.725 142.925 186.159 144.137 186.051C145.257 185.948 146.126 184.953 146.543 183.93C146.583 184.468 146.578 184.97 146.532 185.371C146.395 186.548 148.224 186.748 148.361 185.571C148.589 183.616 148.104 180.804 146.52 179.341Z" fill="white"/>
<path d="M147.464 186.634C147.189 186.634 146.915 186.548 146.692 186.382C146.366 186.136 146.206 185.753 146.258 185.325C146.269 185.222 146.281 185.108 146.286 184.988C145.789 185.673 145.075 186.239 144.172 186.325C143.743 186.365 143.372 186.245 143.074 185.976C142.423 185.376 142.354 184.227 142.36 183.764C142.36 183.027 142.543 182.313 142.903 181.644C143 181.467 143.097 181.301 143.194 181.141C143.269 181.021 143.343 180.901 143.406 180.781C143.194 179.861 142.771 178.849 142.08 177.615C141.874 177.243 141.874 176.838 142.091 176.5C142.314 176.152 142.714 175.952 143.114 175.98C144.48 176.089 145.835 177.278 146.749 179.169C148.384 180.724 148.881 183.582 148.647 185.593C148.595 186.028 148.35 186.371 147.967 186.531C147.807 186.599 147.635 186.634 147.464 186.634ZM146.744 182.69L146.835 183.896C146.875 184.433 146.869 184.965 146.824 185.388C146.789 185.673 146.921 185.833 147.035 185.919C147.229 186.062 147.521 186.096 147.75 185.999C147.887 185.942 148.052 185.811 148.087 185.519C148.315 183.57 147.784 180.89 146.332 179.541L146.269 179.455C145.446 177.723 144.252 176.638 143.08 176.54C142.891 176.523 142.691 176.632 142.583 176.798C142.514 176.906 142.457 177.089 142.589 177.323C143.332 178.655 143.777 179.747 143.995 180.753L144.017 180.855L143.972 180.947C143.886 181.107 143.789 181.267 143.686 181.433C143.594 181.581 143.497 181.736 143.412 181.901C143.097 182.484 142.937 183.113 142.937 183.753C142.937 184.056 142.971 185.085 143.469 185.542C143.646 185.702 143.857 185.765 144.126 185.742C145.178 185.645 145.955 184.633 146.292 183.799L146.744 182.69Z" fill="#344D99"/>
<path d="M184.56 179.118L181.583 182.953L181.108 189.503H183.394C183.394 189.503 183.417 188.857 183.897 189.051C184.377 189.246 187.675 181.93 187.675 181.93C187.675 181.93 187.961 180.358 187.675 179.832C187.389 179.307 184.56 179.118 184.56 179.118Z" fill="white"/>
<path d="M112.231 336.523C111.374 335.786 104.024 337.935 104.03 338.398C104.064 339.821 104.71 345.171 105.556 345.731C106.379 346.279 113.854 344.833 113.746 343.467C113.654 342.29 113.06 337.238 112.231 336.523Z" fill="white"/>
<path d="M106.361 346.131C105.909 346.131 105.566 346.079 105.401 345.971C104.326 345.256 103.766 339.341 103.743 338.404C103.738 338.169 103.955 338.021 104.303 337.855C105.555 337.261 111.465 335.495 112.413 336.306C113.471 337.209 114.025 343.382 114.031 343.445C114.059 343.81 113.802 344.153 113.236 344.485C111.802 345.331 108.178 346.131 106.361 346.131ZM104.321 338.495C104.383 340.284 105.081 345.073 105.721 345.496C106.207 345.805 111.116 345.091 112.979 343.976C113.351 343.753 113.476 343.576 113.471 343.49C113.305 341.416 112.671 337.272 112.053 336.741C111.459 336.243 105.155 337.861 104.321 338.495Z" fill="#344D99"/>
<path d="M104.729 344.222C104.729 344.222 102.208 349.829 105.42 353.246C105.42 353.246 123.612 350.669 128.899 348.788C128.899 348.788 127.779 342.113 123.001 342.433C118.228 342.753 113.587 343.805 113.587 343.805C113.587 343.805 108.815 347.257 104.729 344.222Z" fill="#273972"/>
<path d="M51.3471 336.746C51.0842 335.649 43.8715 333.071 43.6086 333.454C42.797 334.626 40.1851 339.335 40.5394 340.29C40.8881 341.216 47.7865 344.428 48.5009 343.262C49.1124 342.25 51.5986 337.809 51.3471 336.746Z" fill="white"/>
<path d="M47.7986 343.799C47.7015 343.799 47.5986 343.793 47.49 343.782C45.4153 343.582 40.6202 341.33 40.2658 340.387C39.8143 339.175 42.832 334.054 43.3635 333.288C43.495 333.094 43.7579 333.1 44.1351 333.174C45.4953 333.426 51.325 335.46 51.6164 336.678C51.9422 338.038 48.7702 343.353 48.7359 343.405C48.5873 343.673 48.273 343.799 47.7986 343.799ZM43.7865 333.7C42.7863 335.186 40.5402 339.478 40.8088 340.193C41.0203 340.73 45.4153 343.027 47.5757 343.216C48.0044 343.25 48.2101 343.182 48.2558 343.113C49.336 341.341 51.2564 337.609 51.0678 336.815C50.8849 336.066 44.8438 333.683 43.7865 333.7Z" fill="#344D99"/>
<path d="M40.7513 338.575C40.7513 338.575 35.4189 341.639 36.0133 346.291C36.0133 346.291 52.2562 354.881 57.64 356.453C57.64 356.453 60.6463 350.389 56.5941 347.845C52.5362 345.302 48.164 343.433 48.164 343.433C48.164 343.433 42.283 343.433 40.7513 338.575Z" fill="#273972"/>
<path d="M80.0268 243.844C80.5983 245.107 81.2156 246.433 81.8443 247.793C86.1936 257.115 91.4974 267.968 92.3433 273.729C93.915 284.445 100.67 310.376 101.453 323.104C102.071 333.54 105.489 340.381 105.42 342.793C105.443 342.827 114.764 340.353 114.764 340.353C117.416 325.173 118.759 288.72 117.685 272.346C116.61 255.972 113.404 228.772 106.54 216.227C100.008 204.294 78.638 228.167 76.1804 231.362C75.2374 232.579 77.192 237.574 80.0268 243.844Z" fill="#415EBE"/>
<path d="M80.0278 243.844C80.5994 245.107 81.2166 246.433 81.8453 247.793C86.1947 257.115 91.4985 267.968 92.3443 273.729C93.916 284.445 101.889 339.415 102.992 342.884C104.781 343.736 108.01 342.736 110.233 341.547C110.336 332.328 105.507 323.955 103.884 315.039C100.757 298.019 105.501 279.53 97.1109 263.602C94.7562 259.132 91.1213 254.629 91.1041 249.348C91.087 246.73 92.5844 243.661 90.9327 241.238C88.0007 236.928 83.217 240.272 81.108 243.507C80.8451 243.421 80.5479 243.421 80.285 243.632C80.2107 243.712 80.1078 243.77 80.0278 243.844Z" fill="#1B30A7"/>
<path d="M82.6848 226.246C82.6848 226.246 82.7019 226.818 82.7591 227.887C83.0391 234.551 83.9764 260.424 82.7762 285.88C81.9989 302.272 63.0813 330.317 50.0789 341.621L42.3004 338.067L40.5515 337.278C40.5515 337.278 47.9585 321.469 51.6335 314.891C61.1952 297.819 58.309 288.452 57.6517 277.639C56.3258 255.377 49.8218 244.895 54.8055 227.95C55.0341 227.172 55.2913 226.378 55.5656 225.583C56.5372 222.749 57.8289 219.72 59.5206 216.428C59.7664 215.959 60.1779 215.622 60.7494 215.393C61.3895 215.124 62.2297 215.022 63.2184 215.073C67.4763 215.296 74.4833 218.422 80.7359 224.292C81.4046 224.915 82.0504 225.566 82.6848 226.246Z" fill="#415EBE"/>
<path d="M62.2347 261.51C59.4627 250.908 57.611 240.952 60.0857 230.053C60.1829 229.664 60.0057 229.401 59.7371 229.264C59.6571 229.133 59.5313 229.035 59.3199 228.978C58.1082 228.675 56.4851 228.23 54.8048 227.955C49.821 244.901 56.325 255.383 57.651 277.644C58.3082 288.457 61.1945 297.825 51.6328 314.896C47.9635 321.475 40.5508 337.283 40.5508 337.283L42.2997 338.072C48.0493 332.065 53.9532 325.984 57.1309 318.211C60.6744 309.461 62.709 299.494 64.0864 290.178C65.561 280.296 64.738 271.14 62.2347 261.51Z" fill="#1B30A7"/>
<path d="M78.1742 172.031C78.1742 172.031 76.7968 173.831 75.5337 176.826C74.2878 179.764 75.9281 183.307 76.3681 187.731C76.4482 188.548 76.6539 189.434 76.9854 190.354C79.0543 196.275 86.027 203.865 95.3944 207.975C101.898 210.844 112.643 210.124 124.074 211.089C132.424 211.804 139.757 211.347 141.951 209.763C143.66 208.529 139.059 206.409 139.059 206.409C140.26 203.717 109.02 194.098 106.294 193.126C103.922 192.28 94.7886 187.931 94.4971 178.849C94.4742 177.964 94.8229 156.114 91.2794 150.833C87.7588 145.575 78.1742 172.031 78.1742 172.031Z" fill="white"/>
<path d="M131.383 211.707C129.143 211.707 126.674 211.598 124.045 211.375C120.553 211.078 117.147 210.947 113.849 210.809C106.327 210.506 99.8349 210.249 95.2741 208.237C85.2551 203.842 78.6311 195.932 76.7107 190.451C76.3792 189.508 76.162 188.605 76.082 187.76C75.9391 186.302 75.6648 184.953 75.3962 183.65C74.859 181.021 74.4017 178.752 75.2647 176.712C76.4478 173.911 77.7109 172.168 77.9166 171.894C78.4024 170.556 85.8095 150.381 90.0045 149.867C90.416 149.816 91.0104 149.918 91.5134 150.673C94.3939 154.965 94.794 169.796 94.7768 178.255C94.7768 178.569 94.7768 178.769 94.7768 178.844C95.0912 188.714 105.922 192.698 106.385 192.858C106.773 192.995 107.779 193.321 109.162 193.772C122.622 198.139 138.207 203.471 139.299 205.917C139.356 206.043 139.373 206.151 139.373 206.249C140.128 206.62 142.494 207.86 142.608 209.038C142.631 209.295 142.568 209.672 142.111 209.998C140.574 211.107 136.624 211.707 131.383 211.707ZM90.1874 150.427C90.1531 150.427 90.1188 150.427 90.0788 150.433C86.8383 150.827 80.58 166.224 78.4425 172.122L78.4024 172.197C78.391 172.214 77.0308 174.003 75.7963 176.929C74.9961 178.809 75.4419 180.998 75.962 183.53C76.2306 184.845 76.505 186.205 76.6536 187.697C76.7336 188.491 76.9336 189.354 77.2537 190.251C79.134 195.624 85.6495 203.379 95.5084 207.706C99.972 209.672 106.413 209.929 113.877 210.232C117.175 210.364 120.593 210.501 124.096 210.798C132.606 211.524 139.716 211.015 141.785 209.529C142.037 209.346 142.054 209.192 142.048 209.089C141.974 208.335 140.105 207.203 138.945 206.671L138.688 206.551L138.802 206.294C138.808 206.283 138.825 206.243 138.785 206.151C137.659 203.625 116.089 196.624 108.997 194.321C107.602 193.869 106.602 193.543 106.202 193.401C105.727 193.229 94.5425 189.12 94.2167 178.861C94.2167 178.786 94.2167 178.581 94.2167 178.255C94.2453 163.761 93.1194 154.079 91.0504 150.993C90.7875 150.616 90.5075 150.427 90.1874 150.427Z" fill="#344D99"/>
<path d="M76.9875 190.354C79.0565 196.275 86.0292 203.865 95.3966 207.975C101.901 210.844 112.645 210.124 124.076 211.089C124.03 210.907 123.922 210.735 123.733 210.638C120.83 208.992 117.441 208.643 114.297 207.552C110.799 206.317 108.107 205.311 104.392 205.311C101.672 205.306 99.1972 204.98 96.854 204.134C94.6993 202.928 92.8304 201.362 90.87 199.847C90.1785 199.327 89.3612 198.841 88.5325 198.367C86.6464 196.544 84.6746 194.344 84.3146 192.795C84.989 190.863 87.8866 189.503 89.304 188.182C91.2187 186.405 92.8018 184.405 94.2478 182.233C94.8536 181.313 93.5334 180.187 92.9161 181.118C90.67 184.513 79.0565 189.326 76.9875 190.354Z" fill="#F2C9BF"/>
<path d="M80.2496 169.956C80.2496 169.956 74.66 166.516 74.1228 169.722C73.4941 173.443 73.2426 185.393 75.5573 190.623C83.2616 191.84 102.265 177.855 100.27 171.602C97.2298 162.08 92.6175 150.501 88.011 146.266C83.3645 142.003 80.2496 169.956 80.2496 169.956Z" fill="white"/>
<path d="M76.5461 190.983C76.186 190.983 75.8431 190.96 75.5174 190.909L75.3631 190.886L75.3002 190.743C72.9455 185.422 73.2141 173.414 73.8428 169.676C73.9571 168.985 74.2943 168.51 74.8372 168.265C76.3289 167.584 79.0151 168.933 80.0153 169.493C80.3982 166.241 82.8101 147.044 86.5536 145.638C86.9423 145.495 87.5367 145.449 88.2111 146.066C93.5949 151.016 98.6301 165.515 100.545 171.522C101.122 173.34 100.11 175.837 97.6128 178.746C92.6004 184.587 82.3414 190.983 76.5461 190.983ZM75.7631 190.366C81.1812 191.063 92.0003 184.41 97.1841 178.369C99.5102 175.66 100.51 173.288 100.002 171.694C98.0986 165.733 93.1034 151.341 87.8224 146.483C87.4509 146.146 87.1023 146.043 86.7537 146.169C83.696 147.318 81.227 163.749 80.5297 169.991L80.4782 170.436L80.0953 170.202C79.1294 169.608 76.3518 168.202 75.0716 168.785C74.7058 168.95 74.4886 169.276 74.4029 169.773C73.7913 173.425 73.517 185.079 75.7631 190.366Z" fill="#344D99"/>
<path d="M88.6397 146.901C88.6397 146.901 95.7439 155.908 96.7269 163.058C95.8124 173.66 95.0295 181.01 95.0237 181.004C95.0237 181.004 72.9741 165.721 73.9114 164.63C74.8544 163.538 88.6397 146.901 88.6397 146.901Z" fill="#F2C9BF"/>
<path d="M110.238 217.816C92.7488 230.824 61.486 228.864 56.668 228.715C54.702 228.658 53.3703 226.927 52.9874 226.355C51.77 224.555 51.8843 205.128 49.5125 192.595C49.061 190.166 48.6152 187.702 48.2322 185.279C46.1576 172.631 45.1631 160.635 47.6836 157.977C48.2494 157.36 48.9181 156.714 49.6668 156.017C50.7755 154.965 52.0901 153.851 53.5875 152.736C55.9308 150.981 58.737 149.261 61.9661 147.872C66.9213 145.706 72.8767 144.306 79.735 144.775C79.735 144.775 79.735 144.792 79.7522 144.786C81.4096 144.889 83.1242 145.106 84.9017 145.472C85.3132 145.546 85.7304 145.638 86.1648 145.723C92.1201 147.089 93.246 159.4 93.9662 169.762C94.3091 174.569 94.5663 178.952 95.1664 181.621C95.3778 182.513 95.6236 183.404 95.9322 184.262C98.3784 191.594 108.432 212.484 110.238 217.816Z" fill="white"/>
<path d="M64.441 229.173C62.252 229.173 59.9773 229.127 57.6055 229.035C57.2225 229.018 56.9025 229.007 56.6567 229.001C54.6106 228.944 53.239 227.241 52.7474 226.515C52.1759 225.669 51.9302 222.091 51.5072 215.307C51.0671 208.255 50.5185 199.47 49.2268 192.652C48.6724 189.674 48.2724 187.417 47.9409 185.325C46.152 174.42 44.6145 160.783 47.4665 157.783C47.9809 157.228 48.6153 156.6 49.4611 155.811C50.6842 154.656 52.0102 153.548 53.4104 152.513C56.0566 150.536 58.8971 148.884 61.8462 147.621C67.5444 145.129 73.5683 144.083 79.7466 144.5L79.9866 144.529C81.6555 144.643 83.3244 144.872 84.9532 145.209C85.239 145.26 85.5419 145.323 85.8448 145.386L86.2163 145.46C92.1717 146.826 93.4462 158.211 94.2463 169.762L94.3549 171.282C94.6521 175.54 94.9093 179.215 95.4408 181.581C95.6751 182.564 95.9209 183.422 96.201 184.187C97.5326 188.165 101.179 196.292 104.391 203.471C107.117 209.546 109.689 215.29 110.518 217.731L110.586 217.931L110.421 218.056C103.408 223.252 89.8512 229.173 64.441 229.173ZM77.0947 144.975C71.9223 144.975 66.8814 146.038 62.0748 148.141C59.1657 149.393 56.3652 151.016 53.7533 152.97C52.3759 153.993 51.0614 155.085 49.8555 156.228C49.0211 157.005 48.3924 157.623 47.8894 158.171C45.7919 160.383 46.0148 169.996 48.5124 185.233C48.8439 187.319 49.2382 189.577 49.7926 192.543C51.09 199.402 51.6387 208.203 52.0788 215.273C52.4217 220.731 52.7131 225.441 53.2218 226.195C53.5704 226.704 54.845 228.378 56.6739 228.43C56.9253 228.435 57.2454 228.452 57.6283 228.464C87.1022 229.607 102.305 223.28 109.895 217.708C109.009 215.187 106.506 209.598 103.859 203.694C100.642 196.51 96.9897 188.36 95.6523 184.365C95.3722 183.582 95.115 182.707 94.875 181.696C94.3321 179.289 94.0749 175.592 93.7777 171.311L93.6691 169.791C92.8861 158.457 91.6516 147.284 86.0906 146.009L85.7248 145.935C85.4276 145.872 85.1304 145.815 84.8446 145.758C83.1758 145.415 81.4726 145.186 79.7637 145.078L79.678 145.095L79.6208 145.055C78.775 145.003 77.9291 144.975 77.0947 144.975Z" fill="#344D99"/>
<path d="M73.8191 139.294L74.6878 144.769C74.6878 144.769 76.3567 146.935 75.105 147.398C72.3502 148.415 67.7437 145.872 67.7437 145.872L66.4177 137.516L73.8191 139.294Z" fill="white"/>
<path d="M73.5967 147.924C70.9048 147.924 67.7614 146.209 67.6014 146.123L67.4814 146.055L66.064 137.133L74.0711 139.054L74.957 144.643C75.1856 144.958 76.0486 146.198 75.8143 147.027C75.7286 147.324 75.5171 147.541 75.2027 147.655C74.7112 147.85 74.1626 147.924 73.5967 147.924ZM68.0015 145.683C68.7387 146.066 72.648 147.998 75.0084 147.124C75.1913 147.055 75.2428 146.952 75.2656 146.872C75.4028 146.398 74.8484 145.432 74.4655 144.935L74.4197 144.878L73.5682 139.522L66.767 137.888L68.0015 145.683Z" fill="#344D99"/>
<path d="M67.0644 141.631L66.4814 137.939C66.4814 137.939 70.1792 141.368 73.6199 141.02C73.6199 141.02 70.2021 143.077 67.0644 141.631Z" fill="#F2C9BF"/>
<path d="M77.5817 127.286C77.5817 127.286 79.605 132.784 79.725 137.722C79.8164 141.225 73.0038 145.112 68.3687 139.699C63.7335 134.281 65.9568 126.989 65.9568 126.989L77.5817 127.286Z" fill="white"/>
<path d="M73.7701 142.677C71.7069 142.677 69.7122 141.711 68.152 139.888C63.4654 134.413 65.6601 126.983 65.683 126.909L65.7458 126.703L77.7823 127.012L77.8508 127.194C77.8737 127.252 79.8912 132.795 80.017 137.722C80.0627 139.499 78.5253 141.34 76.2791 142.203C75.4447 142.517 74.5988 142.677 73.7701 142.677ZM66.1745 127.286C65.8658 128.503 64.5399 134.79 68.5863 139.517C70.6153 141.883 73.4101 142.689 76.0677 141.666C78.0566 140.9 79.474 139.248 79.434 137.733C79.3254 133.401 77.7137 128.56 77.3708 127.572L66.1745 127.286Z" fill="#344D99"/>
<path d="M80.0795 188.783C81.8341 185.948 76.3531 168.007 65.7855 161.869C62.8078 160.137 53.6461 166.384 53.469 166.939C51.2971 174.106 53.8347 171.328 50.7942 178.175C49.6969 180.638 48.6423 181.162 48.0308 183.5C48.4137 185.923 49.7336 190.466 50.0308 192.5C51.5308 202.768 52.2573 224.7 53.469 226.5C53.8576 227.072 55.5208 228.449 57.4925 228.5C58.3613 223.048 57.6354 208.095 57.4925 202.768C57.2925 195.332 76.4388 194.669 80.0795 188.783Z" fill="#F2C9BF"/>
<path d="M64.5054 129.035C63.9339 129.869 63.6881 130.915 63.9624 131.921C64.0253 132.15 64.031 132.355 64.0653 132.395C63.9453 132.578 63.7967 132.755 63.7167 132.967C63.4538 133.675 63.6252 134.156 63.8424 134.83C64.2082 135.967 63.9167 137.265 65.2941 137.831C66.4314 138.305 67.6145 137.716 68.0775 136.619C68.7747 134.973 67.9632 132.893 67.8031 131.212C67.7517 130.658 67.5974 127.229 67.3859 126.623C67.8488 126.549 63.3623 128.275 64.5054 129.035Z" fill="#D64E2D"/>
<path d="M67.196 128.303C67.196 128.303 65.1442 128.709 63.944 130.303C63.944 130.303 62.6924 122.662 69.8708 121.828C77.0435 120.988 79.3068 126.903 77.6551 129.103C77.6493 129.103 76.6149 125.508 67.196 128.303Z" fill="#415EBE"/>
<path d="M67.1958 128.303C67.1958 128.303 73.1683 125.948 75.0601 124.8C79.7009 121.982 81.7241 122.359 82.3699 124.983C83.0158 127.606 78.495 130.252 78.495 130.252C78.495 130.252 77.3633 126.131 67.1958 128.303Z" fill="#1B30A7"/>
<path d="M137.119 205.18C136.108 205.888 136.731 206.706 136.582 207.763C136.399 209.049 136.382 211.484 137.234 212.432C137.537 212.77 139.668 213.57 139.914 214.781C139.514 216.147 141.16 218.045 141.417 217.182C142.686 212.918 145.275 211.684 144.126 208.752C143.641 207.517 139.377 203.602 137.119 205.18Z" fill="white"/>
<path d="M141.172 217.685C141.115 217.685 141.052 217.674 140.995 217.656C140.281 217.445 139.338 215.936 139.618 214.776C139.423 214.061 138.349 213.444 137.697 213.073C137.326 212.861 137.132 212.747 137.017 212.621C136.046 211.541 136.12 208.941 136.297 207.723C136.343 207.409 136.309 207.112 136.28 206.826C136.211 206.186 136.137 205.517 136.96 204.946C137.629 204.483 138.475 204.397 139.486 204.706C141.687 205.368 144.019 207.695 144.396 208.649C145.145 210.552 144.407 211.81 143.476 213.404C142.87 214.439 142.184 215.616 141.692 217.268C141.612 217.531 141.412 217.685 141.172 217.685ZM138.366 205.1C137.949 205.1 137.589 205.208 137.286 205.42C136.743 205.797 136.783 206.163 136.852 206.769C136.886 207.077 136.92 207.426 136.869 207.809C136.686 209.072 136.686 211.398 137.452 212.244C137.509 212.307 137.772 212.461 137.989 212.581C138.789 213.038 140.001 213.73 140.201 214.73L140.212 214.799L140.195 214.867C140.018 215.479 140.332 216.21 140.658 216.651C140.909 216.993 141.127 217.113 141.184 217.119C141.664 215.393 142.395 214.13 142.99 213.118C143.91 211.547 144.516 210.507 143.87 208.861C143.573 208.106 141.372 205.871 139.326 205.254C138.972 205.151 138.658 205.1 138.366 205.1Z" fill="#344D99"/>
<path d="M143.828 210.026C144.085 210.478 144.537 210.855 144.84 211.295C145.171 211.775 145.634 212.364 146.183 212.621C147.086 213.038 147.2 212.118 146.983 211.461C146.594 210.249 144.268 208.392 143.314 207.643C143.194 207.54 143.565 209.569 143.828 210.026Z" fill="white"/>
<path d="M146.591 213.01C146.448 213.01 146.27 212.975 146.065 212.878C145.43 212.581 144.927 211.924 144.602 211.455C144.476 211.272 144.327 211.101 144.167 210.924C143.956 210.689 143.739 210.444 143.584 210.169C143.481 209.986 142.773 207.717 143.121 207.42L143.298 207.266L143.499 207.414C145.739 209.175 146.973 210.466 147.259 211.369C147.419 211.872 147.425 212.518 147.071 212.833C146.968 212.924 146.813 213.01 146.591 213.01ZM143.653 208.272C143.756 208.843 143.944 209.649 144.081 209.883C144.213 210.106 144.402 210.318 144.602 210.546C144.767 210.735 144.939 210.924 145.082 211.135C145.527 211.781 145.933 212.181 146.31 212.358C146.396 212.398 146.608 212.484 146.693 212.404C146.808 212.301 146.842 211.935 146.716 211.541C146.488 210.832 145.459 209.729 143.653 208.272Z" fill="#344D99"/>
<path d="M137.375 217.205C137.455 217.182 137.512 217.113 137.546 217.039C137.752 217.365 138.021 217.691 138.403 217.776C138.895 217.885 139.266 217.542 139.546 217.29C139.558 217.279 139.569 217.262 139.575 217.25C139.924 218.005 140.478 218.679 141.318 218.691C142.113 218.702 142.41 218.153 142.496 217.473C142.644 217.742 142.821 217.993 143.016 218.205C143.793 219.062 144.913 218.479 145.376 217.799C145.45 217.691 145.439 217.571 145.382 217.491C145.388 217.462 145.393 217.433 145.393 217.41C145.336 216.662 145.199 215.925 144.936 215.193C144.759 214.69 144.547 213.936 144.073 213.541C143.221 212.838 142.553 213.764 142.233 214.433C142.124 213.678 141.793 212.981 140.718 213.135C139.981 213.244 139.546 213.627 139.306 214.118C139.175 213.758 138.986 213.427 138.701 213.17C137.975 212.512 137.186 213.244 136.906 213.798C136.775 214.061 136.712 214.336 136.695 214.616C136.643 214.57 136.586 214.53 136.512 214.501C135.923 214.267 135.374 214.873 135.209 215.25C134.711 216.37 135.974 217.605 137.375 217.205Z" fill="white"/>
<path d="M141.348 218.971C141.336 218.971 141.33 218.971 141.319 218.971C140.587 218.959 139.965 218.525 139.496 217.708C139.204 217.942 138.827 218.159 138.341 218.051C137.97 217.971 137.701 217.725 137.496 217.462C137.484 217.468 137.473 217.473 137.455 217.473H137.45C136.638 217.708 135.769 217.462 135.238 216.856C134.798 216.353 134.689 215.707 134.946 215.13C135.169 214.627 135.781 214.027 136.467 214.181C136.507 213.999 136.57 213.827 136.655 213.661C136.878 213.227 137.341 212.741 137.878 212.638C138.238 212.57 138.593 212.678 138.896 212.953C139.073 213.113 139.227 213.307 139.359 213.53C139.679 213.164 140.13 212.93 140.685 212.85C141.273 212.77 141.982 212.873 142.342 213.707C142.576 213.387 142.885 213.107 143.257 213.027C143.599 212.953 143.937 213.05 144.268 213.318C144.754 213.718 144.988 214.404 145.154 214.907L145.217 215.096C145.474 215.816 145.623 216.565 145.686 217.388C145.686 217.405 145.686 217.428 145.686 217.445C145.754 217.616 145.731 217.805 145.617 217.971C145.337 218.376 144.754 218.874 144.04 218.919C143.565 218.954 143.142 218.771 142.805 218.399C142.736 218.325 142.674 218.251 142.611 218.171C142.331 218.811 141.799 218.971 141.348 218.971ZM139.627 216.668L139.839 217.125C140.222 217.965 140.725 218.394 141.325 218.399C141.685 218.394 142.102 218.296 142.211 217.433L142.319 216.565L142.748 217.325C142.891 217.582 143.057 217.811 143.228 218.005C143.445 218.245 143.708 218.359 144 218.336C144.474 218.308 144.925 217.948 145.143 217.633L145.068 217.525L145.103 217.411C145.045 216.65 144.903 215.947 144.668 215.279L144.6 215.084C144.445 214.621 144.251 214.05 143.891 213.753C143.702 213.598 143.531 213.541 143.371 213.576C143.079 213.638 142.759 213.993 142.491 214.547L142.085 215.387L141.953 214.461C141.833 213.61 141.485 213.301 140.765 213.404C140.193 213.484 139.793 213.764 139.57 214.227L139.279 214.839L139.044 214.204C138.913 213.844 138.736 213.57 138.513 213.37C138.341 213.216 138.17 213.158 137.987 213.193C137.656 213.256 137.324 213.598 137.17 213.913C137.061 214.124 137.004 214.359 136.987 214.621L136.947 215.199L136.512 214.816C136.478 214.787 136.45 214.764 136.415 214.753C136.004 214.593 135.587 215.107 135.478 215.347C135.312 215.725 135.387 216.13 135.678 216.468C136.055 216.902 136.684 217.079 137.278 216.919L137.484 216.416L137.787 216.868C137.947 217.119 138.17 217.416 138.467 217.479C138.781 217.548 139.039 217.342 139.347 217.073L139.627 216.668Z" fill="#344D99"/>
<path d="M139.581 202.802L151.217 202.808L154.029 145.455L136.809 145.449L139.581 202.802Z" fill="#FFB923"/>
<path d="M137.353 155.622L153.481 155.628C154.379 155.628 155.179 155.068 155.493 154.228L158.499 146.101C159.019 144.7 157.985 143.214 156.493 143.214L134.358 143.209C132.866 143.209 131.832 144.695 132.346 146.089L135.347 154.222C135.655 155.068 136.455 155.622 137.353 155.622Z" fill="#D64E2D"/>
<path d="M135.969 145.478L154.87 145.483C165.083 145.489 173.759 138.002 175.245 127.892L183.269 73.4476C183.869 69.3554 180.703 65.6862 176.565 65.6805L114.32 65.6576C110.188 65.6576 107.01 69.3268 107.61 73.419L115.594 127.869C117.086 137.985 125.75 145.478 135.969 145.478Z" fill="#FFB923"/>
<g opacity="0.3">
<path d="M107.553 72.4017C107.57 68.7439 110.536 65.6634 114.325 65.6691H118.052L164.837 142.9C161.871 144.546 158.47 145.489 154.876 145.489H151.829L107.553 72.4017Z" fill="white"/>
</g>
<path opacity="0.3" d="M110.405 92.4396L142.536 145.483L136.918 145.478L112.199 104.67L110.405 92.4396Z" fill="white"/>
<path d="M114.92 120.256L117.229 117.101C96.0821 101.601 87.3891 83.8665 91.4584 76.328C93.5788 72.4073 99.5113 71.9273 107.736 75.0021L109.107 71.3386C94.539 65.8919 89.5038 71.7101 88.0178 74.4706C83.0626 83.6551 91.7671 103.293 114.92 120.256Z" fill="#FFB923"/>
<path d="M175.925 120.313C199.09 103.362 207.811 83.7294 202.856 74.5449C201.37 71.7902 196.335 65.9605 181.772 71.4015L183.138 75.065C191.368 71.9902 197.301 72.476 199.415 76.4024C203.485 83.9466 194.78 101.67 173.622 117.153L175.925 120.313Z" fill="#FFB923"/>
<path d="M157.447 105.459L129.15 105.448C128.116 105.448 127.196 104.79 126.858 103.807L120.606 85.5011C120.137 84.1294 121.16 82.7006 122.612 82.7006L163.888 82.712C165.34 82.712 166.363 84.1408 165.888 85.5125L159.584 103.933C159.27 104.847 158.413 105.459 157.447 105.459ZM129.173 104.367L157.31 104.379C157.893 104.379 158.413 104.007 158.601 103.453L164.711 85.6097C165.014 84.7238 164.357 83.7979 163.419 83.7979L123.081 83.7865C122.143 83.7865 121.486 84.7066 121.789 85.5982L127.882 103.441C128.07 103.996 128.59 104.367 129.173 104.367Z" fill="white"/>
<path d="M121.383 191.023L169.432 191.04L164.168 175.98C163.779 174.877 162.739 174.134 161.568 174.134L129.253 174.123C128.082 174.123 127.041 174.86 126.653 175.969L121.383 191.023Z" fill="#D64E2D"/>
<path d="M182 212.507H108.89V190.531C108.89 189.457 109.759 188.588 110.833 188.588H180.057C181.132 188.588 182 189.457 182 190.531V212.507Z" fill="#415EBE"/>
<path d="M195.414 216.067H95.4707C95.0364 216.067 94.6877 215.719 94.6877 215.284V213.284C94.6877 212.85 95.0364 212.501 95.4707 212.501H195.414C195.849 212.501 196.197 212.85 196.197 213.284V215.284C196.197 215.719 195.849 216.067 195.414 216.067Z" fill="#344D99"/>
<path d="M169.694 208.752H121.194C120.434 208.752 119.823 208.135 119.823 207.38V193.715C119.823 192.955 120.44 192.343 121.194 192.343H169.694C170.454 192.343 171.066 192.955 171.066 193.715V207.38C171.066 208.135 170.449 208.752 169.694 208.752Z" fill="#FFF6F4"/>
<path d="M169.694 208.912H121.194C120.348 208.912 119.657 208.22 119.657 207.374V193.709C119.657 192.863 120.348 192.172 121.194 192.172H169.694C170.54 192.172 171.232 192.863 171.232 193.709V207.374C171.226 208.226 170.54 208.912 169.694 208.912ZM121.194 192.503C120.525 192.503 119.982 193.046 119.982 193.715V207.38C119.982 208.049 120.525 208.592 121.194 208.592H169.694C170.363 208.592 170.906 208.049 170.906 207.38V193.715C170.906 193.046 170.363 192.503 169.694 192.503H121.194Z" fill="#344D99"/>
<path d="M169.706 194.275C169.706 194.738 169.329 195.115 168.86 195.115C168.397 195.115 168.014 194.738 168.014 194.275C168.014 193.806 168.392 193.429 168.86 193.429C169.329 193.435 169.706 193.812 169.706 194.275Z" fill="#415EBE"/>
<path d="M123.069 194.275C123.069 194.738 122.692 195.115 122.224 195.115C121.755 195.115 121.378 194.738 121.378 194.275C121.378 193.806 121.755 193.429 122.224 193.429C122.692 193.435 123.069 193.812 123.069 194.275Z" fill="#415EBE"/>
<path d="M169.706 206.677C169.706 207.146 169.329 207.523 168.86 207.523C168.397 207.523 168.014 207.146 168.014 206.677C168.014 206.214 168.392 205.837 168.86 205.837C169.329 205.837 169.706 206.214 169.706 206.677Z" fill="#415EBE"/>
<path d="M123.069 206.677C123.069 207.146 122.692 207.523 122.224 207.523C121.755 207.523 121.378 207.146 121.378 206.677C121.378 206.214 121.755 205.837 122.224 205.837C122.692 205.837 123.069 206.214 123.069 206.677Z" fill="#415EBE"/>
<path d="M113.072 210.769L111.066 217.433C111.066 217.433 109.883 217.862 107.889 218.456C102.025 220.165 89.2053 223.28 80.1408 220.617C71.9622 218.211 47.0949 188.005 53.839 183.141C57.3482 180.615 74.2655 179.495 73.2253 183.862C72.1565 188.422 84.5016 205.614 87.3421 207.409C88.7081 208.266 113.072 210.769 113.072 210.769Z" fill="white"/>
<path d="M88.3947 221.943C85.4742 221.943 82.628 221.646 80.0675 220.891C72.9691 218.805 54.2057 196.915 52.5369 187.131C52.1939 185.125 52.5769 183.707 53.6799 182.913C56.8119 180.655 69.2198 179.644 72.5976 181.907C73.5921 182.576 73.6435 183.376 73.512 183.93C72.4776 188.348 84.9084 205.528 87.5031 207.169C88.4576 207.769 103.335 209.483 113.102 210.489L113.445 210.524L111.296 217.656L111.159 217.708C111.147 217.713 109.941 218.148 107.964 218.736C103.266 220.102 95.6189 221.943 88.3947 221.943ZM65.5849 181.204C61.0584 181.204 55.8174 182.078 54.0114 183.381C53.1027 184.039 52.794 185.268 53.097 187.039C54.7144 196.487 73.4835 218.365 80.2275 220.348C88.972 222.92 101.266 220.102 107.815 218.188C109.399 217.719 110.479 217.348 110.839 217.216L112.702 211.021C108.987 210.638 88.5262 208.489 87.2002 207.654C84.4912 205.946 71.8489 188.537 72.9577 183.799C73.0891 183.239 72.8719 182.776 72.2833 182.381C71.0488 181.553 68.4597 181.204 65.5849 181.204Z" fill="#344D99"/>
<path d="M79.0207 186.399C78.3748 184.005 73.6826 168.202 65.161 161.338C61.2861 158.217 52.0673 151.845 48.0494 156.537C41.6082 164.052 47.8551 182.673 52.9588 195.972C62.9092 196.956 71.425 194.635 79.0207 186.399Z" fill="white"/>
<path d="M57.0099 196.464C55.6897 196.464 54.3294 196.395 52.9292 196.252L52.752 196.235L52.6891 196.07C47.0824 181.473 41.47 163.767 47.8254 156.348C52.2148 151.221 62.3366 158.703 65.3371 161.115C74.3959 168.407 79.0996 185.593 79.2939 186.325L79.3339 186.479L79.2253 186.594C73.0757 193.275 65.9372 196.464 57.0099 196.464ZM53.1578 195.704C63.7025 196.704 71.824 193.721 78.6995 186.319C78.1852 184.467 73.55 168.465 64.9771 161.56C62.0794 159.229 52.3176 151.987 48.2598 156.72C42.1215 163.887 47.6311 181.284 53.1578 195.704Z" fill="#344D99"/>
<path d="M52.0796 154.256C52.0796 154.256 51.4566 154.702 50.0278 155.417C48.599 156.131 49.1705 159.652 49.1705 159.652C49.1705 159.652 55.3145 162.938 56.2804 163.401C57.2462 163.864 57.8521 164.15 59.7438 164.612C61.6356 165.075 63.1673 165.184 63.5845 165.184C63.996 165.184 66.5394 162.944 66.5394 162.944C66.5394 162.944 66.4308 162.338 67.0709 162.681C67.711 163.024 73.1748 162.395 73.1748 162.109C73.1748 161.823 73.5692 160.966 72.3175 158.966C71.0659 156.965 70.3172 155.788 68.6712 154.714C67.0251 153.639 64.3161 151.747 64.3161 151.747L61.4241 151.067C61.4241 151.067 58.6008 150.781 58.1035 150.924C57.6063 151.067 54.9944 152.256 54.9944 152.256L52.0796 154.256Z" fill="white"/>
<path d="M120.543 212.655C119.594 211.809 116.645 211.392 115.445 211.232C115.445 211.232 115.445 211.232 115.439 211.238C113.387 210.621 109.746 210.312 108.849 212.272C108.341 213.398 109.289 213.787 109.701 214.77C110.198 215.97 111.421 218.073 112.633 218.456C112.667 218.468 112.724 218.474 112.781 218.479C112.793 218.548 112.804 218.616 112.821 218.685C112.77 218.656 112.713 218.634 112.65 218.628C112.141 218.559 111.621 218.422 111.621 218.822C111.61 220.022 113.221 221.72 114.13 220.965C114.182 220.92 114.204 220.845 114.204 220.765C114.456 221.017 114.759 221.257 115.062 221.24C115.456 221.211 115.622 220.788 115.753 220.474C115.759 220.457 115.759 220.44 115.765 220.428C116.25 221.051 116.873 221.548 117.496 221.331C118.085 221.131 118.125 220.531 117.977 219.868C118.171 220.08 118.377 220.274 118.588 220.422C119.422 221.028 120.068 220.177 120.2 219.411C120.217 219.314 119.611 217.148 119.137 215.833C119.005 215.033 118.657 214.198 118.177 213.45C118.325 213.501 118.474 213.553 118.611 213.616C119.137 213.861 119.84 214.13 120.44 214.073C121.429 213.964 121.063 213.118 120.543 212.655Z" fill="white"/>
<path d="M117.198 221.651C116.832 221.651 116.37 221.485 115.849 220.943C115.701 221.217 115.472 221.48 115.089 221.514C114.781 221.531 114.512 221.394 114.283 221.211C113.929 221.485 113.466 221.508 112.98 221.28C112.1 220.863 111.334 219.708 111.346 218.816C111.346 218.599 111.443 218.468 111.529 218.399C111.597 218.342 111.677 218.302 111.763 218.285C110.711 217.445 109.825 215.799 109.448 214.879C109.328 214.587 109.151 214.347 108.974 214.113C108.585 213.593 108.191 213.061 108.602 212.152C109.563 210.049 113.243 210.283 115.501 210.952C117.341 211.198 119.816 211.621 120.742 212.438C121.136 212.787 121.468 213.347 121.325 213.798C121.256 214.016 121.05 214.29 120.485 214.347C119.936 214.398 119.336 214.216 118.85 214.016C119.141 214.604 119.347 215.21 119.439 215.77C119.764 216.65 120.542 219.205 120.502 219.439C120.416 219.937 120.113 220.588 119.553 220.822C119.301 220.925 118.907 220.977 118.444 220.64C118.416 220.617 118.381 220.594 118.353 220.571C118.307 221.2 117.953 221.474 117.61 221.588C117.478 221.628 117.347 221.651 117.198 221.651ZM115.638 219.834L115.992 220.24C116.358 220.702 116.895 221.228 117.404 221.051C117.541 221.005 117.913 220.874 117.701 219.919L117.461 218.868L118.187 219.662C118.376 219.868 118.57 220.045 118.759 220.182C118.964 220.331 119.147 220.371 119.319 220.297C119.582 220.188 119.827 219.811 119.913 219.388C119.856 219.085 119.324 217.176 118.867 215.919C118.736 215.141 118.41 214.336 117.936 213.593L117.495 212.907L118.267 213.17C118.427 213.221 118.581 213.278 118.73 213.347C119.444 213.678 119.993 213.821 120.41 213.776C120.507 213.764 120.73 213.73 120.765 213.621C120.81 213.478 120.656 213.141 120.347 212.867C119.747 212.335 118.107 211.884 115.472 211.524L115.444 211.535L115.358 211.507C113.369 210.912 109.923 210.621 109.111 212.387C108.837 212.987 109.06 213.284 109.42 213.77C109.603 214.021 109.814 214.301 109.963 214.656C110.448 215.839 111.626 217.833 112.717 218.182C112.74 218.188 112.769 218.188 112.803 218.193L113.02 218.211L113.078 218.496C113.083 218.531 113.089 218.571 113.1 218.605L113.283 219.274L112.683 218.931C112.66 218.914 112.637 218.908 112.62 218.908L112.42 218.879C112.243 218.851 111.952 218.805 111.877 218.845C111.9 219.497 112.535 220.44 113.215 220.765C113.495 220.897 113.729 220.903 113.912 220.771V220.097L114.403 220.565C114.501 220.662 114.798 220.971 115.038 220.954C115.232 220.937 115.346 220.697 115.472 220.382L115.638 219.834ZM113.952 220.737C113.946 220.742 113.952 220.742 113.952 220.737C113.946 220.742 113.952 220.742 113.952 220.737Z" fill="#344D99"/>
<path d="M112.982 211.089L108.541 210.518L105.42 214.507L106.781 218.005L107.232 218.291C107.232 218.291 111.067 217.005 111.33 217.079C111.593 217.148 111.856 217.748 112.022 217.748C112.187 217.748 113.428 217.056 113.21 216.559C112.993 216.062 112.422 214.964 112.422 214.964C112.422 214.964 113.542 213.095 113.542 212.913C113.536 212.724 112.982 211.089 112.982 211.089Z" fill="white"/>
<path d="M193.47 212.861C193.47 212.861 194.865 218.834 195.013 219.348C195.013 219.348 196.922 220.451 200.088 221.92C208.044 225.612 226.396 229.527 238.895 226.755C251.097 224.035 248.194 200.442 238.415 188.885C238.398 188.828 238.341 188.794 238.307 188.737C230.574 179.552 221.881 197.613 223.407 199.064C223.955 199.596 224.544 200.333 225.15 201.179C228.293 205.551 231.671 213.084 230.751 213.656C229.905 214.17 226.304 214.924 224.173 215.056C220.332 215.279 214.931 214.964 209.713 214.507C201.557 213.816 193.893 212.77 193.47 212.861Z" fill="white"/>
<path d="M229.335 227.967C218.355 227.967 206.107 225.029 199.969 222.177C196.832 220.72 194.894 219.605 194.877 219.594L194.774 219.537L194.74 219.422C194.591 218.908 193.248 213.164 193.191 212.924L193.122 212.638L193.408 212.575C193.614 212.53 194.431 212.615 197.552 212.97C200.558 213.307 205.102 213.821 209.731 214.21C216.024 214.764 220.876 214.947 224.151 214.759C226.254 214.633 229.803 213.884 230.598 213.404C231.072 212.718 228.129 205.82 224.911 201.339C224.254 200.419 223.694 199.744 223.196 199.264C222.853 198.939 222.848 198.173 223.179 196.995C224.088 193.755 227.866 186.971 232.478 185.971C234.65 185.502 236.684 186.365 238.519 188.542L238.348 188.788L238.559 188.594C238.588 188.622 238.622 188.663 238.651 188.72C245.64 197.013 249.092 211.289 246.189 219.925C244.886 223.806 242.377 226.258 238.948 227.024C236.016 227.681 232.735 227.967 229.335 227.967ZM195.26 219.154C195.694 219.399 197.5 220.4 200.209 221.657C208.182 225.361 226.517 229.201 238.833 226.469C242.057 225.749 244.417 223.423 245.657 219.748C248.509 211.272 245.097 197.218 238.199 189.068L238.148 188.971C238.125 188.96 238.096 188.931 238.068 188.891C236.404 186.919 234.558 186.119 232.609 186.542C228.231 187.491 224.619 194.029 223.739 197.161C223.419 198.304 223.511 198.773 223.602 198.859C224.122 199.362 224.705 200.065 225.385 201.013C228.289 205.054 231.478 211.924 231.175 213.473C231.135 213.667 231.049 213.81 230.912 213.896C229.957 214.479 226.265 215.21 224.202 215.336C220.899 215.524 216.018 215.342 209.697 214.787C205.056 214.399 200.512 213.89 197.5 213.547C195.9 213.364 194.471 213.204 193.842 213.158C194.122 214.376 195.054 218.348 195.26 219.154Z" fill="#344D99"/>
<path d="M232.775 217.542C239.737 214.016 232.884 205.728 229.912 201.082C230.243 200.493 229.855 199.522 228.992 199.705C228.918 199.722 228.826 199.745 228.752 199.762C228.437 199.705 228.112 199.802 227.872 199.985C226.917 200.259 225.963 200.648 225.151 201.179C228.295 205.551 231.672 213.084 230.752 213.656C229.906 214.17 226.306 214.924 224.174 215.056C220.333 215.279 214.932 214.964 209.714 214.507C209.491 214.862 226.546 220.685 232.775 217.542Z" fill="#F2C9BF"/>
<path d="M224.094 203.111C222.688 201.768 213.578 192.566 212.217 183.947C211.6 180.027 210.863 171.094 215.744 169.968C223.562 168.156 234.004 179.507 241.211 188.068C237.908 195.527 232.873 200.745 224.094 203.111Z" fill="white"/>
<path d="M224.014 203.425L223.9 203.311C223.471 202.899 213.389 193.183 211.938 183.987C211.458 180.947 210.32 170.922 215.681 169.682C223.431 167.887 233.513 178.466 241.435 187.88L241.549 188.017L241.475 188.182C237.851 196.35 232.353 201.179 224.163 203.385L224.014 203.425ZM217.499 170.059C216.922 170.059 216.361 170.122 215.813 170.248C210.932 171.379 212.046 180.987 212.504 183.907C213.858 192.503 222.98 201.625 224.18 202.797C232.044 200.636 237.359 195.967 240.886 188.125C233.662 179.547 224.666 170.059 217.499 170.059Z" fill="#344D99"/>
<path d="M192.846 212.701C192.84 212.695 192.846 212.695 192.846 212.701C191.714 212.415 188.943 211.747 187.799 212.158C187.171 212.387 186.542 213.01 187.388 213.45C187.902 213.713 188.622 213.724 189.177 213.69C189.183 213.69 189.194 213.69 189.2 213.69C186.891 214.896 184.667 216.89 184.307 219.377C184.079 220.977 185.113 221.148 185.902 219.897C187.422 217.479 189.205 216.285 186.725 219.748C186.222 220.445 185.536 222.137 186.056 222.509C187.165 223.303 188.622 220.577 189.423 219.474C190.486 218.948 189.034 221.84 189.12 222.486C189.508 225.412 192.343 220.097 192.777 220.125C193.995 220.211 191.509 223.503 193.412 223.029C194.841 222.674 195.829 218.771 196.698 217.879C197.413 217.148 198.396 217.136 198.338 215.953C198.241 213.89 194.892 212.873 192.846 212.701Z" fill="white"/>
<path d="M189.68 223.652C189.623 223.652 189.565 223.646 189.508 223.629C188.977 223.492 188.88 222.76 188.845 222.52C188.805 222.234 188.948 221.783 189.182 221.068C189.302 220.703 189.48 220.154 189.531 219.834C189.428 219.983 189.32 220.148 189.205 220.32C188.491 221.4 187.599 222.749 186.691 222.914C186.405 222.966 186.142 222.909 185.902 222.737C185.748 222.629 185.65 222.457 185.61 222.234C185.49 221.497 186.062 220.194 186.502 219.577C186.719 219.274 186.896 219.011 187.045 218.794C186.771 219.137 186.462 219.56 186.153 220.045C185.685 220.788 185.085 221.137 184.593 220.96C184.364 220.874 183.862 220.554 184.033 219.337C184.405 216.736 186.622 214.924 188.165 213.959C187.845 213.919 187.531 213.844 187.256 213.707C186.765 213.456 186.679 213.136 186.696 212.913C186.725 212.45 187.222 212.073 187.702 211.895C188.828 211.49 191.211 211.998 192.909 212.421C195.166 212.627 198.521 213.724 198.63 215.942C198.681 216.908 198.104 217.256 197.601 217.571C197.367 217.714 197.121 217.868 196.91 218.079C196.618 218.382 196.275 219.137 195.915 219.937C195.258 221.4 194.509 223.057 193.486 223.309C193.332 223.349 192.852 223.463 192.566 223.166C192.229 222.812 192.423 222.177 192.629 221.503C192.726 221.188 192.926 220.537 192.823 220.428C192.68 220.565 192.366 220.988 192.114 221.331C191.126 222.674 190.354 223.652 189.68 223.652ZM189.645 219.12C189.777 219.12 189.874 219.171 189.937 219.222C190.268 219.508 190.08 220.143 189.725 221.24C189.583 221.674 189.388 222.269 189.411 222.44C189.474 222.903 189.588 223.052 189.651 223.069C190.051 223.172 191.177 221.64 191.657 220.983C192.326 220.074 192.532 219.822 192.806 219.834C193.08 219.851 193.229 219.988 193.303 220.097C193.549 220.457 193.372 221.04 193.183 221.663C193.086 221.983 192.88 222.652 192.989 222.766C192.989 222.766 193.057 222.823 193.355 222.749C194.109 222.56 194.823 220.977 195.401 219.697C195.801 218.811 196.144 218.045 196.504 217.674C196.761 217.405 197.052 217.228 197.304 217.073C197.795 216.771 198.093 216.588 198.064 215.965C197.973 214.113 194.801 213.153 192.823 212.981L192.709 212.953C190.246 212.341 188.617 212.164 187.897 212.421C187.536 212.553 187.274 212.798 187.268 212.936C187.262 213.01 187.359 213.101 187.519 213.187C188.045 213.456 188.885 213.41 189.165 213.398L190.486 213.324L189.337 213.936C188.051 214.61 185.016 216.485 184.599 219.405C184.513 220.017 184.633 220.354 184.787 220.411C184.965 220.48 185.33 220.257 185.668 219.731C186.068 219.091 187.331 217.291 187.914 217.291C187.919 217.291 187.925 217.291 187.931 217.291L188.102 217.302L188.217 217.479C188.297 217.639 188.411 217.885 186.965 219.903C186.542 220.497 186.091 221.64 186.176 222.131C186.188 222.2 186.211 222.246 186.233 222.263C186.342 222.343 186.456 222.366 186.582 222.343C187.256 222.217 188.142 220.88 188.725 219.994C188.902 219.731 189.062 219.485 189.2 219.291L189.24 219.234L189.303 219.205C189.44 219.148 189.554 219.12 189.645 219.12Z" fill="#344D99"/>
<path d="M193.132 213.01L197.801 213.558L200.876 216.37L200.636 218.479L198.733 219.588H196.115C196.115 219.588 195.853 219.257 195.435 219.588C195.018 219.92 193.304 218.228 193.304 218.228L192.721 216.702C192.721 216.702 192.063 216.582 192.349 215.273C192.635 213.964 192.641 213.964 192.721 213.724C192.801 213.484 193.132 213.01 193.132 213.01Z" fill="white"/>
<path d="M215.599 169.048C215.599 169.048 219.565 170.368 219.92 170.442C220.274 170.516 220.274 172.98 220.274 172.98L217.759 177.123C217.759 177.123 215.204 179.872 214.741 180.335C214.278 180.798 214.061 180.873 213.53 181.193C212.998 181.513 212.101 180.941 212.101 180.941C212.101 180.941 211.861 180.547 211.587 180.873C211.312 181.198 210.312 180.015 209.923 178.872C209.535 177.729 208.998 174.94 208.998 174.94L210.141 171.442L211.107 169.773L212.604 169.048H215.599Z" fill="white"/>
<path d="M204.523 153.77C204.523 153.77 204.552 155.114 204.523 155.165C204.495 155.216 204.615 157.274 204.615 157.274C204.615 157.274 204.357 157.468 204.615 158.354C204.872 159.234 199.596 158.937 199.596 158.937C199.596 158.937 197.756 156.777 199.276 155.759C200.797 154.742 202.271 153.851 202.271 153.851C202.271 153.851 203.151 152.867 203.649 153.028C204.152 153.188 204.523 153.77 204.523 153.77Z" fill="white"/>
<path d="M133.51 51.7236L132.424 52.2323C129.36 53.6668 127.737 57.0617 128.532 60.348L128.812 61.5139L128.303 60.428C126.869 57.3646 123.474 55.7415 120.187 56.5359L119.021 56.816L120.107 56.3073C123.171 54.8728 124.794 51.4779 124 48.1916L123.719 47.0256L124.228 48.1115C125.663 51.175 129.058 52.7981 132.344 52.0037L133.51 51.7236Z" fill="#FFB923"/>
<path d="M164.001 19.2377L161.944 18.3919C156.149 16.0143 149.485 18.049 145.998 23.2499L144.764 25.0959L145.61 23.0384C147.987 17.2431 145.958 10.579 140.752 7.0927L138.906 5.85819L140.963 6.70406C146.758 9.08163 153.422 7.05269 156.909 1.84605L158.143 0L157.297 2.05751C154.92 7.85284 156.949 14.5169 162.155 18.0032L164.001 19.2377Z" fill="#FFB923"/>
<path d="M161.709 44.6537L161.515 43.8593C160.961 41.6132 158.898 40.07 156.589 40.1672L155.771 40.2015L156.566 40.0072C158.812 39.4528 160.355 37.3896 160.258 35.0806L160.223 34.2576L160.418 35.052C160.972 37.2981 163.035 38.8412 165.344 38.7441L166.167 38.7098L165.373 38.9041C163.127 39.4585 161.584 41.5217 161.681 43.8307L161.709 44.6537Z" fill="#FFB923"/>
</svg>
