<svg width="126" height="120" viewBox="0 0 126 120" fill="none" xmlns="http://www.w3.org/2000/svg">
<g clip-path="url(#clip0_7211_160555)">
<path fill-rule="evenodd" clip-rule="evenodd" d="M48.2325 56.1705C48.0545 57.6925 47.961 59.2231 47.9522 60.7554C47.9799 67.1298 49.4193 73.419 52.1669 79.1709C54.9145 84.9227 58.9022 89.9945 63.8434 94.0218C67.3283 96.9482 71.1707 99.4204 75.2783 101.379C79.3908 103.289 83.7176 104.698 88.1659 105.577C88.2555 105.599 88.3487 105.603 88.44 105.589C88.5312 105.575 88.6187 105.543 88.6973 105.494C88.7759 105.446 88.844 105.382 88.8976 105.307C88.9512 105.231 88.9893 105.146 89.0096 105.056C89.0479 104.876 89.0152 104.687 88.9181 104.53C88.8211 104.373 88.6673 104.259 88.4886 104.212C84.2382 103.084 80.1218 101.5 76.2107 99.4893C72.2982 97.5305 68.6281 95.1212 65.2749 92.3105C60.6201 88.4671 56.8731 83.6418 54.3022 78.1802C51.7313 72.7186 50.4002 66.7561 50.4044 60.7196C50.4169 59.6146 50.4732 58.506 50.5721 57.4208C52.3898 58.3541 54.2788 59.1416 56.2212 59.776C68.2724 63.6512 81.1557 61.0362 87.3506 49.3903C91.268 42.2966 89.1486 36.0668 84.5892 32.3676C82.1092 30.505 79.1987 29.2992 76.128 28.8622C73.0574 28.4252 69.9261 28.7711 67.0249 29.8678C57.1363 33.4277 50.4712 42.8541 48.5533 54.0542C41.5872 49.7371 36.3411 43.1297 33.7155 35.3663C31.8414 29.5642 31.7794 23.3289 33.5377 17.4908C34.7971 13.4139 36.7285 9.57609 39.2524 6.13567C40.2875 4.59957 41.419 3.13068 42.6401 1.73784C42.6911 1.69226 42.7219 1.62829 42.7257 1.56002C42.7295 1.49175 42.706 1.42477 42.6605 1.37379C42.6149 1.32282 42.5509 1.29203 42.4827 1.28822C42.4144 1.2844 42.3474 1.30785 42.2964 1.35343C40.7344 2.46442 39.2949 3.73817 38.0019 5.15321C34.4515 9.35019 32.0245 14.3798 30.9485 19.7708C29.8725 25.1618 30.1826 30.7377 31.8498 35.9761C34.7148 44.453 40.5284 51.6193 48.2325 56.1705ZM50.801 55.4206C52.7155 56.45 54.7206 57.3014 56.7909 57.964C67.864 61.5214 79.7623 59.1548 85.371 48.3944C88.4015 42.4789 86.7389 37.4604 82.9305 34.4399C80.7937 32.8607 78.2972 31.8384 75.6664 31.4654C73.0357 31.0925 70.3534 31.3806 67.8618 32.3037C58.5104 35.646 52.387 44.7461 50.801 55.4206Z" fill="#F7F8F9"/>
<path fill-rule="evenodd" clip-rule="evenodd" d="M88.4629 105.241C86.0746 105.312 82.4575 105.469 82.0651 105.475L75.188 105.847L64.0407 107.029C63.9202 107.04 63.8085 107.096 63.7294 107.188C63.6503 107.279 63.6102 107.398 63.6177 107.519C63.6189 107.578 63.6323 107.637 63.657 107.691C63.6818 107.746 63.7174 107.794 63.7617 107.835C63.8059 107.875 63.8579 107.905 63.9144 107.924C63.9709 107.944 64.0308 107.951 64.0903 107.946L75.2514 108.022L82.1534 108.109C82.6273 108.106 87.7785 107.99 89.8725 107.923C90.5766 107.925 91.2599 107.684 91.8065 107.24C91.9648 106.959 92.0413 106.64 92.0276 106.318C92.0138 105.996 91.9102 105.684 91.7286 105.418C90.7781 104.242 89.7215 103.156 88.572 102.174L77.8081 91.462C74.0739 87.8292 73.1377 86.3532 72.1873 87.2183C71.9738 87.3784 71.9462 87.655 72.0815 88.3413C72.1784 88.5784 72.317 88.7962 72.4908 88.9843C73.6743 90.3659 74.9351 91.6794 76.2672 92.9184L86.7272 104.004C86.7958 104.056 87.6979 104.638 88.4629 105.241Z" fill="white"/>
</g>
<defs>
<clipPath id="clip0_7211_160555">
<rect width="82.945" height="97.0591" fill="white" transform="translate(0 72.6091) rotate(-61.091)"/>
</clipPath>
</defs>
</svg>
