<svg width="16" height="16" viewBox="0 0 16 16" fill="none" xmlns="http://www.w3.org/2000/svg">
<mask id="mask0_12689_7320" style="mask-type:alpha" maskUnits="userSpaceOnUse" x="0" y="0" width="16" height="16">
<path fill-rule="evenodd" clip-rule="evenodd" d="M1.58238 4.54482C2.17265 3.84305 3.18466 3.5 4.66669 3.5H11.3334C12.8154 3.5 13.8274 3.84305 14.4177 4.54482C15.0022 5.23978 15.0578 6.15277 14.9641 7.00408L14.4639 12.3399C14.3905 13.0253 14.2184 13.7767 13.6064 14.3358C12.999 14.8907 12.0579 15.1667 10.6667 15.1667H5.33335C3.94212 15.1667 3.00104 14.8907 2.39361 14.3358C1.78166 13.7767 1.60963 13.0253 1.5362 12.3399L1.53549 12.3333L1.03592 7.0041C0.942235 6.15278 0.997834 5.23978 1.58238 4.54482ZM2.34766 5.18851C2.03318 5.5624 1.94466 6.12419 2.03032 6.89834L2.03124 6.90666L2.53086 12.2366C2.59755 12.8562 2.73563 13.2938 3.0681 13.5975C3.40567 13.9059 4.04459 14.1667 5.33335 14.1667H10.6667C11.9555 14.1667 12.5944 13.9059 12.9319 13.5975C13.2644 13.2938 13.4025 12.8562 13.4692 12.2366L13.9697 6.89833C14.0553 6.12418 13.9669 5.5624 13.6524 5.18851C13.3427 4.82028 12.698 4.5 11.3334 4.5H4.66669C3.30205 4.5 2.65739 4.82028 2.34766 5.18851Z" fill="#062E46"/>
<path fill-rule="evenodd" clip-rule="evenodd" d="M5.8625 2.70017C5.83418 2.9171 5.83338 3.16361 5.83338 3.46659V3.99992C5.83338 4.27606 5.60952 4.49992 5.33338 4.49992C5.05723 4.49992 4.83338 4.27606 4.83338 3.99992L4.83337 3.44926C4.83336 3.16691 4.83334 2.85851 4.87092 2.57071C4.90985 2.27251 4.99328 1.95592 5.18872 1.67314C5.59988 1.07825 6.35305 0.833252 7.46671 0.833252H8.53338C9.64704 0.833252 10.4002 1.07825 10.8114 1.67314C11.0068 1.95592 11.0902 2.27251 11.1292 2.57071C11.1667 2.85851 11.1667 3.16691 11.1667 3.44926L11.1667 3.99992C11.1667 4.27606 10.9429 4.49992 10.6667 4.49992C10.3906 4.49992 10.1667 4.27606 10.1667 3.99992V3.46659C10.1667 3.16361 10.1659 2.9171 10.1376 2.70017C10.1098 2.48774 10.0599 2.34475 9.98872 2.2417C9.86654 2.06492 9.55305 1.83325 8.53338 1.83325H7.46671C6.44704 1.83325 6.13354 2.06492 6.01136 2.2417C5.94014 2.34475 5.89023 2.48774 5.8625 2.70017Z" fill="#062E46"/>
<path fill-rule="evenodd" clip-rule="evenodd" d="M7.16728 8.50054C7.16677 8.54813 7.16675 8.60237 7.16675 8.66667V9.35334C7.16675 9.54101 7.16839 9.67907 7.18469 9.79619C7.20036 9.90882 7.22525 9.96361 7.24635 9.99338C7.26988 10.0266 7.38713 10.1667 8.00009 10.1667C8.61581 10.1667 8.73168 10.0252 8.75471 9.99235C8.77592 9.96205 8.80075 9.90638 8.81617 9.79244C8.8322 9.67397 8.83342 9.5353 8.83342 9.34667V8.66667C8.83342 8.60237 8.83341 8.54813 8.83289 8.50054C8.7853 8.50002 8.73105 8.50001 8.66675 8.50001H7.33342C7.26912 8.50001 7.21488 8.50002 7.16728 8.50054ZM7.31152 7.5C7.31883 7.5 7.32613 7.50001 7.33342 7.50001H8.66675C8.67405 7.50001 8.68135 7.5 8.68865 7.5C8.83608 7.49997 8.98548 7.49994 9.10739 7.51348C9.23165 7.52729 9.43806 7.56421 9.60364 7.72979C9.76922 7.89537 9.80614 8.10178 9.81995 8.22604C9.83349 8.34795 9.83346 8.49735 9.83342 8.64477C9.83342 8.65208 9.83342 8.65938 9.83342 8.66667V9.35415C9.83343 9.5273 9.83343 9.73218 9.80713 9.92653C9.77984 10.1282 9.72009 10.3571 9.5738 10.566C9.26183 11.0115 8.71103 11.1667 8.00009 11.1667C7.29304 11.1667 6.74363 11.0134 6.43049 10.5716C6.28326 10.3639 6.22231 10.1358 6.19424 9.93403C6.16678 9.73677 6.16675 9.529 6.16675 9.35334V8.66667C6.16675 8.65938 6.16675 8.65208 6.16675 8.64477C6.16672 8.49735 6.16668 8.34795 6.18023 8.22604C6.19404 8.10178 6.23095 7.89537 6.39653 7.72979C6.56211 7.56421 6.76853 7.52729 6.89279 7.51348C7.0147 7.49994 7.1641 7.49997 7.31152 7.5Z" fill="#062E46"/>
<path fill-rule="evenodd" clip-rule="evenodd" d="M14.8377 7.0392C15.0001 7.26253 14.9507 7.57524 14.7274 7.73766C13.1166 8.90912 11.2763 9.60589 9.39577 9.8427C9.1218 9.8772 8.87172 9.68307 8.83722 9.40909C8.80272 9.13511 8.99686 8.88504 9.27084 8.85054C10.9903 8.63401 12.67 7.99745 14.1392 6.92892C14.3625 6.7665 14.6753 6.81588 14.8377 7.0392Z" fill="#062E46"/>
<path fill-rule="evenodd" clip-rule="evenodd" d="M1.33414 7.23082C1.49011 7.00295 1.80128 6.94465 2.02916 7.10062C3.46176 8.08115 5.07725 8.67213 6.72239 8.85634C6.99682 8.88706 7.19437 9.13444 7.16365 9.40887C7.13292 9.68329 6.88554 9.88085 6.61112 9.85013C4.80292 9.64766 3.03175 8.99864 1.46434 7.92584C1.23647 7.76987 1.17817 7.4587 1.33414 7.23082Z" fill="#062E46"/>
</mask>
<g mask="url(#mask0_12689_7320)">
<path d="M0 0H16V16H0V0Z" fill="#062E46"/>
</g>
</svg>
