<svg width="16" height="16" viewBox="0 0 16 16" fill="none" xmlns="http://www.w3.org/2000/svg">
<mask id="mask0_12689_7442" style="mask-type:alpha" maskUnits="userSpaceOnUse" x="0" y="0" width="16" height="16">
<path fill-rule="evenodd" clip-rule="evenodd" d="M7.28672 2.56455C7.28666 2.56468 7.28679 2.56442 7.28672 2.56455L6.11469 4.90863C5.98979 5.16252 5.78119 5.37946 5.56695 5.53832C5.35209 5.69763 5.08509 5.83297 4.81035 5.87962L4.80859 5.87992L2.68218 6.23321C2.6821 6.23322 2.68226 6.23319 2.68218 6.23321C2.08911 6.33211 1.89591 6.56568 1.85128 6.70544C1.8065 6.8457 1.82887 7.14846 2.25353 7.57312L3.90687 9.22646C4.12179 9.44138 4.26556 9.72879 4.34484 10.0057C4.42418 10.2829 4.45385 10.6017 4.38787 10.896L4.38713 10.8993L3.91379 12.946C3.7375 13.7078 3.91581 13.9859 4.00636 14.0519C4.09731 14.1183 4.41755 14.2033 5.09147 13.8034L7.08853 12.6212C7.36583 12.4598 7.69788 12.3933 8.00248 12.3933C8.30655 12.3933 8.63876 12.4596 8.91468 12.6231C8.91462 12.623 8.91475 12.6231 8.91468 12.6231L10.9076 13.8028C10.9075 13.8028 10.9077 13.8029 10.9076 13.8028C11.587 14.2041 11.907 14.1194 11.9963 14.0543C12.0847 13.9898 12.263 13.7134 12.0861 12.9456L11.6121 10.896C11.5461 10.6017 11.5758 10.2829 11.6551 10.0057C11.7344 9.72879 11.8782 9.44138 12.0931 9.22646L13.7464 7.57312L13.7476 7.57192C14.1751 7.14736 14.1962 6.84542 14.1515 6.70635C14.1064 6.56617 13.9116 6.33223 13.318 6.23325C13.3179 6.23323 13.3181 6.23326 13.318 6.23325L11.1914 5.87991C10.9138 5.83365 10.6447 5.69883 10.4281 5.53901C10.2124 5.37985 10.0036 5.1627 9.87862 4.90867L8.70563 2.56268C8.4251 1.99866 8.14001 1.88501 7.99915 1.88501C7.85741 1.88501 7.57053 2.0001 7.28672 2.56455ZM9.60077 2.1169C9.24796 1.40781 8.69647 0.88501 7.99915 0.88501C7.30258 0.88501 6.74937 1.40691 6.39323 2.11547L5.21943 4.46307L5.21761 4.46674C5.1824 4.53865 5.0982 4.64098 4.97134 4.73504C4.84492 4.82878 4.72227 4.88008 4.64364 4.89361C4.64341 4.89365 4.64317 4.89369 4.64294 4.89373L2.51803 5.24677C1.75129 5.37456 1.10737 5.7477 0.898674 6.40125C0.690129 7.05432 0.997756 7.73156 1.54643 8.28023L3.19976 9.93356C3.26483 9.99863 3.33773 10.1212 3.38345 10.2809C3.42889 10.4397 3.43274 10.5837 3.41237 10.676C3.41228 10.6765 3.41218 10.6769 3.41208 10.6773L2.93952 12.7206C2.93951 12.7206 2.93952 12.7206 2.93952 12.7206C2.74249 13.5721 2.81083 14.4175 3.41693 14.8598C4.02265 15.3017 4.84908 15.11 5.60182 14.6633L7.59143 13.4855C7.59184 13.4853 7.59226 13.485 7.59268 13.4848C7.68216 13.4332 7.82956 13.3933 8.00248 13.3933C8.17667 13.3933 8.32104 13.4337 8.40508 13.4835L10.3986 14.6636C11.1523 15.1088 11.9797 15.3039 12.5854 14.8624C13.1919 14.4202 13.2569 13.5732 13.0605 12.7211L12.5879 10.6773C12.5878 10.6769 12.5877 10.6765 12.5876 10.676C12.5672 10.5837 12.5711 10.4397 12.6165 10.2809C12.6622 10.1212 12.7351 9.99863 12.8002 9.93356L14.4523 8.28143C14.4525 8.28121 14.4528 8.28098 14.453 8.28076C15.0051 7.7321 15.3137 7.05433 15.1035 6.40034C14.8936 5.7472 14.2484 5.37452 13.4822 5.24681L11.3555 4.89348C11.3554 4.89347 11.3556 4.89349 11.3555 4.89348M9.60077 2.1169C9.6007 2.11676 9.60085 2.11705 9.60077 2.1169V2.1169Z" fill="#062E46"/>
</mask>
<g mask="url(#mask0_12689_7442)">
<path d="M0 0H16V16H0V0Z" fill="#062E46"/>
</g>
</svg>
