<svg width="24" height="24" viewBox="0 0 24 24" fill="none" xmlns="http://www.w3.org/2000/svg">
<path fill-rule="evenodd" clip-rule="evenodd" d="M2.25 22C2.25 21.5858 2.58579 21.25 3 21.25H21C21.4142 21.25 21.75 21.5858 21.75 22C21.75 22.4142 21.4142 22.75 21 22.75H3C2.58579 22.75 2.25 22.4142 2.25 22Z" fill="#062E46"/>
<path fill-rule="evenodd" clip-rule="evenodd" d="M2.25 9.38C2.25 8.41579 3.03579 7.63 4 7.63H5.59998C6.56419 7.63 7.34998 8.41579 7.34998 9.38V18C7.34998 18.9642 6.56419 19.75 5.59998 19.75H4C3.03579 19.75 2.25 18.9642 2.25 18V9.38ZM4 9.13C3.86421 9.13 3.75 9.24422 3.75 9.38V18C3.75 18.1358 3.86421 18.25 4 18.25H5.59998C5.73576 18.25 5.84998 18.1358 5.84998 18V9.38C5.84998 9.24422 5.73576 9.13 5.59998 9.13H4Z" fill="#062E46"/>
<path fill-rule="evenodd" clip-rule="evenodd" d="M9.4502 6.18994C9.4502 5.22573 10.236 4.43994 11.2002 4.43994H12.8002C13.7644 4.43994 14.5502 5.22573 14.5502 6.18994V17.9999C14.5502 18.9642 13.7644 19.7499 12.8002 19.7499H11.2002C10.236 19.7499 9.4502 18.9642 9.4502 17.9999V6.18994ZM11.2002 5.93994C11.0644 5.93994 10.9502 6.05415 10.9502 6.18994V17.9999C10.9502 18.1357 11.0644 18.2499 11.2002 18.2499H12.8002C12.936 18.2499 13.0502 18.1357 13.0502 17.9999V6.18994C13.0502 6.05415 12.936 5.93994 12.8002 5.93994H11.2002Z" fill="#062E46"/>
<path fill-rule="evenodd" clip-rule="evenodd" d="M16.6504 3C16.6504 2.03579 17.4362 1.25 18.4004 1.25H20.0004C20.9646 1.25 21.7504 2.03579 21.7504 3V18C21.7504 18.9642 20.9646 19.75 20.0004 19.75H18.4004C17.4362 19.75 16.6504 18.9642 16.6504 18V3ZM18.4004 2.75C18.2646 2.75 18.1504 2.86421 18.1504 3V18C18.1504 18.1358 18.2646 18.25 18.4004 18.25H20.0004C20.1362 18.25 20.2504 18.1358 20.2504 18V3C20.2504 2.86421 20.1362 2.75 20.0004 2.75H18.4004Z" fill="#062E46"/>
</svg>
