<svg width="16" height="16" viewBox="0 0 16 16" fill="none" xmlns="http://www.w3.org/2000/svg">
<mask id="mask0_12689_7477" style="mask-type:alpha" maskUnits="userSpaceOnUse" x="0" y="0" width="16" height="16">
<path fill-rule="evenodd" clip-rule="evenodd" d="M7.9667 1.8667C4.50148 1.8667 1.76539 4.66869 1.83327 8.13691L1.83337 8.1467V12.2534C1.83337 13.2715 2.69042 14.1334 3.71337 14.1334C4.73722 14.1334 5.59337 13.2772 5.59337 12.2534V10.38C5.59337 9.9555 5.25695 9.65337 4.8667 9.65337C4.44217 9.65337 4.14003 9.98978 4.14003 10.38V12.3267C4.14003 12.6028 3.91618 12.8267 3.64003 12.8267C3.36389 12.8267 3.14003 12.6028 3.14003 12.3267V10.38C3.14003 9.47695 3.85123 8.65337 4.8667 8.65337C5.76978 8.65337 6.59337 9.36456 6.59337 10.38V12.2534C6.59337 13.8295 5.28951 15.1334 3.71337 15.1334C2.13632 15.1334 0.833367 13.8219 0.833367 12.2534V8.15151C0.757303 4.12869 3.94025 0.866699 7.9667 0.866699C11.9937 0.866699 15.1667 4.12811 15.1667 8.07337V12.18C15.1667 13.7562 13.8628 15.06 12.2867 15.06C10.7106 15.06 9.4067 13.7562 9.4067 12.18V10.3067C9.4067 9.40362 10.1179 8.58003 11.1334 8.58003C12.0364 8.58003 12.86 9.29123 12.86 10.3067V12.3267C12.86 12.6028 12.6362 12.8267 12.36 12.8267C12.0839 12.8267 11.86 12.6028 11.86 12.3267V10.3067C11.86 9.88216 11.5236 9.58003 11.1334 9.58003C10.7088 9.58003 10.4067 9.91645 10.4067 10.3067V12.18C10.4067 13.2039 11.2628 14.06 12.2867 14.06C13.3106 14.06 14.1667 13.2039 14.1667 12.18V8.07337C14.1667 4.67195 11.433 1.8667 7.9667 1.8667Z" fill="#062E46"/>
</mask>
<g mask="url(#mask0_12689_7477)">
<path d="M0 0H16V16H0V0Z" fill="#062E46"/>
</g>
</svg>
