<svg width="14" height="8" viewBox="0 0 14 8" fill="none" xmlns="http://www.w3.org/2000/svg">
<path d="M5.63244 7.2643C6.06812 6.85816 6.13521 6.22202 5.78229 5.84343C5.42937 5.46483 4.79009 5.48716 4.35441 5.89329C3.91874 6.29943 3.85165 6.93557 4.20457 7.31416C4.55749 7.69275 5.19677 7.67043 5.63244 7.2643Z" fill="white"/>
<path d="M11.3975 7.26454C11.8331 6.85841 11.9002 6.22226 11.5473 5.84367C11.1944 5.46508 10.5551 5.4874 10.1194 5.89354C9.68375 6.29967 9.61666 6.93582 9.96958 7.31441C10.3225 7.693 10.9618 7.67067 11.3975 7.26454Z" fill="white"/>
<path d="M1.06112 2.29362C1.06112 2.0422 0.857304 1.83838 0.605879 1.83838C0.354455 1.83838 0.150635 2.0422 0.150635 2.29362C0.150635 2.54505 0.354455 2.74887 0.605879 2.74887C0.857304 2.74887 1.06112 2.54505 1.06112 2.29362Z" fill="white"/>
<path d="M9.24406 6.48354C9.4059 5.6837 10.1615 5.04809 10.9736 5.04809C11.7556 5.04809 12.3192 5.63757 12.3037 6.39556C13.1494 6.41769 13.3849 5.30404 13.3849 5.30404C13.456 4.99263 13.5624 4.38555 13.6515 3.78966C13.6807 3.60569 13.6582 3.41722 13.5867 3.24524C13.3656 2.72918 13.0985 2.23411 12.7884 1.76606C12.4952 1.32854 12.0033 1.06939 11.4418 1.06006C11.1069 1.05473 10.7782 1.05153 10.5299 1.05153L10.5278 1.0494C10.4958 0.514033 10.1055 0.10398 9.5576 0.0549226C9.20114 0.0231954 7.78915 0 7.11141 0C6.84213 0 6.45581 0.00373254 6.06495 0.0101313V0.00853167H1.3624C1.30259 0.00849662 1.24336 0.0202513 1.18809 0.0431237C1.13283 0.0659962 1.08261 0.0995378 1.04032 0.141831C0.998029 0.184123 0.964488 0.234338 0.941615 0.289603C0.918743 0.344868 0.906988 0.404099 0.907023 0.46391V0.466043C0.907023 0.586251 0.954776 0.701536 1.03978 0.786536C1.12478 0.871536 1.24006 0.919288 1.36027 0.919288H2.30755C2.42162 0.927698 2.52828 0.978921 2.60616 1.06268C2.68404 1.14645 2.72737 1.25656 2.72747 1.37093V1.37333C2.72764 1.4332 2.71601 1.49252 2.69324 1.54789C2.67047 1.60325 2.637 1.65359 2.59475 1.69601C2.55251 1.73843 2.50231 1.7721 2.44703 1.7951C2.39176 1.8181 2.33249 1.82997 2.27262 1.83004H1.78685C1.66615 1.83004 1.55039 1.87799 1.46504 1.96334C1.37969 2.04869 1.33174 2.16445 1.33174 2.28516C1.33171 2.34494 1.34345 2.40415 1.36631 2.4594C1.38916 2.51465 1.42268 2.56485 1.46495 2.60714C1.50721 2.64943 1.55739 2.68298 1.61263 2.70587C1.66786 2.72875 1.72706 2.74053 1.78685 2.74053H2.27262C2.3934 2.74053 2.50922 2.78851 2.59462 2.87391C2.68002 2.95931 2.728 3.07514 2.728 3.19591C2.728 3.31669 2.68002 3.43251 2.59462 3.51791C2.50922 3.60331 2.3934 3.65129 2.27262 3.65129H0.455378C0.33465 3.65129 0.218864 3.69923 0.133471 3.78457C0.0480791 3.86992 7.06836e-05 3.98567 0 4.1064C0 4.22718 0.0479772 4.343 0.133377 4.4284C0.218777 4.5138 0.334604 4.56178 0.455378 4.56178H2.27262C2.3934 4.56178 2.50922 4.60976 2.59462 4.69516C2.68002 4.78056 2.728 4.89639 2.728 5.01716C2.72786 5.13784 2.67982 5.25353 2.59444 5.33882C2.50905 5.4241 2.3933 5.472 2.27262 5.472H1.7106C1.5899 5.472 1.47414 5.51995 1.38879 5.6053C1.30344 5.69065 1.25549 5.80641 1.25549 5.92712C1.25549 6.04784 1.30343 6.16363 1.38877 6.24902C1.47411 6.33442 1.58987 6.38242 1.7106 6.38249L3.50385 6.38116L3.65289 6.00977C3.95816 5.44668 4.56551 5.04782 5.20858 5.04782C6.02096 5.04782 6.59791 5.68396 6.53446 6.48434H9.2438M4.72735 2.042H4.11626C4.11569 2.04205 4.11514 2.04228 4.11471 2.04267C4.11427 2.04305 4.11398 2.04357 4.11386 2.04414L4.05761 2.44406C4.05753 2.44438 4.05752 2.44472 4.05759 2.44504C4.05766 2.44536 4.0578 2.44567 4.05801 2.44593C4.05822 2.44618 4.05848 2.44639 4.05878 2.44653C4.05908 2.44667 4.05941 2.44674 4.05974 2.44672H4.51459C4.53691 2.44609 4.5591 2.45045 4.57953 2.45947C4.59996 2.4685 4.61811 2.48198 4.63267 2.49891C4.64723 2.51585 4.65783 2.53582 4.66369 2.55737C4.66955 2.57892 4.67053 2.60151 4.66656 2.62349C4.65876 2.6718 4.63437 2.71588 4.59758 2.74814C4.56079 2.78041 4.51391 2.79883 4.465 2.80026H4.00962C4.00906 2.80024 4.00852 2.80042 4.00809 2.80076C4.00765 2.8011 4.00734 2.80158 4.00722 2.80212L3.92563 3.38308C3.91784 3.43138 3.89345 3.47546 3.85666 3.50773C3.81987 3.53999 3.77299 3.55842 3.72407 3.55984C3.70176 3.56049 3.67958 3.55613 3.65916 3.5471C3.63874 3.53807 3.62059 3.52459 3.60605 3.50765C3.59151 3.49071 3.58094 3.47073 3.57511 3.44917C3.56929 3.42762 3.56835 3.40504 3.57237 3.38308L3.78406 1.87617C3.79245 1.82515 3.81831 1.77864 3.85723 1.74459C3.89614 1.71054 3.94567 1.69108 3.99735 1.68954H4.77667C4.79899 1.6889 4.82117 1.69325 4.84159 1.70228C4.86201 1.71131 4.88015 1.72479 4.89469 1.74173C4.90923 1.75867 4.9198 1.77865 4.92563 1.80021C4.93146 1.82176 4.93239 1.84434 4.92837 1.8663C4.92047 1.91437 4.89609 1.95819 4.85941 1.99025C4.82273 2.02231 4.77604 2.04061 4.72735 2.042ZM6.36063 1.80952C6.42411 1.86584 6.46878 1.94029 6.4886 2.02281C6.51077 2.11629 6.51439 2.21321 6.49927 2.30809C6.48073 2.45571 6.42031 2.59495 6.32517 2.70934C6.26706 2.77804 6.19326 2.83172 6.11001 2.86584C6.10963 2.86624 6.10943 2.86676 6.10943 2.86731C6.10943 2.86786 6.10963 2.86838 6.11001 2.86878L6.26145 3.30576C6.30224 3.42307 6.19746 3.55984 6.06708 3.55984H6.05855C6.02692 3.56077 5.99582 3.55161 5.96974 3.53368C5.94367 3.51575 5.92397 3.48999 5.91351 3.46013L5.73035 2.9269C5.73009 2.9265 5.72973 2.92617 5.72932 2.92593C5.7289 2.9257 5.72843 2.92558 5.72795 2.92557H5.33869C5.33815 2.9256 5.33763 2.92579 5.3372 2.92612C5.33677 2.92646 5.33646 2.92691 5.33629 2.92743L5.27231 3.38281C5.26451 3.43112 5.24012 3.4752 5.20333 3.50746C5.16654 3.53972 5.11966 3.55815 5.07074 3.55958C5.04843 3.56022 5.02625 3.55587 5.00583 3.54684C4.98541 3.53781 4.96726 3.52433 4.95272 3.50738C4.93818 3.49044 4.92761 3.47046 4.92178 3.44891C4.91596 3.42736 4.91502 3.40477 4.91904 3.38281L5.13073 1.8759C5.13912 1.82488 5.16499 1.77837 5.2039 1.74432C5.24281 1.71027 5.29234 1.69081 5.34402 1.68927H5.94657C5.94657 1.68927 6.21106 1.68101 6.36063 1.80952ZM8.01897 1.85377C8.01172 1.8989 7.98895 1.94008 7.95459 1.9702C7.92023 2.00033 7.87642 2.01752 7.83074 2.01881H7.12981C7.12927 2.01884 7.12875 2.01903 7.12832 2.01937C7.12789 2.0197 7.12757 2.02016 7.12741 2.02067L7.07169 2.41633C7.0716 2.41665 7.0716 2.41699 7.07167 2.41731C7.07174 2.41764 7.07188 2.41794 7.07209 2.4182C7.07229 2.41846 7.07256 2.41866 7.07286 2.4188C7.07316 2.41894 7.07349 2.41901 7.07382 2.419H7.61825C7.6391 2.41838 7.65982 2.42243 7.6789 2.43085C7.69799 2.43927 7.71495 2.45186 7.72854 2.46767C7.74214 2.48349 7.75203 2.50215 7.75748 2.52228C7.76294 2.54241 7.76383 2.56351 7.76009 2.58403C7.75284 2.62915 7.73007 2.67033 7.69571 2.70046C7.66134 2.73059 7.61754 2.74778 7.57186 2.74907H7.02716C7.02662 2.7491 7.0261 2.74929 7.02567 2.74962C7.02524 2.74996 7.02493 2.75041 7.02476 2.75093L6.95784 3.22711C6.95784 3.22777 6.95808 3.22841 6.95853 3.2289C6.95897 3.2294 6.95958 3.22971 6.96024 3.22977H7.66064C7.68149 3.22916 7.70221 3.23321 7.7213 3.24163C7.74038 3.25005 7.75734 3.26263 7.77093 3.27845C7.78453 3.29427 7.79442 3.31293 7.79987 3.33306C7.80533 3.35319 7.80622 3.37429 7.80248 3.39481C7.79523 3.43993 7.77246 3.48111 7.7381 3.51124C7.70373 3.54137 7.65993 3.55856 7.61425 3.55984H6.74509C6.72163 3.56017 6.6984 3.55534 6.67702 3.54569C6.65564 3.53604 6.63665 3.5218 6.62139 3.504C6.60612 3.48619 6.59496 3.46524 6.58869 3.44264C6.58243 3.42004 6.5812 3.39634 6.58512 3.37321L6.79548 1.87697C6.80386 1.82595 6.82973 1.77943 6.86864 1.74539C6.90755 1.71134 6.95709 1.69188 7.00877 1.69034H7.87766C7.89831 1.68985 7.91881 1.69393 7.93769 1.7023C7.95657 1.71066 7.97336 1.7231 7.98687 1.73872C8.00037 1.75435 8.01026 1.77276 8.01581 1.79265C8.02136 1.81254 8.02244 1.83342 8.01897 1.85377ZM9.47495 1.85377C9.46771 1.8989 9.44494 1.94008 9.41057 1.9702C9.37621 2.00033 9.33241 2.01752 9.28672 2.01881H8.58579C8.58525 2.01884 8.58473 2.01903 8.5843 2.01937C8.58387 2.0197 8.58356 2.02016 8.58339 2.02067L8.52794 2.41633C8.52785 2.41665 8.52785 2.41699 8.52792 2.41731C8.52799 2.41764 8.52813 2.41794 8.52834 2.4182C8.52854 2.41846 8.52881 2.41866 8.52911 2.4188C8.52941 2.41894 8.52974 2.41901 8.53007 2.419H9.0745C9.09535 2.41838 9.11607 2.42243 9.13515 2.43085C9.15424 2.43927 9.1712 2.45186 9.18479 2.46767C9.19839 2.48349 9.20827 2.50215 9.21373 2.52228C9.21919 2.54241 9.22008 2.56351 9.21634 2.58403C9.20909 2.62915 9.18632 2.67033 9.15196 2.70046C9.11759 2.73059 9.07379 2.74778 9.02811 2.74907H8.48315C8.4826 2.7491 8.48208 2.74929 8.48165 2.74962C8.48123 2.74996 8.48091 2.75041 8.48075 2.75093L8.41383 3.22711C8.41382 3.22777 8.41407 3.22841 8.41451 3.2289C8.41495 3.2294 8.41557 3.22971 8.41623 3.22977H9.11662C9.13747 3.22916 9.1582 3.23321 9.17728 3.24163C9.19636 3.25005 9.21332 3.26263 9.22692 3.27845C9.24051 3.29427 9.2504 3.31293 9.25586 3.33306C9.26132 3.35319 9.26221 3.37429 9.25846 3.39481C9.25121 3.43993 9.22844 3.48111 9.19408 3.51124C9.15972 3.54137 9.11591 3.55856 9.07023 3.55984H8.20107C8.17762 3.56017 8.15438 3.55534 8.133 3.54569C8.11163 3.53604 8.09263 3.5218 8.07737 3.504C8.06211 3.48619 8.05095 3.46524 8.04468 3.44264C8.03841 3.42004 8.03719 3.39634 8.0411 3.37321L8.25146 1.87697C8.25985 1.82595 8.28571 1.77943 8.32462 1.74539C8.36353 1.71134 8.41307 1.69188 8.46475 1.69034H9.33365C9.35429 1.68985 9.37479 1.69393 9.39367 1.7023C9.41255 1.71066 9.42934 1.7231 9.44285 1.73872C9.45636 1.75435 9.46624 1.77276 9.47179 1.79265C9.47734 1.81254 9.47842 1.83342 9.47495 1.85377ZM10.4881 1.68287C10.7262 1.68287 11.0344 1.68607 11.3437 1.69114C11.7185 1.69727 12.0465 1.8695 12.2432 2.16331C12.4534 2.48016 12.6423 2.8106 12.8087 3.15245C12.8967 3.33162 12.7348 3.56491 12.5229 3.56491H10.25L10.4881 1.68287Z" fill="white"/>
<path d="M5.80382 2.59577H5.38257L5.46255 2.01882H5.88354C5.88354 2.01882 6.19254 1.99882 6.14189 2.3073C6.14322 2.3073 6.10776 2.59577 5.80382 2.59577Z" fill="white"/>
</svg>
