<svg width="12" height="12" viewBox="0 0 12 12" fill="none" xmlns="http://www.w3.org/2000/svg">
<path d="M5.98836 2.94048C4.29382 2.94048 2.90535 4.32896 2.90535 6.02337C2.90535 7.71778 4.29382 9.10638 5.98836 9.10638C7.6829 9.10638 9.07137 7.71791 9.07137 6.02337C9.07137 4.32896 7.68277 2.94048 5.98836 2.94048ZM6.22369 6.82346L5.66739 7.37988C5.62767 7.41955 5.57384 7.44183 5.5177 7.44183C5.46157 7.44183 5.40774 7.41955 5.36802 7.37988L4.27892 6.29078C4.23925 6.25106 4.21697 6.19723 4.21697 6.1411C4.21697 6.08496 4.23925 6.03113 4.27892 5.99141L4.6854 5.5848C4.72513 5.54509 4.77899 5.52279 4.83515 5.52279C4.89131 5.52279 4.94518 5.54509 4.9849 5.5848L5.5177 6.1176L6.99169 4.66471C7.0315 4.62548 7.0852 4.60358 7.14108 4.60377C7.19697 4.60396 7.25051 4.62623 7.29006 4.66572L7.69654 5.07233C7.71631 5.09209 7.73197 5.11556 7.74262 5.14139C7.75327 5.16723 7.75871 5.19491 7.75861 5.22286C7.75852 5.2508 7.7529 5.27845 7.74207 5.30421C7.73124 5.32998 7.71543 5.35334 7.69553 5.37296L6.22369 6.82346ZM5.98836 2.94048C4.29382 2.94048 2.90535 4.32896 2.90535 6.02337C2.90535 7.71778 4.29382 9.10638 5.98836 9.10638C7.6829 9.10638 9.07137 7.71791 9.07137 6.02337C9.07137 4.32896 7.68277 2.94048 5.98836 2.94048ZM6.22369 6.82346L5.66739 7.37988C5.62767 7.41955 5.57384 7.44183 5.5177 7.44183C5.46157 7.44183 5.40774 7.41955 5.36802 7.37988L4.27892 6.29078C4.23925 6.25106 4.21697 6.19723 4.21697 6.1411C4.21697 6.08496 4.23925 6.03113 4.27892 5.99141L4.6854 5.5848C4.72513 5.54509 4.77899 5.52279 4.83515 5.52279C4.89131 5.52279 4.94518 5.54509 4.9849 5.5848L5.5177 6.1176L6.99169 4.66471C7.0315 4.62548 7.0852 4.60358 7.14108 4.60377C7.19697 4.60396 7.25051 4.62623 7.29006 4.66572L7.69654 5.07233C7.71631 5.09209 7.73197 5.11556 7.74262 5.14139C7.75327 5.16723 7.75871 5.19491 7.75861 5.22286C7.75852 5.2508 7.7529 5.27845 7.74207 5.30421C7.73124 5.32998 7.71543 5.35334 7.69553 5.37296L6.22369 6.82346ZM5.98836 2.94048C4.29382 2.94048 2.90535 4.32896 2.90535 6.02337C2.90535 7.71778 4.29382 9.10638 5.98836 9.10638C7.6829 9.10638 9.07137 7.71791 9.07137 6.02337C9.07137 4.32896 7.68277 2.94048 5.98836 2.94048ZM6.22369 6.82346L5.66739 7.37988C5.62767 7.41955 5.57384 7.44183 5.5177 7.44183C5.46157 7.44183 5.40774 7.41955 5.36802 7.37988L4.27892 6.29078C4.23925 6.25106 4.21697 6.19723 4.21697 6.1411C4.21697 6.08496 4.23925 6.03113 4.27892 5.99141L4.6854 5.5848C4.72513 5.54509 4.77899 5.52279 4.83515 5.52279C4.89131 5.52279 4.94518 5.54509 4.9849 5.5848L5.5177 6.1176L6.99169 4.66471C7.0315 4.62548 7.0852 4.60358 7.14108 4.60377C7.19697 4.60396 7.25051 4.62623 7.29006 4.66572L7.69654 5.07233C7.71631 5.09209 7.73197 5.11556 7.74262 5.14139C7.75327 5.16723 7.75871 5.19491 7.75861 5.22286C7.75852 5.2508 7.7529 5.27845 7.74207 5.30421C7.73124 5.32998 7.71543 5.35334 7.69553 5.37296L6.22369 6.82346ZM11.4954 7.05891C11.3306 6.77647 11.3777 6.39992 11.5895 6.1411L11.8013 5.90577C12.1073 5.55271 12.0603 5.01145 11.6601 4.729L11.4012 4.56428C11.1188 4.37607 11.0011 4.02302 11.0952 3.69358L11.1895 3.38752C11.3306 2.94036 11.0246 2.4697 10.5541 2.39909L10.248 2.3521C9.91858 2.30498 9.65963 2.04616 9.58902 1.71672L9.54203 1.41066C9.47129 0.940002 9.00076 0.657558 8.52998 0.79878L8.22404 0.893013C7.89461 0.987119 7.54155 0.869391 7.35334 0.586947L7.16513 0.32825C6.88268 -0.0481738 6.34142 -0.118911 5.98836 0.210523L5.75303 0.422356C5.49408 0.657684 5.14115 0.704801 4.83522 0.540083L4.55277 0.398861C4.1291 0.163533 3.61133 0.351745 3.44661 0.798907L3.32901 1.08135C3.21129 1.38729 2.88185 1.59912 2.55229 1.57563L2.29347 1.52851C1.82281 1.50502 1.42277 1.90494 1.46988 2.37572L1.49325 2.68166C1.51687 3.01122 1.32853 3.34065 0.999101 3.45825L0.716656 3.57598C0.269495 3.76419 0.104778 4.28209 0.340232 4.68214L0.504823 4.94096C0.669666 5.2234 0.62255 5.59995 0.410717 5.85878L0.198884 6.09411C-0.107056 6.44716 -0.0600657 6.98843 0.340106 7.27087L0.599055 7.43559C0.881373 7.6238 0.999101 7.97686 0.904995 8.30629L0.810762 8.61236C0.669666 9.05952 0.975606 9.53018 1.44614 9.60079L1.7522 9.64778C2.08164 9.69489 2.34058 9.95372 2.4112 10.2831L2.45819 10.5892C2.52892 11.0599 2.99945 11.3423 3.47024 11.2011L3.77618 11.1069C4.10561 11.0128 4.45866 11.1305 4.64688 11.4129L4.83509 11.6718C5.11753 12.0482 5.6588 12.1189 6.01186 11.7895L6.24718 11.5776C6.50613 11.3423 6.85906 11.2952 7.165 11.4599L7.44745 11.6011C7.87111 11.8365 8.38888 11.6483 8.5536 11.2011L8.6712 10.9186C8.78893 10.6127 9.11836 10.4009 9.44792 10.4244L9.75386 10.448C10.2245 10.4715 10.6246 10.0714 10.5774 9.60079L10.554 9.29485C10.5305 8.96529 10.7187 8.63585 11.0482 8.51812L11.3306 8.40052C11.7777 8.21231 11.9426 7.69441 11.7071 7.29437L11.4954 7.05891ZM5.98836 9.97721C3.79967 9.97721 2.01102 8.18856 2.01102 5.99987C2.01102 3.81118 3.79967 2.02254 5.98836 2.02254C8.17705 2.02254 9.96557 3.81118 9.96557 5.99987C9.96557 8.21206 8.17693 9.97721 5.98836 9.97721Z" fill="white"/>
</svg>
