<svg width="7" height="10" viewBox="0 0 7 10" fill="none" xmlns="http://www.w3.org/2000/svg">
<path d="M5.72226 4.66938L5.15888 4.08728L3.69535 2.5752L3.30908 9.99997C5.13663 9.99997 6.61812 8.58289 6.61812 6.8348C6.61812 5.9971 6.27774 5.23554 5.72226 4.66938Z" fill="#046814"/>
<path d="M5.84555 6.83489C5.84555 5.99719 5.59514 5.23563 5.18647 4.66947L3.69531 2.57529L3.30904 2.20581L2.92277 2.57529L1.45925 4.08738L0.895862 4.66947C0.340381 5.23563 0 5.99719 0 6.83489C0 8.58298 1.4815 10.0001 3.30904 10.0001C4.70991 10.0001 5.84555 8.58298 5.84555 6.83489Z" fill="#046814"/>
<path d="M3.69535 1.83618H2.92281V2.57513H3.69535C3.90867 2.57513 4.08162 2.40971 4.08162 2.20566C4.08162 2.00161 3.90867 1.83618 3.69535 1.83618Z" fill="#237D14"/>
<path d="M2.92281 2.57513C3.13614 2.57513 3.30904 2.40971 3.30904 2.20566C3.30904 2.0016 3.13614 1.83618 2.92281 1.83618C2.70948 1.83618 2.5365 2.0016 2.5365 2.20566C2.5365 2.40971 2.70948 2.57513 2.92281 2.57513Z" fill="#237D14"/>
<path d="M3.30896 9.26113C4.70984 9.26113 5.84547 8.17488 5.84547 6.83491C5.84547 5.49495 4.70984 4.40869 3.30896 4.40869C1.90809 4.40869 0.772461 5.49495 0.772461 6.83491C0.772461 8.17488 1.90809 9.26113 3.30896 9.26113Z" fill="#FFCF12"/>
<path d="M3.30908 5.14746V8.522C4.28328 8.522 5.07305 7.76657 5.07305 6.83473C5.07305 5.90289 4.28331 5.14746 3.30908 5.14746Z" fill="#FFF7DB"/>
<path d="M4.38425 6.83473C4.38425 5.90289 3.9029 5.14746 3.30913 5.14746C2.33491 5.14746 1.54517 5.90289 1.54517 6.83473C1.54517 7.76657 2.33491 8.522 3.30913 8.522C3.9029 8.522 4.38425 7.76657 4.38425 6.83473Z" fill="white"/>
<path d="M1.39055 0.203659C1.50162 1.12341 2.31745 1.83627 3.30902 1.83627C3.30902 0.887804 2.56376 0.107448 1.6022 0.00121171C1.48076 -0.0121879 1.37652 0.0874965 1.39055 0.203659Z" fill="#046814"/>
<path d="M5.01588 0.00121172C4.691 0.0370039 4.38105 0.151546 4.11541 0.333986L3.30908 1.83625C4.30066 1.83625 5.11649 1.12338 5.22755 0.203635C5.24154 0.0874965 5.13732 -0.0121879 5.01588 0.00121172Z" fill="#046814"/>
<path d="M4.11541 0.333986C3.6269 0.668952 3.30908 1.21676 3.30908 1.83625C3.83449 1.83625 4.27736 1.28019 4.41963 0.516752C4.45018 0.352778 4.25694 0.236937 4.11541 0.333986Z" fill="#046814"/>
<path d="M2.92273 6.09373V7.57586C2.92273 7.65946 2.98106 7.73392 3.0658 7.75437C3.14532 7.77351 3.227 7.78317 3.309 7.78311C3.39292 7.78311 3.47437 7.77314 3.55219 7.75437C3.63694 7.73392 3.69527 7.65946 3.69527 7.57586V6.09373C3.69527 6.01013 3.63694 5.93566 3.55219 5.91522C3.47268 5.89608 3.39099 5.88642 3.309 5.88647C3.22508 5.88647 3.14362 5.89645 3.0658 5.91522C2.98106 5.93566 2.92273 6.01013 2.92273 6.09373Z" fill="#FFCB00"/>
</svg>
