<svg width="14" height="18" viewBox="0 0 14 18" fill="none" xmlns="http://www.w3.org/2000/svg">
<path d="M12.9638 9.64658C12.9378 9.49023 12.8856 9.33388 12.8856 9.17752C12.4427 6.88436 11.1137 4.77362 10.5143 2.50651C9.99314 3.23616 9.68044 4.14821 9.68044 5.0342C9.68044 5.39902 9.70649 5.86808 9.44591 6.12866C8.03874 7.56189 6.26676 1.72476 6.70975 0.578176C6.70975 0.552117 6.70975 0.5 6.73581 0.5C5.09412 1.35993 4.49477 3.34039 4.78141 5.06026C4.91171 5.9202 4.80747 6.75407 4.70324 7.61401V7.71824C4.70324 7.79642 4.70324 7.87459 4.67718 7.95277C4.67718 7.97883 4.65112 8.03094 4.65112 8.08306H4.67718C4.65112 8.23941 4.599 8.42182 4.54689 8.57818C4.54689 8.57818 4.52083 8.60423 4.52083 8.65635C4.44265 8.76059 4.41659 8.86482 4.36448 8.96906L4.31236 9.02117C4.31236 9.04723 4.2863 9.04723 4.2863 9.09935C4.20812 9.20358 4.15601 9.2557 4.07783 9.33388C4.07783 9.33388 4.05177 9.35993 3.99966 9.35993C3.27001 9.62052 3.66089 8.00489 3.68695 7.69218C3.76513 7.19707 3.81724 6.70195 3.8433 6.18078C3.8433 5.9202 3.86936 5.68567 3.8433 5.42508C3.81724 4.56515 3.00943 3.41857 3.00943 3.62704C2.98337 4.90391 2.07132 6.02443 1.55014 7.09283C0.950795 8.36971 0.429623 9.93322 0.507799 11.3664C0.612033 12.93 1.49803 14.8062 2.80096 15.7443C3.19184 16.057 3.63483 16.2655 4.12995 16.4739C4.15601 16.4739 4.20812 16.5 4.23418 16.5H4.31236C3.86936 16.057 3.86936 15.0147 3.89542 14.4935C3.92148 13.399 4.23418 12.3046 4.93777 11.4186C5.40682 10.8453 6.00617 10.3762 6.57946 9.88111C6.73581 9.72476 6.91822 9.5684 7.04851 9.41205L7.12669 9.33388C7.56969 8.86482 7.88239 8.29153 8.0648 7.56189C8.09086 7.32736 8.74233 8.73453 8.55992 9.67264C8.42962 10.5326 8.11692 11.3143 7.85633 12.07C7.7521 12.3827 6.9964 14.0244 7.83027 13.9463C7.98663 13.9202 8.14298 13.816 8.22115 13.7117C8.48174 13.4511 8.71627 13.0863 8.84656 12.7215C8.97685 12.3567 9.44591 12.2524 9.70649 12.5651C9.78467 12.6433 9.81073 12.6954 9.83679 12.7736C10.0974 13.1384 10.3058 13.5293 10.4101 13.9723C10.5404 14.4674 10.5404 15.0147 10.4101 15.5358L10.1756 16.2394C10.3058 16.1612 10.4361 16.1091 10.5664 16.0309C10.6707 15.9528 10.7749 15.9007 10.9052 15.8746C12.9638 14.4935 13.3286 12.044 12.9638 9.64658Z" fill="#FFF200" stroke="#E0004D"/>
</svg>
