<svg width="19" height="19" viewBox="0 0 19 19" fill="none" xmlns="http://www.w3.org/2000/svg">
<path fill-rule="evenodd" clip-rule="evenodd" d="M12.2948 2.81015C12.5267 3.04203 12.5267 3.41797 12.2948 3.64984L7.13314 8.81151C6.75543 9.18922 6.75543 9.81078 7.13314 10.1885L12.2948 15.3502C12.5267 15.582 12.5267 15.958 12.2948 16.1898C12.0629 16.4217 11.687 16.4217 11.4551 16.1898L6.29345 11.0282C5.45199 10.1867 5.45199 8.81328 6.29345 7.97182L11.4551 2.81015C11.687 2.57828 12.0629 2.57828 12.2948 2.81015Z" fill="#DD7055"/>
<path fill-rule="evenodd" clip-rule="evenodd" d="M14.5276 5.7376C14.6627 5.87273 14.6627 6.09181 14.5276 6.22694L11.5195 9.23502C11.2994 9.45514 11.2994 9.81736 11.5195 10.0375L14.5276 13.0456C14.6627 13.1807 14.6627 13.3998 14.5276 13.5349C14.3924 13.67 14.1733 13.67 14.0382 13.5349L11.0301 10.5268C10.5398 10.0365 10.5398 9.23605 11.0301 8.74567L14.0382 5.7376C14.1733 5.60247 14.3924 5.60247 14.5276 5.7376Z" fill="#DD7055"/>
</svg>
