<svg width="24" height="24" viewBox="0 0 24 24" fill="none" xmlns="http://www.w3.org/2000/svg">
<path fill-rule="evenodd" clip-rule="evenodd" d="M5.26972 8.90991C5.26972 5.1857 8.2955 2.15991 12.0197 2.15991C15.7339 2.15991 18.7697 5.1957 18.7697 8.90991V11.7999C18.7697 12.0148 18.8184 12.3293 18.9105 12.6653C19.0015 12.9973 19.1191 13.2923 19.2262 13.4796L20.3728 15.384C21.2784 16.8933 20.5545 18.8594 18.8863 19.4116C14.4223 20.9028 9.60593 20.9027 5.14205 19.4113L5.13927 19.4103C4.29686 19.1252 3.6651 18.5357 3.38264 17.7728C3.09984 17.0091 3.19604 16.1495 3.65708 15.3832L4.80551 13.4759C4.80576 13.4754 4.80601 13.475 4.80627 13.4746C4.91577 13.2905 5.03573 12.9965 5.12829 12.6631C5.22114 12.3286 5.26972 12.0145 5.26972 11.7999V8.90991ZM12.0197 3.65991C9.12393 3.65991 6.76972 6.01413 6.76972 8.90991V11.7999C6.76972 12.1953 6.68829 12.6513 6.57364 13.0643C6.45892 13.4775 6.29422 13.908 6.09393 14.244L6.09225 14.2468L4.94236 16.1566C4.94232 16.1566 4.94239 16.1565 4.94236 16.1566C4.6935 16.5703 4.67961 16.9558 4.7893 17.252C4.89922 17.5488 5.16206 17.8341 5.61883 17.989C9.77417 19.377 14.2568 19.3769 18.4121 17.9886L18.4143 17.9878C19.1651 17.7396 19.5007 16.8467 19.0869 16.1563C19.0868 16.1561 19.087 16.1565 19.0869 16.1563L17.93 14.2348C17.7379 13.9018 17.577 13.4743 17.4639 13.062C17.3511 12.6506 17.2697 12.1951 17.2697 11.7999V8.90991C17.2697 6.02413 14.9055 3.65991 12.0197 3.65991Z" fill="#062E46"/>
<path fill-rule="evenodd" clip-rule="evenodd" d="M9.47164 2.92629C9.87109 1.90701 10.8628 1.18994 12.0199 1.18994C13.1771 1.18994 14.1688 1.90701 14.5682 2.92629C14.6725 3.19236 14.6165 3.49457 14.4238 3.70562C14.2311 3.91667 13.9353 3.99988 13.6608 3.9202C13.3834 3.83966 13.1034 3.77889 12.8197 3.74449L12.8169 3.74415C11.9525 3.6361 11.1357 3.70023 10.3793 3.92013C10.1048 3.99991 9.80888 3.91676 9.61614 3.70571C9.42339 3.49466 9.36736 3.1924 9.47164 2.92629Z" fill="#062E46"/>
<path fill-rule="evenodd" clip-rule="evenodd" d="M9.76953 19.0599C9.76953 19.6725 10.0243 20.2441 10.4299 20.6496C10.8354 21.0551 11.407 21.3099 12.0195 21.3099C13.2553 21.3099 14.2695 20.2957 14.2695 19.0599H15.7695C15.7695 21.1242 14.0837 22.8099 12.0195 22.8099C10.992 22.8099 10.0437 22.3847 9.3692 21.7103C8.69473 21.0358 8.26953 20.0874 8.26953 19.0599H9.76953Z" fill="#062E46"/>
</svg>
