<svg width="24" height="26" viewBox="0 0 24 26" fill="none" xmlns="http://www.w3.org/2000/svg">
<path d="M6.95758 11.2299H4.9697C2.56437 11.2299 1.24243 9.84052 1.24243 7.31248V5.2232C1.24243 2.69516 2.56437 1.30579 4.9697 1.30579H6.95758C9.36292 1.30579 10.6849 2.69516 10.6849 5.2232V7.31248C10.6849 9.84052 9.36292 11.2299 6.95758 11.2299ZM4.9697 2.87275C3.39928 2.87275 2.73334 3.57266 2.73334 5.2232V7.31248C2.73334 8.96302 3.39928 9.66293 4.9697 9.66293H6.95758C8.52801 9.66293 9.19395 8.96302 9.19395 7.31248V5.2232C9.19395 3.57266 8.52801 2.87275 6.95758 2.87275H4.9697Z" fill="#666666"/>
<path d="M18.885 11.2299H16.8971C14.4917 11.2299 13.1698 9.84052 13.1698 7.31248V5.2232C13.1698 2.69516 14.4917 1.30579 16.8971 1.30579H18.885C21.2903 1.30579 22.6122 2.69516 22.6122 5.2232V7.31248C22.6122 9.84052 21.2903 11.2299 18.885 11.2299ZM16.8971 2.87275C15.3266 2.87275 14.6607 3.57266 14.6607 5.2232V7.31248C14.6607 8.96302 15.3266 9.66293 16.8971 9.66293H18.885C20.4554 9.66293 21.1213 8.96302 21.1213 7.31248V5.2232C21.1213 3.57266 20.4554 2.87275 18.885 2.87275H16.8971Z" fill="#666666"/>
<path d="M18.885 23.7656H16.8971C14.4917 23.7656 13.1698 22.3762 13.1698 19.8482V17.7589C13.1698 15.2309 14.4917 13.8415 16.8971 13.8415H18.885C21.2903 13.8415 22.6122 15.2309 22.6122 17.7589V19.8482C22.6122 22.3762 21.2903 23.7656 18.885 23.7656ZM16.8971 15.4085C15.3266 15.4085 14.6607 16.1084 14.6607 17.7589V19.8482C14.6607 21.4987 15.3266 22.1986 16.8971 22.1986H18.885C20.4554 22.1986 21.1213 21.4987 21.1213 19.8482V17.7589C21.1213 16.1084 20.4554 15.4085 18.885 15.4085H16.8971Z" fill="#666666"/>
<path d="M6.95758 23.7656H4.9697C2.56437 23.7656 1.24243 22.3762 1.24243 19.8482V17.7589C1.24243 15.2309 2.56437 13.8415 4.9697 13.8415H6.95758C9.36292 13.8415 10.6849 15.2309 10.6849 17.7589V19.8482C10.6849 22.3762 9.36292 23.7656 6.95758 23.7656ZM4.9697 15.4085C3.39928 15.4085 2.73334 16.1084 2.73334 17.7589V19.8482C2.73334 21.4987 3.39928 22.1986 4.9697 22.1986H6.95758C8.52801 22.1986 9.19395 21.4987 9.19395 19.8482V17.7589C9.19395 16.1084 8.52801 15.4085 6.95758 15.4085H4.9697Z" fill="#666666"/>
</svg>
