<svg width="130" height="130" viewBox="0 0 130 130" fill="none" xmlns="http://www.w3.org/2000/svg">
<path d="M101.932 40.9944C94.793 40.9944 89.0058 35.2073 89.0058 28.0683C89.0058 14.8101 78.2579 4.0625 65 4.0625C51.742 4.0625 40.9944 14.8101 40.9944 28.0681C40.9944 35.207 35.2073 40.9942 28.0683 40.9942C14.8101 40.9944 4.0625 51.742 4.0625 65C4.0625 78.2579 14.8101 89.0056 28.0681 89.0056C35.207 89.0056 40.9942 94.7927 40.9942 101.932C40.9944 115.19 51.742 125.938 65 125.938C78.2579 125.938 89.0056 115.19 89.0056 101.932C89.0056 94.793 94.7927 89.0058 101.932 89.0058C115.19 89.0056 125.938 78.2579 125.938 65C125.938 51.742 115.19 40.9944 101.932 40.9944Z" fill="url(#paint0_linear_1802_17361)"/>
<path d="M112.147 102.776L92.6858 83.3156V17.5955C92.6858 16.36 91.6837 15.3579 90.4483 15.3579H29.5346C28.2992 15.3579 27.297 16.36 27.297 17.5955V82.7119C21.7417 82.7119 17.2383 87.2154 17.2383 92.7704C17.2383 98.3255 21.7417 102.829 27.2968 102.829L27.297 114.191C27.297 115.426 28.2992 116.428 29.5346 116.428H90.4483C91.6837 116.428 92.6858 115.426 92.6858 114.191V97.5969L105.006 109.917C105.828 110.739 107.16 110.739 107.981 109.917L112.147 105.752C112.968 104.93 112.968 103.598 112.147 102.776Z" fill="#FFDBD0"/>
<path d="M92.6848 86.572V100.852L85.27 93.437C84.4797 92.6491 84.4511 91.3923 85.1747 90.5663L75.6152 81.0067C65.6295 88.831 51.1021 88.1502 41.9091 78.9572C31.9782 69.0263 31.9782 52.8683 41.9091 42.9374C51.84 33.0065 67.998 33.0065 77.9289 42.9374C87.1219 52.1304 87.8051 66.6578 79.9784 76.6435L89.538 86.2031C90.364 85.4794 91.6208 85.508 92.4087 86.2959L92.6848 86.572Z" fill="#EBEBFF"/>
<path d="M37.3553 94.5987C37.3553 100.154 32.8517 104.658 27.2959 104.658V84.5392C32.8519 84.5392 37.3553 89.0429 37.3553 94.5987Z" fill="#EBEBFF"/>
<path d="M29.5342 13.4308H90.4482C91.2693 13.4309 91.9354 14.0971 91.9355 14.9182V111.514C91.9355 112.335 91.2694 113.001 90.4482 113.001H29.5342C28.7131 113.001 28.0469 112.335 28.0469 111.514V14.9182C28.047 14.0971 28.7132 13.431 29.5342 13.4308Z" fill="white" stroke="#D64E2D" stroke-width="1.5"/>
<path d="M29.5342 13.4308H90.4482C91.2693 13.4309 91.9354 14.0971 91.9355 14.9182V86.508H28.0469V14.9182C28.047 14.0971 28.7132 13.431 29.5342 13.4308Z" fill="white" stroke="#D64E2D" stroke-width="1.5"/>
<path d="M90.3125 81.2543V81.875H80.3831L74.6461 76.215C65.4813 83.2997 52.1482 82.6833 43.7109 74.3592C34.5964 65.367 34.5964 50.7364 43.7109 41.7442C52.8254 32.7519 67.6551 32.7519 76.7696 41.7442C85.2069 50.0682 85.8339 63.2224 78.6506 72.2642L87.4243 80.9202C88.1824 80.2649 89.3359 80.2908 90.0591 81.0042L90.3125 81.2543Z" fill="#FFF3F0"/>
<path d="M29.7402 13.25H90.6494C91.4721 13.2502 92.1387 13.9175 92.1387 14.7402V23.374H28.25V14.7402C28.25 13.9174 28.9174 13.25 29.7402 13.25Z" fill="#FFF3F0" stroke="#D64E2D" stroke-width="1.5"/>
<path d="M29.7383 13.25H54.25L46.6143 23.374H28.25V14.7383C28.2502 13.9165 28.9165 13.2502 29.7383 13.25Z" fill="#F1F4FE" stroke="#D64E2D" stroke-width="1.5"/>
<path d="M85.5823 19.8469H58.6234C58.0052 19.8469 57.5039 19.3456 57.5039 18.7275C57.5039 18.1093 58.005 17.608 58.6234 17.608H85.5823C86.2005 17.608 86.7018 18.1093 86.7018 18.7275C86.7018 19.3456 86.2007 19.8469 85.5823 19.8469Z" fill="#FFD9D9"/>
<path d="M90.2402 82.0492L86.9385 85.351L74.7607 73.1732L78.0625 69.8715L90.2402 82.0492Z" fill="#EAA695" stroke="#D64E2D" stroke-width="1.5"/>
<path d="M81.5059 73.2982C81.007 73.8875 80.4805 74.4613 79.9238 75.0179C79.3672 75.5746 78.7934 76.1011 78.2041 76.6L74.7754 73.1713L78.0771 69.8695L81.5059 73.2982Z" fill="#DD7055" stroke="#D64E2D" stroke-width="1.5"/>
<path d="M76.367 71.6795C67.7731 80.2734 53.7897 80.2734 45.1955 71.6795C36.6014 63.0855 36.6016 49.1019 45.1955 40.5079C53.7895 31.9139 67.7731 31.9139 76.367 40.5079C84.961 49.1019 84.961 63.0853 76.367 71.6795Z" fill="#D64E2D"/>
<path d="M60.846 75.1078C71.4253 75.1078 80.0015 66.5316 80.0015 55.9523C80.0015 45.3729 71.4253 36.7967 60.846 36.7967C50.2667 36.7967 41.6904 45.3729 41.6904 55.9523C41.6904 66.5316 50.2667 75.1078 60.846 75.1078Z" fill="#FFF3F0"/>
<path d="M72.7106 40.8994L45.8053 67.8047C44.7413 66.4575 43.8867 64.9983 43.2393 63.4725L68.3784 38.3334C69.9042 38.9808 71.3633 39.8354 72.7106 40.8994Z" fill="white"/>
<path d="M79.8405 53.411L58.3171 74.9343C54.449 74.4225 50.7071 72.7301 47.6816 69.8594L74.7655 42.7755C77.6362 45.801 79.3289 49.5429 79.8405 53.411Z" fill="white"/>
<path d="M89.9658 80.8932C90.4617 80.3977 91.2459 80.3667 91.7773 80.8005L91.8799 80.8932L111.615 100.63C112.144 101.158 112.144 102.015 111.616 102.544L107.45 106.71C106.954 107.205 106.17 107.236 105.639 106.802L105.536 106.71L85.7998 86.9733C85.2711 86.4445 85.2714 85.5878 85.7998 85.0593L89.9658 80.8932Z" fill="#A0AFDE" stroke="#D64E2D" stroke-width="1.5"/>
<path d="M111.616 100.63C112.144 101.158 112.145 102.015 111.616 102.544L107.45 106.71C106.922 107.238 106.065 107.238 105.536 106.71L102.775 103.949L108.855 97.8691L111.616 100.63Z" fill="#818FC5" stroke="#D64E2D" stroke-width="1.5"/>
<path d="M98.9375 87.972L92.8584 94.0511L89.207 90.3998L95.2861 84.3207L98.9375 87.972Z" fill="#818FC5" stroke="#D64E2D" stroke-width="1.5"/>
<path d="M78.3818 103.452H41.6003C40.9429 103.452 40.4102 103.985 40.4102 104.643C40.4102 105.3 40.9429 105.833 41.6003 105.833H78.3818C79.0393 105.833 79.572 105.3 79.572 104.643C79.572 103.985 79.0393 103.452 78.3818 103.452Z" fill="#F1F4FE"/>
<path d="M50.2744 98.81H41.6013C40.9439 98.81 40.4111 99.343 40.4111 100C40.4111 100.657 40.9439 101.19 41.6013 101.19H50.2744C50.9319 101.19 51.4646 100.657 51.4646 100C51.4646 99.343 50.9319 98.81 50.2744 98.81Z" fill="#F1F4FE"/>
<path d="M55.9961 98.81H74.0079C74.6652 98.81 75.1981 99.343 75.1981 100C75.1981 100.657 74.6652 101.19 74.0079 101.19H55.945C55.2489 101.19 54.6927 100.593 54.7605 99.8831C54.8195 99.2644 55.3746 98.81 55.9961 98.81Z" fill="#F1F4FE"/>
<path d="M45.8826 95.3511C46.5399 95.3511 47.0728 94.8183 47.0728 94.1609C47.0728 93.5036 46.5399 92.9708 45.8826 92.9708C45.2252 92.9708 44.6924 93.5036 44.6924 94.1609C44.6924 94.8183 45.2252 95.3511 45.8826 95.3511Z" fill="#F1F4FE"/>
<path d="M42.0144 95.3511C42.6717 95.3511 43.2046 94.8183 43.2046 94.1609C43.2046 93.5036 42.6717 92.9708 42.0144 92.9708C41.3571 92.9708 40.8242 93.5036 40.8242 94.1609C40.8242 94.8183 41.3571 95.3511 42.0144 95.3511Z" fill="#F1F4FE"/>
<path d="M27.2639 105.125C36.0391 105.125 43.1528 98.0112 43.1528 89.236C43.1528 80.4608 36.0391 73.3471 27.2639 73.3471C18.4887 73.3471 11.375 80.4608 11.375 89.236C11.375 98.0112 18.4887 105.125 27.2639 105.125Z" fill="#F9D6CE"/>
<path d="M28.4865 103.903C37.2617 103.903 44.3754 96.789 44.3754 88.0138C44.3754 79.2386 37.2617 72.1249 28.4865 72.1249C19.7114 72.1249 12.5977 79.2386 12.5977 88.0138C12.5977 96.789 19.7114 103.903 28.4865 103.903Z" fill="#D64E2D"/>
<path d="M33.0684 81.9583C33.4756 81.5511 34.1348 81.5511 34.542 81.9583C34.949 82.3654 34.9489 83.0238 34.542 83.431L29.959 88.013L34.542 92.596C34.9493 93.0032 34.9492 93.6624 34.542 94.0696C34.3389 94.2727 34.0711 94.3753 33.8047 94.3753C33.5384 94.3752 33.2713 94.2726 33.0684 94.0696L28.4854 89.4866L23.9033 94.0696C23.7003 94.2726 23.4333 94.3753 23.167 94.3753C22.934 94.3753 22.7005 94.2965 22.5098 94.1409L22.4307 94.0696C22.0233 93.6624 22.0233 93.0032 22.4307 92.596L27.0127 88.013L22.4307 83.431C22.0234 83.0238 22.0234 82.3655 22.4307 81.9583C22.8379 81.5511 23.496 81.5512 23.9033 81.9583L28.4854 86.5403L33.0684 81.9583Z" fill="white" stroke="white" stroke-width="0.5"/>
<path d="M108.402 40.9376H107.688V40.2234C107.688 39.5662 107.155 39.0333 106.498 39.0333C105.84 39.0333 105.308 39.5662 105.308 40.2234V40.9376H104.594C103.936 40.9376 103.403 41.4705 103.403 42.1277C103.403 42.785 103.936 43.3179 104.594 43.3179H105.308V44.032C105.308 44.6893 105.84 45.2222 106.498 45.2222C107.155 45.2222 107.688 44.6893 107.688 44.032V43.3179H108.402C109.06 43.3179 109.592 42.785 109.592 42.1277C109.592 41.4705 109.06 40.9376 108.402 40.9376Z" fill="#415EBE"/>
<path d="M20.3289 52.9301H19.6147V52.2159C19.6147 51.5587 19.082 51.0258 18.4246 51.0258C17.7671 51.0258 17.2344 51.5587 17.2344 52.2159V52.9301H16.5203C15.8628 52.9301 15.3301 53.463 15.3301 54.1202C15.3301 54.7775 15.8628 55.3104 16.5203 55.3104H17.2344V56.0245C17.2344 56.6818 17.7671 57.2147 18.4246 57.2147C19.082 57.2147 19.6147 56.6818 19.6147 56.0245V55.3104H20.3289C20.9863 55.3104 21.519 54.7775 21.519 54.1202C21.519 53.463 20.9863 52.9301 20.3289 52.9301Z" fill="#26C6DA"/>
<path d="M103.828 54.2538C103.523 54.2538 103.218 54.1377 102.986 53.9054L101.924 52.8428L100.861 53.9054C100.396 54.37 99.6422 54.37 99.1778 53.9054C98.7129 53.4405 98.7129 52.6869 99.1778 52.2222L101.082 50.3179C101.546 49.8533 102.301 49.8533 102.765 50.3179L104.669 52.2222C105.134 52.6871 105.134 53.4407 104.669 53.9054C104.437 54.1377 104.133 54.2538 103.828 54.2538Z" fill="#D64E2D"/>
<path d="M18.4245 65.306C18.1201 65.306 17.8151 65.1899 17.583 64.9575L16.5202 63.895L15.4574 64.9575C14.993 65.4222 14.2389 65.4222 13.7744 64.9575C13.3096 64.4927 13.3096 63.739 13.7744 63.2744L15.6787 61.3701C16.1432 60.9054 16.8973 60.9054 17.3617 61.3701L19.266 63.2744C19.7308 63.7393 19.7308 64.4929 19.266 64.9575C19.0339 65.1896 18.729 65.306 18.4245 65.306Z" fill="#415EBE"/>
<path d="M113.639 92.2355C113.335 92.2355 113.03 92.1194 112.798 91.8871L111.735 90.8245L110.672 91.8871C110.208 92.3517 109.454 92.3517 108.989 91.8871C108.524 91.4222 108.524 90.6685 108.989 90.2039L110.894 88.2996C111.358 87.8349 112.112 87.8349 112.577 88.2996L114.481 90.2039C114.946 90.6688 114.946 91.4224 114.481 91.8871C114.249 92.1194 113.944 92.2355 113.639 92.2355Z" fill="#26C6DA"/>
<defs>
<linearGradient id="paint0_linear_1802_17361" x1="108.105" y1="21.8951" x2="3.11035" y2="126.89" gradientUnits="userSpaceOnUse">
<stop stop-color="#FFE8E2"/>
<stop offset="0.9981" stop-color="white"/>
</linearGradient>
</defs>
</svg>
