<svg width="16" height="16" viewBox="0 0 16 16" fill="none" xmlns="http://www.w3.org/2000/svg">
<mask id="mask0_12689_7383" style="mask-type:alpha" maskUnits="userSpaceOnUse" x="0" y="0" width="16" height="16">
<path fill-rule="evenodd" clip-rule="evenodd" d="M6.88881 2.05633C6.88874 2.05636 6.88888 2.0563 6.88881 2.05633L3.17335 3.57719C3.02864 3.63545 2.87009 3.76648 2.74573 3.95148C2.62128 4.1366 2.55994 4.33282 2.55994 4.48669V7.41337C2.55994 10.4402 4.76822 13.3019 7.79214 14.1378C7.92562 14.1741 8.07425 14.1741 8.20773 14.1378C11.2317 13.3019 13.4399 10.4402 13.4399 7.41337L13.4399 7.41223L13.4466 4.48669C13.4466 4.48653 13.4466 4.48685 13.4466 4.48669C13.4465 4.33468 13.3847 4.13855 13.259 3.95243C13.1332 3.76621 12.9736 3.63446 12.8311 3.57633L9.11772 2.05633C9.11759 2.05628 9.11785 2.05638 9.11772 2.05633C8.40563 1.76592 7.60089 1.76587 6.88881 2.05633ZM6.51105 1.13043C7.46546 0.741029 8.54107 0.741029 9.49548 1.13043L13.2088 2.65039C13.5727 2.79898 13.8768 3.08067 14.0876 3.39262C14.2984 3.70464 14.4466 4.0921 14.4466 4.48669L14.4466 4.48783L14.4399 7.41337C14.4399 7.41317 14.4399 7.41356 14.4399 7.41337C14.4397 10.906 11.9152 14.151 8.4731 15.102L8.4715 15.1024C8.16537 15.1859 7.83451 15.1859 7.52837 15.1024L7.52678 15.102C4.08452 14.1509 1.55994 10.9062 1.55994 7.41337V4.48669C1.55994 4.09389 1.70526 3.70678 1.91582 3.39357C2.12619 3.08065 2.43044 2.79869 2.79841 2.65013L6.51105 1.13043Z" fill="#062E46"/>
<path fill-rule="evenodd" clip-rule="evenodd" d="M7.99996 6.16675C7.53972 6.16675 7.16663 6.53984 7.16663 7.00008C7.16663 7.46032 7.53972 7.83341 7.99996 7.83341C8.4602 7.83341 8.83329 7.46032 8.83329 7.00008C8.83329 6.53984 8.4602 6.16675 7.99996 6.16675ZM6.16663 7.00008C6.16663 5.98756 6.98744 5.16675 7.99996 5.16675C9.01248 5.16675 9.83329 5.98756 9.83329 7.00008C9.83329 8.0126 9.01248 8.83341 7.99996 8.83341C6.98744 8.83341 6.16663 8.0126 6.16663 7.00008Z" fill="#062E46"/>
<path fill-rule="evenodd" clip-rule="evenodd" d="M8 7.8335C8.27614 7.8335 8.5 8.05735 8.5 8.3335V10.3335C8.5 10.6096 8.27614 10.8335 8 10.8335C7.72386 10.8335 7.5 10.6096 7.5 10.3335V8.3335C7.5 8.05735 7.72386 7.8335 8 7.8335Z" fill="#062E46"/>
</mask>
<g mask="url(#mask0_12689_7383)">
<path d="M0 0H16V16H0V0Z" fill="#062E46"/>
</g>
</svg>
