<svg width="12" height="12" viewBox="0 0 12 12" fill="none" xmlns="http://www.w3.org/2000/svg">
<path d="M8.28649 3.83358L9.04975 3.30551C7.64245 1.83378 5.28872 1.57092 3.55922 2.76771C2.88493 3.23401 2.3973 3.85875 2.11264 4.55198C2.00837 4.80544 1.72858 4.94711 1.45504 4.87896L0.50722 4.6433C0.186762 4.56373 0.0101977 4.2334 0.125243 3.93395C0.54441 2.84392 1.29307 1.85896 2.34551 1.13081C5.01136 -0.713891 8.66743 -0.245581 10.7532 2.12685L11.5599 1.56891C11.7514 1.4363 12.0162 1.57965 11.9992 1.80692L11.7935 4.51472C11.7681 4.84908 11.4351 5.07971 11.099 4.99512L8.37895 4.31162C8.15059 4.25421 8.09533 3.96584 8.28719 3.83324L8.28649 3.83358ZM0.206574 7.48538L0.000813255 10.1932C-0.0165652 10.4201 0.248282 10.5638 0.44014 10.4312L1.24685 9.87325C3.3326 12.2453 6.98867 12.714 9.65452 10.8693C10.707 10.1415 11.4556 9.15652 11.8748 8.06615C11.9898 7.7667 11.8133 7.43637 11.4928 7.3568L10.545 7.12114C10.2718 7.05333 9.99166 7.19466 9.88739 7.44812C9.60239 8.14135 9.1151 8.7661 8.44081 9.23239C6.71131 10.4292 4.35723 10.1663 2.95028 8.69459L3.71354 8.16653C3.9054 8.03392 3.84978 7.74555 3.62178 7.68815L0.90171 7.00465C0.565612 6.92039 0.232641 7.15068 0.207269 7.48504L0.206574 7.48538Z" fill="white"/>
</svg>
