<svg width="12" height="12" viewBox="0 0 12 12" fill="none" xmlns="http://www.w3.org/2000/svg">
<path d="M9.34931 11.9998C9.26655 11.9998 9.18717 11.9669 9.12865 11.9084L6.63293 9.41277C6.60103 9.38087 6.57642 9.34243 6.5608 9.3001C6.54518 9.25777 6.53893 9.21256 6.54246 9.16758C6.546 9.1226 6.55925 9.07892 6.58129 9.03955C6.60333 9.00019 6.63364 8.96607 6.67014 8.93954L9.30474 7.02521C9.36487 6.98151 9.43861 6.96071 9.51271 6.96654C9.5868 6.97237 9.65639 7.00445 9.70894 7.05701L11.8442 9.19265C11.8808 9.22932 11.9078 9.27454 11.9226 9.32423C11.9374 9.37393 11.9396 9.42652 11.9289 9.47728C11.9183 9.52803 11.8952 9.57533 11.8617 9.61492C11.8283 9.65451 11.7854 9.68513 11.7372 9.70403L10.2296 10.294L9.63971 11.8016C9.61684 11.8601 9.57686 11.9103 9.525 11.9457C9.47315 11.9811 9.41182 12 9.34903 12L9.34931 11.9998Z" fill="url(#paint0_linear_216_3366)"/>
<path d="M2.58636 11.9999C2.52357 11.9999 2.46225 11.9809 2.41039 11.9455C2.35853 11.9101 2.31856 11.8599 2.29568 11.8014L1.70578 10.2938L0.198393 9.70387C0.15011 9.68498 0.107293 9.65436 0.0738108 9.61477C0.0403283 9.57518 0.0172348 9.52787 0.00661615 9.47712C-0.00400254 9.42637 -0.00181185 9.37377 0.0129904 9.32408C0.0277926 9.27439 0.0547399 9.22917 0.0913985 9.1925L2.22661 7.05686C2.27916 7.0043 2.34875 6.97222 2.42284 6.96639C2.49694 6.96056 2.57068 6.98136 2.63081 7.02505L5.26541 8.93939C5.30195 8.9659 5.3323 9.00002 5.35437 9.0394C5.37644 9.07878 5.38971 9.12248 5.39326 9.16749C5.39681 9.21249 5.39055 9.25773 5.37493 9.30008C5.3593 9.34244 5.33467 9.38089 5.30274 9.41281L2.80703 11.9083C2.77806 11.9373 2.74366 11.9603 2.7058 11.976C2.66793 11.9918 2.62735 11.9998 2.58636 11.9999Z" fill="url(#paint1_linear_216_3366)"/>
<path d="M5.96753 9.97852C5.74968 9.97846 5.53746 9.9093 5.36142 9.78097L4.69923 9.29984C4.62979 9.24916 4.54601 9.22194 4.46005 9.22212H3.64158C3.42372 9.22251 3.21135 9.15373 3.0351 9.02567C2.85884 8.89761 2.72779 8.7169 2.66083 8.50957L2.40801 7.73107C2.38162 7.64925 2.32985 7.57797 2.26019 7.52759L1.59784 7.04646C1.42137 6.91872 1.29001 6.73824 1.22269 6.53103C1.15538 6.32382 1.15559 6.1006 1.2233 5.89352L1.47612 5.11502C1.50287 5.03333 1.50287 4.94525 1.47612 4.86356L1.2233 4.08506C1.1556 3.87798 1.15538 3.65474 1.2227 3.44753C1.29001 3.24032 1.42137 3.05984 1.59784 2.93209L2.26001 2.45096C2.32966 2.40059 2.38144 2.32932 2.40783 2.24751L2.66064 1.46901C2.7276 1.26167 2.85864 1.08095 3.0349 0.952889C3.21116 0.824825 3.42352 0.756034 3.64139 0.756429H4.45999C4.54594 0.756612 4.62971 0.729386 4.69913 0.678707L5.36136 0.197579C5.53737 0.0691842 5.7496 0 5.96746 0C6.18532 0 6.39756 0.0691842 6.57357 0.197579L7.23576 0.678707C7.3052 0.729383 7.38898 0.756607 7.47494 0.756429H8.29341C8.51127 0.756012 8.72364 0.824779 8.89991 0.95282C9.07618 1.08086 9.20724 1.26156 9.27422 1.46888L9.52704 2.24738C9.55341 2.32919 9.60518 2.40046 9.67483 2.45083L10.3372 2.93209C10.5137 3.05983 10.645 3.24031 10.7124 3.44752C10.7797 3.65472 10.7795 3.87795 10.7118 4.08503L10.4589 4.86353C10.4322 4.94521 10.4322 5.0333 10.4589 5.11499L10.7118 5.89352C10.7795 6.1006 10.7797 6.32382 10.7124 6.53103C10.645 6.73824 10.5137 6.91872 10.3372 7.04646L9.67498 7.52746C9.60534 7.57784 9.55356 7.64911 9.52716 7.73091L9.27434 8.50942C9.20739 8.71675 9.07634 8.89747 8.90009 9.02553C8.72383 9.1536 8.51146 9.22239 8.2936 9.22199H7.47506C7.3891 9.22181 7.30532 9.24904 7.23589 9.29971L6.57363 9.78109C6.39757 9.90938 6.18536 9.9785 5.96753 9.97852Z" fill="url(#paint2_linear_216_3366)"/>
<path d="M7.24634 7.01514C7.20152 7.01515 7.15736 7.00426 7.11769 6.9834L5.96762 6.37879L4.81755 6.9834C4.77188 7.00741 4.72041 7.01817 4.66895 7.01445C4.61748 7.01073 4.56809 6.99268 4.52635 6.96235C4.48461 6.93203 4.45219 6.89062 4.43275 6.84283C4.41331 6.79503 4.40763 6.74275 4.41635 6.6919L4.63602 5.41123L3.70559 4.50422C3.66864 4.46821 3.6425 4.42258 3.63013 4.37249C3.61776 4.3224 3.61966 4.26984 3.6356 4.22077C3.65154 4.1717 3.6809 4.12807 3.72034 4.09481C3.75979 4.06155 3.80775 4.04 3.85881 4.03258L5.14474 3.84574L5.71976 2.68053C5.7426 2.63426 5.77792 2.59531 5.82174 2.56807C5.86556 2.54083 5.91612 2.5264 5.96771 2.5264C6.0193 2.5264 6.06987 2.54083 6.11368 2.56807C6.1575 2.59531 6.19282 2.63426 6.21566 2.68053L6.79068 3.84574L8.07661 4.03258C8.12767 4.04 8.17564 4.06155 8.21508 4.09481C8.25453 4.12807 8.28388 4.1717 8.29982 4.22077C8.31577 4.26984 8.31766 4.3224 8.30529 4.37249C8.29292 4.42258 8.26678 4.46821 8.22983 4.50422L7.29921 5.41117L7.51888 6.69183C7.52569 6.73152 7.52375 6.77222 7.51319 6.81109C7.50264 6.84995 7.48372 6.88603 7.45776 6.91682C7.4318 6.94761 7.39943 6.97236 7.36291 6.98933C7.3264 7.0063 7.28661 7.01509 7.24634 7.01508V7.01514Z" fill="url(#paint3_linear_216_3366)"/>
<defs>
<linearGradient id="paint0_linear_216_3366" x1="11.1981" y1="11.2624" x2="7.47224" y2="7.53669" gradientUnits="userSpaceOnUse">
<stop stop-color="#FFC800"/>
<stop offset="1" stop-color="#F85032"/>
</linearGradient>
<linearGradient id="paint1_linear_216_3366" x1="4.45883" y1="11.0646" x2="-0.000234043" y2="6.75024" gradientUnits="userSpaceOnUse">
<stop stop-color="#FFC800"/>
<stop offset="1" stop-color="#FA4616"/>
</linearGradient>
<linearGradient id="paint2_linear_216_3366" x1="9.74961" y1="10.5" x2="2.99921" y2="0.750361" gradientUnits="userSpaceOnUse">
<stop stop-color="#FF7800"/>
<stop offset="1" stop-color="#FFCB00"/>
</linearGradient>
<linearGradient id="paint3_linear_216_3366" x1="10.8822" y1="10.0421" x2="3.19217" y2="2.35252" gradientUnits="userSpaceOnUse">
<stop stop-color="#F2C94E"/>
<stop offset="1" stop-color="white"/>
</linearGradient>
</defs>
</svg>
