<svg width="11" height="8" viewBox="0 0 11 8" fill="none" xmlns="http://www.w3.org/2000/svg">
<path d="M5.59802 7.96319C5.30025 7.94917 5.03745 7.95912 4.94883 7.88376C4.88679 7.83117 4.85501 7.76326 4.85501 7.68614C4.85501 7.64758 4.8977 7.55393 4.91365 7.50836C5.16002 6.84233 5.53953 5.91514 5.98087 4.7268C6.42221 3.5367 6.77228 2.59286 7.03105 1.89528C7.07005 1.79362 7.0949 1.74104 7.24733 1.71124C7.32178 1.69722 7.4977 1.71124 7.57569 1.71124C7.65368 1.71124 7.79587 1.73485 7.92171 1.75764C8.04478 1.80414 8.08911 1.8369 8.19723 1.90876C8.24414 1.95525 8.22068 2.00175 8.20895 2.05988C8.19723 2.09475 8.18086 2.15859 8.17377 2.17612C8.1401 2.26551 8.12318 2.30613 8.06823 2.45511C8.01328 2.60234 7.95082 2.7426 7.89232 2.89684C7.83561 3.04933 7.78064 3.20665 7.73987 3.31532L7.6585 3.54781C7.92171 3.54781 8.20244 3.46809 8.4435 3.37345C8.68632 3.27705 8.96184 3.09729 9.19403 2.88522C9.42799 2.67314 9.64813 2.35756 9.76866 2.00175C9.80588 1.89834 9.83725 1.609 9.83902 1.46703C9.83547 1.0639 9.37367 0.873067 8.72495 0.862551C8.58847 0.859045 8.20601 0.867809 7.58742 0.862551C7.40131 0.860798 7.23027 0.859921 7.07429 0.859921C6.92009 0.858169 6.77415 0.861674 6.69616 0.859921C6.53487 0.854663 6.45337 0.854232 6.42644 0.816053C6.39951 0.777874 6.39432 0.723821 6.39126 0.688183C6.38532 0.6192 6.39276 0.530596 6.42644 0.432444C6.46189 0.332539 6.51263 0.228359 6.59062 0.130207C6.66861 0.0303013 6.7286 0.00233712 6.84861 0.00233712C6.99573 0.00233712 7.19678 0.0040896 7.44669 0.00233711C7.76042 -0.0029214 8.0839 0.00233712 8.44016 0.00233712H8.61563C8.901 0.00233712 9.15978 0.00584262 9.39197 0.0128536C9.58162 0.0163591 9.80155 0.0403543 10.0267 0.106958C10.2535 0.173561 10.4809 0.304778 10.6599 0.490567C10.8389 0.674602 10.9269 0.913606 10.9765 1.26941C10.9836 1.33251 11 1.45854 11 1.52515C11 1.73547 10.9531 1.9785 10.8702 2.18447C10.8268 2.29237 10.73 2.52395 10.613 2.69922C10.4943 2.87274 10.3667 3.00535 10.2143 3.15258C10.0601 3.29981 9.89654 3.42401 9.73348 3.53619C9.56864 3.64661 9.1951 3.79396 9.0533 3.85005C9.23232 3.89913 9.5689 4.03357 9.69829 4.17554C9.82768 4.31926 9.94934 4.46857 10.0149 4.67539C10.0699 4.84716 10.1045 5.02651 10.1045 5.23158C10.1045 5.2754 10.1036 5.31921 10.1018 5.36303C10.0877 5.62068 10.0336 5.88622 9.93966 6.15964C9.73583 6.71 9.46021 7.12101 9.11281 7.39268C8.76541 7.66435 8.34533 7.83875 7.85259 7.91587C7.49633 7.97196 7.10284 8 6.67213 8C6.50552 8 6.33271 7.99562 6.15369 7.98685C6.08102 7.98335 5.89579 7.97546 5.59802 7.96319ZM7.39979 4.14314L6.15369 7.45365C6.30917 7.4769 6.5102 7.45365 6.7548 7.45365C6.8771 7.45365 7.29562 7.35161 7.42324 7.30253C7.61467 7.22716 7.69296 7.18628 7.90405 7.05841C8.0565 6.95379 8.27647 6.80487 8.42004 6.60506C8.56184 6.407 8.75005 6.15057 8.84222 5.91921C9.01946 5.47928 9.07676 5.20981 9.07676 4.93113C9.07676 4.81488 9.04627 4.7268 9.02985 4.64052C9.00149 4.49154 8.94776 4.40803 8.8774 4.31503C8.80704 4.22203 8.64286 4.14841 8.51386 4.10579C8.4435 4.08254 8.30576 4.05929 8.22068 4.05929C8.1746 4.05929 8.06304 4.05228 7.97441 4.05929C7.88579 4.0663 7.77981 4.06501 7.69296 4.08254L7.39979 4.14314Z" fill="white"/>
<path d="M5.40198 7.96319C5.69975 7.94917 5.96255 7.95912 6.05117 7.88376C6.11321 7.83117 6.14499 7.76326 6.14499 7.68614C6.14499 7.64758 6.1023 7.55393 6.08635 7.50836C5.83998 6.84233 5.46047 5.91514 5.01913 4.7268C4.57779 3.5367 4.22772 2.59286 3.96895 1.89528C3.92995 1.79362 3.9051 1.74104 3.75267 1.71124C3.67822 1.69722 3.5023 1.71124 3.42431 1.71124C3.34632 1.71124 3.20413 1.73485 3.07829 1.75764C2.95522 1.80414 2.91089 1.8369 2.80277 1.90876C2.75586 1.95525 2.77932 2.00175 2.79104 2.05988C2.80277 2.09475 2.81914 2.15859 2.82623 2.17612C2.8599 2.26551 2.87682 2.30613 2.93177 2.45511C2.98672 2.60234 3.04918 2.7426 3.10768 2.89684C3.16439 3.04933 3.21936 3.20665 3.26013 3.31532L3.3415 3.54781C3.07829 3.54781 2.79756 3.46809 2.5565 3.37345C2.31368 3.27705 2.03816 3.09729 1.80597 2.88522C1.57201 2.67314 1.35187 2.35756 1.23134 2.00175C1.19412 1.89834 1.16275 1.609 1.16098 1.46703C1.16453 1.0639 1.62633 0.873067 2.27505 0.862551C2.41153 0.859045 2.79399 0.867809 3.41258 0.862551C3.59869 0.860798 3.76973 0.859921 3.92571 0.859921C4.07991 0.858169 4.22585 0.861674 4.30384 0.859921C4.46513 0.854663 4.54663 0.854232 4.57356 0.816053C4.60049 0.777874 4.60568 0.723821 4.60874 0.688183C4.61468 0.6192 4.60724 0.530596 4.57356 0.432444C4.53811 0.332539 4.48737 0.228359 4.40938 0.130207C4.33139 0.0303013 4.2714 0.00233712 4.15139 0.00233712C4.00427 0.00233712 3.80322 0.0040896 3.5533 0.00233711C3.23958 -0.0029214 2.9161 0.00233712 2.55984 0.00233712H2.38437C2.099 0.00233712 1.84022 0.00584262 1.60803 0.0128536C1.41838 0.0163591 1.19845 0.0403543 0.973348 0.106958C0.746473 0.173561 0.519103 0.304778 0.340085 0.490567C0.161067 0.674602 0.073083 0.913606 0.0234542 1.26941C0.0163645 1.33251 0 1.45854 0 1.52515C0 1.73547 0.0469083 1.9785 0.1298 2.18447C0.173221 2.29237 0.270011 2.52395 0.386994 2.69922C0.505749 2.87274 0.633283 3.00535 0.785714 3.15258C0.939918 3.29981 1.10346 3.42401 1.26652 3.53619C1.43136 3.64661 1.8049 3.79396 1.9467 3.85005C1.76768 3.89913 1.4311 4.03357 1.30171 4.17554C1.17232 4.31926 1.05066 4.46857 0.985075 4.67539C0.930129 4.84716 0.895502 5.02651 0.895502 5.23158C0.895502 5.2754 0.896389 5.31921 0.898161 5.36303C0.912341 5.62068 0.966401 5.88622 1.06034 6.15964C1.26417 6.71 1.53979 7.12101 1.88719 7.39268C2.23459 7.66435 2.65467 7.83875 3.14741 7.91587C3.50368 7.97196 3.89716 8 4.32787 8C4.49448 8 4.66729 7.99562 4.84631 7.98685C4.91898 7.98335 5.10421 7.97546 5.40198 7.96319ZM3.60021 4.14314L4.84631 7.45365C4.69083 7.4769 4.4898 7.45365 4.2452 7.45365C4.1229 7.45365 3.70438 7.35161 3.57676 7.30253C3.38533 7.22716 3.30704 7.18628 3.09595 7.05841C2.9435 6.95379 2.72353 6.80487 2.57996 6.60506C2.43816 6.407 2.24995 6.15057 2.15778 5.91921C1.98054 5.47928 1.92324 5.20981 1.92324 4.93113C1.92324 4.81488 1.95373 4.7268 1.97015 4.64052C1.99851 4.49154 2.05224 4.40803 2.1226 4.31503C2.19296 4.22203 2.35714 4.14841 2.48614 4.10579C2.5565 4.08254 2.69424 4.05929 2.77932 4.05929C2.8254 4.05929 2.93696 4.05228 3.02559 4.05929C3.11421 4.0663 3.22019 4.06501 3.30704 4.08254L3.60021 4.14314Z" fill="white"/>
</svg>
