<svg width="126" height="60" viewBox="0 0 126 60" fill="none" xmlns="http://www.w3.org/2000/svg">
<path d="M4.01936 43.4574C2.40854 43.3809 0.986917 43.4352 0.507506 43.0239C0.171919 42.7369 0 42.3663 0 41.9455C0 41.735 0.230916 41.224 0.31721 40.9753C1.64997 37.3405 3.70295 32.2806 6.09041 25.7955C8.47788 19.3008 10.3715 14.15 11.7714 10.3431C11.9824 9.78828 12.1168 9.50133 12.9414 9.33872C13.3441 9.2622 14.2958 9.33872 14.7177 9.33872C15.1396 9.33872 15.9087 9.46759 16.5895 9.59193C17.2552 9.84569 17.495 10.0245 18.0799 10.4166C18.3337 10.6704 18.2068 10.9241 18.1433 11.2413C18.0799 11.4316 17.9914 11.7801 17.953 11.8757C17.7709 12.3635 17.6793 12.5852 17.3821 13.3982C17.0849 14.2017 16.7469 14.9672 16.4305 15.8089C16.1237 16.641 15.8263 17.4996 15.6058 18.0927L15.1657 19.3614C16.5895 19.3614 18.1081 18.9264 19.4121 18.4099C20.7257 17.8838 22.2161 16.9028 23.4722 15.7454C24.7378 14.5881 25.9286 12.8659 26.5806 10.9241C26.782 10.3598 26.9517 8.78075 26.9613 8.00598C26.9421 5.80601 24.4439 4.76458 20.9346 4.70719C20.1963 4.68806 18.1274 4.73588 14.7811 4.70719C13.7744 4.69762 12.8491 4.69284 12.0053 4.69284C11.1712 4.68327 10.3817 4.7024 9.95981 4.69284C9.08728 4.66414 8.64639 4.66179 8.50073 4.45343C8.35507 4.24508 8.32701 3.9501 8.31042 3.75561C8.2783 3.37915 8.31855 2.89561 8.50073 2.35997C8.69249 1.81476 8.96698 1.24622 9.38887 0.710575C9.81075 0.165363 10.1353 0.0127544 10.7845 0.0127544C11.5803 0.0127544 12.6679 0.0223181 14.0199 0.0127543C15.717 -0.0159429 17.4668 0.0127544 19.3941 0.0127544H20.3433C21.887 0.0127544 23.2869 0.0318849 24.5429 0.0701459C25.5689 0.0892764 26.7586 0.220225 27.9763 0.583699C29.2036 0.947173 30.4335 1.66326 31.4019 2.67716C32.3704 3.6815 32.8463 4.98581 33.1148 6.92753C33.1531 7.27187 33.2417 7.95969 33.2417 8.32317C33.2417 9.47098 32.9879 10.7973 32.5395 11.9213C32.3046 12.5101 31.781 13.7739 31.1482 14.7304C30.5058 15.6774 29.8159 16.4011 28.9913 17.2045C28.1571 18.008 27.2724 18.6858 26.3903 19.298C25.4986 19.9006 23.478 20.7047 22.7109 21.0108C23.6793 21.2786 25.5001 22.0123 26.2 22.7871C26.9 23.5714 27.5581 24.3863 27.9128 25.5149C28.2101 26.4523 28.3974 27.4311 28.3974 28.5502C28.3974 28.7893 28.3926 29.0285 28.383 29.2676C28.3063 30.6737 28.0139 32.1228 27.5057 33.6149C26.403 36.6184 24.9121 38.8614 23.0328 40.344C21.1535 41.8266 18.8811 42.7783 16.2156 43.1992C14.2883 43.5052 12.1598 43.6583 9.82982 43.6583C8.92852 43.6583 7.99367 43.6344 7.02526 43.5865C6.63215 43.5674 5.63018 43.5244 4.01936 43.4574ZM13.7661 22.6103L7.02526 40.6767C7.86635 40.8036 8.95383 40.6767 10.277 40.6767C10.9386 40.6767 13.2026 40.1198 13.893 39.852C14.9285 39.4407 15.3521 39.2176 16.494 38.5198C17.3187 37.9488 18.5086 37.1361 19.2852 36.0457C20.0523 34.9648 21.0704 33.5654 21.569 32.3028C22.5278 29.902 22.8378 28.4314 22.8378 26.9106C22.8378 26.2762 22.6729 25.7955 22.584 25.3246C22.4306 24.5116 22.14 24.0559 21.7593 23.5484C21.3787 23.0408 20.4906 22.6391 19.7927 22.4065C19.4121 22.2796 18.667 22.1527 18.2068 22.1527C17.9575 22.1527 17.354 22.1145 16.8746 22.1527C16.3952 22.191 15.8219 22.1839 15.3521 22.2796L13.7661 22.6103Z" fill="url(#paint0_linear_2031_12509)"/>
<path d="M99.5981 1.85246L88.1158 42.5164C87.8722 43.3792 88.691 43.5103 89.1308 43.468L92.493 43.5314C93.6603 43.5314 93.9521 42.5798 94.3962 40.9939L100.74 18.7905C100.571 26.1916 100.232 41.2349 100.232 42.1992C100.232 43.1635 100.782 43.3622 101.057 43.3411H103.912C104.927 43.3411 105.434 42.3684 105.561 41.882L116.663 17.1411C114.95 25.4304 111.486 42.1738 111.334 42.8336C111.182 43.4933 111.651 43.5737 111.905 43.5314C113.089 43.5103 115.648 43.468 116.409 43.468C117.171 43.468 117.488 42.4107 117.551 41.882C120.089 29.0675 125.227 3.17198 125.481 2.10622C125.735 1.04045 125.037 0.858598 124.656 0.90089H120.469C119.645 0.90089 118.947 1.59871 118.439 2.23309C118.033 2.7406 109.854 20.9685 105.815 30.0191C106.048 21.0743 106.5 2.9436 106.449 1.97934C106.399 1.01508 105.836 0.858598 105.561 0.90089H100.677C99.9661 0.90089 99.6616 1.53527 99.5981 1.85246Z" fill="url(#paint1_linear_2031_12509)"/>
<path d="M48.0862 0.647137C50.6872 0.647145 53.0979 1.28154 54.6204 3.75561C55.8384 5.73487 55.4239 8.00597 55.0644 8.89411C54.7261 9.52849 53.5673 10.7846 51.6388 10.7338C49.7102 10.6831 49.355 8.89411 49.4184 8.00598C49.4819 7.0967 49.2408 5.24009 47.769 5.08782C45.9293 4.8975 43.5525 7.30815 42.8208 8.57692C36.8576 18.9174 35.5254 27.9256 35.3351 30.9072C35.1448 33.8888 34.8276 38.1392 37.9995 38.5198C41.1714 38.9004 45.1681 35.0307 47.9593 31.8588C50.7506 28.6869 51.5119 25.4515 52.2097 23.2312C52.768 21.4549 54.2186 16.9508 54.8741 14.9207C60.4567 1.91591 66.2296 0.964328 70.4165 1.0912C73.766 1.19272 75.7876 4.72834 76.3797 6.48346C81.201 1.21809 83.3198 0.964328 86.9739 0.964328C94.0155 1.78904 93.7618 9.65537 93.7618 11.8123C92.6199 26.0224 87.1008 36.0457 85.0073 38.5198C82.9138 40.9939 79.0441 44.2927 74.0325 43.5314C69.0211 42.7702 68.1328 38.5202 67.9424 38.5198C66.9274 39.7886 61.9792 45.1173 56.1429 43.2777C51.4738 41.8059 50.9409 38.266 50.6872 35.7285C45.0412 41.6282 42.6305 42.8336 38.3802 43.5948C34.1298 44.3561 28.1032 41.0573 29.7526 29.2578C31.402 17.4583 37.7458 6.86409 40.1564 4.45343C42.5671 2.0428 45.4853 0.647137 48.0862 0.647137ZM69.0843 5.08782C67.308 4.8975 64.4533 6.92754 60.7739 15.3648C57.0945 23.8021 54.3032 37.4413 57.8557 38.3295C61.4082 39.2176 65.3414 35.4747 68.1327 26.0224L68.1444 25.9827C68.6325 24.3304 71.616 14.2315 70.924 7.68879C70.9028 6.88524 70.5053 5.2401 69.0843 5.08782ZM85.9503 5.08782C84.1741 4.8975 81.3193 6.92754 77.6399 15.3648C73.9605 23.8021 71.1692 37.4413 74.7217 38.3295C78.2743 39.2176 82.2075 35.4747 84.9987 26.0224L85.0104 25.9827C85.4985 24.3304 88.482 14.2315 87.79 7.68879C87.7689 6.88524 87.3713 5.2401 85.9503 5.08782Z" fill="url(#paint2_linear_2031_12509)"/>
<path d="M4.01936 43.4574C2.40854 43.3809 0.986917 43.4352 0.507506 43.0239C0.171919 42.7369 0 42.3663 0 41.9455C0 41.735 0.230916 41.224 0.31721 40.9753C1.64997 37.3405 3.70295 32.2806 6.09041 25.7955C8.47788 19.3008 10.3715 14.15 11.7714 10.3431C11.9824 9.78828 12.1168 9.50133 12.9414 9.33872C13.3441 9.2622 14.2958 9.33872 14.7177 9.33872C15.1396 9.33872 15.9087 9.46759 16.5895 9.59193C17.2552 9.84569 17.495 10.0245 18.0799 10.4166C18.3337 10.6704 18.2068 10.9241 18.1433 11.2413C18.0799 11.4316 17.9914 11.7801 17.953 11.8757C17.7709 12.3635 17.6793 12.5852 17.3821 13.3982C17.0849 14.2017 16.7469 14.9672 16.4305 15.8089C16.1237 16.641 15.8263 17.4996 15.6058 18.0927L15.1657 19.3614C16.5895 19.3614 18.1081 18.9264 19.4121 18.4099C20.7257 17.8838 22.2161 16.9028 23.4722 15.7454C24.7378 14.5881 25.9286 12.8659 26.5806 10.9241C26.782 10.3598 26.9517 8.78075 26.9613 8.00598C26.9421 5.80601 24.4439 4.76458 20.9346 4.70719C20.1963 4.68806 18.1274 4.73588 14.7811 4.70719C13.7744 4.69762 12.8491 4.69284 12.0053 4.69284C11.1712 4.68327 10.3817 4.7024 9.95981 4.69284C9.08728 4.66414 8.64639 4.66179 8.50073 4.45343C8.35507 4.24508 8.32701 3.9501 8.31042 3.75561C8.2783 3.37915 8.31855 2.89561 8.50073 2.35997C8.69249 1.81476 8.96698 1.24622 9.38887 0.710575C9.81075 0.165363 10.1353 0.0127544 10.7845 0.0127544C11.5803 0.0127544 12.6679 0.0223181 14.0199 0.0127543C15.717 -0.0159429 17.4668 0.0127544 19.3941 0.0127544H20.3433C21.887 0.0127544 23.2869 0.0318849 24.5429 0.0701459C25.5689 0.0892764 26.7586 0.220225 27.9763 0.583699C29.2036 0.947173 30.4335 1.66326 31.4019 2.67716C32.3704 3.6815 32.8463 4.98581 33.1148 6.92753C33.1531 7.27187 33.2417 7.95969 33.2417 8.32317C33.2417 9.47098 32.9879 10.7973 32.5395 11.9213C32.3046 12.5101 31.781 13.7739 31.1482 14.7304C30.5058 15.6774 29.8159 16.4011 28.9913 17.2045C28.1571 18.008 27.2724 18.6858 26.3903 19.298C25.4986 19.9006 23.478 20.7047 22.7109 21.0108C23.6793 21.2786 25.5001 22.0123 26.2 22.7871C26.9 23.5714 27.5581 24.3863 27.9128 25.5149C28.2101 26.4523 28.3974 27.4311 28.3974 28.5502C28.3974 28.7893 28.3926 29.0285 28.383 29.2676C28.3063 30.6737 28.0139 32.1228 27.5057 33.6149C26.403 36.6184 24.9121 38.8614 23.0328 40.344C21.1535 41.8266 18.8811 42.7783 16.2156 43.1992C14.2883 43.5052 12.1598 43.6583 9.82982 43.6583C8.92852 43.6583 7.99367 43.6344 7.02526 43.5865C6.63215 43.5674 5.63018 43.5244 4.01936 43.4574ZM13.7661 22.6103L7.02526 40.6767C7.86635 40.8036 8.95383 40.6767 10.277 40.6767C10.9386 40.6767 13.2026 40.1198 13.893 39.852C14.9285 39.4407 15.3521 39.2176 16.494 38.5198C17.3187 37.9488 18.5086 37.1361 19.2852 36.0457C20.0523 34.9648 21.0704 33.5654 21.569 32.3028C22.5278 29.902 22.8378 28.4314 22.8378 26.9106C22.8378 26.2762 22.6729 25.7955 22.584 25.3246C22.4306 24.5116 22.14 24.0559 21.7593 23.5484C21.3787 23.0408 20.4906 22.6391 19.7927 22.4065C19.4121 22.2796 18.667 22.1527 18.2068 22.1527C17.9575 22.1527 17.354 22.1145 16.8746 22.1527C16.3952 22.191 15.8219 22.1839 15.3521 22.2796L13.7661 22.6103Z" stroke="url(#paint3_linear_2031_12509)"/>
<path d="M99.5981 1.85246L88.1158 42.5164C87.8722 43.3792 88.691 43.5103 89.1308 43.468L92.493 43.5314C93.6603 43.5314 93.9521 42.5798 94.3962 40.9939L100.74 18.7905C100.571 26.1916 100.232 41.2349 100.232 42.1992C100.232 43.1635 100.782 43.3622 101.057 43.3411H103.912C104.927 43.3411 105.434 42.3684 105.561 41.882L116.663 17.1411C114.95 25.4304 111.486 42.1738 111.334 42.8336C111.182 43.4933 111.651 43.5737 111.905 43.5314C113.089 43.5103 115.648 43.468 116.409 43.468C117.171 43.468 117.488 42.4107 117.551 41.882C120.089 29.0675 125.227 3.17198 125.481 2.10622C125.735 1.04045 125.037 0.858598 124.656 0.90089H120.469C119.645 0.90089 118.947 1.59871 118.439 2.23309C118.033 2.7406 109.854 20.9685 105.815 30.0191C106.048 21.0743 106.5 2.9436 106.449 1.97934C106.399 1.01508 105.836 0.858598 105.561 0.90089H100.677C99.9661 0.90089 99.6616 1.53527 99.5981 1.85246Z" stroke="url(#paint4_linear_2031_12509)"/>
<path d="M48.0862 0.647137C50.6872 0.647145 53.0979 1.28154 54.6204 3.75561C55.8384 5.73487 55.4239 8.00597 55.0644 8.89411C54.7261 9.52849 53.5673 10.7846 51.6388 10.7338C49.7102 10.6831 49.355 8.89411 49.4184 8.00598C49.4819 7.0967 49.2408 5.24009 47.769 5.08782C45.9293 4.8975 43.5525 7.30815 42.8208 8.57692C36.8576 18.9174 35.5254 27.9256 35.3351 30.9072C35.1448 33.8888 34.8276 38.1392 37.9995 38.5198C41.1714 38.9004 45.1681 35.0307 47.9593 31.8588C50.7506 28.6869 51.5119 25.4515 52.2097 23.2312C52.768 21.4549 54.2186 16.9508 54.8741 14.9207C60.4567 1.91591 66.2296 0.964328 70.4165 1.0912C73.766 1.19272 75.7876 4.72834 76.3797 6.48346C81.201 1.21809 83.3198 0.964328 86.9739 0.964328C94.0155 1.78904 93.7618 9.65537 93.7618 11.8123C92.6199 26.0224 87.1008 36.0457 85.0073 38.5198C82.9138 40.9939 79.0441 44.2927 74.0325 43.5314C69.0211 42.7702 68.1328 38.5202 67.9424 38.5198C66.9274 39.7886 61.9792 45.1173 56.1429 43.2777C51.4738 41.8059 50.9409 38.266 50.6872 35.7285C45.0412 41.6282 42.6305 42.8336 38.3802 43.5948C34.1298 44.3561 28.1032 41.0573 29.7526 29.2578C31.402 17.4583 37.7458 6.86409 40.1564 4.45343C42.5671 2.0428 45.4853 0.647137 48.0862 0.647137ZM69.0843 5.08782C67.308 4.8975 64.4533 6.92754 60.7739 15.3648C57.0945 23.8021 54.3032 37.4413 57.8557 38.3295C61.4082 39.2176 65.3414 35.4747 68.1327 26.0224L68.1444 25.9827C68.6325 24.3304 71.616 14.2315 70.924 7.68879C70.9028 6.88524 70.5053 5.2401 69.0843 5.08782ZM85.9503 5.08782C84.1741 4.8975 81.3193 6.92754 77.6399 15.3648C73.9605 23.8021 71.1692 37.4413 74.7217 38.3295C78.2743 39.2176 82.2075 35.4747 84.9987 26.0224L85.0104 25.9827C85.4985 24.3304 88.482 14.2315 87.79 7.68879C87.7689 6.88524 87.3713 5.2401 85.9503 5.08782Z" stroke="url(#paint5_linear_2031_12509)"/>
<path d="M112.368 54.5443C112.368 53.3113 113.339 52.2529 114.626 52.2529C115.739 52.2529 116.699 53.104 116.699 54.3042C116.699 54.3806 116.688 54.5225 116.678 54.5989C116.667 54.708 116.568 54.7843 116.47 54.7843H113.851C113.884 55.079 114.124 55.5045 114.692 55.5045C114.964 55.5045 115.281 55.3736 115.455 55.2426C115.554 55.1662 115.663 55.1662 115.728 55.2426L116.274 55.8973C116.339 55.9846 116.361 56.1155 116.263 56.2137C115.881 56.5956 115.335 56.8357 114.648 56.8357C113.35 56.8357 112.368 55.7991 112.368 54.5443ZM113.993 53.9333H115.161C115.139 53.6496 114.866 53.4204 114.583 53.4204C114.288 53.4204 114.037 53.6496 113.993 53.9333Z" fill="url(#paint6_linear_2031_12509)"/>
<path d="M107.775 54.5443C107.775 53.2568 108.888 52.2529 110.132 52.2529C110.819 52.2529 111.354 52.5366 111.768 53.0385C111.845 53.1367 111.812 53.2568 111.714 53.344L111.059 53.966C111.004 54.0206 110.874 53.9987 110.819 53.9442C110.666 53.7805 110.437 53.6605 110.186 53.6605C109.706 53.6605 109.313 54.0642 109.313 54.5443C109.313 55.0353 109.684 55.4281 110.164 55.4281C110.546 55.4281 110.732 55.2644 110.906 55.0899C110.983 55.0135 111.081 54.9917 111.146 55.0462L111.801 55.6136C111.899 55.7009 111.954 55.81 111.877 55.9191C111.474 56.5302 110.906 56.8357 110.121 56.8357C108.877 56.8357 107.775 55.8537 107.775 54.5443Z" fill="url(#paint7_linear_2031_12509)"/>
<path d="M104.405 56.5193V52.5693C104.405 52.4493 104.503 52.362 104.612 52.362H105.125C105.245 52.362 105.289 52.4275 105.321 52.493L105.518 52.9731C105.736 52.6566 106.14 52.2529 106.707 52.2529C107.307 52.2529 107.733 52.4711 107.58 52.7221L107.045 53.595C107.002 53.6714 106.925 53.7369 106.805 53.6932C106.751 53.6714 106.642 53.6387 106.543 53.6387C106.216 53.6387 105.965 53.8896 105.965 54.2606V56.5193C105.965 56.6502 105.9 56.7266 105.725 56.7266H104.612C104.503 56.7266 104.405 56.6284 104.405 56.5193Z" fill="url(#paint8_linear_2031_12509)"/>
<path d="M99.2824 54.5443C99.2824 53.3113 100.254 52.2529 101.541 52.2529C102.654 52.2529 103.614 53.104 103.614 54.3042C103.614 54.3806 103.603 54.5225 103.592 54.5989C103.581 54.708 103.483 54.7843 103.385 54.7843H100.766C100.799 55.079 101.039 55.5045 101.607 55.5045C101.879 55.5045 102.196 55.3736 102.37 55.2426C102.469 55.1662 102.578 55.1662 102.643 55.2426L103.189 55.8973C103.254 55.9846 103.276 56.1155 103.178 56.2137C102.796 56.5956 102.25 56.8357 101.563 56.8357C100.264 56.8357 99.2824 55.7991 99.2824 54.5443ZM100.908 53.9333H102.076C102.054 53.6496 101.781 53.4204 101.497 53.4204C101.203 53.4204 100.952 53.6496 100.908 53.9333Z" fill="url(#paint9_linear_2031_12509)"/>
<path d="M91.0319 56.5193V52.5693C91.0319 52.4493 91.1192 52.362 91.2393 52.362H91.7412C91.8176 52.362 91.8939 52.4166 91.9267 52.482L92.1122 52.9294C92.385 52.6457 92.8869 52.2529 93.5852 52.2529C94.1963 52.2529 94.6218 52.482 95.0146 52.9185C95.2656 52.6675 95.7784 52.2529 96.5204 52.2529C97.8734 52.2529 98.539 53.3004 98.539 54.5443V56.5193C98.539 56.6284 98.4517 56.7266 98.3317 56.7266H97.1751C97.055 56.7266 96.9677 56.6284 96.9677 56.5193V54.4788C96.9677 54.0424 96.7386 53.6605 96.2367 53.6605C95.8548 53.6605 95.5056 53.9769 95.5056 54.4024V56.5193C95.5056 56.6284 95.4183 56.7266 95.2983 56.7266H94.2508C94.1308 56.7266 94.0435 56.6284 94.0435 56.5193V54.4788C94.0435 54.0424 93.8471 53.6605 93.3561 53.6605C92.9196 53.6605 92.5923 53.9769 92.5923 54.4243V56.5193C92.5923 56.6284 92.4941 56.7266 92.385 56.7266H91.2393C91.1192 56.7266 91.0319 56.6284 91.0319 56.5193Z" fill="url(#paint10_linear_2031_12509)"/>
<path d="M82.4541 56.5193V52.5693C82.4541 52.4493 82.5414 52.362 82.6615 52.362H83.1634C83.2398 52.362 83.3161 52.4166 83.3489 52.482L83.5344 52.9294C83.8072 52.6457 84.3091 52.2529 85.0074 52.2529C85.6185 52.2529 86.044 52.482 86.4368 52.9185C86.6878 52.6675 87.2006 52.2529 87.9426 52.2529C89.2956 52.2529 89.9612 53.3004 89.9612 54.5443V56.5193C89.9612 56.6284 89.8739 56.7266 89.7539 56.7266H88.5973C88.4772 56.7266 88.3899 56.6284 88.3899 56.5193V54.4788C88.3899 54.0424 88.1608 53.6605 87.6589 53.6605C87.277 53.6605 86.9278 53.9769 86.9278 54.4024V56.5193C86.9278 56.6284 86.8405 56.7266 86.7205 56.7266H85.673C85.553 56.7266 85.4657 56.6284 85.4657 56.5193V54.4788C85.4657 54.0424 85.2693 53.6605 84.7783 53.6605C84.3418 53.6605 84.0145 53.9769 84.0145 54.4243V56.5193C84.0145 56.6284 83.9163 56.7266 83.8072 56.7266H82.6615C82.5414 56.7266 82.4541 56.6284 82.4541 56.5193Z" fill="url(#paint11_linear_2031_12509)"/>
<path d="M77.0758 54.5334C77.0758 53.3004 78.1014 52.2529 79.3453 52.2529C80.5892 52.2529 81.6149 53.3004 81.6149 54.5334C81.6149 55.7882 80.5892 56.8357 79.3453 56.8357C78.1014 56.8357 77.0758 55.7882 77.0758 54.5334ZM78.4833 54.5334C78.4833 55.0244 78.8652 55.4281 79.3453 55.4281C79.8254 55.4281 80.2073 55.0244 80.2073 54.5334C80.2073 54.0533 79.8254 53.6605 79.3453 53.6605C78.8652 53.6605 78.4833 54.0533 78.4833 54.5334Z" fill="url(#paint12_linear_2031_12509)"/>
<path d="M70.0461 52.9185C70.0461 50.7362 71.8028 48.9795 73.9851 48.9795C75.0762 48.9795 75.8837 49.3177 76.6256 49.9943C76.7238 50.0815 76.7238 50.2125 76.6366 50.2998L75.7855 51.1836C75.7091 51.26 75.5891 51.26 75.5127 51.1836C75.109 50.8235 74.5743 50.6271 74.0396 50.6271C72.8067 50.6271 71.901 51.6528 71.901 52.8749C71.901 54.086 72.8176 55.0899 74.0506 55.0899C74.5634 55.0899 75.1199 54.9044 75.5127 54.5661C75.5891 54.5007 75.7309 54.5007 75.7964 54.577L76.6475 55.4827C76.7238 55.5591 76.7129 55.7009 76.6366 55.7773C75.8946 56.4974 74.9562 56.8357 73.9851 56.8357C71.8028 56.8357 70.0461 55.1008 70.0461 52.9185Z" fill="url(#paint13_linear_2031_12509)"/>
<path d="M63.5055 56.2792L61.8688 52.6457C61.8033 52.5039 61.8906 52.362 62.0543 52.362H63.2982C63.3855 52.362 63.4509 52.4166 63.4837 52.482L64.3239 54.5116H64.3457L65.2077 52.482C65.2295 52.4166 65.3059 52.362 65.3932 52.362H66.6262C66.7898 52.362 66.888 52.5039 66.8117 52.6457L63.4728 59.8691C63.44 59.9345 63.3746 60 63.2873 60H62.0652C61.9015 60 61.8033 59.8581 61.8797 59.7054L63.5055 56.2792Z" fill="url(#paint14_linear_2031_12509)"/>
<path d="M58.8163 55.319V53.7478H58.5326C58.4235 53.7478 58.3362 53.6496 58.3362 53.5405V52.5693C58.3362 52.4493 58.4235 52.362 58.5326 52.362H58.8163V51.1509C58.8163 51.0417 58.9145 50.9435 59.0236 50.9435H60.1911C60.3003 50.9435 60.3875 51.0417 60.3875 51.1509V52.362H61.195C61.315 52.362 61.4023 52.4493 61.4023 52.5693V53.5405C61.4023 53.6496 61.315 53.7478 61.195 53.7478H60.3875V55.1117C60.3875 55.3517 60.5512 55.3736 60.6822 55.3736C60.8349 55.3736 60.9986 55.319 61.1077 55.2972C61.2168 55.2754 61.315 55.319 61.3477 55.439L61.5878 56.3447C61.6096 56.4429 61.5551 56.5629 61.4459 56.5956C61.4459 56.5956 60.6712 56.8357 60.1257 56.8357C59.2964 56.8357 58.8163 56.3119 58.8163 55.319Z" fill="url(#paint15_linear_2031_12509)"/>
<path d="M52.9813 54.5443V52.5693C52.9813 52.4493 53.0795 52.362 53.1886 52.362H54.3561C54.4653 52.362 54.5635 52.4493 54.5635 52.5693V54.5879C54.5635 55.0353 54.8144 55.4281 55.2618 55.4281C55.6873 55.4281 55.9165 55.0244 55.9165 54.6534V52.5693C55.9165 52.3948 56.0365 52.362 56.1456 52.362H57.2586C57.3677 52.362 57.4659 52.4493 57.4659 52.5693V56.5193C57.4659 56.6284 57.3677 56.7266 57.2586 56.7266H56.7457C56.6475 56.7266 56.5712 56.6502 56.5384 56.5738L56.3747 56.1701C56.0911 56.4429 55.7419 56.8357 54.9017 56.8357C53.6033 56.8357 52.9813 55.7882 52.9813 54.5443Z" fill="url(#paint16_linear_2031_12509)"/>
<path d="M48.107 55.3954C48.107 54.5552 48.7181 53.9333 49.711 53.9333C50.202 53.9333 50.5512 54.1078 50.5512 54.1078C50.5512 53.6823 50.4857 53.4641 49.962 53.4641C49.6674 53.4641 49.1545 53.5404 48.8708 53.6277C48.7072 53.6823 48.6308 53.5623 48.609 53.3986L48.5107 52.7112C48.478 52.5257 48.5762 52.4493 48.6744 52.4166C48.7726 52.3838 49.5364 52.2529 50.1256 52.2529C51.4786 52.2529 51.9697 52.8203 51.9697 54.1078V56.5193C51.9697 56.6284 51.8715 56.7266 51.7623 56.7266H51.2822C51.2168 56.7266 51.1404 56.7048 51.0858 56.5847L50.9331 56.2901C50.6821 56.5193 50.3002 56.8357 49.6128 56.8357C48.7508 56.8357 48.107 56.2574 48.107 55.3954ZM49.5255 55.2863C49.5255 55.5481 49.7328 55.7664 49.9947 55.7664C50.2566 55.7664 50.4748 55.5481 50.4748 55.2863C50.4639 55.0353 50.2566 54.828 49.9947 54.828C49.7328 54.828 49.5255 55.0353 49.5255 55.2863Z" fill="url(#paint17_linear_2031_12509)"/>
<path d="M43.2793 54.5443C43.2793 53.3113 44.2504 52.2529 45.5379 52.2529C46.6509 52.2529 47.6111 53.104 47.6111 54.3042C47.6111 54.3806 47.6002 54.5225 47.5893 54.5989C47.5784 54.708 47.4802 54.7843 47.382 54.7843H44.7632C44.796 55.079 45.036 55.5045 45.6034 55.5045C45.8762 55.5045 46.1926 55.3736 46.3672 55.2426C46.4654 55.1662 46.5745 55.1662 46.64 55.2426L47.1856 55.8973C47.251 55.9846 47.2728 56.1155 47.1746 56.2137C46.7927 56.5956 46.2472 56.8357 45.5598 56.8357C44.2613 56.8357 43.2793 55.7991 43.2793 54.5443ZM44.9051 53.9333H46.0726C46.0508 53.6496 45.778 53.4204 45.4943 53.4204C45.1997 53.4204 44.9487 53.6496 44.9051 53.9333Z" fill="url(#paint18_linear_2031_12509)"/>
<path d="M37.4026 56.5193V49.2959C37.4026 49.1868 37.4899 49.0886 37.6099 49.0886H40.1522C41.4398 49.0886 42.4982 49.9724 42.4982 51.1181C42.4982 51.9583 41.7453 52.5693 41.2325 52.8421C41.8108 53.0822 42.6946 53.6168 42.6946 54.6207C42.6946 55.8428 41.6144 56.7266 40.3159 56.7266H37.6099C37.4899 56.7266 37.4026 56.6284 37.4026 56.5193ZM39.1047 52.1874H39.9558C40.3705 52.1874 40.7196 51.8383 40.7196 51.4018C40.7196 50.9654 40.3705 50.6598 39.9558 50.6598H39.1047V52.1874ZM39.1047 55.1662H40.0977C40.5232 55.1662 40.8833 54.8171 40.8833 54.3697C40.8833 53.9333 40.4141 53.6059 39.9886 53.6059H39.1047V55.1662Z" fill="url(#paint19_linear_2031_12509)"/>
<path d="M28.6397 54.5443C28.6397 53.0058 29.6435 52.2529 30.811 52.2529C31.182 52.2529 31.5857 52.3838 31.7167 52.4602V49.2959C31.7167 49.1868 31.8149 49.0886 31.924 49.0886H33.1351C33.2443 49.0886 33.3425 49.1868 33.3425 49.2959V56.5193C33.3425 56.6284 33.2443 56.7266 33.1351 56.7266H32.6223C32.5132 56.7266 32.4368 56.6284 32.3932 56.5083L32.2622 56.1483C32.2622 56.1483 31.7603 56.8357 30.8001 56.8357C29.5671 56.8357 28.6397 55.7991 28.6397 54.5443ZM30.1345 54.5334C30.1345 55.0353 30.5164 55.4281 31.0183 55.4281C31.5203 55.4281 31.8912 55.0353 31.8912 54.5334C31.8912 54.0424 31.5203 53.6605 31.0183 53.6605C30.5164 53.6605 30.1345 54.0424 30.1345 54.5334Z" fill="url(#paint20_linear_2031_12509)"/>
<path d="M23.1914 56.5193V52.5693C23.1914 52.4493 23.2896 52.362 23.3987 52.362H23.9115C23.977 52.362 24.0752 52.4166 24.108 52.493L24.2825 52.9294C24.5226 52.6675 25.0245 52.2529 25.821 52.2529C27.1741 52.2529 27.8942 53.2895 27.8942 54.5334V56.5193C27.8942 56.6284 27.796 56.7266 27.6869 56.7266H26.5194C26.3993 56.7266 26.3121 56.6284 26.3121 56.5193V54.4788C26.3121 54.0424 26.0611 53.6605 25.5701 53.6605C25.1336 53.6605 24.7408 53.9769 24.7408 54.4243V56.5193C24.7408 56.6175 24.6972 56.7266 24.5444 56.7266H23.3987C23.2896 56.7266 23.1914 56.6284 23.1914 56.5193Z" fill="url(#paint21_linear_2031_12509)"/>
<path d="M17.813 54.5334C17.813 53.3004 18.8387 52.2529 20.0826 52.2529C21.3265 52.2529 22.3522 53.3004 22.3522 54.5334C22.3522 55.7882 21.3265 56.8357 20.0826 56.8357C18.8387 56.8357 17.813 55.7882 17.813 54.5334ZM19.2206 54.5334C19.2206 55.0244 19.6025 55.4281 20.0826 55.4281C20.5627 55.4281 20.9446 55.0244 20.9446 54.5334C20.9446 54.0533 20.5627 53.6605 20.0826 53.6605C19.6025 53.6605 19.2206 54.0533 19.2206 54.5334Z" fill="url(#paint22_linear_2031_12509)"/>
<path d="M14.1922 56.2792L12.5554 52.6457C12.49 52.5039 12.5773 52.362 12.7409 52.362H13.9848C14.0721 52.362 14.1376 52.4166 14.1703 52.482L15.0105 54.5116H15.0323L15.8943 52.482C15.9161 52.4166 15.9925 52.362 16.0798 52.362H17.3128C17.4765 52.362 17.5747 52.5039 17.4983 52.6457L14.1594 59.8691C14.1267 59.9345 14.0612 60 13.9739 60H12.7518C12.5882 60 12.49 59.8581 12.5664 59.7054L14.1922 56.2792Z" fill="url(#paint23_linear_2031_12509)"/>
<path d="M7.95679 54.5443C7.95679 53.3113 8.92791 52.2529 10.2154 52.2529C11.3284 52.2529 12.2886 53.104 12.2886 54.3042C12.2886 54.3806 12.2777 54.5225 12.2668 54.5989C12.2559 54.708 12.1577 54.7843 12.0595 54.7843H9.44074C9.47347 55.079 9.71353 55.5045 10.2809 55.5045C10.5537 55.5045 10.8701 55.3736 11.0447 55.2426C11.1429 55.1662 11.252 55.1662 11.3175 55.2426L11.8631 55.8973C11.9285 55.9846 11.9504 56.1155 11.8522 56.2137C11.4703 56.5956 10.9247 56.8357 10.2373 56.8357C8.93882 56.8357 7.95679 55.7991 7.95679 54.5443ZM9.58259 53.9333H10.7501C10.7283 53.6496 10.4555 53.4204 10.1718 53.4204C9.8772 53.4204 9.62623 53.6496 9.58259 53.9333Z" fill="url(#paint24_linear_2031_12509)"/>
<path d="M2.08008 56.5193V49.2959C2.08008 49.1868 2.16737 49.0886 2.28739 49.0886H4.82975C6.11729 49.0886 7.17569 49.9724 7.17569 51.1181C7.17569 51.9583 6.42281 52.5693 5.90997 52.8421C6.48828 53.0822 7.3721 53.6168 7.3721 54.6207C7.3721 55.8428 6.29187 56.7266 4.99342 56.7266H2.28739C2.16737 56.7266 2.08008 56.6284 2.08008 56.5193ZM3.78225 52.1874H4.63334C5.04797 52.1874 5.39714 51.8383 5.39714 51.4018C5.39714 50.9654 5.04797 50.6598 4.63334 50.6598H3.78225V52.1874ZM3.78225 55.1662H4.77519C5.20073 55.1662 5.56081 54.8171 5.56081 54.3697C5.56081 53.9333 5.09162 53.6059 4.66608 53.6059H3.78225V55.1662Z" fill="url(#paint25_linear_2031_12509)"/>
<defs>
<linearGradient id="paint0_linear_2031_12509" x1="0" y1="21.8492" x2="125.535" y2="21.8492" gradientUnits="userSpaceOnUse">
<stop stop-color="#E10600"/>
<stop offset="0.5" stop-color="#FA4616"/>
<stop offset="1" stop-color="#E0004D"/>
</linearGradient>
<linearGradient id="paint1_linear_2031_12509" x1="0" y1="21.8492" x2="125.535" y2="21.8492" gradientUnits="userSpaceOnUse">
<stop stop-color="#E10600"/>
<stop offset="0.5" stop-color="#FA4616"/>
<stop offset="1" stop-color="#E0004D"/>
</linearGradient>
<linearGradient id="paint2_linear_2031_12509" x1="0" y1="21.8492" x2="125.535" y2="21.8492" gradientUnits="userSpaceOnUse">
<stop stop-color="#E10600"/>
<stop offset="0.5" stop-color="#FA4616"/>
<stop offset="1" stop-color="#E0004D"/>
</linearGradient>
<linearGradient id="paint3_linear_2031_12509" x1="0" y1="21.8492" x2="125.535" y2="21.8492" gradientUnits="userSpaceOnUse">
<stop stop-color="#D3D3D3"/>
<stop offset="1" stop-color="white" stop-opacity="0"/>
</linearGradient>
<linearGradient id="paint4_linear_2031_12509" x1="0" y1="21.8492" x2="125.535" y2="21.8492" gradientUnits="userSpaceOnUse">
<stop stop-color="#D3D3D3"/>
<stop offset="1" stop-color="white" stop-opacity="0"/>
</linearGradient>
<linearGradient id="paint5_linear_2031_12509" x1="0" y1="21.8492" x2="125.535" y2="21.8492" gradientUnits="userSpaceOnUse">
<stop stop-color="#D3D3D3"/>
<stop offset="1" stop-color="white" stop-opacity="0"/>
</linearGradient>
<linearGradient id="paint6_linear_2031_12509" x1="2.08008" y1="54.4897" x2="116.699" y2="54.4897" gradientUnits="userSpaceOnUse">
<stop stop-color="#E10600"/>
<stop offset="0.5" stop-color="#FA4616"/>
<stop offset="1" stop-color="#E0004D"/>
</linearGradient>
<linearGradient id="paint7_linear_2031_12509" x1="2.08008" y1="54.4897" x2="116.699" y2="54.4897" gradientUnits="userSpaceOnUse">
<stop stop-color="#E10600"/>
<stop offset="0.5" stop-color="#FA4616"/>
<stop offset="1" stop-color="#E0004D"/>
</linearGradient>
<linearGradient id="paint8_linear_2031_12509" x1="2.08008" y1="54.4897" x2="116.699" y2="54.4897" gradientUnits="userSpaceOnUse">
<stop stop-color="#E10600"/>
<stop offset="0.5" stop-color="#FA4616"/>
<stop offset="1" stop-color="#E0004D"/>
</linearGradient>
<linearGradient id="paint9_linear_2031_12509" x1="2.08008" y1="54.4897" x2="116.699" y2="54.4897" gradientUnits="userSpaceOnUse">
<stop stop-color="#E10600"/>
<stop offset="0.5" stop-color="#FA4616"/>
<stop offset="1" stop-color="#E0004D"/>
</linearGradient>
<linearGradient id="paint10_linear_2031_12509" x1="2.08008" y1="54.4897" x2="116.699" y2="54.4897" gradientUnits="userSpaceOnUse">
<stop stop-color="#E10600"/>
<stop offset="0.5" stop-color="#FA4616"/>
<stop offset="1" stop-color="#E0004D"/>
</linearGradient>
<linearGradient id="paint11_linear_2031_12509" x1="2.08008" y1="54.4897" x2="116.699" y2="54.4897" gradientUnits="userSpaceOnUse">
<stop stop-color="#E10600"/>
<stop offset="0.5" stop-color="#FA4616"/>
<stop offset="1" stop-color="#E0004D"/>
</linearGradient>
<linearGradient id="paint12_linear_2031_12509" x1="2.08008" y1="54.4897" x2="116.699" y2="54.4897" gradientUnits="userSpaceOnUse">
<stop stop-color="#E10600"/>
<stop offset="0.5" stop-color="#FA4616"/>
<stop offset="1" stop-color="#E0004D"/>
</linearGradient>
<linearGradient id="paint13_linear_2031_12509" x1="2.08008" y1="54.4897" x2="116.699" y2="54.4897" gradientUnits="userSpaceOnUse">
<stop stop-color="#E10600"/>
<stop offset="0.5" stop-color="#FA4616"/>
<stop offset="1" stop-color="#E0004D"/>
</linearGradient>
<linearGradient id="paint14_linear_2031_12509" x1="2.08008" y1="54.4897" x2="116.699" y2="54.4897" gradientUnits="userSpaceOnUse">
<stop stop-color="#E10600"/>
<stop offset="0.5" stop-color="#FA4616"/>
<stop offset="1" stop-color="#E0004D"/>
</linearGradient>
<linearGradient id="paint15_linear_2031_12509" x1="2.08008" y1="54.4897" x2="116.699" y2="54.4897" gradientUnits="userSpaceOnUse">
<stop stop-color="#E10600"/>
<stop offset="0.5" stop-color="#FA4616"/>
<stop offset="1" stop-color="#E0004D"/>
</linearGradient>
<linearGradient id="paint16_linear_2031_12509" x1="2.08008" y1="54.4897" x2="116.699" y2="54.4897" gradientUnits="userSpaceOnUse">
<stop stop-color="#E10600"/>
<stop offset="0.5" stop-color="#FA4616"/>
<stop offset="1" stop-color="#E0004D"/>
</linearGradient>
<linearGradient id="paint17_linear_2031_12509" x1="2.08008" y1="54.4897" x2="116.699" y2="54.4897" gradientUnits="userSpaceOnUse">
<stop stop-color="#E10600"/>
<stop offset="0.5" stop-color="#FA4616"/>
<stop offset="1" stop-color="#E0004D"/>
</linearGradient>
<linearGradient id="paint18_linear_2031_12509" x1="2.08008" y1="54.4897" x2="116.699" y2="54.4897" gradientUnits="userSpaceOnUse">
<stop stop-color="#E10600"/>
<stop offset="0.5" stop-color="#FA4616"/>
<stop offset="1" stop-color="#E0004D"/>
</linearGradient>
<linearGradient id="paint19_linear_2031_12509" x1="2.08008" y1="54.4897" x2="116.699" y2="54.4897" gradientUnits="userSpaceOnUse">
<stop stop-color="#E10600"/>
<stop offset="0.5" stop-color="#FA4616"/>
<stop offset="1" stop-color="#E0004D"/>
</linearGradient>
<linearGradient id="paint20_linear_2031_12509" x1="2.08008" y1="54.4897" x2="116.699" y2="54.4897" gradientUnits="userSpaceOnUse">
<stop stop-color="#E10600"/>
<stop offset="0.5" stop-color="#FA4616"/>
<stop offset="1" stop-color="#E0004D"/>
</linearGradient>
<linearGradient id="paint21_linear_2031_12509" x1="2.08008" y1="54.4897" x2="116.699" y2="54.4897" gradientUnits="userSpaceOnUse">
<stop stop-color="#E10600"/>
<stop offset="0.5" stop-color="#FA4616"/>
<stop offset="1" stop-color="#E0004D"/>
</linearGradient>
<linearGradient id="paint22_linear_2031_12509" x1="2.08008" y1="54.4897" x2="116.699" y2="54.4897" gradientUnits="userSpaceOnUse">
<stop stop-color="#E10600"/>
<stop offset="0.5" stop-color="#FA4616"/>
<stop offset="1" stop-color="#E0004D"/>
</linearGradient>
<linearGradient id="paint23_linear_2031_12509" x1="2.08008" y1="54.4897" x2="116.699" y2="54.4897" gradientUnits="userSpaceOnUse">
<stop stop-color="#E10600"/>
<stop offset="0.5" stop-color="#FA4616"/>
<stop offset="1" stop-color="#E0004D"/>
</linearGradient>
<linearGradient id="paint24_linear_2031_12509" x1="2.08008" y1="54.4897" x2="116.699" y2="54.4897" gradientUnits="userSpaceOnUse">
<stop stop-color="#E10600"/>
<stop offset="0.5" stop-color="#FA4616"/>
<stop offset="1" stop-color="#E0004D"/>
</linearGradient>
<linearGradient id="paint25_linear_2031_12509" x1="2.08008" y1="54.4897" x2="116.699" y2="54.4897" gradientUnits="userSpaceOnUse">
<stop stop-color="#E10600"/>
<stop offset="0.5" stop-color="#FA4616"/>
<stop offset="1" stop-color="#E0004D"/>
</linearGradient>
</defs>
</svg>
