<svg width="16" height="16" viewBox="0 0 16 16" fill="none" xmlns="http://www.w3.org/2000/svg">
<path d="M8.75734 9.84668H7.1164C6.51813 9.84711 5.94448 10.085 5.52144 10.508C5.0984 10.9311 4.86054 11.5047 4.86011 12.103V15.3849C4.86011 15.7245 5.13579 16.0002 5.47546 16.0002H10.3983C10.5615 16.0002 10.718 15.9354 10.8334 15.82C10.9488 15.7046 11.0136 15.5481 11.0136 15.3849V12.103C11.0132 11.5047 10.7753 10.9311 10.3523 10.508C9.92926 10.085 9.35562 9.84711 8.75734 9.84668ZM9.78293 14.7695H6.09081V12.103C6.09081 11.5377 6.5511 11.0774 7.1164 11.0774H8.75734C9.32265 11.0774 9.78293 11.5377 9.78293 12.103V14.7695Z" fill="#E0004D"/>
<path d="M15.7756 5.52259L14.6179 1.61469C14.4777 1.14949 14.192 0.741549 13.8027 0.450886C13.4133 0.160222 12.941 0.00217724 12.4551 0H3.41848C2.42653 0 1.53714 0.664581 1.2549 1.61551L0.0980351 5.51931C-0.13662 6.31106 0.0570115 7.14302 0.603445 7.69273C0.649391 7.73868 0.707645 7.77314 0.757693 7.8158V13.7429C0.758128 14.3412 0.995984 14.9148 1.41903 15.3378C1.84207 15.7609 2.41571 15.9987 3.01399 15.9992H12.8596C13.4579 15.9987 14.0316 15.7609 14.4546 15.3378C14.8776 14.9148 15.1155 14.3412 15.1159 13.7429V7.8158C15.1652 7.77314 15.2242 7.73868 15.2702 7.69273C15.8166 7.14384 16.0102 6.31188 15.7764 5.52177L15.7756 5.52259ZM12.4551 1.23153C12.913 1.23153 13.3084 1.52608 13.4381 1.96503L14.5958 5.87293C14.7016 6.23147 14.6261 6.59658 14.3972 6.8255C14.0485 7.17666 13.4733 7.38588 12.8596 7.38588C11.8587 7.38588 11.0136 6.82221 11.0136 6.15517C11.0134 6.12497 11.0112 6.09482 11.007 6.06492L10.2907 1.23235L12.4551 1.23153ZM6.82672 1.23153H9.04691L9.77959 6.1765C9.76072 6.8337 8.9263 7.38506 7.93681 7.38506C6.94733 7.38506 6.11373 6.83452 6.09404 6.1765L6.82672 1.23153ZM1.27869 5.86883L2.43556 1.96503C2.49928 1.75358 2.62914 1.56814 2.80606 1.43596C2.98299 1.30379 3.19764 1.23185 3.41848 1.23071H5.58288L4.86661 6.06328C4.86239 6.09318 4.86019 6.12333 4.86005 6.15353C4.86005 6.82057 4.01496 7.38424 3.01399 7.38424C2.40028 7.38424 1.82513 7.17502 1.47643 6.82385C1.25162 6.59823 1.17367 6.22327 1.27869 5.86801V5.86883ZM13.8852 13.7437C13.8852 14.309 13.4249 14.7693 12.8596 14.7693H3.01399C2.44868 14.7693 1.9884 14.309 1.9884 13.7437V8.46233C2.32164 8.56012 2.66672 8.61174 3.01399 8.61576C4.03629 8.61576 4.91994 8.23178 5.47704 7.6353C6.03332 8.23096 6.91533 8.61576 7.93681 8.61576C8.9583 8.61576 9.84031 8.23096 10.3966 7.6353C10.9529 8.23178 11.8373 8.61576 12.8596 8.61576C13.2069 8.61174 13.552 8.56012 13.8852 8.46233V13.7437Z" fill="#363636"/>
</svg>
